G04 #@! TF.GenerationSoftware,KiCad,Pcbnew,8.0.1*
G04 #@! TF.CreationDate,2024-04-13T19:32:52-07:00*
G04 #@! TF.ProjectId,strellpad,73747265-6c6c-4706-9164-2e6b69636164,rev?*
G04 #@! TF.SameCoordinates,Original*
G04 #@! TF.FileFunction,Soldermask,Bot*
G04 #@! TF.FilePolarity,Negative*
%FSLAX46Y46*%
G04 Gerber Fmt 4.6, Leading zero omitted, Abs format (unit mm)*
G04 Created by KiCad (PCBNEW 8.0.1) date 2024-04-13 19:32:52*
%MOMM*%
%LPD*%
G01*
G04 APERTURE LIST*
G04 Aperture macros list*
%AMRoundRect*
0 Rectangle with rounded corners*
0 $1 Rounding radius*
0 $2 $3 $4 $5 $6 $7 $8 $9 X,Y pos of 4 corners*
0 Add a 4 corners polygon primitive as box body*
4,1,4,$2,$3,$4,$5,$6,$7,$8,$9,$2,$3,0*
0 Add four circle primitives for the rounded corners*
1,1,$1+$1,$2,$3*
1,1,$1+$1,$4,$5*
1,1,$1+$1,$6,$7*
1,1,$1+$1,$8,$9*
0 Add four rect primitives between the rounded corners*
20,1,$1+$1,$2,$3,$4,$5,0*
20,1,$1+$1,$4,$5,$6,$7,0*
20,1,$1+$1,$6,$7,$8,$9,0*
20,1,$1+$1,$8,$9,$2,$3,0*%
G04 Aperture macros list end*
%ADD10RoundRect,0.102000X-1.608000X-1.608000X1.608000X-1.608000X1.608000X1.608000X-1.608000X1.608000X0*%
%ADD11C,2.154000*%
%ADD12C,1.750000*%
%ADD13C,3.200000*%
%ADD14C,1.600000*%
%ADD15R,1.600000X1.600000*%
%ADD16RoundRect,0.300000X0.000000X-0.707107X0.707107X0.000000X0.000000X0.707107X-0.707107X0.000000X0*%
%ADD17R,1.700000X1.700000*%
%ADD18O,1.700000X1.700000*%
%ADD19RoundRect,0.150000X-0.587500X-0.150000X0.587500X-0.150000X0.587500X0.150000X-0.587500X0.150000X0*%
G04 APERTURE END LIST*
D10*
X94350000Y-100750000D03*
X111150000Y-100750000D03*
D11*
X97750000Y-111250000D03*
X102750000Y-111250000D03*
X107750000Y-111250000D03*
X100250000Y-93850000D03*
X105250000Y-93750000D03*
D12*
X101630000Y-141000000D03*
X111790000Y-141000000D03*
D13*
X178710000Y-93500000D03*
D12*
X120630000Y-141000000D03*
X130790000Y-141000000D03*
X139630000Y-141000000D03*
X149790000Y-141000000D03*
X158630000Y-141000000D03*
X168790000Y-141000000D03*
D14*
X131830000Y-90090000D03*
X131830000Y-92630000D03*
X131830000Y-95170000D03*
X131830000Y-97710000D03*
X131830000Y-100250000D03*
X131830000Y-102790000D03*
X131830000Y-105330000D03*
X131830000Y-107870000D03*
X131830000Y-110410000D03*
X129290000Y-110410000D03*
X126750000Y-110410000D03*
X124210000Y-110410000D03*
X121670000Y-110410000D03*
X119130000Y-110410000D03*
X116590000Y-110410000D03*
X116590000Y-107870000D03*
X116590000Y-105330000D03*
X116590000Y-102790000D03*
X116590000Y-100250000D03*
X116590000Y-97710000D03*
D15*
X116590000Y-92630000D03*
D16*
X116590000Y-95170000D03*
X116590000Y-90090000D03*
D17*
X135710000Y-100810000D03*
D18*
X135710000Y-98270000D03*
X135710000Y-95730000D03*
X135710000Y-93190000D03*
D13*
X178710000Y-151250000D03*
X91710000Y-93500000D03*
X91710000Y-151250000D03*
D19*
X124772500Y-141950000D03*
X124772500Y-140050000D03*
X126647500Y-141000000D03*
X105772500Y-141950000D03*
X105772500Y-140050000D03*
X107647500Y-141000000D03*
X143772500Y-141950000D03*
X143772500Y-140050000D03*
X145647500Y-141000000D03*
X162772500Y-141950000D03*
X162772500Y-140050000D03*
X164647500Y-141000000D03*
M02*
