G04 #@! TF.GenerationSoftware,KiCad,Pcbnew,8.0.1*
G04 #@! TF.CreationDate,2024-04-13T19:32:52-07:00*
G04 #@! TF.ProjectId,strellpad,73747265-6c6c-4706-9164-2e6b69636164,rev?*
G04 #@! TF.SameCoordinates,Original*
G04 #@! TF.FileFunction,Legend,Top*
G04 #@! TF.FilePolarity,Positive*
%FSLAX46Y46*%
G04 Gerber Fmt 4.6, Leading zero omitted, Abs format (unit mm)*
G04 Created by KiCad (PCBNEW 8.0.1) date 2024-04-13 19:32:52*
%MOMM*%
%LPD*%
G01*
G04 APERTURE LIST*
G04 Aperture macros list*
%AMRoundRect*
0 Rectangle with rounded corners*
0 $1 Rounding radius*
0 $2 $3 $4 $5 $6 $7 $8 $9 X,Y pos of 4 corners*
0 Add a 4 corners polygon primitive as box body*
4,1,4,$2,$3,$4,$5,$6,$7,$8,$9,$2,$3,0*
0 Add four circle primitives for the rounded corners*
1,1,$1+$1,$2,$3*
1,1,$1+$1,$4,$5*
1,1,$1+$1,$6,$7*
1,1,$1+$1,$8,$9*
0 Add four rect primitives between the rounded corners*
20,1,$1+$1,$2,$3,$4,$5,0*
20,1,$1+$1,$4,$5,$6,$7,0*
20,1,$1+$1,$6,$7,$8,$9,0*
20,1,$1+$1,$8,$9,$2,$3,0*%
G04 Aperture macros list end*
%ADD10C,0.150000*%
%ADD11C,0.100000*%
%ADD12C,0.120000*%
%ADD13C,0.040000*%
%ADD14RoundRect,0.140000X0.140000X0.170000X-0.140000X0.170000X-0.140000X-0.170000X0.140000X-0.170000X0*%
%ADD15R,1.500000X0.900000*%
%ADD16R,0.900000X1.500000*%
%ADD17RoundRect,0.102000X-1.608000X-1.608000X1.608000X-1.608000X1.608000X1.608000X-1.608000X1.608000X0*%
%ADD18C,2.154000*%
%ADD19C,1.750000*%
%ADD20RoundRect,0.140000X-0.140000X-0.170000X0.140000X-0.170000X0.140000X0.170000X-0.140000X0.170000X0*%
%ADD21RoundRect,0.135000X-0.135000X-0.185000X0.135000X-0.185000X0.135000X0.185000X-0.135000X0.185000X0*%
%ADD22R,1.550000X1.300000*%
%ADD23C,3.200000*%
%ADD24RoundRect,0.225000X-0.225000X-0.250000X0.225000X-0.250000X0.225000X0.250000X-0.225000X0.250000X0*%
%ADD25C,1.600000*%
%ADD26R,1.600000X1.600000*%
%ADD27RoundRect,0.300000X0.000000X-0.707107X0.707107X0.000000X0.000000X0.707107X-0.707107X0.000000X0*%
%ADD28R,1.700000X1.700000*%
%ADD29O,1.700000X1.700000*%
G04 APERTURE END LIST*
D10*
X95500000Y-93900000D02*
X110000000Y-93900000D01*
X110000000Y-111200000D01*
X95500000Y-111200000D01*
X95500000Y-93900000D01*
X139100000Y-91000000D02*
X167100000Y-91000000D01*
X167100000Y-100000000D01*
X139100000Y-100000000D01*
X139100000Y-91000000D01*
X100261905Y-154454819D02*
X100261905Y-153454819D01*
X100261905Y-153454819D02*
X100500000Y-153454819D01*
X100500000Y-153454819D02*
X100642857Y-153502438D01*
X100642857Y-153502438D02*
X100738095Y-153597676D01*
X100738095Y-153597676D02*
X100785714Y-153692914D01*
X100785714Y-153692914D02*
X100833333Y-153883390D01*
X100833333Y-153883390D02*
X100833333Y-154026247D01*
X100833333Y-154026247D02*
X100785714Y-154216723D01*
X100785714Y-154216723D02*
X100738095Y-154311961D01*
X100738095Y-154311961D02*
X100642857Y-154407200D01*
X100642857Y-154407200D02*
X100500000Y-154454819D01*
X100500000Y-154454819D02*
X100261905Y-154454819D01*
X101166667Y-153454819D02*
X101785714Y-153454819D01*
X101785714Y-153454819D02*
X101452381Y-153835771D01*
X101452381Y-153835771D02*
X101595238Y-153835771D01*
X101595238Y-153835771D02*
X101690476Y-153883390D01*
X101690476Y-153883390D02*
X101738095Y-153931009D01*
X101738095Y-153931009D02*
X101785714Y-154026247D01*
X101785714Y-154026247D02*
X101785714Y-154264342D01*
X101785714Y-154264342D02*
X101738095Y-154359580D01*
X101738095Y-154359580D02*
X101690476Y-154407200D01*
X101690476Y-154407200D02*
X101595238Y-154454819D01*
X101595238Y-154454819D02*
X101309524Y-154454819D01*
X101309524Y-154454819D02*
X101214286Y-154407200D01*
X101214286Y-154407200D02*
X101166667Y-154359580D01*
X134261905Y-154454819D02*
X134261905Y-153454819D01*
X134261905Y-153454819D02*
X134500000Y-153454819D01*
X134500000Y-153454819D02*
X134642857Y-153502438D01*
X134642857Y-153502438D02*
X134738095Y-153597676D01*
X134738095Y-153597676D02*
X134785714Y-153692914D01*
X134785714Y-153692914D02*
X134833333Y-153883390D01*
X134833333Y-153883390D02*
X134833333Y-154026247D01*
X134833333Y-154026247D02*
X134785714Y-154216723D01*
X134785714Y-154216723D02*
X134738095Y-154311961D01*
X134738095Y-154311961D02*
X134642857Y-154407200D01*
X134642857Y-154407200D02*
X134500000Y-154454819D01*
X134500000Y-154454819D02*
X134261905Y-154454819D01*
X135690476Y-153454819D02*
X135500000Y-153454819D01*
X135500000Y-153454819D02*
X135404762Y-153502438D01*
X135404762Y-153502438D02*
X135357143Y-153550057D01*
X135357143Y-153550057D02*
X135261905Y-153692914D01*
X135261905Y-153692914D02*
X135214286Y-153883390D01*
X135214286Y-153883390D02*
X135214286Y-154264342D01*
X135214286Y-154264342D02*
X135261905Y-154359580D01*
X135261905Y-154359580D02*
X135309524Y-154407200D01*
X135309524Y-154407200D02*
X135404762Y-154454819D01*
X135404762Y-154454819D02*
X135595238Y-154454819D01*
X135595238Y-154454819D02*
X135690476Y-154407200D01*
X135690476Y-154407200D02*
X135738095Y-154359580D01*
X135738095Y-154359580D02*
X135785714Y-154264342D01*
X135785714Y-154264342D02*
X135785714Y-154026247D01*
X135785714Y-154026247D02*
X135738095Y-153931009D01*
X135738095Y-153931009D02*
X135690476Y-153883390D01*
X135690476Y-153883390D02*
X135595238Y-153835771D01*
X135595238Y-153835771D02*
X135404762Y-153835771D01*
X135404762Y-153835771D02*
X135309524Y-153883390D01*
X135309524Y-153883390D02*
X135261905Y-153931009D01*
X135261905Y-153931009D02*
X135214286Y-154026247D01*
X124761905Y-148954819D02*
X124761905Y-147954819D01*
X124761905Y-147954819D02*
X125000000Y-147954819D01*
X125000000Y-147954819D02*
X125142857Y-148002438D01*
X125142857Y-148002438D02*
X125238095Y-148097676D01*
X125238095Y-148097676D02*
X125285714Y-148192914D01*
X125285714Y-148192914D02*
X125333333Y-148383390D01*
X125333333Y-148383390D02*
X125333333Y-148526247D01*
X125333333Y-148526247D02*
X125285714Y-148716723D01*
X125285714Y-148716723D02*
X125238095Y-148811961D01*
X125238095Y-148811961D02*
X125142857Y-148907200D01*
X125142857Y-148907200D02*
X125000000Y-148954819D01*
X125000000Y-148954819D02*
X124761905Y-148954819D01*
X126238095Y-147954819D02*
X125761905Y-147954819D01*
X125761905Y-147954819D02*
X125714286Y-148431009D01*
X125714286Y-148431009D02*
X125761905Y-148383390D01*
X125761905Y-148383390D02*
X125857143Y-148335771D01*
X125857143Y-148335771D02*
X126095238Y-148335771D01*
X126095238Y-148335771D02*
X126190476Y-148383390D01*
X126190476Y-148383390D02*
X126238095Y-148431009D01*
X126238095Y-148431009D02*
X126285714Y-148526247D01*
X126285714Y-148526247D02*
X126285714Y-148764342D01*
X126285714Y-148764342D02*
X126238095Y-148859580D01*
X126238095Y-148859580D02*
X126190476Y-148907200D01*
X126190476Y-148907200D02*
X126095238Y-148954819D01*
X126095238Y-148954819D02*
X125857143Y-148954819D01*
X125857143Y-148954819D02*
X125761905Y-148907200D01*
X125761905Y-148907200D02*
X125714286Y-148859580D01*
X144011905Y-148954819D02*
X144011905Y-147954819D01*
X144011905Y-147954819D02*
X144250000Y-147954819D01*
X144250000Y-147954819D02*
X144392857Y-148002438D01*
X144392857Y-148002438D02*
X144488095Y-148097676D01*
X144488095Y-148097676D02*
X144535714Y-148192914D01*
X144535714Y-148192914D02*
X144583333Y-148383390D01*
X144583333Y-148383390D02*
X144583333Y-148526247D01*
X144583333Y-148526247D02*
X144535714Y-148716723D01*
X144535714Y-148716723D02*
X144488095Y-148811961D01*
X144488095Y-148811961D02*
X144392857Y-148907200D01*
X144392857Y-148907200D02*
X144250000Y-148954819D01*
X144250000Y-148954819D02*
X144011905Y-148954819D01*
X144916667Y-147954819D02*
X145583333Y-147954819D01*
X145583333Y-147954819D02*
X145154762Y-148954819D01*
X177285714Y-110454819D02*
X177285714Y-109454819D01*
X177285714Y-109454819D02*
X177523809Y-109454819D01*
X177523809Y-109454819D02*
X177666666Y-109502438D01*
X177666666Y-109502438D02*
X177761904Y-109597676D01*
X177761904Y-109597676D02*
X177809523Y-109692914D01*
X177809523Y-109692914D02*
X177857142Y-109883390D01*
X177857142Y-109883390D02*
X177857142Y-110026247D01*
X177857142Y-110026247D02*
X177809523Y-110216723D01*
X177809523Y-110216723D02*
X177761904Y-110311961D01*
X177761904Y-110311961D02*
X177666666Y-110407200D01*
X177666666Y-110407200D02*
X177523809Y-110454819D01*
X177523809Y-110454819D02*
X177285714Y-110454819D01*
X178809523Y-110454819D02*
X178238095Y-110454819D01*
X178523809Y-110454819D02*
X178523809Y-109454819D01*
X178523809Y-109454819D02*
X178428571Y-109597676D01*
X178428571Y-109597676D02*
X178333333Y-109692914D01*
X178333333Y-109692914D02*
X178238095Y-109740533D01*
X179761904Y-110454819D02*
X179190476Y-110454819D01*
X179476190Y-110454819D02*
X179476190Y-109454819D01*
X179476190Y-109454819D02*
X179380952Y-109597676D01*
X179380952Y-109597676D02*
X179285714Y-109692914D01*
X179285714Y-109692914D02*
X179190476Y-109740533D01*
X91261905Y-130454819D02*
X91261905Y-129454819D01*
X91261905Y-129454819D02*
X91500000Y-129454819D01*
X91500000Y-129454819D02*
X91642857Y-129502438D01*
X91642857Y-129502438D02*
X91738095Y-129597676D01*
X91738095Y-129597676D02*
X91785714Y-129692914D01*
X91785714Y-129692914D02*
X91833333Y-129883390D01*
X91833333Y-129883390D02*
X91833333Y-130026247D01*
X91833333Y-130026247D02*
X91785714Y-130216723D01*
X91785714Y-130216723D02*
X91738095Y-130311961D01*
X91738095Y-130311961D02*
X91642857Y-130407200D01*
X91642857Y-130407200D02*
X91500000Y-130454819D01*
X91500000Y-130454819D02*
X91261905Y-130454819D01*
X92214286Y-129550057D02*
X92261905Y-129502438D01*
X92261905Y-129502438D02*
X92357143Y-129454819D01*
X92357143Y-129454819D02*
X92595238Y-129454819D01*
X92595238Y-129454819D02*
X92690476Y-129502438D01*
X92690476Y-129502438D02*
X92738095Y-129550057D01*
X92738095Y-129550057D02*
X92785714Y-129645295D01*
X92785714Y-129645295D02*
X92785714Y-129740533D01*
X92785714Y-129740533D02*
X92738095Y-129883390D01*
X92738095Y-129883390D02*
X92166667Y-130454819D01*
X92166667Y-130454819D02*
X92785714Y-130454819D01*
X91011905Y-110454819D02*
X91011905Y-109454819D01*
X91011905Y-109454819D02*
X91250000Y-109454819D01*
X91250000Y-109454819D02*
X91392857Y-109502438D01*
X91392857Y-109502438D02*
X91488095Y-109597676D01*
X91488095Y-109597676D02*
X91535714Y-109692914D01*
X91535714Y-109692914D02*
X91583333Y-109883390D01*
X91583333Y-109883390D02*
X91583333Y-110026247D01*
X91583333Y-110026247D02*
X91535714Y-110216723D01*
X91535714Y-110216723D02*
X91488095Y-110311961D01*
X91488095Y-110311961D02*
X91392857Y-110407200D01*
X91392857Y-110407200D02*
X91250000Y-110454819D01*
X91250000Y-110454819D02*
X91011905Y-110454819D01*
X92535714Y-110454819D02*
X91964286Y-110454819D01*
X92250000Y-110454819D02*
X92250000Y-109454819D01*
X92250000Y-109454819D02*
X92154762Y-109597676D01*
X92154762Y-109597676D02*
X92059524Y-109692914D01*
X92059524Y-109692914D02*
X91964286Y-109740533D01*
X148722493Y-95469819D02*
X148722493Y-96184104D01*
X148722493Y-96184104D02*
X148674874Y-96326961D01*
X148674874Y-96326961D02*
X148579636Y-96422200D01*
X148579636Y-96422200D02*
X148436779Y-96469819D01*
X148436779Y-96469819D02*
X148341541Y-96469819D01*
X149674874Y-96469819D02*
X149198684Y-96469819D01*
X149198684Y-96469819D02*
X149198684Y-95469819D01*
X150579636Y-96374580D02*
X150532017Y-96422200D01*
X150532017Y-96422200D02*
X150389160Y-96469819D01*
X150389160Y-96469819D02*
X150293922Y-96469819D01*
X150293922Y-96469819D02*
X150151065Y-96422200D01*
X150151065Y-96422200D02*
X150055827Y-96326961D01*
X150055827Y-96326961D02*
X150008208Y-96231723D01*
X150008208Y-96231723D02*
X149960589Y-96041247D01*
X149960589Y-96041247D02*
X149960589Y-95898390D01*
X149960589Y-95898390D02*
X150008208Y-95707914D01*
X150008208Y-95707914D02*
X150055827Y-95612676D01*
X150055827Y-95612676D02*
X150151065Y-95517438D01*
X150151065Y-95517438D02*
X150293922Y-95469819D01*
X150293922Y-95469819D02*
X150389160Y-95469819D01*
X150389160Y-95469819D02*
X150532017Y-95517438D01*
X150532017Y-95517438D02*
X150579636Y-95565057D01*
X151293922Y-95469819D02*
X151293922Y-96184104D01*
X151293922Y-96184104D02*
X151246303Y-96326961D01*
X151246303Y-96326961D02*
X151151065Y-96422200D01*
X151151065Y-96422200D02*
X151008208Y-96469819D01*
X151008208Y-96469819D02*
X150912970Y-96469819D01*
X152246303Y-96469819D02*
X151770113Y-96469819D01*
X151770113Y-96469819D02*
X151770113Y-95469819D01*
X153151065Y-96374580D02*
X153103446Y-96422200D01*
X153103446Y-96422200D02*
X152960589Y-96469819D01*
X152960589Y-96469819D02*
X152865351Y-96469819D01*
X152865351Y-96469819D02*
X152722494Y-96422200D01*
X152722494Y-96422200D02*
X152627256Y-96326961D01*
X152627256Y-96326961D02*
X152579637Y-96231723D01*
X152579637Y-96231723D02*
X152532018Y-96041247D01*
X152532018Y-96041247D02*
X152532018Y-95898390D01*
X152532018Y-95898390D02*
X152579637Y-95707914D01*
X152579637Y-95707914D02*
X152627256Y-95612676D01*
X152627256Y-95612676D02*
X152722494Y-95517438D01*
X152722494Y-95517438D02*
X152865351Y-95469819D01*
X152865351Y-95469819D02*
X152960589Y-95469819D01*
X152960589Y-95469819D02*
X153103446Y-95517438D01*
X153103446Y-95517438D02*
X153151065Y-95565057D01*
X153865351Y-95469819D02*
X153865351Y-96184104D01*
X153865351Y-96184104D02*
X153817732Y-96326961D01*
X153817732Y-96326961D02*
X153722494Y-96422200D01*
X153722494Y-96422200D02*
X153579637Y-96469819D01*
X153579637Y-96469819D02*
X153484399Y-96469819D01*
X154817732Y-96469819D02*
X154341542Y-96469819D01*
X154341542Y-96469819D02*
X154341542Y-95469819D01*
X155722494Y-96374580D02*
X155674875Y-96422200D01*
X155674875Y-96422200D02*
X155532018Y-96469819D01*
X155532018Y-96469819D02*
X155436780Y-96469819D01*
X155436780Y-96469819D02*
X155293923Y-96422200D01*
X155293923Y-96422200D02*
X155198685Y-96326961D01*
X155198685Y-96326961D02*
X155151066Y-96231723D01*
X155151066Y-96231723D02*
X155103447Y-96041247D01*
X155103447Y-96041247D02*
X155103447Y-95898390D01*
X155103447Y-95898390D02*
X155151066Y-95707914D01*
X155151066Y-95707914D02*
X155198685Y-95612676D01*
X155198685Y-95612676D02*
X155293923Y-95517438D01*
X155293923Y-95517438D02*
X155436780Y-95469819D01*
X155436780Y-95469819D02*
X155532018Y-95469819D01*
X155532018Y-95469819D02*
X155674875Y-95517438D01*
X155674875Y-95517438D02*
X155722494Y-95565057D01*
X156436780Y-95469819D02*
X156436780Y-96184104D01*
X156436780Y-96184104D02*
X156389161Y-96326961D01*
X156389161Y-96326961D02*
X156293923Y-96422200D01*
X156293923Y-96422200D02*
X156151066Y-96469819D01*
X156151066Y-96469819D02*
X156055828Y-96469819D01*
X157389161Y-96469819D02*
X156912971Y-96469819D01*
X156912971Y-96469819D02*
X156912971Y-95469819D01*
X158293923Y-96374580D02*
X158246304Y-96422200D01*
X158246304Y-96422200D02*
X158103447Y-96469819D01*
X158103447Y-96469819D02*
X158008209Y-96469819D01*
X158008209Y-96469819D02*
X157865352Y-96422200D01*
X157865352Y-96422200D02*
X157770114Y-96326961D01*
X157770114Y-96326961D02*
X157722495Y-96231723D01*
X157722495Y-96231723D02*
X157674876Y-96041247D01*
X157674876Y-96041247D02*
X157674876Y-95898390D01*
X157674876Y-95898390D02*
X157722495Y-95707914D01*
X157722495Y-95707914D02*
X157770114Y-95612676D01*
X157770114Y-95612676D02*
X157865352Y-95517438D01*
X157865352Y-95517438D02*
X158008209Y-95469819D01*
X158008209Y-95469819D02*
X158103447Y-95469819D01*
X158103447Y-95469819D02*
X158246304Y-95517438D01*
X158246304Y-95517438D02*
X158293923Y-95565057D01*
X163011905Y-148954819D02*
X163011905Y-147954819D01*
X163011905Y-147954819D02*
X163250000Y-147954819D01*
X163250000Y-147954819D02*
X163392857Y-148002438D01*
X163392857Y-148002438D02*
X163488095Y-148097676D01*
X163488095Y-148097676D02*
X163535714Y-148192914D01*
X163535714Y-148192914D02*
X163583333Y-148383390D01*
X163583333Y-148383390D02*
X163583333Y-148526247D01*
X163583333Y-148526247D02*
X163535714Y-148716723D01*
X163535714Y-148716723D02*
X163488095Y-148811961D01*
X163488095Y-148811961D02*
X163392857Y-148907200D01*
X163392857Y-148907200D02*
X163250000Y-148954819D01*
X163250000Y-148954819D02*
X163011905Y-148954819D01*
X164154762Y-148383390D02*
X164059524Y-148335771D01*
X164059524Y-148335771D02*
X164011905Y-148288152D01*
X164011905Y-148288152D02*
X163964286Y-148192914D01*
X163964286Y-148192914D02*
X163964286Y-148145295D01*
X163964286Y-148145295D02*
X164011905Y-148050057D01*
X164011905Y-148050057D02*
X164059524Y-148002438D01*
X164059524Y-148002438D02*
X164154762Y-147954819D01*
X164154762Y-147954819D02*
X164345238Y-147954819D01*
X164345238Y-147954819D02*
X164440476Y-148002438D01*
X164440476Y-148002438D02*
X164488095Y-148050057D01*
X164488095Y-148050057D02*
X164535714Y-148145295D01*
X164535714Y-148145295D02*
X164535714Y-148192914D01*
X164535714Y-148192914D02*
X164488095Y-148288152D01*
X164488095Y-148288152D02*
X164440476Y-148335771D01*
X164440476Y-148335771D02*
X164345238Y-148383390D01*
X164345238Y-148383390D02*
X164154762Y-148383390D01*
X164154762Y-148383390D02*
X164059524Y-148431009D01*
X164059524Y-148431009D02*
X164011905Y-148478628D01*
X164011905Y-148478628D02*
X163964286Y-148573866D01*
X163964286Y-148573866D02*
X163964286Y-148764342D01*
X163964286Y-148764342D02*
X164011905Y-148859580D01*
X164011905Y-148859580D02*
X164059524Y-148907200D01*
X164059524Y-148907200D02*
X164154762Y-148954819D01*
X164154762Y-148954819D02*
X164345238Y-148954819D01*
X164345238Y-148954819D02*
X164440476Y-148907200D01*
X164440476Y-148907200D02*
X164488095Y-148859580D01*
X164488095Y-148859580D02*
X164535714Y-148764342D01*
X164535714Y-148764342D02*
X164535714Y-148573866D01*
X164535714Y-148573866D02*
X164488095Y-148478628D01*
X164488095Y-148478628D02*
X164440476Y-148431009D01*
X164440476Y-148431009D02*
X164345238Y-148383390D01*
X106011905Y-148954819D02*
X106011905Y-147954819D01*
X106011905Y-147954819D02*
X106250000Y-147954819D01*
X106250000Y-147954819D02*
X106392857Y-148002438D01*
X106392857Y-148002438D02*
X106488095Y-148097676D01*
X106488095Y-148097676D02*
X106535714Y-148192914D01*
X106535714Y-148192914D02*
X106583333Y-148383390D01*
X106583333Y-148383390D02*
X106583333Y-148526247D01*
X106583333Y-148526247D02*
X106535714Y-148716723D01*
X106535714Y-148716723D02*
X106488095Y-148811961D01*
X106488095Y-148811961D02*
X106392857Y-148907200D01*
X106392857Y-148907200D02*
X106250000Y-148954819D01*
X106250000Y-148954819D02*
X106011905Y-148954819D01*
X107440476Y-148288152D02*
X107440476Y-148954819D01*
X107202381Y-147907200D02*
X106964286Y-148621485D01*
X106964286Y-148621485D02*
X107583333Y-148621485D01*
X177535714Y-135454819D02*
X177535714Y-134454819D01*
X177535714Y-134454819D02*
X177773809Y-134454819D01*
X177773809Y-134454819D02*
X177916666Y-134502438D01*
X177916666Y-134502438D02*
X178011904Y-134597676D01*
X178011904Y-134597676D02*
X178059523Y-134692914D01*
X178059523Y-134692914D02*
X178107142Y-134883390D01*
X178107142Y-134883390D02*
X178107142Y-135026247D01*
X178107142Y-135026247D02*
X178059523Y-135216723D01*
X178059523Y-135216723D02*
X178011904Y-135311961D01*
X178011904Y-135311961D02*
X177916666Y-135407200D01*
X177916666Y-135407200D02*
X177773809Y-135454819D01*
X177773809Y-135454819D02*
X177535714Y-135454819D01*
X179059523Y-135454819D02*
X178488095Y-135454819D01*
X178773809Y-135454819D02*
X178773809Y-134454819D01*
X178773809Y-134454819D02*
X178678571Y-134597676D01*
X178678571Y-134597676D02*
X178583333Y-134692914D01*
X178583333Y-134692914D02*
X178488095Y-134740533D01*
X179678571Y-134454819D02*
X179773809Y-134454819D01*
X179773809Y-134454819D02*
X179869047Y-134502438D01*
X179869047Y-134502438D02*
X179916666Y-134550057D01*
X179916666Y-134550057D02*
X179964285Y-134645295D01*
X179964285Y-134645295D02*
X180011904Y-134835771D01*
X180011904Y-134835771D02*
X180011904Y-135073866D01*
X180011904Y-135073866D02*
X179964285Y-135264342D01*
X179964285Y-135264342D02*
X179916666Y-135359580D01*
X179916666Y-135359580D02*
X179869047Y-135407200D01*
X179869047Y-135407200D02*
X179773809Y-135454819D01*
X179773809Y-135454819D02*
X179678571Y-135454819D01*
X179678571Y-135454819D02*
X179583333Y-135407200D01*
X179583333Y-135407200D02*
X179535714Y-135359580D01*
X179535714Y-135359580D02*
X179488095Y-135264342D01*
X179488095Y-135264342D02*
X179440476Y-135073866D01*
X179440476Y-135073866D02*
X179440476Y-134835771D01*
X179440476Y-134835771D02*
X179488095Y-134645295D01*
X179488095Y-134645295D02*
X179535714Y-134550057D01*
X179535714Y-134550057D02*
X179583333Y-134502438D01*
X179583333Y-134502438D02*
X179678571Y-134454819D01*
X168261905Y-154454819D02*
X168261905Y-153454819D01*
X168261905Y-153454819D02*
X168500000Y-153454819D01*
X168500000Y-153454819D02*
X168642857Y-153502438D01*
X168642857Y-153502438D02*
X168738095Y-153597676D01*
X168738095Y-153597676D02*
X168785714Y-153692914D01*
X168785714Y-153692914D02*
X168833333Y-153883390D01*
X168833333Y-153883390D02*
X168833333Y-154026247D01*
X168833333Y-154026247D02*
X168785714Y-154216723D01*
X168785714Y-154216723D02*
X168738095Y-154311961D01*
X168738095Y-154311961D02*
X168642857Y-154407200D01*
X168642857Y-154407200D02*
X168500000Y-154454819D01*
X168500000Y-154454819D02*
X168261905Y-154454819D01*
X169309524Y-154454819D02*
X169500000Y-154454819D01*
X169500000Y-154454819D02*
X169595238Y-154407200D01*
X169595238Y-154407200D02*
X169642857Y-154359580D01*
X169642857Y-154359580D02*
X169738095Y-154216723D01*
X169738095Y-154216723D02*
X169785714Y-154026247D01*
X169785714Y-154026247D02*
X169785714Y-153645295D01*
X169785714Y-153645295D02*
X169738095Y-153550057D01*
X169738095Y-153550057D02*
X169690476Y-153502438D01*
X169690476Y-153502438D02*
X169595238Y-153454819D01*
X169595238Y-153454819D02*
X169404762Y-153454819D01*
X169404762Y-153454819D02*
X169309524Y-153502438D01*
X169309524Y-153502438D02*
X169261905Y-153550057D01*
X169261905Y-153550057D02*
X169214286Y-153645295D01*
X169214286Y-153645295D02*
X169214286Y-153883390D01*
X169214286Y-153883390D02*
X169261905Y-153978628D01*
X169261905Y-153978628D02*
X169309524Y-154026247D01*
X169309524Y-154026247D02*
X169404762Y-154073866D01*
X169404762Y-154073866D02*
X169595238Y-154073866D01*
X169595238Y-154073866D02*
X169690476Y-154026247D01*
X169690476Y-154026247D02*
X169738095Y-153978628D01*
X169738095Y-153978628D02*
X169785714Y-153883390D01*
X100011904Y-101681009D02*
X100345237Y-101681009D01*
X100488094Y-102204819D02*
X100011904Y-102204819D01*
X100011904Y-102204819D02*
X100011904Y-101204819D01*
X100011904Y-101204819D02*
X100488094Y-101204819D01*
X100916666Y-101538152D02*
X100916666Y-102204819D01*
X100916666Y-101633390D02*
X100964285Y-101585771D01*
X100964285Y-101585771D02*
X101059523Y-101538152D01*
X101059523Y-101538152D02*
X101202380Y-101538152D01*
X101202380Y-101538152D02*
X101297618Y-101585771D01*
X101297618Y-101585771D02*
X101345237Y-101681009D01*
X101345237Y-101681009D02*
X101345237Y-102204819D01*
X102249999Y-102157200D02*
X102154761Y-102204819D01*
X102154761Y-102204819D02*
X101964285Y-102204819D01*
X101964285Y-102204819D02*
X101869047Y-102157200D01*
X101869047Y-102157200D02*
X101821428Y-102109580D01*
X101821428Y-102109580D02*
X101773809Y-102014342D01*
X101773809Y-102014342D02*
X101773809Y-101728628D01*
X101773809Y-101728628D02*
X101821428Y-101633390D01*
X101821428Y-101633390D02*
X101869047Y-101585771D01*
X101869047Y-101585771D02*
X101964285Y-101538152D01*
X101964285Y-101538152D02*
X102154761Y-101538152D01*
X102154761Y-101538152D02*
X102249999Y-101585771D01*
X102821428Y-102204819D02*
X102726190Y-102157200D01*
X102726190Y-102157200D02*
X102678571Y-102109580D01*
X102678571Y-102109580D02*
X102630952Y-102014342D01*
X102630952Y-102014342D02*
X102630952Y-101728628D01*
X102630952Y-101728628D02*
X102678571Y-101633390D01*
X102678571Y-101633390D02*
X102726190Y-101585771D01*
X102726190Y-101585771D02*
X102821428Y-101538152D01*
X102821428Y-101538152D02*
X102964285Y-101538152D01*
X102964285Y-101538152D02*
X103059523Y-101585771D01*
X103059523Y-101585771D02*
X103107142Y-101633390D01*
X103107142Y-101633390D02*
X103154761Y-101728628D01*
X103154761Y-101728628D02*
X103154761Y-102014342D01*
X103154761Y-102014342D02*
X103107142Y-102109580D01*
X103107142Y-102109580D02*
X103059523Y-102157200D01*
X103059523Y-102157200D02*
X102964285Y-102204819D01*
X102964285Y-102204819D02*
X102821428Y-102204819D01*
X104011904Y-102204819D02*
X104011904Y-101204819D01*
X104011904Y-102157200D02*
X103916666Y-102204819D01*
X103916666Y-102204819D02*
X103726190Y-102204819D01*
X103726190Y-102204819D02*
X103630952Y-102157200D01*
X103630952Y-102157200D02*
X103583333Y-102109580D01*
X103583333Y-102109580D02*
X103535714Y-102014342D01*
X103535714Y-102014342D02*
X103535714Y-101728628D01*
X103535714Y-101728628D02*
X103583333Y-101633390D01*
X103583333Y-101633390D02*
X103630952Y-101585771D01*
X103630952Y-101585771D02*
X103726190Y-101538152D01*
X103726190Y-101538152D02*
X103916666Y-101538152D01*
X103916666Y-101538152D02*
X104011904Y-101585771D01*
X104869047Y-102157200D02*
X104773809Y-102204819D01*
X104773809Y-102204819D02*
X104583333Y-102204819D01*
X104583333Y-102204819D02*
X104488095Y-102157200D01*
X104488095Y-102157200D02*
X104440476Y-102061961D01*
X104440476Y-102061961D02*
X104440476Y-101681009D01*
X104440476Y-101681009D02*
X104488095Y-101585771D01*
X104488095Y-101585771D02*
X104583333Y-101538152D01*
X104583333Y-101538152D02*
X104773809Y-101538152D01*
X104773809Y-101538152D02*
X104869047Y-101585771D01*
X104869047Y-101585771D02*
X104916666Y-101681009D01*
X104916666Y-101681009D02*
X104916666Y-101776247D01*
X104916666Y-101776247D02*
X104440476Y-101871485D01*
X105345238Y-102204819D02*
X105345238Y-101538152D01*
X105345238Y-101728628D02*
X105392857Y-101633390D01*
X105392857Y-101633390D02*
X105440476Y-101585771D01*
X105440476Y-101585771D02*
X105535714Y-101538152D01*
X105535714Y-101538152D02*
X105630952Y-101538152D01*
X140083333Y-131659580D02*
X140035714Y-131707200D01*
X140035714Y-131707200D02*
X139892857Y-131754819D01*
X139892857Y-131754819D02*
X139797619Y-131754819D01*
X139797619Y-131754819D02*
X139654762Y-131707200D01*
X139654762Y-131707200D02*
X139559524Y-131611961D01*
X139559524Y-131611961D02*
X139511905Y-131516723D01*
X139511905Y-131516723D02*
X139464286Y-131326247D01*
X139464286Y-131326247D02*
X139464286Y-131183390D01*
X139464286Y-131183390D02*
X139511905Y-130992914D01*
X139511905Y-130992914D02*
X139559524Y-130897676D01*
X139559524Y-130897676D02*
X139654762Y-130802438D01*
X139654762Y-130802438D02*
X139797619Y-130754819D01*
X139797619Y-130754819D02*
X139892857Y-130754819D01*
X139892857Y-130754819D02*
X140035714Y-130802438D01*
X140035714Y-130802438D02*
X140083333Y-130850057D01*
X140940476Y-130754819D02*
X140750000Y-130754819D01*
X140750000Y-130754819D02*
X140654762Y-130802438D01*
X140654762Y-130802438D02*
X140607143Y-130850057D01*
X140607143Y-130850057D02*
X140511905Y-130992914D01*
X140511905Y-130992914D02*
X140464286Y-131183390D01*
X140464286Y-131183390D02*
X140464286Y-131564342D01*
X140464286Y-131564342D02*
X140511905Y-131659580D01*
X140511905Y-131659580D02*
X140559524Y-131707200D01*
X140559524Y-131707200D02*
X140654762Y-131754819D01*
X140654762Y-131754819D02*
X140845238Y-131754819D01*
X140845238Y-131754819D02*
X140940476Y-131707200D01*
X140940476Y-131707200D02*
X140988095Y-131659580D01*
X140988095Y-131659580D02*
X141035714Y-131564342D01*
X141035714Y-131564342D02*
X141035714Y-131326247D01*
X141035714Y-131326247D02*
X140988095Y-131231009D01*
X140988095Y-131231009D02*
X140940476Y-131183390D01*
X140940476Y-131183390D02*
X140845238Y-131135771D01*
X140845238Y-131135771D02*
X140654762Y-131135771D01*
X140654762Y-131135771D02*
X140559524Y-131183390D01*
X140559524Y-131183390D02*
X140511905Y-131231009D01*
X140511905Y-131231009D02*
X140464286Y-131326247D01*
D11*
X173143734Y-155607866D02*
X172534211Y-155607866D01*
X172838972Y-155303104D02*
X172838972Y-155912628D01*
X165093734Y-152232866D02*
X164484211Y-152232866D01*
X90237133Y-114143734D02*
X90237133Y-113534211D01*
X90541895Y-113838972D02*
X89932371Y-113838972D01*
X93612133Y-106093734D02*
X93612133Y-105484211D01*
X148853734Y-150107866D02*
X148244211Y-150107866D01*
X148548972Y-149803104D02*
X148548972Y-150412628D01*
X140803734Y-146732866D02*
X140194211Y-146732866D01*
D10*
X106333333Y-131699580D02*
X106285714Y-131747200D01*
X106285714Y-131747200D02*
X106142857Y-131794819D01*
X106142857Y-131794819D02*
X106047619Y-131794819D01*
X106047619Y-131794819D02*
X105904762Y-131747200D01*
X105904762Y-131747200D02*
X105809524Y-131651961D01*
X105809524Y-131651961D02*
X105761905Y-131556723D01*
X105761905Y-131556723D02*
X105714286Y-131366247D01*
X105714286Y-131366247D02*
X105714286Y-131223390D01*
X105714286Y-131223390D02*
X105761905Y-131032914D01*
X105761905Y-131032914D02*
X105809524Y-130937676D01*
X105809524Y-130937676D02*
X105904762Y-130842438D01*
X105904762Y-130842438D02*
X106047619Y-130794819D01*
X106047619Y-130794819D02*
X106142857Y-130794819D01*
X106142857Y-130794819D02*
X106285714Y-130842438D01*
X106285714Y-130842438D02*
X106333333Y-130890057D01*
X107285714Y-131794819D02*
X106714286Y-131794819D01*
X107000000Y-131794819D02*
X107000000Y-130794819D01*
X107000000Y-130794819D02*
X106904762Y-130937676D01*
X106904762Y-130937676D02*
X106809524Y-131032914D01*
X106809524Y-131032914D02*
X106714286Y-131080533D01*
D11*
X105143734Y-155607866D02*
X104534211Y-155607866D01*
X104838972Y-155303104D02*
X104838972Y-155912628D01*
X97093734Y-152232866D02*
X96484211Y-152232866D01*
D10*
X163553333Y-131709580D02*
X163505714Y-131757200D01*
X163505714Y-131757200D02*
X163362857Y-131804819D01*
X163362857Y-131804819D02*
X163267619Y-131804819D01*
X163267619Y-131804819D02*
X163124762Y-131757200D01*
X163124762Y-131757200D02*
X163029524Y-131661961D01*
X163029524Y-131661961D02*
X162981905Y-131566723D01*
X162981905Y-131566723D02*
X162934286Y-131376247D01*
X162934286Y-131376247D02*
X162934286Y-131233390D01*
X162934286Y-131233390D02*
X162981905Y-131042914D01*
X162981905Y-131042914D02*
X163029524Y-130947676D01*
X163029524Y-130947676D02*
X163124762Y-130852438D01*
X163124762Y-130852438D02*
X163267619Y-130804819D01*
X163267619Y-130804819D02*
X163362857Y-130804819D01*
X163362857Y-130804819D02*
X163505714Y-130852438D01*
X163505714Y-130852438D02*
X163553333Y-130900057D01*
X163886667Y-130804819D02*
X164553333Y-130804819D01*
X164553333Y-130804819D02*
X164124762Y-131804819D01*
X102333333Y-131709580D02*
X102285714Y-131757200D01*
X102285714Y-131757200D02*
X102142857Y-131804819D01*
X102142857Y-131804819D02*
X102047619Y-131804819D01*
X102047619Y-131804819D02*
X101904762Y-131757200D01*
X101904762Y-131757200D02*
X101809524Y-131661961D01*
X101809524Y-131661961D02*
X101761905Y-131566723D01*
X101761905Y-131566723D02*
X101714286Y-131376247D01*
X101714286Y-131376247D02*
X101714286Y-131233390D01*
X101714286Y-131233390D02*
X101761905Y-131042914D01*
X101761905Y-131042914D02*
X101809524Y-130947676D01*
X101809524Y-130947676D02*
X101904762Y-130852438D01*
X101904762Y-130852438D02*
X102047619Y-130804819D01*
X102047619Y-130804819D02*
X102142857Y-130804819D01*
X102142857Y-130804819D02*
X102285714Y-130852438D01*
X102285714Y-130852438D02*
X102333333Y-130900057D01*
X102714286Y-130900057D02*
X102761905Y-130852438D01*
X102761905Y-130852438D02*
X102857143Y-130804819D01*
X102857143Y-130804819D02*
X103095238Y-130804819D01*
X103095238Y-130804819D02*
X103190476Y-130852438D01*
X103190476Y-130852438D02*
X103238095Y-130900057D01*
X103238095Y-130900057D02*
X103285714Y-130995295D01*
X103285714Y-130995295D02*
X103285714Y-131090533D01*
X103285714Y-131090533D02*
X103238095Y-131233390D01*
X103238095Y-131233390D02*
X102666667Y-131804819D01*
X102666667Y-131804819D02*
X103285714Y-131804819D01*
D11*
X180107866Y-105856265D02*
X180107866Y-106465789D01*
X179803104Y-106161027D02*
X180412628Y-106161027D01*
X176732866Y-113906265D02*
X176732866Y-114515789D01*
D10*
X125343333Y-131699580D02*
X125295714Y-131747200D01*
X125295714Y-131747200D02*
X125152857Y-131794819D01*
X125152857Y-131794819D02*
X125057619Y-131794819D01*
X125057619Y-131794819D02*
X124914762Y-131747200D01*
X124914762Y-131747200D02*
X124819524Y-131651961D01*
X124819524Y-131651961D02*
X124771905Y-131556723D01*
X124771905Y-131556723D02*
X124724286Y-131366247D01*
X124724286Y-131366247D02*
X124724286Y-131223390D01*
X124724286Y-131223390D02*
X124771905Y-131032914D01*
X124771905Y-131032914D02*
X124819524Y-130937676D01*
X124819524Y-130937676D02*
X124914762Y-130842438D01*
X124914762Y-130842438D02*
X125057619Y-130794819D01*
X125057619Y-130794819D02*
X125152857Y-130794819D01*
X125152857Y-130794819D02*
X125295714Y-130842438D01*
X125295714Y-130842438D02*
X125343333Y-130890057D01*
X125676667Y-130794819D02*
X126295714Y-130794819D01*
X126295714Y-130794819D02*
X125962381Y-131175771D01*
X125962381Y-131175771D02*
X126105238Y-131175771D01*
X126105238Y-131175771D02*
X126200476Y-131223390D01*
X126200476Y-131223390D02*
X126248095Y-131271009D01*
X126248095Y-131271009D02*
X126295714Y-131366247D01*
X126295714Y-131366247D02*
X126295714Y-131604342D01*
X126295714Y-131604342D02*
X126248095Y-131699580D01*
X126248095Y-131699580D02*
X126200476Y-131747200D01*
X126200476Y-131747200D02*
X126105238Y-131794819D01*
X126105238Y-131794819D02*
X125819524Y-131794819D01*
X125819524Y-131794819D02*
X125724286Y-131747200D01*
X125724286Y-131747200D02*
X125676667Y-131699580D01*
D11*
X176942866Y-138656265D02*
X176942866Y-139265789D01*
X180317866Y-130606265D02*
X180317866Y-131215789D01*
X180013104Y-130911027D02*
X180622628Y-130911027D01*
D10*
X110323333Y-131784819D02*
X109990000Y-131308628D01*
X109751905Y-131784819D02*
X109751905Y-130784819D01*
X109751905Y-130784819D02*
X110132857Y-130784819D01*
X110132857Y-130784819D02*
X110228095Y-130832438D01*
X110228095Y-130832438D02*
X110275714Y-130880057D01*
X110275714Y-130880057D02*
X110323333Y-130975295D01*
X110323333Y-130975295D02*
X110323333Y-131118152D01*
X110323333Y-131118152D02*
X110275714Y-131213390D01*
X110275714Y-131213390D02*
X110228095Y-131261009D01*
X110228095Y-131261009D02*
X110132857Y-131308628D01*
X110132857Y-131308628D02*
X109751905Y-131308628D01*
X111275714Y-131784819D02*
X110704286Y-131784819D01*
X110990000Y-131784819D02*
X110990000Y-130784819D01*
X110990000Y-130784819D02*
X110894762Y-130927676D01*
X110894762Y-130927676D02*
X110799524Y-131022914D01*
X110799524Y-131022914D02*
X110704286Y-131070533D01*
X129313333Y-131784819D02*
X128980000Y-131308628D01*
X128741905Y-131784819D02*
X128741905Y-130784819D01*
X128741905Y-130784819D02*
X129122857Y-130784819D01*
X129122857Y-130784819D02*
X129218095Y-130832438D01*
X129218095Y-130832438D02*
X129265714Y-130880057D01*
X129265714Y-130880057D02*
X129313333Y-130975295D01*
X129313333Y-130975295D02*
X129313333Y-131118152D01*
X129313333Y-131118152D02*
X129265714Y-131213390D01*
X129265714Y-131213390D02*
X129218095Y-131261009D01*
X129218095Y-131261009D02*
X129122857Y-131308628D01*
X129122857Y-131308628D02*
X128741905Y-131308628D01*
X129694286Y-130880057D02*
X129741905Y-130832438D01*
X129741905Y-130832438D02*
X129837143Y-130784819D01*
X129837143Y-130784819D02*
X130075238Y-130784819D01*
X130075238Y-130784819D02*
X130170476Y-130832438D01*
X130170476Y-130832438D02*
X130218095Y-130880057D01*
X130218095Y-130880057D02*
X130265714Y-130975295D01*
X130265714Y-130975295D02*
X130265714Y-131070533D01*
X130265714Y-131070533D02*
X130218095Y-131213390D01*
X130218095Y-131213390D02*
X129646667Y-131784819D01*
X129646667Y-131784819D02*
X130265714Y-131784819D01*
X157760714Y-116157200D02*
X157903571Y-116204819D01*
X157903571Y-116204819D02*
X158141666Y-116204819D01*
X158141666Y-116204819D02*
X158236904Y-116157200D01*
X158236904Y-116157200D02*
X158284523Y-116109580D01*
X158284523Y-116109580D02*
X158332142Y-116014342D01*
X158332142Y-116014342D02*
X158332142Y-115919104D01*
X158332142Y-115919104D02*
X158284523Y-115823866D01*
X158284523Y-115823866D02*
X158236904Y-115776247D01*
X158236904Y-115776247D02*
X158141666Y-115728628D01*
X158141666Y-115728628D02*
X157951190Y-115681009D01*
X157951190Y-115681009D02*
X157855952Y-115633390D01*
X157855952Y-115633390D02*
X157808333Y-115585771D01*
X157808333Y-115585771D02*
X157760714Y-115490533D01*
X157760714Y-115490533D02*
X157760714Y-115395295D01*
X157760714Y-115395295D02*
X157808333Y-115300057D01*
X157808333Y-115300057D02*
X157855952Y-115252438D01*
X157855952Y-115252438D02*
X157951190Y-115204819D01*
X157951190Y-115204819D02*
X158189285Y-115204819D01*
X158189285Y-115204819D02*
X158332142Y-115252438D01*
X158665476Y-115204819D02*
X158903571Y-116204819D01*
X158903571Y-116204819D02*
X159094047Y-115490533D01*
X159094047Y-115490533D02*
X159284523Y-116204819D01*
X159284523Y-116204819D02*
X159522619Y-115204819D01*
X159665476Y-116300057D02*
X160427380Y-116300057D01*
X161094047Y-115538152D02*
X161094047Y-116204819D01*
X160855952Y-115157200D02*
X160617857Y-115871485D01*
X160617857Y-115871485D02*
X161236904Y-115871485D01*
D11*
X110853734Y-150107866D02*
X110244211Y-150107866D01*
X110548972Y-149803104D02*
X110548972Y-150412628D01*
X102803734Y-146732866D02*
X102194211Y-146732866D01*
D10*
X151510714Y-122657200D02*
X151653571Y-122704819D01*
X151653571Y-122704819D02*
X151891666Y-122704819D01*
X151891666Y-122704819D02*
X151986904Y-122657200D01*
X151986904Y-122657200D02*
X152034523Y-122609580D01*
X152034523Y-122609580D02*
X152082142Y-122514342D01*
X152082142Y-122514342D02*
X152082142Y-122419104D01*
X152082142Y-122419104D02*
X152034523Y-122323866D01*
X152034523Y-122323866D02*
X151986904Y-122276247D01*
X151986904Y-122276247D02*
X151891666Y-122228628D01*
X151891666Y-122228628D02*
X151701190Y-122181009D01*
X151701190Y-122181009D02*
X151605952Y-122133390D01*
X151605952Y-122133390D02*
X151558333Y-122085771D01*
X151558333Y-122085771D02*
X151510714Y-121990533D01*
X151510714Y-121990533D02*
X151510714Y-121895295D01*
X151510714Y-121895295D02*
X151558333Y-121800057D01*
X151558333Y-121800057D02*
X151605952Y-121752438D01*
X151605952Y-121752438D02*
X151701190Y-121704819D01*
X151701190Y-121704819D02*
X151939285Y-121704819D01*
X151939285Y-121704819D02*
X152082142Y-121752438D01*
X152415476Y-121704819D02*
X152653571Y-122704819D01*
X152653571Y-122704819D02*
X152844047Y-121990533D01*
X152844047Y-121990533D02*
X153034523Y-122704819D01*
X153034523Y-122704819D02*
X153272619Y-121704819D01*
X153415476Y-122800057D02*
X154177380Y-122800057D01*
X154891666Y-121704819D02*
X154415476Y-121704819D01*
X154415476Y-121704819D02*
X154367857Y-122181009D01*
X154367857Y-122181009D02*
X154415476Y-122133390D01*
X154415476Y-122133390D02*
X154510714Y-122085771D01*
X154510714Y-122085771D02*
X154748809Y-122085771D01*
X154748809Y-122085771D02*
X154844047Y-122133390D01*
X154844047Y-122133390D02*
X154891666Y-122181009D01*
X154891666Y-122181009D02*
X154939285Y-122276247D01*
X154939285Y-122276247D02*
X154939285Y-122514342D01*
X154939285Y-122514342D02*
X154891666Y-122609580D01*
X154891666Y-122609580D02*
X154844047Y-122657200D01*
X154844047Y-122657200D02*
X154748809Y-122704819D01*
X154748809Y-122704819D02*
X154510714Y-122704819D01*
X154510714Y-122704819D02*
X154415476Y-122657200D01*
X154415476Y-122657200D02*
X154367857Y-122609580D01*
X109132142Y-116929580D02*
X109084523Y-116977200D01*
X109084523Y-116977200D02*
X108941666Y-117024819D01*
X108941666Y-117024819D02*
X108846428Y-117024819D01*
X108846428Y-117024819D02*
X108703571Y-116977200D01*
X108703571Y-116977200D02*
X108608333Y-116881961D01*
X108608333Y-116881961D02*
X108560714Y-116786723D01*
X108560714Y-116786723D02*
X108513095Y-116596247D01*
X108513095Y-116596247D02*
X108513095Y-116453390D01*
X108513095Y-116453390D02*
X108560714Y-116262914D01*
X108560714Y-116262914D02*
X108608333Y-116167676D01*
X108608333Y-116167676D02*
X108703571Y-116072438D01*
X108703571Y-116072438D02*
X108846428Y-116024819D01*
X108846428Y-116024819D02*
X108941666Y-116024819D01*
X108941666Y-116024819D02*
X109084523Y-116072438D01*
X109084523Y-116072438D02*
X109132142Y-116120057D01*
X110084523Y-117024819D02*
X109513095Y-117024819D01*
X109798809Y-117024819D02*
X109798809Y-116024819D01*
X109798809Y-116024819D02*
X109703571Y-116167676D01*
X109703571Y-116167676D02*
X109608333Y-116262914D01*
X109608333Y-116262914D02*
X109513095Y-116310533D01*
X110703571Y-116024819D02*
X110798809Y-116024819D01*
X110798809Y-116024819D02*
X110894047Y-116072438D01*
X110894047Y-116072438D02*
X110941666Y-116120057D01*
X110941666Y-116120057D02*
X110989285Y-116215295D01*
X110989285Y-116215295D02*
X111036904Y-116405771D01*
X111036904Y-116405771D02*
X111036904Y-116643866D01*
X111036904Y-116643866D02*
X110989285Y-116834342D01*
X110989285Y-116834342D02*
X110941666Y-116929580D01*
X110941666Y-116929580D02*
X110894047Y-116977200D01*
X110894047Y-116977200D02*
X110798809Y-117024819D01*
X110798809Y-117024819D02*
X110703571Y-117024819D01*
X110703571Y-117024819D02*
X110608333Y-116977200D01*
X110608333Y-116977200D02*
X110560714Y-116929580D01*
X110560714Y-116929580D02*
X110513095Y-116834342D01*
X110513095Y-116834342D02*
X110465476Y-116643866D01*
X110465476Y-116643866D02*
X110465476Y-116405771D01*
X110465476Y-116405771D02*
X110513095Y-116215295D01*
X110513095Y-116215295D02*
X110560714Y-116120057D01*
X110560714Y-116120057D02*
X110608333Y-116072438D01*
X110608333Y-116072438D02*
X110703571Y-116024819D01*
D11*
X167853734Y-150107866D02*
X167244211Y-150107866D01*
X167548972Y-149803104D02*
X167548972Y-150412628D01*
X159803734Y-146732866D02*
X159194211Y-146732866D01*
D10*
X159343333Y-131699580D02*
X159295714Y-131747200D01*
X159295714Y-131747200D02*
X159152857Y-131794819D01*
X159152857Y-131794819D02*
X159057619Y-131794819D01*
X159057619Y-131794819D02*
X158914762Y-131747200D01*
X158914762Y-131747200D02*
X158819524Y-131651961D01*
X158819524Y-131651961D02*
X158771905Y-131556723D01*
X158771905Y-131556723D02*
X158724286Y-131366247D01*
X158724286Y-131366247D02*
X158724286Y-131223390D01*
X158724286Y-131223390D02*
X158771905Y-131032914D01*
X158771905Y-131032914D02*
X158819524Y-130937676D01*
X158819524Y-130937676D02*
X158914762Y-130842438D01*
X158914762Y-130842438D02*
X159057619Y-130794819D01*
X159057619Y-130794819D02*
X159152857Y-130794819D01*
X159152857Y-130794819D02*
X159295714Y-130842438D01*
X159295714Y-130842438D02*
X159343333Y-130890057D01*
X159914762Y-131223390D02*
X159819524Y-131175771D01*
X159819524Y-131175771D02*
X159771905Y-131128152D01*
X159771905Y-131128152D02*
X159724286Y-131032914D01*
X159724286Y-131032914D02*
X159724286Y-130985295D01*
X159724286Y-130985295D02*
X159771905Y-130890057D01*
X159771905Y-130890057D02*
X159819524Y-130842438D01*
X159819524Y-130842438D02*
X159914762Y-130794819D01*
X159914762Y-130794819D02*
X160105238Y-130794819D01*
X160105238Y-130794819D02*
X160200476Y-130842438D01*
X160200476Y-130842438D02*
X160248095Y-130890057D01*
X160248095Y-130890057D02*
X160295714Y-130985295D01*
X160295714Y-130985295D02*
X160295714Y-131032914D01*
X160295714Y-131032914D02*
X160248095Y-131128152D01*
X160248095Y-131128152D02*
X160200476Y-131175771D01*
X160200476Y-131175771D02*
X160105238Y-131223390D01*
X160105238Y-131223390D02*
X159914762Y-131223390D01*
X159914762Y-131223390D02*
X159819524Y-131271009D01*
X159819524Y-131271009D02*
X159771905Y-131318628D01*
X159771905Y-131318628D02*
X159724286Y-131413866D01*
X159724286Y-131413866D02*
X159724286Y-131604342D01*
X159724286Y-131604342D02*
X159771905Y-131699580D01*
X159771905Y-131699580D02*
X159819524Y-131747200D01*
X159819524Y-131747200D02*
X159914762Y-131794819D01*
X159914762Y-131794819D02*
X160105238Y-131794819D01*
X160105238Y-131794819D02*
X160200476Y-131747200D01*
X160200476Y-131747200D02*
X160248095Y-131699580D01*
X160248095Y-131699580D02*
X160295714Y-131604342D01*
X160295714Y-131604342D02*
X160295714Y-131413866D01*
X160295714Y-131413866D02*
X160248095Y-131318628D01*
X160248095Y-131318628D02*
X160200476Y-131271009D01*
X160200476Y-131271009D02*
X160105238Y-131223390D01*
X144093333Y-131699580D02*
X144045714Y-131747200D01*
X144045714Y-131747200D02*
X143902857Y-131794819D01*
X143902857Y-131794819D02*
X143807619Y-131794819D01*
X143807619Y-131794819D02*
X143664762Y-131747200D01*
X143664762Y-131747200D02*
X143569524Y-131651961D01*
X143569524Y-131651961D02*
X143521905Y-131556723D01*
X143521905Y-131556723D02*
X143474286Y-131366247D01*
X143474286Y-131366247D02*
X143474286Y-131223390D01*
X143474286Y-131223390D02*
X143521905Y-131032914D01*
X143521905Y-131032914D02*
X143569524Y-130937676D01*
X143569524Y-130937676D02*
X143664762Y-130842438D01*
X143664762Y-130842438D02*
X143807619Y-130794819D01*
X143807619Y-130794819D02*
X143902857Y-130794819D01*
X143902857Y-130794819D02*
X144045714Y-130842438D01*
X144045714Y-130842438D02*
X144093333Y-130890057D01*
X144998095Y-130794819D02*
X144521905Y-130794819D01*
X144521905Y-130794819D02*
X144474286Y-131271009D01*
X144474286Y-131271009D02*
X144521905Y-131223390D01*
X144521905Y-131223390D02*
X144617143Y-131175771D01*
X144617143Y-131175771D02*
X144855238Y-131175771D01*
X144855238Y-131175771D02*
X144950476Y-131223390D01*
X144950476Y-131223390D02*
X144998095Y-131271009D01*
X144998095Y-131271009D02*
X145045714Y-131366247D01*
X145045714Y-131366247D02*
X145045714Y-131604342D01*
X145045714Y-131604342D02*
X144998095Y-131699580D01*
X144998095Y-131699580D02*
X144950476Y-131747200D01*
X144950476Y-131747200D02*
X144855238Y-131794819D01*
X144855238Y-131794819D02*
X144617143Y-131794819D01*
X144617143Y-131794819D02*
X144521905Y-131747200D01*
X144521905Y-131747200D02*
X144474286Y-131699580D01*
X123567142Y-97954819D02*
X123233809Y-97478628D01*
X122995714Y-97954819D02*
X122995714Y-96954819D01*
X122995714Y-96954819D02*
X123376666Y-96954819D01*
X123376666Y-96954819D02*
X123471904Y-97002438D01*
X123471904Y-97002438D02*
X123519523Y-97050057D01*
X123519523Y-97050057D02*
X123567142Y-97145295D01*
X123567142Y-97145295D02*
X123567142Y-97288152D01*
X123567142Y-97288152D02*
X123519523Y-97383390D01*
X123519523Y-97383390D02*
X123471904Y-97431009D01*
X123471904Y-97431009D02*
X123376666Y-97478628D01*
X123376666Y-97478628D02*
X122995714Y-97478628D01*
X123900476Y-96954819D02*
X124567142Y-96954819D01*
X124567142Y-96954819D02*
X123900476Y-97954819D01*
X123900476Y-97954819D02*
X124567142Y-97954819D01*
X125471904Y-97954819D02*
X124900476Y-97954819D01*
X125186190Y-97954819D02*
X125186190Y-96954819D01*
X125186190Y-96954819D02*
X125090952Y-97097676D01*
X125090952Y-97097676D02*
X124995714Y-97192914D01*
X124995714Y-97192914D02*
X124900476Y-97240533D01*
X121283333Y-131709580D02*
X121235714Y-131757200D01*
X121235714Y-131757200D02*
X121092857Y-131804819D01*
X121092857Y-131804819D02*
X120997619Y-131804819D01*
X120997619Y-131804819D02*
X120854762Y-131757200D01*
X120854762Y-131757200D02*
X120759524Y-131661961D01*
X120759524Y-131661961D02*
X120711905Y-131566723D01*
X120711905Y-131566723D02*
X120664286Y-131376247D01*
X120664286Y-131376247D02*
X120664286Y-131233390D01*
X120664286Y-131233390D02*
X120711905Y-131042914D01*
X120711905Y-131042914D02*
X120759524Y-130947676D01*
X120759524Y-130947676D02*
X120854762Y-130852438D01*
X120854762Y-130852438D02*
X120997619Y-130804819D01*
X120997619Y-130804819D02*
X121092857Y-130804819D01*
X121092857Y-130804819D02*
X121235714Y-130852438D01*
X121235714Y-130852438D02*
X121283333Y-130900057D01*
X122140476Y-131138152D02*
X122140476Y-131804819D01*
X121902381Y-130757200D02*
X121664286Y-131471485D01*
X121664286Y-131471485D02*
X122283333Y-131471485D01*
D11*
X129518734Y-150107866D02*
X128909211Y-150107866D01*
X129213972Y-149803104D02*
X129213972Y-150412628D01*
X121468734Y-146732866D02*
X120859211Y-146732866D01*
D10*
X137562295Y-99406666D02*
X138362295Y-99139999D01*
X138362295Y-99139999D02*
X137562295Y-98873333D01*
X138286104Y-98149523D02*
X138324200Y-98187619D01*
X138324200Y-98187619D02*
X138362295Y-98301904D01*
X138362295Y-98301904D02*
X138362295Y-98378095D01*
X138362295Y-98378095D02*
X138324200Y-98492381D01*
X138324200Y-98492381D02*
X138248009Y-98568571D01*
X138248009Y-98568571D02*
X138171819Y-98606666D01*
X138171819Y-98606666D02*
X138019438Y-98644762D01*
X138019438Y-98644762D02*
X137905152Y-98644762D01*
X137905152Y-98644762D02*
X137752771Y-98606666D01*
X137752771Y-98606666D02*
X137676580Y-98568571D01*
X137676580Y-98568571D02*
X137600390Y-98492381D01*
X137600390Y-98492381D02*
X137562295Y-98378095D01*
X137562295Y-98378095D02*
X137562295Y-98301904D01*
X137562295Y-98301904D02*
X137600390Y-98187619D01*
X137600390Y-98187619D02*
X137638485Y-98149523D01*
X138286104Y-97349523D02*
X138324200Y-97387619D01*
X138324200Y-97387619D02*
X138362295Y-97501904D01*
X138362295Y-97501904D02*
X138362295Y-97578095D01*
X138362295Y-97578095D02*
X138324200Y-97692381D01*
X138324200Y-97692381D02*
X138248009Y-97768571D01*
X138248009Y-97768571D02*
X138171819Y-97806666D01*
X138171819Y-97806666D02*
X138019438Y-97844762D01*
X138019438Y-97844762D02*
X137905152Y-97844762D01*
X137905152Y-97844762D02*
X137752771Y-97806666D01*
X137752771Y-97806666D02*
X137676580Y-97768571D01*
X137676580Y-97768571D02*
X137600390Y-97692381D01*
X137600390Y-97692381D02*
X137562295Y-97578095D01*
X137562295Y-97578095D02*
X137562295Y-97501904D01*
X137562295Y-97501904D02*
X137600390Y-97387619D01*
X137600390Y-97387619D02*
X137638485Y-97349523D01*
X137600390Y-101534523D02*
X137562295Y-101610713D01*
X137562295Y-101610713D02*
X137562295Y-101724999D01*
X137562295Y-101724999D02*
X137600390Y-101839285D01*
X137600390Y-101839285D02*
X137676580Y-101915475D01*
X137676580Y-101915475D02*
X137752771Y-101953570D01*
X137752771Y-101953570D02*
X137905152Y-101991666D01*
X137905152Y-101991666D02*
X138019438Y-101991666D01*
X138019438Y-101991666D02*
X138171819Y-101953570D01*
X138171819Y-101953570D02*
X138248009Y-101915475D01*
X138248009Y-101915475D02*
X138324200Y-101839285D01*
X138324200Y-101839285D02*
X138362295Y-101724999D01*
X138362295Y-101724999D02*
X138362295Y-101648808D01*
X138362295Y-101648808D02*
X138324200Y-101534523D01*
X138324200Y-101534523D02*
X138286104Y-101496427D01*
X138286104Y-101496427D02*
X138019438Y-101496427D01*
X138019438Y-101496427D02*
X138019438Y-101648808D01*
X138362295Y-101153570D02*
X137562295Y-101153570D01*
X137562295Y-101153570D02*
X138362295Y-100696427D01*
X138362295Y-100696427D02*
X137562295Y-100696427D01*
X138362295Y-100315475D02*
X137562295Y-100315475D01*
X137562295Y-100315475D02*
X137562295Y-100124999D01*
X137562295Y-100124999D02*
X137600390Y-100010713D01*
X137600390Y-100010713D02*
X137676580Y-99934523D01*
X137676580Y-99934523D02*
X137752771Y-99896428D01*
X137752771Y-99896428D02*
X137905152Y-99858332D01*
X137905152Y-99858332D02*
X138019438Y-99858332D01*
X138019438Y-99858332D02*
X138171819Y-99896428D01*
X138171819Y-99896428D02*
X138248009Y-99934523D01*
X138248009Y-99934523D02*
X138324200Y-100010713D01*
X138324200Y-100010713D02*
X138362295Y-100124999D01*
X138362295Y-100124999D02*
X138362295Y-100315475D01*
X149171428Y-93454819D02*
X149361904Y-93454819D01*
X149361904Y-93454819D02*
X149457142Y-93502438D01*
X149457142Y-93502438D02*
X149552380Y-93597676D01*
X149552380Y-93597676D02*
X149599999Y-93788152D01*
X149599999Y-93788152D02*
X149599999Y-94121485D01*
X149599999Y-94121485D02*
X149552380Y-94311961D01*
X149552380Y-94311961D02*
X149457142Y-94407200D01*
X149457142Y-94407200D02*
X149361904Y-94454819D01*
X149361904Y-94454819D02*
X149171428Y-94454819D01*
X149171428Y-94454819D02*
X149076190Y-94407200D01*
X149076190Y-94407200D02*
X148980952Y-94311961D01*
X148980952Y-94311961D02*
X148933333Y-94121485D01*
X148933333Y-94121485D02*
X148933333Y-93788152D01*
X148933333Y-93788152D02*
X148980952Y-93597676D01*
X148980952Y-93597676D02*
X149076190Y-93502438D01*
X149076190Y-93502438D02*
X149171428Y-93454819D01*
X150504761Y-94454819D02*
X150028571Y-94454819D01*
X150028571Y-94454819D02*
X150028571Y-93454819D01*
X150838095Y-93931009D02*
X151171428Y-93931009D01*
X151314285Y-94454819D02*
X150838095Y-94454819D01*
X150838095Y-94454819D02*
X150838095Y-93454819D01*
X150838095Y-93454819D02*
X151314285Y-93454819D01*
X151742857Y-94454819D02*
X151742857Y-93454819D01*
X151742857Y-93454819D02*
X151980952Y-93454819D01*
X151980952Y-93454819D02*
X152123809Y-93502438D01*
X152123809Y-93502438D02*
X152219047Y-93597676D01*
X152219047Y-93597676D02*
X152266666Y-93692914D01*
X152266666Y-93692914D02*
X152314285Y-93883390D01*
X152314285Y-93883390D02*
X152314285Y-94026247D01*
X152314285Y-94026247D02*
X152266666Y-94216723D01*
X152266666Y-94216723D02*
X152219047Y-94311961D01*
X152219047Y-94311961D02*
X152123809Y-94407200D01*
X152123809Y-94407200D02*
X151980952Y-94454819D01*
X151980952Y-94454819D02*
X151742857Y-94454819D01*
X153504762Y-94454819D02*
X153504762Y-93454819D01*
X153504762Y-93454819D02*
X153885714Y-93454819D01*
X153885714Y-93454819D02*
X153980952Y-93502438D01*
X153980952Y-93502438D02*
X154028571Y-93550057D01*
X154028571Y-93550057D02*
X154076190Y-93645295D01*
X154076190Y-93645295D02*
X154076190Y-93788152D01*
X154076190Y-93788152D02*
X154028571Y-93883390D01*
X154028571Y-93883390D02*
X153980952Y-93931009D01*
X153980952Y-93931009D02*
X153885714Y-93978628D01*
X153885714Y-93978628D02*
X153504762Y-93978628D01*
X154933333Y-94454819D02*
X154933333Y-93931009D01*
X154933333Y-93931009D02*
X154885714Y-93835771D01*
X154885714Y-93835771D02*
X154790476Y-93788152D01*
X154790476Y-93788152D02*
X154600000Y-93788152D01*
X154600000Y-93788152D02*
X154504762Y-93835771D01*
X154933333Y-94407200D02*
X154838095Y-94454819D01*
X154838095Y-94454819D02*
X154600000Y-94454819D01*
X154600000Y-94454819D02*
X154504762Y-94407200D01*
X154504762Y-94407200D02*
X154457143Y-94311961D01*
X154457143Y-94311961D02*
X154457143Y-94216723D01*
X154457143Y-94216723D02*
X154504762Y-94121485D01*
X154504762Y-94121485D02*
X154600000Y-94073866D01*
X154600000Y-94073866D02*
X154838095Y-94073866D01*
X154838095Y-94073866D02*
X154933333Y-94026247D01*
X155409524Y-93788152D02*
X155409524Y-94454819D01*
X155409524Y-93883390D02*
X155457143Y-93835771D01*
X155457143Y-93835771D02*
X155552381Y-93788152D01*
X155552381Y-93788152D02*
X155695238Y-93788152D01*
X155695238Y-93788152D02*
X155790476Y-93835771D01*
X155790476Y-93835771D02*
X155838095Y-93931009D01*
X155838095Y-93931009D02*
X155838095Y-94454819D01*
X156695238Y-94407200D02*
X156600000Y-94454819D01*
X156600000Y-94454819D02*
X156409524Y-94454819D01*
X156409524Y-94454819D02*
X156314286Y-94407200D01*
X156314286Y-94407200D02*
X156266667Y-94311961D01*
X156266667Y-94311961D02*
X156266667Y-93931009D01*
X156266667Y-93931009D02*
X156314286Y-93835771D01*
X156314286Y-93835771D02*
X156409524Y-93788152D01*
X156409524Y-93788152D02*
X156600000Y-93788152D01*
X156600000Y-93788152D02*
X156695238Y-93835771D01*
X156695238Y-93835771D02*
X156742857Y-93931009D01*
X156742857Y-93931009D02*
X156742857Y-94026247D01*
X156742857Y-94026247D02*
X156266667Y-94121485D01*
X157314286Y-94454819D02*
X157219048Y-94407200D01*
X157219048Y-94407200D02*
X157171429Y-94311961D01*
X157171429Y-94311961D02*
X157171429Y-93454819D01*
X138324200Y-94271428D02*
X138362295Y-94157142D01*
X138362295Y-94157142D02*
X138362295Y-93966666D01*
X138362295Y-93966666D02*
X138324200Y-93890475D01*
X138324200Y-93890475D02*
X138286104Y-93852380D01*
X138286104Y-93852380D02*
X138209914Y-93814285D01*
X138209914Y-93814285D02*
X138133723Y-93814285D01*
X138133723Y-93814285D02*
X138057533Y-93852380D01*
X138057533Y-93852380D02*
X138019438Y-93890475D01*
X138019438Y-93890475D02*
X137981342Y-93966666D01*
X137981342Y-93966666D02*
X137943247Y-94119047D01*
X137943247Y-94119047D02*
X137905152Y-94195237D01*
X137905152Y-94195237D02*
X137867057Y-94233332D01*
X137867057Y-94233332D02*
X137790866Y-94271428D01*
X137790866Y-94271428D02*
X137714676Y-94271428D01*
X137714676Y-94271428D02*
X137638485Y-94233332D01*
X137638485Y-94233332D02*
X137600390Y-94195237D01*
X137600390Y-94195237D02*
X137562295Y-94119047D01*
X137562295Y-94119047D02*
X137562295Y-93928570D01*
X137562295Y-93928570D02*
X137600390Y-93814285D01*
X138362295Y-93471427D02*
X137562295Y-93471427D01*
X137562295Y-93471427D02*
X137562295Y-93280951D01*
X137562295Y-93280951D02*
X137600390Y-93166665D01*
X137600390Y-93166665D02*
X137676580Y-93090475D01*
X137676580Y-93090475D02*
X137752771Y-93052380D01*
X137752771Y-93052380D02*
X137905152Y-93014284D01*
X137905152Y-93014284D02*
X138019438Y-93014284D01*
X138019438Y-93014284D02*
X138171819Y-93052380D01*
X138171819Y-93052380D02*
X138248009Y-93090475D01*
X138248009Y-93090475D02*
X138324200Y-93166665D01*
X138324200Y-93166665D02*
X138362295Y-93280951D01*
X138362295Y-93280951D02*
X138362295Y-93471427D01*
X138133723Y-92709523D02*
X138133723Y-92328570D01*
X138362295Y-92785713D02*
X137562295Y-92519046D01*
X137562295Y-92519046D02*
X138362295Y-92252380D01*
X138324200Y-96752381D02*
X138362295Y-96638095D01*
X138362295Y-96638095D02*
X138362295Y-96447619D01*
X138362295Y-96447619D02*
X138324200Y-96371428D01*
X138324200Y-96371428D02*
X138286104Y-96333333D01*
X138286104Y-96333333D02*
X138209914Y-96295238D01*
X138209914Y-96295238D02*
X138133723Y-96295238D01*
X138133723Y-96295238D02*
X138057533Y-96333333D01*
X138057533Y-96333333D02*
X138019438Y-96371428D01*
X138019438Y-96371428D02*
X137981342Y-96447619D01*
X137981342Y-96447619D02*
X137943247Y-96600000D01*
X137943247Y-96600000D02*
X137905152Y-96676190D01*
X137905152Y-96676190D02*
X137867057Y-96714285D01*
X137867057Y-96714285D02*
X137790866Y-96752381D01*
X137790866Y-96752381D02*
X137714676Y-96752381D01*
X137714676Y-96752381D02*
X137638485Y-96714285D01*
X137638485Y-96714285D02*
X137600390Y-96676190D01*
X137600390Y-96676190D02*
X137562295Y-96600000D01*
X137562295Y-96600000D02*
X137562295Y-96409523D01*
X137562295Y-96409523D02*
X137600390Y-96295238D01*
X138286104Y-95495237D02*
X138324200Y-95533333D01*
X138324200Y-95533333D02*
X138362295Y-95647618D01*
X138362295Y-95647618D02*
X138362295Y-95723809D01*
X138362295Y-95723809D02*
X138324200Y-95838095D01*
X138324200Y-95838095D02*
X138248009Y-95914285D01*
X138248009Y-95914285D02*
X138171819Y-95952380D01*
X138171819Y-95952380D02*
X138019438Y-95990476D01*
X138019438Y-95990476D02*
X137905152Y-95990476D01*
X137905152Y-95990476D02*
X137752771Y-95952380D01*
X137752771Y-95952380D02*
X137676580Y-95914285D01*
X137676580Y-95914285D02*
X137600390Y-95838095D01*
X137600390Y-95838095D02*
X137562295Y-95723809D01*
X137562295Y-95723809D02*
X137562295Y-95647618D01*
X137562295Y-95647618D02*
X137600390Y-95533333D01*
X137600390Y-95533333D02*
X137638485Y-95495237D01*
X138362295Y-94771428D02*
X138362295Y-95152380D01*
X138362295Y-95152380D02*
X137562295Y-95152380D01*
D11*
X131093734Y-152232866D02*
X130484211Y-152232866D01*
X139143734Y-155607866D02*
X138534211Y-155607866D01*
X138838972Y-155303104D02*
X138838972Y-155912628D01*
D10*
X148313333Y-131784819D02*
X147980000Y-131308628D01*
X147741905Y-131784819D02*
X147741905Y-130784819D01*
X147741905Y-130784819D02*
X148122857Y-130784819D01*
X148122857Y-130784819D02*
X148218095Y-130832438D01*
X148218095Y-130832438D02*
X148265714Y-130880057D01*
X148265714Y-130880057D02*
X148313333Y-130975295D01*
X148313333Y-130975295D02*
X148313333Y-131118152D01*
X148313333Y-131118152D02*
X148265714Y-131213390D01*
X148265714Y-131213390D02*
X148218095Y-131261009D01*
X148218095Y-131261009D02*
X148122857Y-131308628D01*
X148122857Y-131308628D02*
X147741905Y-131308628D01*
X148646667Y-130784819D02*
X149265714Y-130784819D01*
X149265714Y-130784819D02*
X148932381Y-131165771D01*
X148932381Y-131165771D02*
X149075238Y-131165771D01*
X149075238Y-131165771D02*
X149170476Y-131213390D01*
X149170476Y-131213390D02*
X149218095Y-131261009D01*
X149218095Y-131261009D02*
X149265714Y-131356247D01*
X149265714Y-131356247D02*
X149265714Y-131594342D01*
X149265714Y-131594342D02*
X149218095Y-131689580D01*
X149218095Y-131689580D02*
X149170476Y-131737200D01*
X149170476Y-131737200D02*
X149075238Y-131784819D01*
X149075238Y-131784819D02*
X148789524Y-131784819D01*
X148789524Y-131784819D02*
X148694286Y-131737200D01*
X148694286Y-131737200D02*
X148646667Y-131689580D01*
X167823333Y-131784819D02*
X167490000Y-131308628D01*
X167251905Y-131784819D02*
X167251905Y-130784819D01*
X167251905Y-130784819D02*
X167632857Y-130784819D01*
X167632857Y-130784819D02*
X167728095Y-130832438D01*
X167728095Y-130832438D02*
X167775714Y-130880057D01*
X167775714Y-130880057D02*
X167823333Y-130975295D01*
X167823333Y-130975295D02*
X167823333Y-131118152D01*
X167823333Y-131118152D02*
X167775714Y-131213390D01*
X167775714Y-131213390D02*
X167728095Y-131261009D01*
X167728095Y-131261009D02*
X167632857Y-131308628D01*
X167632857Y-131308628D02*
X167251905Y-131308628D01*
X168680476Y-131118152D02*
X168680476Y-131784819D01*
X168442381Y-130737200D02*
X168204286Y-131451485D01*
X168204286Y-131451485D02*
X168823333Y-131451485D01*
X151535714Y-109657200D02*
X151678571Y-109704819D01*
X151678571Y-109704819D02*
X151916666Y-109704819D01*
X151916666Y-109704819D02*
X152011904Y-109657200D01*
X152011904Y-109657200D02*
X152059523Y-109609580D01*
X152059523Y-109609580D02*
X152107142Y-109514342D01*
X152107142Y-109514342D02*
X152107142Y-109419104D01*
X152107142Y-109419104D02*
X152059523Y-109323866D01*
X152059523Y-109323866D02*
X152011904Y-109276247D01*
X152011904Y-109276247D02*
X151916666Y-109228628D01*
X151916666Y-109228628D02*
X151726190Y-109181009D01*
X151726190Y-109181009D02*
X151630952Y-109133390D01*
X151630952Y-109133390D02*
X151583333Y-109085771D01*
X151583333Y-109085771D02*
X151535714Y-108990533D01*
X151535714Y-108990533D02*
X151535714Y-108895295D01*
X151535714Y-108895295D02*
X151583333Y-108800057D01*
X151583333Y-108800057D02*
X151630952Y-108752438D01*
X151630952Y-108752438D02*
X151726190Y-108704819D01*
X151726190Y-108704819D02*
X151964285Y-108704819D01*
X151964285Y-108704819D02*
X152107142Y-108752438D01*
X152440476Y-108704819D02*
X152678571Y-109704819D01*
X152678571Y-109704819D02*
X152869047Y-108990533D01*
X152869047Y-108990533D02*
X153059523Y-109704819D01*
X153059523Y-109704819D02*
X153297619Y-108704819D01*
X153440476Y-109800057D02*
X154202380Y-109800057D01*
X154392857Y-108800057D02*
X154440476Y-108752438D01*
X154440476Y-108752438D02*
X154535714Y-108704819D01*
X154535714Y-108704819D02*
X154773809Y-108704819D01*
X154773809Y-108704819D02*
X154869047Y-108752438D01*
X154869047Y-108752438D02*
X154916666Y-108800057D01*
X154916666Y-108800057D02*
X154964285Y-108895295D01*
X154964285Y-108895295D02*
X154964285Y-108990533D01*
X154964285Y-108990533D02*
X154916666Y-109133390D01*
X154916666Y-109133390D02*
X154345238Y-109704819D01*
X154345238Y-109704819D02*
X154964285Y-109704819D01*
X101658333Y-116929580D02*
X101610714Y-116977200D01*
X101610714Y-116977200D02*
X101467857Y-117024819D01*
X101467857Y-117024819D02*
X101372619Y-117024819D01*
X101372619Y-117024819D02*
X101229762Y-116977200D01*
X101229762Y-116977200D02*
X101134524Y-116881961D01*
X101134524Y-116881961D02*
X101086905Y-116786723D01*
X101086905Y-116786723D02*
X101039286Y-116596247D01*
X101039286Y-116596247D02*
X101039286Y-116453390D01*
X101039286Y-116453390D02*
X101086905Y-116262914D01*
X101086905Y-116262914D02*
X101134524Y-116167676D01*
X101134524Y-116167676D02*
X101229762Y-116072438D01*
X101229762Y-116072438D02*
X101372619Y-116024819D01*
X101372619Y-116024819D02*
X101467857Y-116024819D01*
X101467857Y-116024819D02*
X101610714Y-116072438D01*
X101610714Y-116072438D02*
X101658333Y-116120057D01*
X102134524Y-117024819D02*
X102325000Y-117024819D01*
X102325000Y-117024819D02*
X102420238Y-116977200D01*
X102420238Y-116977200D02*
X102467857Y-116929580D01*
X102467857Y-116929580D02*
X102563095Y-116786723D01*
X102563095Y-116786723D02*
X102610714Y-116596247D01*
X102610714Y-116596247D02*
X102610714Y-116215295D01*
X102610714Y-116215295D02*
X102563095Y-116120057D01*
X102563095Y-116120057D02*
X102515476Y-116072438D01*
X102515476Y-116072438D02*
X102420238Y-116024819D01*
X102420238Y-116024819D02*
X102229762Y-116024819D01*
X102229762Y-116024819D02*
X102134524Y-116072438D01*
X102134524Y-116072438D02*
X102086905Y-116120057D01*
X102086905Y-116120057D02*
X102039286Y-116215295D01*
X102039286Y-116215295D02*
X102039286Y-116453390D01*
X102039286Y-116453390D02*
X102086905Y-116548628D01*
X102086905Y-116548628D02*
X102134524Y-116596247D01*
X102134524Y-116596247D02*
X102229762Y-116643866D01*
X102229762Y-116643866D02*
X102420238Y-116643866D01*
X102420238Y-116643866D02*
X102515476Y-116596247D01*
X102515476Y-116596247D02*
X102563095Y-116548628D01*
X102563095Y-116548628D02*
X102610714Y-116453390D01*
D11*
X93767133Y-130843734D02*
X93767133Y-130234211D01*
X90392133Y-138893734D02*
X90392133Y-138284211D01*
X90696895Y-138588972D02*
X90087371Y-138588972D01*
D10*
X145035714Y-116157200D02*
X145178571Y-116204819D01*
X145178571Y-116204819D02*
X145416666Y-116204819D01*
X145416666Y-116204819D02*
X145511904Y-116157200D01*
X145511904Y-116157200D02*
X145559523Y-116109580D01*
X145559523Y-116109580D02*
X145607142Y-116014342D01*
X145607142Y-116014342D02*
X145607142Y-115919104D01*
X145607142Y-115919104D02*
X145559523Y-115823866D01*
X145559523Y-115823866D02*
X145511904Y-115776247D01*
X145511904Y-115776247D02*
X145416666Y-115728628D01*
X145416666Y-115728628D02*
X145226190Y-115681009D01*
X145226190Y-115681009D02*
X145130952Y-115633390D01*
X145130952Y-115633390D02*
X145083333Y-115585771D01*
X145083333Y-115585771D02*
X145035714Y-115490533D01*
X145035714Y-115490533D02*
X145035714Y-115395295D01*
X145035714Y-115395295D02*
X145083333Y-115300057D01*
X145083333Y-115300057D02*
X145130952Y-115252438D01*
X145130952Y-115252438D02*
X145226190Y-115204819D01*
X145226190Y-115204819D02*
X145464285Y-115204819D01*
X145464285Y-115204819D02*
X145607142Y-115252438D01*
X145940476Y-115204819D02*
X146178571Y-116204819D01*
X146178571Y-116204819D02*
X146369047Y-115490533D01*
X146369047Y-115490533D02*
X146559523Y-116204819D01*
X146559523Y-116204819D02*
X146797619Y-115204819D01*
X146940476Y-116300057D02*
X147702380Y-116300057D01*
X147845238Y-115204819D02*
X148464285Y-115204819D01*
X148464285Y-115204819D02*
X148130952Y-115585771D01*
X148130952Y-115585771D02*
X148273809Y-115585771D01*
X148273809Y-115585771D02*
X148369047Y-115633390D01*
X148369047Y-115633390D02*
X148416666Y-115681009D01*
X148416666Y-115681009D02*
X148464285Y-115776247D01*
X148464285Y-115776247D02*
X148464285Y-116014342D01*
X148464285Y-116014342D02*
X148416666Y-116109580D01*
X148416666Y-116109580D02*
X148369047Y-116157200D01*
X148369047Y-116157200D02*
X148273809Y-116204819D01*
X148273809Y-116204819D02*
X147988095Y-116204819D01*
X147988095Y-116204819D02*
X147892857Y-116157200D01*
X147892857Y-116157200D02*
X147845238Y-116109580D01*
D12*
X140367836Y-132140000D02*
X140152164Y-132140000D01*
X140367836Y-132860000D02*
X140152164Y-132860000D01*
D11*
X164800000Y-150700000D02*
X164800000Y-151700000D01*
X164800000Y-151700000D02*
X165800000Y-150700000D01*
D12*
X165350000Y-151250000D02*
X165350000Y-152400000D01*
D11*
X165800000Y-150700000D02*
X164800000Y-150700000D01*
D12*
X172650000Y-151250000D02*
X165350000Y-151250000D01*
X172650000Y-156750000D02*
X165350000Y-156750000D01*
X89095000Y-113650000D02*
X89095000Y-106350000D01*
D11*
X94145000Y-105800000D02*
X95145000Y-106800000D01*
D12*
X94595000Y-106350000D02*
X93445000Y-106350000D01*
X94595000Y-113650000D02*
X94595000Y-106350000D01*
D11*
X95145000Y-105800000D02*
X94145000Y-105800000D01*
X95145000Y-106800000D02*
X95145000Y-105800000D01*
X140510000Y-145200000D02*
X140510000Y-146200000D01*
X140510000Y-146200000D02*
X141510000Y-145200000D01*
D12*
X141060000Y-145750000D02*
X141060000Y-146900000D01*
D11*
X141510000Y-145200000D02*
X140510000Y-145200000D01*
D12*
X148360000Y-145750000D02*
X141060000Y-145750000D01*
X148360000Y-151250000D02*
X141060000Y-151250000D01*
X106392164Y-132140000D02*
X106607836Y-132140000D01*
X106392164Y-132860000D02*
X106607836Y-132860000D01*
D11*
X96800000Y-150700000D02*
X96800000Y-151700000D01*
X96800000Y-151700000D02*
X97800000Y-150700000D01*
D12*
X97350000Y-151250000D02*
X97350000Y-152400000D01*
D11*
X97800000Y-150700000D02*
X96800000Y-150700000D01*
D12*
X104650000Y-151250000D02*
X97350000Y-151250000D01*
X104650000Y-156750000D02*
X97350000Y-156750000D01*
X163612164Y-132140000D02*
X163827836Y-132140000D01*
X163612164Y-132860000D02*
X163827836Y-132860000D01*
X102607836Y-132140000D02*
X102392164Y-132140000D01*
X102607836Y-132860000D02*
X102392164Y-132860000D01*
D11*
X175200000Y-113200000D02*
X175200000Y-114200000D01*
X175200000Y-114200000D02*
X176200000Y-114200000D01*
D12*
X175750000Y-106350000D02*
X175750000Y-113650000D01*
X175750000Y-113650000D02*
X176900000Y-113650000D01*
D11*
X176200000Y-114200000D02*
X175200000Y-113200000D01*
D12*
X181250000Y-106350000D02*
X181250000Y-113650000D01*
X125402164Y-132140000D02*
X125617836Y-132140000D01*
X125402164Y-132860000D02*
X125617836Y-132860000D01*
D11*
X175410000Y-137950000D02*
X175410000Y-138950000D01*
X175410000Y-138950000D02*
X176410000Y-138950000D01*
D12*
X175960000Y-131100000D02*
X175960000Y-138400000D01*
X175960000Y-138400000D02*
X177110000Y-138400000D01*
D11*
X176410000Y-138950000D02*
X175410000Y-137950000D01*
D12*
X181460000Y-131100000D02*
X181460000Y-138400000D01*
X110336359Y-132120000D02*
X110643641Y-132120000D01*
X110336359Y-132880000D02*
X110643641Y-132880000D01*
X129326359Y-132120000D02*
X129633641Y-132120000D01*
X129326359Y-132880000D02*
X129633641Y-132880000D01*
X156245000Y-112520000D02*
X162705000Y-112520000D01*
X156245000Y-112550000D02*
X156245000Y-112520000D01*
X156245000Y-114450000D02*
X156245000Y-117050000D01*
X156245000Y-118980000D02*
X156245000Y-118950000D01*
X156245000Y-118980000D02*
X162705000Y-118980000D01*
X162705000Y-112520000D02*
X162705000Y-112550000D01*
X162705000Y-114450000D02*
X162705000Y-117050000D01*
X162705000Y-118980000D02*
X162705000Y-118950000D01*
D11*
X102510000Y-145200000D02*
X102510000Y-146200000D01*
X102510000Y-146200000D02*
X103510000Y-145200000D01*
D12*
X103060000Y-145750000D02*
X103060000Y-146900000D01*
D11*
X103510000Y-145200000D02*
X102510000Y-145200000D01*
D12*
X110360000Y-145750000D02*
X103060000Y-145750000D01*
X110360000Y-151250000D02*
X103060000Y-151250000D01*
X149995000Y-119020000D02*
X156455000Y-119020000D01*
X149995000Y-119050000D02*
X149995000Y-119020000D01*
X149995000Y-120950000D02*
X149995000Y-123550000D01*
X149995000Y-125480000D02*
X149995000Y-125450000D01*
X149995000Y-125480000D02*
X156455000Y-125480000D01*
X156455000Y-119020000D02*
X156455000Y-119050000D01*
X156455000Y-120950000D02*
X156455000Y-123550000D01*
X156455000Y-125480000D02*
X156455000Y-125450000D01*
X109634420Y-117490000D02*
X109915580Y-117490000D01*
X109634420Y-118510000D02*
X109915580Y-118510000D01*
D11*
X159510000Y-145200000D02*
X159510000Y-146200000D01*
X159510000Y-146200000D02*
X160510000Y-145200000D01*
D12*
X160060000Y-145750000D02*
X160060000Y-146900000D01*
D11*
X160510000Y-145200000D02*
X159510000Y-145200000D01*
D12*
X167360000Y-145750000D02*
X160060000Y-145750000D01*
X167360000Y-151250000D02*
X160060000Y-151250000D01*
X159617836Y-132140000D02*
X159402164Y-132140000D01*
X159617836Y-132860000D02*
X159402164Y-132860000D01*
X144152164Y-132140000D02*
X144367836Y-132140000D01*
X144152164Y-132860000D02*
X144367836Y-132860000D01*
X115210000Y-88500000D02*
X115210000Y-112000000D01*
X115210000Y-112000000D02*
X133210000Y-112000000D01*
X133210000Y-88500000D02*
X115210000Y-88500000D01*
X133210000Y-112000000D02*
X133210000Y-88500000D01*
X121617836Y-132140000D02*
X121402164Y-132140000D01*
X121617836Y-132860000D02*
X121402164Y-132860000D01*
D11*
X121175000Y-145200000D02*
X121175000Y-146200000D01*
X121175000Y-146200000D02*
X122175000Y-145200000D01*
D12*
X121725000Y-145750000D02*
X121725000Y-146900000D01*
D11*
X122175000Y-145200000D02*
X121175000Y-145200000D01*
D12*
X129025000Y-145750000D02*
X121725000Y-145750000D01*
X129025000Y-151250000D02*
X121725000Y-151250000D01*
D13*
X134210000Y-91000000D02*
X134210000Y-103000000D01*
X134210000Y-103000000D02*
X172210000Y-103000000D01*
X139210000Y-103000000D02*
X139210000Y-91000000D01*
X168710000Y-103000000D02*
X168710000Y-91000000D01*
X172210000Y-91000000D02*
X134210000Y-91000000D01*
X172210000Y-103000000D02*
X172210000Y-91000000D01*
D11*
X130800000Y-150700000D02*
X130800000Y-151700000D01*
X130800000Y-151700000D02*
X131800000Y-150700000D01*
D12*
X131350000Y-151250000D02*
X131350000Y-152400000D01*
D11*
X131800000Y-150700000D02*
X130800000Y-150700000D01*
D12*
X138650000Y-151250000D02*
X131350000Y-151250000D01*
X138650000Y-156750000D02*
X131350000Y-156750000D01*
X148326359Y-132120000D02*
X148633641Y-132120000D01*
X148326359Y-132880000D02*
X148633641Y-132880000D01*
X167836359Y-132120000D02*
X168143641Y-132120000D01*
X167836359Y-132880000D02*
X168143641Y-132880000D01*
X150020000Y-106020000D02*
X156480000Y-106020000D01*
X150020000Y-106050000D02*
X150020000Y-106020000D01*
X150020000Y-107950000D02*
X150020000Y-110550000D01*
X150020000Y-112480000D02*
X150020000Y-112450000D01*
X150020000Y-112480000D02*
X156480000Y-112480000D01*
X156480000Y-106020000D02*
X156480000Y-106050000D01*
X156480000Y-107950000D02*
X156480000Y-110550000D01*
X156480000Y-112480000D02*
X156480000Y-112450000D01*
X101684420Y-117490000D02*
X101965580Y-117490000D01*
X101684420Y-118510000D02*
X101965580Y-118510000D01*
X89250000Y-138400000D02*
X89250000Y-131100000D01*
D11*
X94300000Y-130550000D02*
X95300000Y-131550000D01*
D12*
X94750000Y-131100000D02*
X93600000Y-131100000D01*
X94750000Y-138400000D02*
X94750000Y-131100000D01*
D11*
X95300000Y-130550000D02*
X94300000Y-130550000D01*
X95300000Y-131550000D02*
X95300000Y-130550000D01*
D12*
X143520000Y-112520000D02*
X149980000Y-112520000D01*
X143520000Y-112550000D02*
X143520000Y-112520000D01*
X143520000Y-114450000D02*
X143520000Y-117050000D01*
X143520000Y-118980000D02*
X143520000Y-118950000D01*
X143520000Y-118980000D02*
X149980000Y-118980000D01*
X149980000Y-112520000D02*
X149980000Y-112550000D01*
X149980000Y-114450000D02*
X149980000Y-117050000D01*
X149980000Y-118980000D02*
X149980000Y-118950000D01*
%LPC*%
D14*
X140740000Y-132500000D03*
X139780000Y-132500000D03*
D15*
X171450000Y-155650000D03*
X171450000Y-152350000D03*
X166550000Y-152350000D03*
X166550000Y-155650000D03*
D16*
X90195000Y-112450000D03*
X93495000Y-112450000D03*
X93495000Y-107550000D03*
X90195000Y-107550000D03*
D17*
X94350000Y-100750000D03*
X111150000Y-100750000D03*
D18*
X97750000Y-111250000D03*
X102750000Y-111250000D03*
X107750000Y-111250000D03*
X100250000Y-93850000D03*
X105250000Y-93750000D03*
D19*
X101630000Y-141000000D03*
X111790000Y-141000000D03*
D15*
X147160000Y-150150000D03*
X147160000Y-146850000D03*
X142260000Y-146850000D03*
X142260000Y-150150000D03*
D20*
X106020000Y-132500000D03*
X106980000Y-132500000D03*
D15*
X103450000Y-155650000D03*
X103450000Y-152350000D03*
X98550000Y-152350000D03*
X98550000Y-155650000D03*
D20*
X163240000Y-132500000D03*
X164200000Y-132500000D03*
D14*
X102980000Y-132500000D03*
X102020000Y-132500000D03*
D16*
X180150000Y-107550000D03*
X176850000Y-107550000D03*
X176850000Y-112450000D03*
X180150000Y-112450000D03*
D20*
X125030000Y-132500000D03*
X125990000Y-132500000D03*
D16*
X180360000Y-132300000D03*
X177060000Y-132300000D03*
X177060000Y-137200000D03*
X180360000Y-137200000D03*
D21*
X109980000Y-132500000D03*
X111000000Y-132500000D03*
X128970000Y-132500000D03*
X129990000Y-132500000D03*
D22*
X155500000Y-113500000D03*
X163450000Y-113500000D03*
X155500000Y-118000000D03*
X163450000Y-118000000D03*
D23*
X178710000Y-93500000D03*
D15*
X109160000Y-150150000D03*
X109160000Y-146850000D03*
X104260000Y-146850000D03*
X104260000Y-150150000D03*
D19*
X120630000Y-141000000D03*
X130790000Y-141000000D03*
D22*
X149250000Y-120000000D03*
X157200000Y-120000000D03*
X149250000Y-124500000D03*
X157200000Y-124500000D03*
D24*
X109000000Y-118000000D03*
X110550000Y-118000000D03*
D19*
X139630000Y-141000000D03*
X149790000Y-141000000D03*
X158630000Y-141000000D03*
X168790000Y-141000000D03*
D15*
X166160000Y-150150000D03*
X166160000Y-146850000D03*
X161260000Y-146850000D03*
X161260000Y-150150000D03*
D14*
X159990000Y-132500000D03*
X159030000Y-132500000D03*
D20*
X143780000Y-132500000D03*
X144740000Y-132500000D03*
D25*
X131830000Y-90090000D03*
X131830000Y-92630000D03*
X131830000Y-95170000D03*
X131830000Y-97710000D03*
X131830000Y-100250000D03*
X131830000Y-102790000D03*
X131830000Y-105330000D03*
X131830000Y-107870000D03*
X131830000Y-110410000D03*
X129290000Y-110410000D03*
X126750000Y-110410000D03*
X124210000Y-110410000D03*
X121670000Y-110410000D03*
X119130000Y-110410000D03*
X116590000Y-110410000D03*
X116590000Y-107870000D03*
X116590000Y-105330000D03*
X116590000Y-102790000D03*
X116590000Y-100250000D03*
X116590000Y-97710000D03*
D26*
X116590000Y-92630000D03*
D27*
X116590000Y-95170000D03*
X116590000Y-90090000D03*
D14*
X121990000Y-132500000D03*
X121030000Y-132500000D03*
D15*
X127825000Y-150150000D03*
X127825000Y-146850000D03*
X122925000Y-146850000D03*
X122925000Y-150150000D03*
D28*
X135710000Y-100810000D03*
D29*
X135710000Y-98270000D03*
X135710000Y-95730000D03*
X135710000Y-93190000D03*
D23*
X178710000Y-151250000D03*
D15*
X137450000Y-155650000D03*
X137450000Y-152350000D03*
X132550000Y-152350000D03*
X132550000Y-155650000D03*
D21*
X147970000Y-132500000D03*
X148990000Y-132500000D03*
X167480000Y-132500000D03*
X168500000Y-132500000D03*
D22*
X149275000Y-107000000D03*
X157225000Y-107000000D03*
X149275000Y-111500000D03*
X157225000Y-111500000D03*
D23*
X91710000Y-93500000D03*
D24*
X101050000Y-118000000D03*
X102600000Y-118000000D03*
D23*
X91710000Y-151250000D03*
D16*
X90350000Y-137200000D03*
X93650000Y-137200000D03*
X93650000Y-132300000D03*
X90350000Y-132300000D03*
D22*
X142775000Y-113500000D03*
X150725000Y-113500000D03*
X142775000Y-118000000D03*
X150725000Y-118000000D03*
%LPD*%
M02*
