G04 #@! TF.GenerationSoftware,KiCad,Pcbnew,8.0.1*
G04 #@! TF.CreationDate,2024-04-13T19:32:52-07:00*
G04 #@! TF.ProjectId,strellpad,73747265-6c6c-4706-9164-2e6b69636164,rev?*
G04 #@! TF.SameCoordinates,Original*
G04 #@! TF.FileFunction,Legend,Bot*
G04 #@! TF.FilePolarity,Positive*
%FSLAX46Y46*%
G04 Gerber Fmt 4.6, Leading zero omitted, Abs format (unit mm)*
G04 Created by KiCad (PCBNEW 8.0.1) date 2024-04-13 19:32:52*
%MOMM*%
%LPD*%
G01*
G04 APERTURE LIST*
G04 Aperture macros list*
%AMRoundRect*
0 Rectangle with rounded corners*
0 $1 Rounding radius*
0 $2 $3 $4 $5 $6 $7 $8 $9 X,Y pos of 4 corners*
0 Add a 4 corners polygon primitive as box body*
4,1,4,$2,$3,$4,$5,$6,$7,$8,$9,$2,$3,0*
0 Add four circle primitives for the rounded corners*
1,1,$1+$1,$2,$3*
1,1,$1+$1,$4,$5*
1,1,$1+$1,$6,$7*
1,1,$1+$1,$8,$9*
0 Add four rect primitives between the rounded corners*
20,1,$1+$1,$2,$3,$4,$5,0*
20,1,$1+$1,$4,$5,$6,$7,0*
20,1,$1+$1,$6,$7,$8,$9,0*
20,1,$1+$1,$8,$9,$2,$3,0*%
G04 Aperture macros list end*
%ADD10C,0.150000*%
%ADD11C,0.120000*%
%ADD12RoundRect,0.102000X-1.608000X-1.608000X1.608000X-1.608000X1.608000X1.608000X-1.608000X1.608000X0*%
%ADD13C,2.154000*%
%ADD14C,1.750000*%
%ADD15C,3.200000*%
%ADD16C,1.600000*%
%ADD17R,1.600000X1.600000*%
%ADD18RoundRect,0.300000X0.000000X-0.707107X0.707107X0.000000X0.000000X0.707107X-0.707107X0.000000X0*%
%ADD19R,1.700000X1.700000*%
%ADD20O,1.700000X1.700000*%
%ADD21RoundRect,0.150000X-0.587500X-0.150000X0.587500X-0.150000X0.587500X0.150000X-0.587500X0.150000X0*%
G04 APERTURE END LIST*
D10*
X127305237Y-143854819D02*
X127305237Y-142854819D01*
X127305237Y-143331009D02*
X126733809Y-143331009D01*
X126733809Y-143854819D02*
X126733809Y-142854819D01*
X126257618Y-143331009D02*
X125924285Y-143331009D01*
X125781428Y-143854819D02*
X126257618Y-143854819D01*
X126257618Y-143854819D02*
X126257618Y-142854819D01*
X126257618Y-142854819D02*
X125781428Y-142854819D01*
X125590952Y-143950057D02*
X124829047Y-143950057D01*
X124638570Y-142950057D02*
X124590951Y-142902438D01*
X124590951Y-142902438D02*
X124495713Y-142854819D01*
X124495713Y-142854819D02*
X124257618Y-142854819D01*
X124257618Y-142854819D02*
X124162380Y-142902438D01*
X124162380Y-142902438D02*
X124114761Y-142950057D01*
X124114761Y-142950057D02*
X124067142Y-143045295D01*
X124067142Y-143045295D02*
X124067142Y-143140533D01*
X124067142Y-143140533D02*
X124114761Y-143283390D01*
X124114761Y-143283390D02*
X124686189Y-143854819D01*
X124686189Y-143854819D02*
X124067142Y-143854819D01*
X108305237Y-143854819D02*
X108305237Y-142854819D01*
X108305237Y-143331009D02*
X107733809Y-143331009D01*
X107733809Y-143854819D02*
X107733809Y-142854819D01*
X107257618Y-143331009D02*
X106924285Y-143331009D01*
X106781428Y-143854819D02*
X107257618Y-143854819D01*
X107257618Y-143854819D02*
X107257618Y-142854819D01*
X107257618Y-142854819D02*
X106781428Y-142854819D01*
X106590952Y-143950057D02*
X105829047Y-143950057D01*
X105067142Y-143854819D02*
X105638570Y-143854819D01*
X105352856Y-143854819D02*
X105352856Y-142854819D01*
X105352856Y-142854819D02*
X105448094Y-142997676D01*
X105448094Y-142997676D02*
X105543332Y-143092914D01*
X105543332Y-143092914D02*
X105638570Y-143140533D01*
X146305237Y-143854819D02*
X146305237Y-142854819D01*
X146305237Y-143331009D02*
X145733809Y-143331009D01*
X145733809Y-143854819D02*
X145733809Y-142854819D01*
X145257618Y-143331009D02*
X144924285Y-143331009D01*
X144781428Y-143854819D02*
X145257618Y-143854819D01*
X145257618Y-143854819D02*
X145257618Y-142854819D01*
X145257618Y-142854819D02*
X144781428Y-142854819D01*
X144590952Y-143950057D02*
X143829047Y-143950057D01*
X143686189Y-142854819D02*
X143067142Y-142854819D01*
X143067142Y-142854819D02*
X143400475Y-143235771D01*
X143400475Y-143235771D02*
X143257618Y-143235771D01*
X143257618Y-143235771D02*
X143162380Y-143283390D01*
X143162380Y-143283390D02*
X143114761Y-143331009D01*
X143114761Y-143331009D02*
X143067142Y-143426247D01*
X143067142Y-143426247D02*
X143067142Y-143664342D01*
X143067142Y-143664342D02*
X143114761Y-143759580D01*
X143114761Y-143759580D02*
X143162380Y-143807200D01*
X143162380Y-143807200D02*
X143257618Y-143854819D01*
X143257618Y-143854819D02*
X143543332Y-143854819D01*
X143543332Y-143854819D02*
X143638570Y-143807200D01*
X143638570Y-143807200D02*
X143686189Y-143759580D01*
X165305237Y-143854819D02*
X165305237Y-142854819D01*
X165305237Y-143331009D02*
X164733809Y-143331009D01*
X164733809Y-143854819D02*
X164733809Y-142854819D01*
X164257618Y-143331009D02*
X163924285Y-143331009D01*
X163781428Y-143854819D02*
X164257618Y-143854819D01*
X164257618Y-143854819D02*
X164257618Y-142854819D01*
X164257618Y-142854819D02*
X163781428Y-142854819D01*
X163590952Y-143950057D02*
X162829047Y-143950057D01*
X162162380Y-143188152D02*
X162162380Y-143854819D01*
X162400475Y-142807200D02*
X162638570Y-143521485D01*
X162638570Y-143521485D02*
X162019523Y-143521485D01*
D11*
X125710000Y-139440000D02*
X125060000Y-139440000D01*
X125710000Y-139440000D02*
X126360000Y-139440000D01*
X125710000Y-142560000D02*
X124035000Y-142560000D01*
X125710000Y-142560000D02*
X126360000Y-142560000D01*
X106710000Y-139440000D02*
X106060000Y-139440000D01*
X106710000Y-139440000D02*
X107360000Y-139440000D01*
X106710000Y-142560000D02*
X105035000Y-142560000D01*
X106710000Y-142560000D02*
X107360000Y-142560000D01*
X144710000Y-139440000D02*
X144060000Y-139440000D01*
X144710000Y-139440000D02*
X145360000Y-139440000D01*
X144710000Y-142560000D02*
X143035000Y-142560000D01*
X144710000Y-142560000D02*
X145360000Y-142560000D01*
X163710000Y-139440000D02*
X163060000Y-139440000D01*
X163710000Y-139440000D02*
X164360000Y-139440000D01*
X163710000Y-142560000D02*
X162035000Y-142560000D01*
X163710000Y-142560000D02*
X164360000Y-142560000D01*
%LPC*%
D12*
X94350000Y-100750000D03*
X111150000Y-100750000D03*
D13*
X97750000Y-111250000D03*
X102750000Y-111250000D03*
X107750000Y-111250000D03*
X100250000Y-93850000D03*
X105250000Y-93750000D03*
D14*
X101630000Y-141000000D03*
X111790000Y-141000000D03*
D15*
X178710000Y-93500000D03*
D14*
X120630000Y-141000000D03*
X130790000Y-141000000D03*
X139630000Y-141000000D03*
X149790000Y-141000000D03*
X158630000Y-141000000D03*
X168790000Y-141000000D03*
D16*
X131830000Y-90090000D03*
X131830000Y-92630000D03*
X131830000Y-95170000D03*
X131830000Y-97710000D03*
X131830000Y-100250000D03*
X131830000Y-102790000D03*
X131830000Y-105330000D03*
X131830000Y-107870000D03*
X131830000Y-110410000D03*
X129290000Y-110410000D03*
X126750000Y-110410000D03*
X124210000Y-110410000D03*
X121670000Y-110410000D03*
X119130000Y-110410000D03*
X116590000Y-110410000D03*
X116590000Y-107870000D03*
X116590000Y-105330000D03*
X116590000Y-102790000D03*
X116590000Y-100250000D03*
X116590000Y-97710000D03*
D17*
X116590000Y-92630000D03*
D18*
X116590000Y-95170000D03*
X116590000Y-90090000D03*
D19*
X135710000Y-100810000D03*
D20*
X135710000Y-98270000D03*
X135710000Y-95730000D03*
X135710000Y-93190000D03*
D15*
X178710000Y-151250000D03*
X91710000Y-93500000D03*
X91710000Y-151250000D03*
D21*
X124772500Y-141950000D03*
X124772500Y-140050000D03*
X126647500Y-141000000D03*
X105772500Y-141950000D03*
X105772500Y-140050000D03*
X107647500Y-141000000D03*
X143772500Y-141950000D03*
X143772500Y-140050000D03*
X145647500Y-141000000D03*
X162772500Y-141950000D03*
X162772500Y-140050000D03*
X164647500Y-141000000D03*
%LPD*%
M02*
