G04 #@! TF.GenerationSoftware,KiCad,Pcbnew,8.0.1*
G04 #@! TF.CreationDate,2024-04-13T19:32:52-07:00*
G04 #@! TF.ProjectId,strellpad,73747265-6c6c-4706-9164-2e6b69636164,rev?*
G04 #@! TF.SameCoordinates,Original*
G04 #@! TF.FileFunction,Soldermask,Top*
G04 #@! TF.FilePolarity,Negative*
%FSLAX46Y46*%
G04 Gerber Fmt 4.6, Leading zero omitted, Abs format (unit mm)*
G04 Created by KiCad (PCBNEW 8.0.1) date 2024-04-13 19:32:52*
%MOMM*%
%LPD*%
G01*
G04 APERTURE LIST*
G04 Aperture macros list*
%AMRoundRect*
0 Rectangle with rounded corners*
0 $1 Rounding radius*
0 $2 $3 $4 $5 $6 $7 $8 $9 X,Y pos of 4 corners*
0 Add a 4 corners polygon primitive as box body*
4,1,4,$2,$3,$4,$5,$6,$7,$8,$9,$2,$3,0*
0 Add four circle primitives for the rounded corners*
1,1,$1+$1,$2,$3*
1,1,$1+$1,$4,$5*
1,1,$1+$1,$6,$7*
1,1,$1+$1,$8,$9*
0 Add four rect primitives between the rounded corners*
20,1,$1+$1,$2,$3,$4,$5,0*
20,1,$1+$1,$4,$5,$6,$7,0*
20,1,$1+$1,$6,$7,$8,$9,0*
20,1,$1+$1,$8,$9,$2,$3,0*%
G04 Aperture macros list end*
%ADD10RoundRect,0.140000X0.140000X0.170000X-0.140000X0.170000X-0.140000X-0.170000X0.140000X-0.170000X0*%
%ADD11R,1.500000X0.900000*%
%ADD12R,0.900000X1.500000*%
%ADD13RoundRect,0.102000X-1.608000X-1.608000X1.608000X-1.608000X1.608000X1.608000X-1.608000X1.608000X0*%
%ADD14C,2.154000*%
%ADD15C,1.750000*%
%ADD16RoundRect,0.140000X-0.140000X-0.170000X0.140000X-0.170000X0.140000X0.170000X-0.140000X0.170000X0*%
%ADD17RoundRect,0.135000X-0.135000X-0.185000X0.135000X-0.185000X0.135000X0.185000X-0.135000X0.185000X0*%
%ADD18R,1.550000X1.300000*%
%ADD19C,3.200000*%
%ADD20RoundRect,0.225000X-0.225000X-0.250000X0.225000X-0.250000X0.225000X0.250000X-0.225000X0.250000X0*%
%ADD21C,1.600000*%
%ADD22R,1.600000X1.600000*%
%ADD23RoundRect,0.300000X0.000000X-0.707107X0.707107X0.000000X0.000000X0.707107X-0.707107X0.000000X0*%
%ADD24R,1.700000X1.700000*%
%ADD25O,1.700000X1.700000*%
G04 APERTURE END LIST*
D10*
X140740000Y-132500000D03*
X139780000Y-132500000D03*
D11*
X171450000Y-155650000D03*
X171450000Y-152350000D03*
X166550000Y-152350000D03*
X166550000Y-155650000D03*
D12*
X90195000Y-112450000D03*
X93495000Y-112450000D03*
X93495000Y-107550000D03*
X90195000Y-107550000D03*
D13*
X94350000Y-100750000D03*
X111150000Y-100750000D03*
D14*
X97750000Y-111250000D03*
X102750000Y-111250000D03*
X107750000Y-111250000D03*
X100250000Y-93850000D03*
X105250000Y-93750000D03*
D15*
X101630000Y-141000000D03*
X111790000Y-141000000D03*
D11*
X147160000Y-150150000D03*
X147160000Y-146850000D03*
X142260000Y-146850000D03*
X142260000Y-150150000D03*
D16*
X106020000Y-132500000D03*
X106980000Y-132500000D03*
D11*
X103450000Y-155650000D03*
X103450000Y-152350000D03*
X98550000Y-152350000D03*
X98550000Y-155650000D03*
D16*
X163240000Y-132500000D03*
X164200000Y-132500000D03*
D10*
X102980000Y-132500000D03*
X102020000Y-132500000D03*
D12*
X180150000Y-107550000D03*
X176850000Y-107550000D03*
X176850000Y-112450000D03*
X180150000Y-112450000D03*
D16*
X125030000Y-132500000D03*
X125990000Y-132500000D03*
D12*
X180360000Y-132300000D03*
X177060000Y-132300000D03*
X177060000Y-137200000D03*
X180360000Y-137200000D03*
D17*
X109980000Y-132500000D03*
X111000000Y-132500000D03*
X128970000Y-132500000D03*
X129990000Y-132500000D03*
D18*
X155500000Y-113500000D03*
X163450000Y-113500000D03*
X155500000Y-118000000D03*
X163450000Y-118000000D03*
D19*
X178710000Y-93500000D03*
D11*
X109160000Y-150150000D03*
X109160000Y-146850000D03*
X104260000Y-146850000D03*
X104260000Y-150150000D03*
D15*
X120630000Y-141000000D03*
X130790000Y-141000000D03*
D18*
X149250000Y-120000000D03*
X157200000Y-120000000D03*
X149250000Y-124500000D03*
X157200000Y-124500000D03*
D20*
X109000000Y-118000000D03*
X110550000Y-118000000D03*
D15*
X139630000Y-141000000D03*
X149790000Y-141000000D03*
X158630000Y-141000000D03*
X168790000Y-141000000D03*
D11*
X166160000Y-150150000D03*
X166160000Y-146850000D03*
X161260000Y-146850000D03*
X161260000Y-150150000D03*
D10*
X159990000Y-132500000D03*
X159030000Y-132500000D03*
D16*
X143780000Y-132500000D03*
X144740000Y-132500000D03*
D21*
X131830000Y-90090000D03*
X131830000Y-92630000D03*
X131830000Y-95170000D03*
X131830000Y-97710000D03*
X131830000Y-100250000D03*
X131830000Y-102790000D03*
X131830000Y-105330000D03*
X131830000Y-107870000D03*
X131830000Y-110410000D03*
X129290000Y-110410000D03*
X126750000Y-110410000D03*
X124210000Y-110410000D03*
X121670000Y-110410000D03*
X119130000Y-110410000D03*
X116590000Y-110410000D03*
X116590000Y-107870000D03*
X116590000Y-105330000D03*
X116590000Y-102790000D03*
X116590000Y-100250000D03*
X116590000Y-97710000D03*
D22*
X116590000Y-92630000D03*
D23*
X116590000Y-95170000D03*
X116590000Y-90090000D03*
D10*
X121990000Y-132500000D03*
X121030000Y-132500000D03*
D11*
X127825000Y-150150000D03*
X127825000Y-146850000D03*
X122925000Y-146850000D03*
X122925000Y-150150000D03*
D24*
X135710000Y-100810000D03*
D25*
X135710000Y-98270000D03*
X135710000Y-95730000D03*
X135710000Y-93190000D03*
D19*
X178710000Y-151250000D03*
D11*
X137450000Y-155650000D03*
X137450000Y-152350000D03*
X132550000Y-152350000D03*
X132550000Y-155650000D03*
D17*
X147970000Y-132500000D03*
X148990000Y-132500000D03*
X167480000Y-132500000D03*
X168500000Y-132500000D03*
D18*
X149275000Y-107000000D03*
X157225000Y-107000000D03*
X149275000Y-111500000D03*
X157225000Y-111500000D03*
D19*
X91710000Y-93500000D03*
D20*
X101050000Y-118000000D03*
X102600000Y-118000000D03*
D19*
X91710000Y-151250000D03*
D12*
X90350000Y-137200000D03*
X93650000Y-137200000D03*
X93650000Y-132300000D03*
X90350000Y-132300000D03*
D18*
X142775000Y-113500000D03*
X150725000Y-113500000D03*
X142775000Y-118000000D03*
X150725000Y-118000000D03*
M02*
