%TF.GenerationSoftware,KiCad,Pcbnew,8.0.1*%
%TF.CreationDate,2024-04-13T19:33:17-07:00*%
%TF.ProjectId,strellpad,73747265-6c6c-4706-9164-2e6b69636164,rev?*%
%TF.SameCoordinates,Original*%
%TF.FileFunction,Drillmap*%
%TF.FilePolarity,Positive*%
%FSLAX45Y45*%
G04 Gerber Fmt 4.5, Leading zero omitted, Abs format (unit mm)*
G04 Created by KiCad (PCBNEW 8.0.1) date 2024-04-13 19:33:17*
%MOMM*%
%LPD*%
G01*
G04 APERTURE LIST*
%ADD10C,0.100000*%
%ADD11C,0.200000*%
%ADD12C,0.130000*%
%ADD13C,0.220000*%
G04 APERTURE END LIST*
D10*
X8571000Y-8750000D02*
X18471000Y-8750000D01*
X18471000Y-15725000D01*
X8571000Y-15725000D01*
X8571000Y-8750000D01*
D11*
D10*
X9345000Y-13073480D02*
X9385000Y-13113480D01*
X9385000Y-13073480D02*
X9345000Y-13113480D01*
X9440380Y-10746550D02*
X9480380Y-10786550D01*
X9480380Y-10746550D02*
X9440380Y-10786550D01*
X9971710Y-15244040D02*
X10011710Y-15284040D01*
X10011710Y-15244040D02*
X9971710Y-15284040D01*
X10001300Y-11696300D02*
X10041300Y-11736300D01*
X10041300Y-11696300D02*
X10001300Y-11736300D01*
X10182000Y-13134180D02*
X10222000Y-13174180D01*
X10222000Y-13134180D02*
X10182000Y-13174180D01*
X10268410Y-14635080D02*
X10308410Y-14675080D01*
X10308410Y-14635080D02*
X10268410Y-14675080D01*
X10582000Y-13133810D02*
X10622000Y-13173810D01*
X10622000Y-13133810D02*
X10582000Y-13173810D01*
X10831890Y-13283490D02*
X10871890Y-13323490D01*
X10871890Y-13283490D02*
X10831890Y-13323490D01*
X11140430Y-11787220D02*
X11180430Y-11827220D01*
X11180430Y-11787220D02*
X11140430Y-11827220D01*
X12014200Y-13161200D02*
X12054200Y-13201200D01*
X12054200Y-13161200D02*
X12014200Y-13201200D01*
X12135960Y-14636130D02*
X12175960Y-14676130D01*
X12175960Y-14636130D02*
X12135960Y-14676130D01*
X12269470Y-13250500D02*
X12309470Y-13290500D01*
X12309470Y-13250500D02*
X12269470Y-13290500D01*
X12394060Y-13235960D02*
X12434060Y-13275960D01*
X12434060Y-13235960D02*
X12394060Y-13275960D01*
X12743400Y-13236450D02*
X12783400Y-13276450D01*
X12783400Y-13236450D02*
X12743400Y-13276450D01*
X13372710Y-15184960D02*
X13412710Y-15224960D01*
X13412710Y-15184960D02*
X13372710Y-15224960D01*
X13889710Y-13161710D02*
X13929710Y-13201710D01*
X13929710Y-13161710D02*
X13889710Y-13201710D01*
X14289770Y-13161770D02*
X14329770Y-13201770D01*
X14329770Y-13161770D02*
X14289770Y-13201770D01*
X14309160Y-10454070D02*
X14349160Y-10494070D01*
X14349160Y-10454070D02*
X14309160Y-10494070D01*
X14342000Y-14636670D02*
X14382000Y-14676670D01*
X14382000Y-14636670D02*
X14342000Y-14676670D01*
X14396200Y-11352590D02*
X14436200Y-11392590D01*
X14436200Y-11352590D02*
X14396200Y-11392590D01*
X14621480Y-13188970D02*
X14661480Y-13228970D01*
X14661480Y-13188970D02*
X14621480Y-13228970D01*
X14979860Y-10553000D02*
X15019860Y-10593000D01*
X15019860Y-10553000D02*
X14979860Y-10593000D01*
X15045800Y-11949370D02*
X15085800Y-11989370D01*
X15085800Y-11949370D02*
X15045800Y-11989370D01*
X15390840Y-11315500D02*
X15430840Y-11355500D01*
X15430840Y-11315500D02*
X15390840Y-11355500D01*
X15702500Y-10805810D02*
X15742500Y-10845810D01*
X15742500Y-10805810D02*
X15702500Y-10845810D01*
X15814800Y-13298200D02*
X15854800Y-13338200D01*
X15854800Y-13298200D02*
X15814800Y-13338200D01*
X15839810Y-12009640D02*
X15879810Y-12049640D01*
X15879810Y-12009640D02*
X15839810Y-12049640D01*
X16185140Y-11352590D02*
X16225140Y-11392590D01*
X16225140Y-11352590D02*
X16185140Y-11392590D01*
X16211360Y-13249240D02*
X16251360Y-13289240D01*
X16251360Y-13249240D02*
X16211360Y-13289240D01*
X16242890Y-14694220D02*
X16282890Y-14734220D01*
X16282890Y-14694220D02*
X16242890Y-14734220D01*
X16588980Y-13188970D02*
X16628980Y-13228970D01*
X16628980Y-13188970D02*
X16588980Y-13228970D01*
X16774050Y-15201040D02*
X16814050Y-15241040D01*
X16814050Y-15201040D02*
X16774050Y-15241040D01*
X17665000Y-11362100D02*
X17705000Y-11402100D01*
X17705000Y-11362100D02*
X17665000Y-11402100D01*
X17758570Y-13564770D02*
X17798570Y-13604770D01*
X17798570Y-13564770D02*
X17758570Y-13604770D01*
X11699000Y-9009000D02*
G75*
G02*
X11619000Y-9009000I-40000J0D01*
G01*
X11619000Y-9009000D02*
G75*
G02*
X11699000Y-9009000I40000J0D01*
G01*
X11699000Y-9263000D02*
G75*
G02*
X11619000Y-9263000I-40000J0D01*
G01*
X11619000Y-9263000D02*
G75*
G02*
X11699000Y-9263000I40000J0D01*
G01*
X11699000Y-9517000D02*
G75*
G02*
X11619000Y-9517000I-40000J0D01*
G01*
X11619000Y-9517000D02*
G75*
G02*
X11699000Y-9517000I40000J0D01*
G01*
X11699000Y-9771000D02*
G75*
G02*
X11619000Y-9771000I-40000J0D01*
G01*
X11619000Y-9771000D02*
G75*
G02*
X11699000Y-9771000I40000J0D01*
G01*
X11699000Y-10025000D02*
G75*
G02*
X11619000Y-10025000I-40000J0D01*
G01*
X11619000Y-10025000D02*
G75*
G02*
X11699000Y-10025000I40000J0D01*
G01*
X11699000Y-10279000D02*
G75*
G02*
X11619000Y-10279000I-40000J0D01*
G01*
X11619000Y-10279000D02*
G75*
G02*
X11699000Y-10279000I40000J0D01*
G01*
X11699000Y-10533000D02*
G75*
G02*
X11619000Y-10533000I-40000J0D01*
G01*
X11619000Y-10533000D02*
G75*
G02*
X11699000Y-10533000I40000J0D01*
G01*
X11699000Y-10787000D02*
G75*
G02*
X11619000Y-10787000I-40000J0D01*
G01*
X11619000Y-10787000D02*
G75*
G02*
X11699000Y-10787000I40000J0D01*
G01*
X11699000Y-11041000D02*
G75*
G02*
X11619000Y-11041000I-40000J0D01*
G01*
X11619000Y-11041000D02*
G75*
G02*
X11699000Y-11041000I40000J0D01*
G01*
X11953000Y-11041000D02*
G75*
G02*
X11873000Y-11041000I-40000J0D01*
G01*
X11873000Y-11041000D02*
G75*
G02*
X11953000Y-11041000I40000J0D01*
G01*
X12207000Y-11041000D02*
G75*
G02*
X12127000Y-11041000I-40000J0D01*
G01*
X12127000Y-11041000D02*
G75*
G02*
X12207000Y-11041000I40000J0D01*
G01*
X12461000Y-11041000D02*
G75*
G02*
X12381000Y-11041000I-40000J0D01*
G01*
X12381000Y-11041000D02*
G75*
G02*
X12461000Y-11041000I40000J0D01*
G01*
X12715000Y-11041000D02*
G75*
G02*
X12635000Y-11041000I-40000J0D01*
G01*
X12635000Y-11041000D02*
G75*
G02*
X12715000Y-11041000I40000J0D01*
G01*
X12969000Y-11041000D02*
G75*
G02*
X12889000Y-11041000I-40000J0D01*
G01*
X12889000Y-11041000D02*
G75*
G02*
X12969000Y-11041000I40000J0D01*
G01*
X13223000Y-9009000D02*
G75*
G02*
X13143000Y-9009000I-40000J0D01*
G01*
X13143000Y-9009000D02*
G75*
G02*
X13223000Y-9009000I40000J0D01*
G01*
X13223000Y-9263000D02*
G75*
G02*
X13143000Y-9263000I-40000J0D01*
G01*
X13143000Y-9263000D02*
G75*
G02*
X13223000Y-9263000I40000J0D01*
G01*
X13223000Y-9517000D02*
G75*
G02*
X13143000Y-9517000I-40000J0D01*
G01*
X13143000Y-9517000D02*
G75*
G02*
X13223000Y-9517000I40000J0D01*
G01*
X13223000Y-9771000D02*
G75*
G02*
X13143000Y-9771000I-40000J0D01*
G01*
X13143000Y-9771000D02*
G75*
G02*
X13223000Y-9771000I40000J0D01*
G01*
X13223000Y-10025000D02*
G75*
G02*
X13143000Y-10025000I-40000J0D01*
G01*
X13143000Y-10025000D02*
G75*
G02*
X13223000Y-10025000I40000J0D01*
G01*
X13223000Y-10279000D02*
G75*
G02*
X13143000Y-10279000I-40000J0D01*
G01*
X13143000Y-10279000D02*
G75*
G02*
X13223000Y-10279000I40000J0D01*
G01*
X13223000Y-10533000D02*
G75*
G02*
X13143000Y-10533000I-40000J0D01*
G01*
X13143000Y-10533000D02*
G75*
G02*
X13223000Y-10533000I40000J0D01*
G01*
X13223000Y-10787000D02*
G75*
G02*
X13143000Y-10787000I-40000J0D01*
G01*
X13143000Y-10787000D02*
G75*
G02*
X13223000Y-10787000I40000J0D01*
G01*
X13223000Y-11041000D02*
G75*
G02*
X13143000Y-11041000I-40000J0D01*
G01*
X13143000Y-11041000D02*
G75*
G02*
X13223000Y-11041000I40000J0D01*
G01*
X13571000Y-9269000D02*
X13571000Y-9369000D01*
X13521000Y-9319000D02*
X13621000Y-9319000D01*
X13571000Y-9523000D02*
X13571000Y-9623000D01*
X13521000Y-9573000D02*
X13621000Y-9573000D01*
X13571000Y-9777000D02*
X13571000Y-9877000D01*
X13521000Y-9827000D02*
X13621000Y-9827000D01*
X13571000Y-10031000D02*
X13571000Y-10131000D01*
X13521000Y-10081000D02*
X13621000Y-10081000D01*
D12*
X9820962Y-11170962D02*
X9820962Y-11079038D01*
X9729038Y-11079038D01*
X9729038Y-11170962D01*
X9820962Y-11170962D01*
X10070962Y-9430962D02*
X10070962Y-9339038D01*
X9979038Y-9339038D01*
X9979038Y-9430962D01*
X10070962Y-9430962D01*
X10320962Y-11170962D02*
X10320962Y-11079038D01*
X10229038Y-11079038D01*
X10229038Y-11170962D01*
X10320962Y-11170962D01*
X10570962Y-9420962D02*
X10570962Y-9329038D01*
X10479038Y-9329038D01*
X10479038Y-9420962D01*
X10570962Y-9420962D01*
X10820962Y-11170962D02*
X10820962Y-11079038D01*
X10729038Y-11079038D01*
X10729038Y-11170962D01*
X10820962Y-11170962D01*
D13*
X9435000Y-10185000D02*
X9545000Y-10075000D01*
X9435000Y-9965000D01*
X9325000Y-10075000D01*
X9435000Y-10185000D01*
X11115000Y-10185000D02*
X11225000Y-10075000D01*
X11115000Y-9965000D01*
X11005000Y-10075000D01*
X11115000Y-10185000D01*
D11*
X8826777Y-16041484D02*
X8826777Y-15841484D01*
X8826777Y-15841484D02*
X8874396Y-15841484D01*
X8874396Y-15841484D02*
X8902967Y-15851008D01*
X8902967Y-15851008D02*
X8922015Y-15870055D01*
X8922015Y-15870055D02*
X8931539Y-15889103D01*
X8931539Y-15889103D02*
X8941063Y-15927198D01*
X8941063Y-15927198D02*
X8941063Y-15955769D01*
X8941063Y-15955769D02*
X8931539Y-15993865D01*
X8931539Y-15993865D02*
X8922015Y-16012912D01*
X8922015Y-16012912D02*
X8902967Y-16031960D01*
X8902967Y-16031960D02*
X8874396Y-16041484D01*
X8874396Y-16041484D02*
X8826777Y-16041484D01*
X9026777Y-16041484D02*
X9026777Y-15908150D01*
X9026777Y-15946246D02*
X9036301Y-15927198D01*
X9036301Y-15927198D02*
X9045824Y-15917674D01*
X9045824Y-15917674D02*
X9064872Y-15908150D01*
X9064872Y-15908150D02*
X9083920Y-15908150D01*
X9150586Y-16041484D02*
X9150586Y-15908150D01*
X9150586Y-15841484D02*
X9141063Y-15851008D01*
X9141063Y-15851008D02*
X9150586Y-15860531D01*
X9150586Y-15860531D02*
X9160110Y-15851008D01*
X9160110Y-15851008D02*
X9150586Y-15841484D01*
X9150586Y-15841484D02*
X9150586Y-15860531D01*
X9274396Y-16041484D02*
X9255348Y-16031960D01*
X9255348Y-16031960D02*
X9245824Y-16012912D01*
X9245824Y-16012912D02*
X9245824Y-15841484D01*
X9379158Y-16041484D02*
X9360110Y-16031960D01*
X9360110Y-16031960D02*
X9350586Y-16012912D01*
X9350586Y-16012912D02*
X9350586Y-15841484D01*
X9607729Y-16041484D02*
X9607729Y-15841484D01*
X9607729Y-15841484D02*
X9674396Y-15984341D01*
X9674396Y-15984341D02*
X9741063Y-15841484D01*
X9741063Y-15841484D02*
X9741063Y-16041484D01*
X9922015Y-16041484D02*
X9922015Y-15936722D01*
X9922015Y-15936722D02*
X9912491Y-15917674D01*
X9912491Y-15917674D02*
X9893444Y-15908150D01*
X9893444Y-15908150D02*
X9855348Y-15908150D01*
X9855348Y-15908150D02*
X9836301Y-15917674D01*
X9922015Y-16031960D02*
X9902967Y-16041484D01*
X9902967Y-16041484D02*
X9855348Y-16041484D01*
X9855348Y-16041484D02*
X9836301Y-16031960D01*
X9836301Y-16031960D02*
X9826777Y-16012912D01*
X9826777Y-16012912D02*
X9826777Y-15993865D01*
X9826777Y-15993865D02*
X9836301Y-15974817D01*
X9836301Y-15974817D02*
X9855348Y-15965293D01*
X9855348Y-15965293D02*
X9902967Y-15965293D01*
X9902967Y-15965293D02*
X9922015Y-15955769D01*
X10017253Y-15908150D02*
X10017253Y-16108150D01*
X10017253Y-15917674D02*
X10036301Y-15908150D01*
X10036301Y-15908150D02*
X10074396Y-15908150D01*
X10074396Y-15908150D02*
X10093444Y-15917674D01*
X10093444Y-15917674D02*
X10102967Y-15927198D01*
X10102967Y-15927198D02*
X10112491Y-15946246D01*
X10112491Y-15946246D02*
X10112491Y-16003388D01*
X10112491Y-16003388D02*
X10102967Y-16022436D01*
X10102967Y-16022436D02*
X10093444Y-16031960D01*
X10093444Y-16031960D02*
X10074396Y-16041484D01*
X10074396Y-16041484D02*
X10036301Y-16041484D01*
X10036301Y-16041484D02*
X10017253Y-16031960D01*
X10198205Y-16022436D02*
X10207729Y-16031960D01*
X10207729Y-16031960D02*
X10198205Y-16041484D01*
X10198205Y-16041484D02*
X10188682Y-16031960D01*
X10188682Y-16031960D02*
X10198205Y-16022436D01*
X10198205Y-16022436D02*
X10198205Y-16041484D01*
X10198205Y-15917674D02*
X10207729Y-15927198D01*
X10207729Y-15927198D02*
X10198205Y-15936722D01*
X10198205Y-15936722D02*
X10188682Y-15927198D01*
X10188682Y-15927198D02*
X10198205Y-15917674D01*
X10198205Y-15917674D02*
X10198205Y-15936722D01*
D10*
X8526000Y-16350000D02*
X8566000Y-16390000D01*
X8566000Y-16350000D02*
X8526000Y-16390000D01*
D11*
X8864872Y-16261484D02*
X8883920Y-16261484D01*
X8883920Y-16261484D02*
X8902967Y-16271008D01*
X8902967Y-16271008D02*
X8912491Y-16280531D01*
X8912491Y-16280531D02*
X8922015Y-16299579D01*
X8922015Y-16299579D02*
X8931539Y-16337674D01*
X8931539Y-16337674D02*
X8931539Y-16385293D01*
X8931539Y-16385293D02*
X8922015Y-16423388D01*
X8922015Y-16423388D02*
X8912491Y-16442436D01*
X8912491Y-16442436D02*
X8902967Y-16451960D01*
X8902967Y-16451960D02*
X8883920Y-16461484D01*
X8883920Y-16461484D02*
X8864872Y-16461484D01*
X8864872Y-16461484D02*
X8845824Y-16451960D01*
X8845824Y-16451960D02*
X8836301Y-16442436D01*
X8836301Y-16442436D02*
X8826777Y-16423388D01*
X8826777Y-16423388D02*
X8817253Y-16385293D01*
X8817253Y-16385293D02*
X8817253Y-16337674D01*
X8817253Y-16337674D02*
X8826777Y-16299579D01*
X8826777Y-16299579D02*
X8836301Y-16280531D01*
X8836301Y-16280531D02*
X8845824Y-16271008D01*
X8845824Y-16271008D02*
X8864872Y-16261484D01*
X9017253Y-16442436D02*
X9026777Y-16451960D01*
X9026777Y-16451960D02*
X9017253Y-16461484D01*
X9017253Y-16461484D02*
X9007729Y-16451960D01*
X9007729Y-16451960D02*
X9017253Y-16442436D01*
X9017253Y-16442436D02*
X9017253Y-16461484D01*
X9198205Y-16328150D02*
X9198205Y-16461484D01*
X9150586Y-16251960D02*
X9102967Y-16394817D01*
X9102967Y-16394817D02*
X9226777Y-16394817D01*
X9341063Y-16261484D02*
X9360110Y-16261484D01*
X9360110Y-16261484D02*
X9379158Y-16271008D01*
X9379158Y-16271008D02*
X9388682Y-16280531D01*
X9388682Y-16280531D02*
X9398205Y-16299579D01*
X9398205Y-16299579D02*
X9407729Y-16337674D01*
X9407729Y-16337674D02*
X9407729Y-16385293D01*
X9407729Y-16385293D02*
X9398205Y-16423388D01*
X9398205Y-16423388D02*
X9388682Y-16442436D01*
X9388682Y-16442436D02*
X9379158Y-16451960D01*
X9379158Y-16451960D02*
X9360110Y-16461484D01*
X9360110Y-16461484D02*
X9341063Y-16461484D01*
X9341063Y-16461484D02*
X9322015Y-16451960D01*
X9322015Y-16451960D02*
X9312491Y-16442436D01*
X9312491Y-16442436D02*
X9302967Y-16423388D01*
X9302967Y-16423388D02*
X9293444Y-16385293D01*
X9293444Y-16385293D02*
X9293444Y-16337674D01*
X9293444Y-16337674D02*
X9302967Y-16299579D01*
X9302967Y-16299579D02*
X9312491Y-16280531D01*
X9312491Y-16280531D02*
X9322015Y-16271008D01*
X9322015Y-16271008D02*
X9341063Y-16261484D01*
X9531539Y-16261484D02*
X9550586Y-16261484D01*
X9550586Y-16261484D02*
X9569634Y-16271008D01*
X9569634Y-16271008D02*
X9579158Y-16280531D01*
X9579158Y-16280531D02*
X9588682Y-16299579D01*
X9588682Y-16299579D02*
X9598205Y-16337674D01*
X9598205Y-16337674D02*
X9598205Y-16385293D01*
X9598205Y-16385293D02*
X9588682Y-16423388D01*
X9588682Y-16423388D02*
X9579158Y-16442436D01*
X9579158Y-16442436D02*
X9569634Y-16451960D01*
X9569634Y-16451960D02*
X9550586Y-16461484D01*
X9550586Y-16461484D02*
X9531539Y-16461484D01*
X9531539Y-16461484D02*
X9512491Y-16451960D01*
X9512491Y-16451960D02*
X9502967Y-16442436D01*
X9502967Y-16442436D02*
X9493444Y-16423388D01*
X9493444Y-16423388D02*
X9483920Y-16385293D01*
X9483920Y-16385293D02*
X9483920Y-16337674D01*
X9483920Y-16337674D02*
X9493444Y-16299579D01*
X9493444Y-16299579D02*
X9502967Y-16280531D01*
X9502967Y-16280531D02*
X9512491Y-16271008D01*
X9512491Y-16271008D02*
X9531539Y-16261484D01*
X9683920Y-16461484D02*
X9683920Y-16328150D01*
X9683920Y-16347198D02*
X9693444Y-16337674D01*
X9693444Y-16337674D02*
X9712491Y-16328150D01*
X9712491Y-16328150D02*
X9741063Y-16328150D01*
X9741063Y-16328150D02*
X9760110Y-16337674D01*
X9760110Y-16337674D02*
X9769634Y-16356722D01*
X9769634Y-16356722D02*
X9769634Y-16461484D01*
X9769634Y-16356722D02*
X9779158Y-16337674D01*
X9779158Y-16337674D02*
X9798205Y-16328150D01*
X9798205Y-16328150D02*
X9826777Y-16328150D01*
X9826777Y-16328150D02*
X9845825Y-16337674D01*
X9845825Y-16337674D02*
X9855348Y-16356722D01*
X9855348Y-16356722D02*
X9855348Y-16461484D01*
X9950586Y-16461484D02*
X9950586Y-16328150D01*
X9950586Y-16347198D02*
X9960110Y-16337674D01*
X9960110Y-16337674D02*
X9979158Y-16328150D01*
X9979158Y-16328150D02*
X10007729Y-16328150D01*
X10007729Y-16328150D02*
X10026777Y-16337674D01*
X10026777Y-16337674D02*
X10036301Y-16356722D01*
X10036301Y-16356722D02*
X10036301Y-16461484D01*
X10036301Y-16356722D02*
X10045825Y-16337674D01*
X10045825Y-16337674D02*
X10064872Y-16328150D01*
X10064872Y-16328150D02*
X10093444Y-16328150D01*
X10093444Y-16328150D02*
X10112491Y-16337674D01*
X10112491Y-16337674D02*
X10122015Y-16356722D01*
X10122015Y-16356722D02*
X10122015Y-16461484D01*
X10512491Y-16251960D02*
X10341063Y-16509103D01*
X10769634Y-16261484D02*
X10788682Y-16261484D01*
X10788682Y-16261484D02*
X10807729Y-16271008D01*
X10807729Y-16271008D02*
X10817253Y-16280531D01*
X10817253Y-16280531D02*
X10826777Y-16299579D01*
X10826777Y-16299579D02*
X10836301Y-16337674D01*
X10836301Y-16337674D02*
X10836301Y-16385293D01*
X10836301Y-16385293D02*
X10826777Y-16423388D01*
X10826777Y-16423388D02*
X10817253Y-16442436D01*
X10817253Y-16442436D02*
X10807729Y-16451960D01*
X10807729Y-16451960D02*
X10788682Y-16461484D01*
X10788682Y-16461484D02*
X10769634Y-16461484D01*
X10769634Y-16461484D02*
X10750587Y-16451960D01*
X10750587Y-16451960D02*
X10741063Y-16442436D01*
X10741063Y-16442436D02*
X10731539Y-16423388D01*
X10731539Y-16423388D02*
X10722015Y-16385293D01*
X10722015Y-16385293D02*
X10722015Y-16337674D01*
X10722015Y-16337674D02*
X10731539Y-16299579D01*
X10731539Y-16299579D02*
X10741063Y-16280531D01*
X10741063Y-16280531D02*
X10750587Y-16271008D01*
X10750587Y-16271008D02*
X10769634Y-16261484D01*
X10922015Y-16442436D02*
X10931539Y-16451960D01*
X10931539Y-16451960D02*
X10922015Y-16461484D01*
X10922015Y-16461484D02*
X10912491Y-16451960D01*
X10912491Y-16451960D02*
X10922015Y-16442436D01*
X10922015Y-16442436D02*
X10922015Y-16461484D01*
X11055348Y-16261484D02*
X11074396Y-16261484D01*
X11074396Y-16261484D02*
X11093444Y-16271008D01*
X11093444Y-16271008D02*
X11102968Y-16280531D01*
X11102968Y-16280531D02*
X11112491Y-16299579D01*
X11112491Y-16299579D02*
X11122015Y-16337674D01*
X11122015Y-16337674D02*
X11122015Y-16385293D01*
X11122015Y-16385293D02*
X11112491Y-16423388D01*
X11112491Y-16423388D02*
X11102968Y-16442436D01*
X11102968Y-16442436D02*
X11093444Y-16451960D01*
X11093444Y-16451960D02*
X11074396Y-16461484D01*
X11074396Y-16461484D02*
X11055348Y-16461484D01*
X11055348Y-16461484D02*
X11036301Y-16451960D01*
X11036301Y-16451960D02*
X11026777Y-16442436D01*
X11026777Y-16442436D02*
X11017253Y-16423388D01*
X11017253Y-16423388D02*
X11007729Y-16385293D01*
X11007729Y-16385293D02*
X11007729Y-16337674D01*
X11007729Y-16337674D02*
X11017253Y-16299579D01*
X11017253Y-16299579D02*
X11026777Y-16280531D01*
X11026777Y-16280531D02*
X11036301Y-16271008D01*
X11036301Y-16271008D02*
X11055348Y-16261484D01*
X11312491Y-16461484D02*
X11198206Y-16461484D01*
X11255348Y-16461484D02*
X11255348Y-16261484D01*
X11255348Y-16261484D02*
X11236301Y-16290055D01*
X11236301Y-16290055D02*
X11217253Y-16309103D01*
X11217253Y-16309103D02*
X11198206Y-16318627D01*
X11493444Y-16261484D02*
X11398206Y-16261484D01*
X11398206Y-16261484D02*
X11388682Y-16356722D01*
X11388682Y-16356722D02*
X11398206Y-16347198D01*
X11398206Y-16347198D02*
X11417253Y-16337674D01*
X11417253Y-16337674D02*
X11464872Y-16337674D01*
X11464872Y-16337674D02*
X11483920Y-16347198D01*
X11483920Y-16347198D02*
X11493444Y-16356722D01*
X11493444Y-16356722D02*
X11502967Y-16375769D01*
X11502967Y-16375769D02*
X11502967Y-16423388D01*
X11502967Y-16423388D02*
X11493444Y-16442436D01*
X11493444Y-16442436D02*
X11483920Y-16451960D01*
X11483920Y-16451960D02*
X11464872Y-16461484D01*
X11464872Y-16461484D02*
X11417253Y-16461484D01*
X11417253Y-16461484D02*
X11398206Y-16451960D01*
X11398206Y-16451960D02*
X11388682Y-16442436D01*
X11569634Y-16261484D02*
X11702967Y-16261484D01*
X11702967Y-16261484D02*
X11617253Y-16461484D01*
X11769634Y-16261484D02*
X11769634Y-16299579D01*
X11845825Y-16261484D02*
X11845825Y-16299579D01*
X12141063Y-16537674D02*
X12131539Y-16528150D01*
X12131539Y-16528150D02*
X12112491Y-16499579D01*
X12112491Y-16499579D02*
X12102968Y-16480531D01*
X12102968Y-16480531D02*
X12093444Y-16451960D01*
X12093444Y-16451960D02*
X12083920Y-16404341D01*
X12083920Y-16404341D02*
X12083920Y-16366246D01*
X12083920Y-16366246D02*
X12093444Y-16318627D01*
X12093444Y-16318627D02*
X12102968Y-16290055D01*
X12102968Y-16290055D02*
X12112491Y-16271008D01*
X12112491Y-16271008D02*
X12131539Y-16242436D01*
X12131539Y-16242436D02*
X12141063Y-16232912D01*
X12198206Y-16261484D02*
X12322015Y-16261484D01*
X12322015Y-16261484D02*
X12255348Y-16337674D01*
X12255348Y-16337674D02*
X12283920Y-16337674D01*
X12283920Y-16337674D02*
X12302968Y-16347198D01*
X12302968Y-16347198D02*
X12312491Y-16356722D01*
X12312491Y-16356722D02*
X12322015Y-16375769D01*
X12322015Y-16375769D02*
X12322015Y-16423388D01*
X12322015Y-16423388D02*
X12312491Y-16442436D01*
X12312491Y-16442436D02*
X12302968Y-16451960D01*
X12302968Y-16451960D02*
X12283920Y-16461484D01*
X12283920Y-16461484D02*
X12226777Y-16461484D01*
X12226777Y-16461484D02*
X12207729Y-16451960D01*
X12207729Y-16451960D02*
X12198206Y-16442436D01*
X12493444Y-16328150D02*
X12493444Y-16461484D01*
X12445825Y-16251960D02*
X12398206Y-16394817D01*
X12398206Y-16394817D02*
X12522015Y-16394817D01*
X12750587Y-16461484D02*
X12750587Y-16261484D01*
X12836301Y-16461484D02*
X12836301Y-16356722D01*
X12836301Y-16356722D02*
X12826777Y-16337674D01*
X12826777Y-16337674D02*
X12807730Y-16328150D01*
X12807730Y-16328150D02*
X12779158Y-16328150D01*
X12779158Y-16328150D02*
X12760110Y-16337674D01*
X12760110Y-16337674D02*
X12750587Y-16347198D01*
X12960110Y-16461484D02*
X12941063Y-16451960D01*
X12941063Y-16451960D02*
X12931539Y-16442436D01*
X12931539Y-16442436D02*
X12922015Y-16423388D01*
X12922015Y-16423388D02*
X12922015Y-16366246D01*
X12922015Y-16366246D02*
X12931539Y-16347198D01*
X12931539Y-16347198D02*
X12941063Y-16337674D01*
X12941063Y-16337674D02*
X12960110Y-16328150D01*
X12960110Y-16328150D02*
X12988682Y-16328150D01*
X12988682Y-16328150D02*
X13007730Y-16337674D01*
X13007730Y-16337674D02*
X13017253Y-16347198D01*
X13017253Y-16347198D02*
X13026777Y-16366246D01*
X13026777Y-16366246D02*
X13026777Y-16423388D01*
X13026777Y-16423388D02*
X13017253Y-16442436D01*
X13017253Y-16442436D02*
X13007730Y-16451960D01*
X13007730Y-16451960D02*
X12988682Y-16461484D01*
X12988682Y-16461484D02*
X12960110Y-16461484D01*
X13141063Y-16461484D02*
X13122015Y-16451960D01*
X13122015Y-16451960D02*
X13112491Y-16432912D01*
X13112491Y-16432912D02*
X13112491Y-16261484D01*
X13293444Y-16451960D02*
X13274396Y-16461484D01*
X13274396Y-16461484D02*
X13236301Y-16461484D01*
X13236301Y-16461484D02*
X13217253Y-16451960D01*
X13217253Y-16451960D02*
X13207730Y-16432912D01*
X13207730Y-16432912D02*
X13207730Y-16356722D01*
X13207730Y-16356722D02*
X13217253Y-16337674D01*
X13217253Y-16337674D02*
X13236301Y-16328150D01*
X13236301Y-16328150D02*
X13274396Y-16328150D01*
X13274396Y-16328150D02*
X13293444Y-16337674D01*
X13293444Y-16337674D02*
X13302968Y-16356722D01*
X13302968Y-16356722D02*
X13302968Y-16375769D01*
X13302968Y-16375769D02*
X13207730Y-16394817D01*
X13379158Y-16451960D02*
X13398206Y-16461484D01*
X13398206Y-16461484D02*
X13436301Y-16461484D01*
X13436301Y-16461484D02*
X13455349Y-16451960D01*
X13455349Y-16451960D02*
X13464872Y-16432912D01*
X13464872Y-16432912D02*
X13464872Y-16423388D01*
X13464872Y-16423388D02*
X13455349Y-16404341D01*
X13455349Y-16404341D02*
X13436301Y-16394817D01*
X13436301Y-16394817D02*
X13407730Y-16394817D01*
X13407730Y-16394817D02*
X13388682Y-16385293D01*
X13388682Y-16385293D02*
X13379158Y-16366246D01*
X13379158Y-16366246D02*
X13379158Y-16356722D01*
X13379158Y-16356722D02*
X13388682Y-16337674D01*
X13388682Y-16337674D02*
X13407730Y-16328150D01*
X13407730Y-16328150D02*
X13436301Y-16328150D01*
X13436301Y-16328150D02*
X13455349Y-16337674D01*
X13531539Y-16537674D02*
X13541063Y-16528150D01*
X13541063Y-16528150D02*
X13560111Y-16499579D01*
X13560111Y-16499579D02*
X13569634Y-16480531D01*
X13569634Y-16480531D02*
X13579158Y-16451960D01*
X13579158Y-16451960D02*
X13588682Y-16404341D01*
X13588682Y-16404341D02*
X13588682Y-16366246D01*
X13588682Y-16366246D02*
X13579158Y-16318627D01*
X13579158Y-16318627D02*
X13569634Y-16290055D01*
X13569634Y-16290055D02*
X13560111Y-16271008D01*
X13560111Y-16271008D02*
X13541063Y-16242436D01*
X13541063Y-16242436D02*
X13531539Y-16232912D01*
D10*
X8566000Y-16634000D02*
G75*
G02*
X8486000Y-16634000I-40000J0D01*
G01*
X8486000Y-16634000D02*
G75*
G02*
X8566000Y-16634000I40000J0D01*
G01*
D11*
X8864872Y-16525484D02*
X8883920Y-16525484D01*
X8883920Y-16525484D02*
X8902967Y-16535008D01*
X8902967Y-16535008D02*
X8912491Y-16544531D01*
X8912491Y-16544531D02*
X8922015Y-16563579D01*
X8922015Y-16563579D02*
X8931539Y-16601674D01*
X8931539Y-16601674D02*
X8931539Y-16649293D01*
X8931539Y-16649293D02*
X8922015Y-16687388D01*
X8922015Y-16687388D02*
X8912491Y-16706436D01*
X8912491Y-16706436D02*
X8902967Y-16715960D01*
X8902967Y-16715960D02*
X8883920Y-16725484D01*
X8883920Y-16725484D02*
X8864872Y-16725484D01*
X8864872Y-16725484D02*
X8845824Y-16715960D01*
X8845824Y-16715960D02*
X8836301Y-16706436D01*
X8836301Y-16706436D02*
X8826777Y-16687388D01*
X8826777Y-16687388D02*
X8817253Y-16649293D01*
X8817253Y-16649293D02*
X8817253Y-16601674D01*
X8817253Y-16601674D02*
X8826777Y-16563579D01*
X8826777Y-16563579D02*
X8836301Y-16544531D01*
X8836301Y-16544531D02*
X8845824Y-16535008D01*
X8845824Y-16535008D02*
X8864872Y-16525484D01*
X9017253Y-16706436D02*
X9026777Y-16715960D01*
X9026777Y-16715960D02*
X9017253Y-16725484D01*
X9017253Y-16725484D02*
X9007729Y-16715960D01*
X9007729Y-16715960D02*
X9017253Y-16706436D01*
X9017253Y-16706436D02*
X9017253Y-16725484D01*
X9141063Y-16611198D02*
X9122015Y-16601674D01*
X9122015Y-16601674D02*
X9112491Y-16592150D01*
X9112491Y-16592150D02*
X9102967Y-16573103D01*
X9102967Y-16573103D02*
X9102967Y-16563579D01*
X9102967Y-16563579D02*
X9112491Y-16544531D01*
X9112491Y-16544531D02*
X9122015Y-16535008D01*
X9122015Y-16535008D02*
X9141063Y-16525484D01*
X9141063Y-16525484D02*
X9179158Y-16525484D01*
X9179158Y-16525484D02*
X9198205Y-16535008D01*
X9198205Y-16535008D02*
X9207729Y-16544531D01*
X9207729Y-16544531D02*
X9217253Y-16563579D01*
X9217253Y-16563579D02*
X9217253Y-16573103D01*
X9217253Y-16573103D02*
X9207729Y-16592150D01*
X9207729Y-16592150D02*
X9198205Y-16601674D01*
X9198205Y-16601674D02*
X9179158Y-16611198D01*
X9179158Y-16611198D02*
X9141063Y-16611198D01*
X9141063Y-16611198D02*
X9122015Y-16620722D01*
X9122015Y-16620722D02*
X9112491Y-16630246D01*
X9112491Y-16630246D02*
X9102967Y-16649293D01*
X9102967Y-16649293D02*
X9102967Y-16687388D01*
X9102967Y-16687388D02*
X9112491Y-16706436D01*
X9112491Y-16706436D02*
X9122015Y-16715960D01*
X9122015Y-16715960D02*
X9141063Y-16725484D01*
X9141063Y-16725484D02*
X9179158Y-16725484D01*
X9179158Y-16725484D02*
X9198205Y-16715960D01*
X9198205Y-16715960D02*
X9207729Y-16706436D01*
X9207729Y-16706436D02*
X9217253Y-16687388D01*
X9217253Y-16687388D02*
X9217253Y-16649293D01*
X9217253Y-16649293D02*
X9207729Y-16630246D01*
X9207729Y-16630246D02*
X9198205Y-16620722D01*
X9198205Y-16620722D02*
X9179158Y-16611198D01*
X9341063Y-16525484D02*
X9360110Y-16525484D01*
X9360110Y-16525484D02*
X9379158Y-16535008D01*
X9379158Y-16535008D02*
X9388682Y-16544531D01*
X9388682Y-16544531D02*
X9398205Y-16563579D01*
X9398205Y-16563579D02*
X9407729Y-16601674D01*
X9407729Y-16601674D02*
X9407729Y-16649293D01*
X9407729Y-16649293D02*
X9398205Y-16687388D01*
X9398205Y-16687388D02*
X9388682Y-16706436D01*
X9388682Y-16706436D02*
X9379158Y-16715960D01*
X9379158Y-16715960D02*
X9360110Y-16725484D01*
X9360110Y-16725484D02*
X9341063Y-16725484D01*
X9341063Y-16725484D02*
X9322015Y-16715960D01*
X9322015Y-16715960D02*
X9312491Y-16706436D01*
X9312491Y-16706436D02*
X9302967Y-16687388D01*
X9302967Y-16687388D02*
X9293444Y-16649293D01*
X9293444Y-16649293D02*
X9293444Y-16601674D01*
X9293444Y-16601674D02*
X9302967Y-16563579D01*
X9302967Y-16563579D02*
X9312491Y-16544531D01*
X9312491Y-16544531D02*
X9322015Y-16535008D01*
X9322015Y-16535008D02*
X9341063Y-16525484D01*
X9531539Y-16525484D02*
X9550586Y-16525484D01*
X9550586Y-16525484D02*
X9569634Y-16535008D01*
X9569634Y-16535008D02*
X9579158Y-16544531D01*
X9579158Y-16544531D02*
X9588682Y-16563579D01*
X9588682Y-16563579D02*
X9598205Y-16601674D01*
X9598205Y-16601674D02*
X9598205Y-16649293D01*
X9598205Y-16649293D02*
X9588682Y-16687388D01*
X9588682Y-16687388D02*
X9579158Y-16706436D01*
X9579158Y-16706436D02*
X9569634Y-16715960D01*
X9569634Y-16715960D02*
X9550586Y-16725484D01*
X9550586Y-16725484D02*
X9531539Y-16725484D01*
X9531539Y-16725484D02*
X9512491Y-16715960D01*
X9512491Y-16715960D02*
X9502967Y-16706436D01*
X9502967Y-16706436D02*
X9493444Y-16687388D01*
X9493444Y-16687388D02*
X9483920Y-16649293D01*
X9483920Y-16649293D02*
X9483920Y-16601674D01*
X9483920Y-16601674D02*
X9493444Y-16563579D01*
X9493444Y-16563579D02*
X9502967Y-16544531D01*
X9502967Y-16544531D02*
X9512491Y-16535008D01*
X9512491Y-16535008D02*
X9531539Y-16525484D01*
X9683920Y-16725484D02*
X9683920Y-16592150D01*
X9683920Y-16611198D02*
X9693444Y-16601674D01*
X9693444Y-16601674D02*
X9712491Y-16592150D01*
X9712491Y-16592150D02*
X9741063Y-16592150D01*
X9741063Y-16592150D02*
X9760110Y-16601674D01*
X9760110Y-16601674D02*
X9769634Y-16620722D01*
X9769634Y-16620722D02*
X9769634Y-16725484D01*
X9769634Y-16620722D02*
X9779158Y-16601674D01*
X9779158Y-16601674D02*
X9798205Y-16592150D01*
X9798205Y-16592150D02*
X9826777Y-16592150D01*
X9826777Y-16592150D02*
X9845825Y-16601674D01*
X9845825Y-16601674D02*
X9855348Y-16620722D01*
X9855348Y-16620722D02*
X9855348Y-16725484D01*
X9950586Y-16725484D02*
X9950586Y-16592150D01*
X9950586Y-16611198D02*
X9960110Y-16601674D01*
X9960110Y-16601674D02*
X9979158Y-16592150D01*
X9979158Y-16592150D02*
X10007729Y-16592150D01*
X10007729Y-16592150D02*
X10026777Y-16601674D01*
X10026777Y-16601674D02*
X10036301Y-16620722D01*
X10036301Y-16620722D02*
X10036301Y-16725484D01*
X10036301Y-16620722D02*
X10045825Y-16601674D01*
X10045825Y-16601674D02*
X10064872Y-16592150D01*
X10064872Y-16592150D02*
X10093444Y-16592150D01*
X10093444Y-16592150D02*
X10112491Y-16601674D01*
X10112491Y-16601674D02*
X10122015Y-16620722D01*
X10122015Y-16620722D02*
X10122015Y-16725484D01*
X10512491Y-16515960D02*
X10341063Y-16773103D01*
X10769634Y-16525484D02*
X10788682Y-16525484D01*
X10788682Y-16525484D02*
X10807729Y-16535008D01*
X10807729Y-16535008D02*
X10817253Y-16544531D01*
X10817253Y-16544531D02*
X10826777Y-16563579D01*
X10826777Y-16563579D02*
X10836301Y-16601674D01*
X10836301Y-16601674D02*
X10836301Y-16649293D01*
X10836301Y-16649293D02*
X10826777Y-16687388D01*
X10826777Y-16687388D02*
X10817253Y-16706436D01*
X10817253Y-16706436D02*
X10807729Y-16715960D01*
X10807729Y-16715960D02*
X10788682Y-16725484D01*
X10788682Y-16725484D02*
X10769634Y-16725484D01*
X10769634Y-16725484D02*
X10750587Y-16715960D01*
X10750587Y-16715960D02*
X10741063Y-16706436D01*
X10741063Y-16706436D02*
X10731539Y-16687388D01*
X10731539Y-16687388D02*
X10722015Y-16649293D01*
X10722015Y-16649293D02*
X10722015Y-16601674D01*
X10722015Y-16601674D02*
X10731539Y-16563579D01*
X10731539Y-16563579D02*
X10741063Y-16544531D01*
X10741063Y-16544531D02*
X10750587Y-16535008D01*
X10750587Y-16535008D02*
X10769634Y-16525484D01*
X10922015Y-16706436D02*
X10931539Y-16715960D01*
X10931539Y-16715960D02*
X10922015Y-16725484D01*
X10922015Y-16725484D02*
X10912491Y-16715960D01*
X10912491Y-16715960D02*
X10922015Y-16706436D01*
X10922015Y-16706436D02*
X10922015Y-16725484D01*
X11055348Y-16525484D02*
X11074396Y-16525484D01*
X11074396Y-16525484D02*
X11093444Y-16535008D01*
X11093444Y-16535008D02*
X11102968Y-16544531D01*
X11102968Y-16544531D02*
X11112491Y-16563579D01*
X11112491Y-16563579D02*
X11122015Y-16601674D01*
X11122015Y-16601674D02*
X11122015Y-16649293D01*
X11122015Y-16649293D02*
X11112491Y-16687388D01*
X11112491Y-16687388D02*
X11102968Y-16706436D01*
X11102968Y-16706436D02*
X11093444Y-16715960D01*
X11093444Y-16715960D02*
X11074396Y-16725484D01*
X11074396Y-16725484D02*
X11055348Y-16725484D01*
X11055348Y-16725484D02*
X11036301Y-16715960D01*
X11036301Y-16715960D02*
X11026777Y-16706436D01*
X11026777Y-16706436D02*
X11017253Y-16687388D01*
X11017253Y-16687388D02*
X11007729Y-16649293D01*
X11007729Y-16649293D02*
X11007729Y-16601674D01*
X11007729Y-16601674D02*
X11017253Y-16563579D01*
X11017253Y-16563579D02*
X11026777Y-16544531D01*
X11026777Y-16544531D02*
X11036301Y-16535008D01*
X11036301Y-16535008D02*
X11055348Y-16525484D01*
X11188682Y-16525484D02*
X11312491Y-16525484D01*
X11312491Y-16525484D02*
X11245825Y-16601674D01*
X11245825Y-16601674D02*
X11274396Y-16601674D01*
X11274396Y-16601674D02*
X11293444Y-16611198D01*
X11293444Y-16611198D02*
X11302967Y-16620722D01*
X11302967Y-16620722D02*
X11312491Y-16639769D01*
X11312491Y-16639769D02*
X11312491Y-16687388D01*
X11312491Y-16687388D02*
X11302967Y-16706436D01*
X11302967Y-16706436D02*
X11293444Y-16715960D01*
X11293444Y-16715960D02*
X11274396Y-16725484D01*
X11274396Y-16725484D02*
X11217253Y-16725484D01*
X11217253Y-16725484D02*
X11198206Y-16715960D01*
X11198206Y-16715960D02*
X11188682Y-16706436D01*
X11502967Y-16725484D02*
X11388682Y-16725484D01*
X11445825Y-16725484D02*
X11445825Y-16525484D01*
X11445825Y-16525484D02*
X11426777Y-16554055D01*
X11426777Y-16554055D02*
X11407729Y-16573103D01*
X11407729Y-16573103D02*
X11388682Y-16582627D01*
X11683920Y-16525484D02*
X11588682Y-16525484D01*
X11588682Y-16525484D02*
X11579158Y-16620722D01*
X11579158Y-16620722D02*
X11588682Y-16611198D01*
X11588682Y-16611198D02*
X11607729Y-16601674D01*
X11607729Y-16601674D02*
X11655348Y-16601674D01*
X11655348Y-16601674D02*
X11674396Y-16611198D01*
X11674396Y-16611198D02*
X11683920Y-16620722D01*
X11683920Y-16620722D02*
X11693444Y-16639769D01*
X11693444Y-16639769D02*
X11693444Y-16687388D01*
X11693444Y-16687388D02*
X11683920Y-16706436D01*
X11683920Y-16706436D02*
X11674396Y-16715960D01*
X11674396Y-16715960D02*
X11655348Y-16725484D01*
X11655348Y-16725484D02*
X11607729Y-16725484D01*
X11607729Y-16725484D02*
X11588682Y-16715960D01*
X11588682Y-16715960D02*
X11579158Y-16706436D01*
X11769634Y-16525484D02*
X11769634Y-16563579D01*
X11845825Y-16525484D02*
X11845825Y-16563579D01*
X12141063Y-16801674D02*
X12131539Y-16792150D01*
X12131539Y-16792150D02*
X12112491Y-16763579D01*
X12112491Y-16763579D02*
X12102968Y-16744531D01*
X12102968Y-16744531D02*
X12093444Y-16715960D01*
X12093444Y-16715960D02*
X12083920Y-16668341D01*
X12083920Y-16668341D02*
X12083920Y-16630246D01*
X12083920Y-16630246D02*
X12093444Y-16582627D01*
X12093444Y-16582627D02*
X12102968Y-16554055D01*
X12102968Y-16554055D02*
X12112491Y-16535008D01*
X12112491Y-16535008D02*
X12131539Y-16506436D01*
X12131539Y-16506436D02*
X12141063Y-16496912D01*
X12207729Y-16544531D02*
X12217253Y-16535008D01*
X12217253Y-16535008D02*
X12236301Y-16525484D01*
X12236301Y-16525484D02*
X12283920Y-16525484D01*
X12283920Y-16525484D02*
X12302968Y-16535008D01*
X12302968Y-16535008D02*
X12312491Y-16544531D01*
X12312491Y-16544531D02*
X12322015Y-16563579D01*
X12322015Y-16563579D02*
X12322015Y-16582627D01*
X12322015Y-16582627D02*
X12312491Y-16611198D01*
X12312491Y-16611198D02*
X12198206Y-16725484D01*
X12198206Y-16725484D02*
X12322015Y-16725484D01*
X12388682Y-16525484D02*
X12512491Y-16525484D01*
X12512491Y-16525484D02*
X12445825Y-16601674D01*
X12445825Y-16601674D02*
X12474396Y-16601674D01*
X12474396Y-16601674D02*
X12493444Y-16611198D01*
X12493444Y-16611198D02*
X12502968Y-16620722D01*
X12502968Y-16620722D02*
X12512491Y-16639769D01*
X12512491Y-16639769D02*
X12512491Y-16687388D01*
X12512491Y-16687388D02*
X12502968Y-16706436D01*
X12502968Y-16706436D02*
X12493444Y-16715960D01*
X12493444Y-16715960D02*
X12474396Y-16725484D01*
X12474396Y-16725484D02*
X12417253Y-16725484D01*
X12417253Y-16725484D02*
X12398206Y-16715960D01*
X12398206Y-16715960D02*
X12388682Y-16706436D01*
X12750587Y-16725484D02*
X12750587Y-16525484D01*
X12836301Y-16725484D02*
X12836301Y-16620722D01*
X12836301Y-16620722D02*
X12826777Y-16601674D01*
X12826777Y-16601674D02*
X12807730Y-16592150D01*
X12807730Y-16592150D02*
X12779158Y-16592150D01*
X12779158Y-16592150D02*
X12760110Y-16601674D01*
X12760110Y-16601674D02*
X12750587Y-16611198D01*
X12960110Y-16725484D02*
X12941063Y-16715960D01*
X12941063Y-16715960D02*
X12931539Y-16706436D01*
X12931539Y-16706436D02*
X12922015Y-16687388D01*
X12922015Y-16687388D02*
X12922015Y-16630246D01*
X12922015Y-16630246D02*
X12931539Y-16611198D01*
X12931539Y-16611198D02*
X12941063Y-16601674D01*
X12941063Y-16601674D02*
X12960110Y-16592150D01*
X12960110Y-16592150D02*
X12988682Y-16592150D01*
X12988682Y-16592150D02*
X13007730Y-16601674D01*
X13007730Y-16601674D02*
X13017253Y-16611198D01*
X13017253Y-16611198D02*
X13026777Y-16630246D01*
X13026777Y-16630246D02*
X13026777Y-16687388D01*
X13026777Y-16687388D02*
X13017253Y-16706436D01*
X13017253Y-16706436D02*
X13007730Y-16715960D01*
X13007730Y-16715960D02*
X12988682Y-16725484D01*
X12988682Y-16725484D02*
X12960110Y-16725484D01*
X13141063Y-16725484D02*
X13122015Y-16715960D01*
X13122015Y-16715960D02*
X13112491Y-16696912D01*
X13112491Y-16696912D02*
X13112491Y-16525484D01*
X13293444Y-16715960D02*
X13274396Y-16725484D01*
X13274396Y-16725484D02*
X13236301Y-16725484D01*
X13236301Y-16725484D02*
X13217253Y-16715960D01*
X13217253Y-16715960D02*
X13207730Y-16696912D01*
X13207730Y-16696912D02*
X13207730Y-16620722D01*
X13207730Y-16620722D02*
X13217253Y-16601674D01*
X13217253Y-16601674D02*
X13236301Y-16592150D01*
X13236301Y-16592150D02*
X13274396Y-16592150D01*
X13274396Y-16592150D02*
X13293444Y-16601674D01*
X13293444Y-16601674D02*
X13302968Y-16620722D01*
X13302968Y-16620722D02*
X13302968Y-16639769D01*
X13302968Y-16639769D02*
X13207730Y-16658817D01*
X13379158Y-16715960D02*
X13398206Y-16725484D01*
X13398206Y-16725484D02*
X13436301Y-16725484D01*
X13436301Y-16725484D02*
X13455349Y-16715960D01*
X13455349Y-16715960D02*
X13464872Y-16696912D01*
X13464872Y-16696912D02*
X13464872Y-16687388D01*
X13464872Y-16687388D02*
X13455349Y-16668341D01*
X13455349Y-16668341D02*
X13436301Y-16658817D01*
X13436301Y-16658817D02*
X13407730Y-16658817D01*
X13407730Y-16658817D02*
X13388682Y-16649293D01*
X13388682Y-16649293D02*
X13379158Y-16630246D01*
X13379158Y-16630246D02*
X13379158Y-16620722D01*
X13379158Y-16620722D02*
X13388682Y-16601674D01*
X13388682Y-16601674D02*
X13407730Y-16592150D01*
X13407730Y-16592150D02*
X13436301Y-16592150D01*
X13436301Y-16592150D02*
X13455349Y-16601674D01*
X13531539Y-16801674D02*
X13541063Y-16792150D01*
X13541063Y-16792150D02*
X13560111Y-16763579D01*
X13560111Y-16763579D02*
X13569634Y-16744531D01*
X13569634Y-16744531D02*
X13579158Y-16715960D01*
X13579158Y-16715960D02*
X13588682Y-16668341D01*
X13588682Y-16668341D02*
X13588682Y-16630246D01*
X13588682Y-16630246D02*
X13579158Y-16582627D01*
X13579158Y-16582627D02*
X13569634Y-16554055D01*
X13569634Y-16554055D02*
X13560111Y-16535008D01*
X13560111Y-16535008D02*
X13541063Y-16506436D01*
X13541063Y-16506436D02*
X13531539Y-16496912D01*
D10*
X8516000Y-16848000D02*
X8516000Y-16948000D01*
X8466000Y-16898000D02*
X8566000Y-16898000D01*
D11*
X8931539Y-16989484D02*
X8817253Y-16989484D01*
X8874396Y-16989484D02*
X8874396Y-16789484D01*
X8874396Y-16789484D02*
X8855348Y-16818055D01*
X8855348Y-16818055D02*
X8836301Y-16837103D01*
X8836301Y-16837103D02*
X8817253Y-16846627D01*
X9017253Y-16970436D02*
X9026777Y-16979960D01*
X9026777Y-16979960D02*
X9017253Y-16989484D01*
X9017253Y-16989484D02*
X9007729Y-16979960D01*
X9007729Y-16979960D02*
X9017253Y-16970436D01*
X9017253Y-16970436D02*
X9017253Y-16989484D01*
X9150586Y-16789484D02*
X9169634Y-16789484D01*
X9169634Y-16789484D02*
X9188682Y-16799008D01*
X9188682Y-16799008D02*
X9198205Y-16808531D01*
X9198205Y-16808531D02*
X9207729Y-16827579D01*
X9207729Y-16827579D02*
X9217253Y-16865674D01*
X9217253Y-16865674D02*
X9217253Y-16913293D01*
X9217253Y-16913293D02*
X9207729Y-16951389D01*
X9207729Y-16951389D02*
X9198205Y-16970436D01*
X9198205Y-16970436D02*
X9188682Y-16979960D01*
X9188682Y-16979960D02*
X9169634Y-16989484D01*
X9169634Y-16989484D02*
X9150586Y-16989484D01*
X9150586Y-16989484D02*
X9131539Y-16979960D01*
X9131539Y-16979960D02*
X9122015Y-16970436D01*
X9122015Y-16970436D02*
X9112491Y-16951389D01*
X9112491Y-16951389D02*
X9102967Y-16913293D01*
X9102967Y-16913293D02*
X9102967Y-16865674D01*
X9102967Y-16865674D02*
X9112491Y-16827579D01*
X9112491Y-16827579D02*
X9122015Y-16808531D01*
X9122015Y-16808531D02*
X9131539Y-16799008D01*
X9131539Y-16799008D02*
X9150586Y-16789484D01*
X9341063Y-16789484D02*
X9360110Y-16789484D01*
X9360110Y-16789484D02*
X9379158Y-16799008D01*
X9379158Y-16799008D02*
X9388682Y-16808531D01*
X9388682Y-16808531D02*
X9398205Y-16827579D01*
X9398205Y-16827579D02*
X9407729Y-16865674D01*
X9407729Y-16865674D02*
X9407729Y-16913293D01*
X9407729Y-16913293D02*
X9398205Y-16951389D01*
X9398205Y-16951389D02*
X9388682Y-16970436D01*
X9388682Y-16970436D02*
X9379158Y-16979960D01*
X9379158Y-16979960D02*
X9360110Y-16989484D01*
X9360110Y-16989484D02*
X9341063Y-16989484D01*
X9341063Y-16989484D02*
X9322015Y-16979960D01*
X9322015Y-16979960D02*
X9312491Y-16970436D01*
X9312491Y-16970436D02*
X9302967Y-16951389D01*
X9302967Y-16951389D02*
X9293444Y-16913293D01*
X9293444Y-16913293D02*
X9293444Y-16865674D01*
X9293444Y-16865674D02*
X9302967Y-16827579D01*
X9302967Y-16827579D02*
X9312491Y-16808531D01*
X9312491Y-16808531D02*
X9322015Y-16799008D01*
X9322015Y-16799008D02*
X9341063Y-16789484D01*
X9531539Y-16789484D02*
X9550586Y-16789484D01*
X9550586Y-16789484D02*
X9569634Y-16799008D01*
X9569634Y-16799008D02*
X9579158Y-16808531D01*
X9579158Y-16808531D02*
X9588682Y-16827579D01*
X9588682Y-16827579D02*
X9598205Y-16865674D01*
X9598205Y-16865674D02*
X9598205Y-16913293D01*
X9598205Y-16913293D02*
X9588682Y-16951389D01*
X9588682Y-16951389D02*
X9579158Y-16970436D01*
X9579158Y-16970436D02*
X9569634Y-16979960D01*
X9569634Y-16979960D02*
X9550586Y-16989484D01*
X9550586Y-16989484D02*
X9531539Y-16989484D01*
X9531539Y-16989484D02*
X9512491Y-16979960D01*
X9512491Y-16979960D02*
X9502967Y-16970436D01*
X9502967Y-16970436D02*
X9493444Y-16951389D01*
X9493444Y-16951389D02*
X9483920Y-16913293D01*
X9483920Y-16913293D02*
X9483920Y-16865674D01*
X9483920Y-16865674D02*
X9493444Y-16827579D01*
X9493444Y-16827579D02*
X9502967Y-16808531D01*
X9502967Y-16808531D02*
X9512491Y-16799008D01*
X9512491Y-16799008D02*
X9531539Y-16789484D01*
X9683920Y-16989484D02*
X9683920Y-16856150D01*
X9683920Y-16875198D02*
X9693444Y-16865674D01*
X9693444Y-16865674D02*
X9712491Y-16856150D01*
X9712491Y-16856150D02*
X9741063Y-16856150D01*
X9741063Y-16856150D02*
X9760110Y-16865674D01*
X9760110Y-16865674D02*
X9769634Y-16884722D01*
X9769634Y-16884722D02*
X9769634Y-16989484D01*
X9769634Y-16884722D02*
X9779158Y-16865674D01*
X9779158Y-16865674D02*
X9798205Y-16856150D01*
X9798205Y-16856150D02*
X9826777Y-16856150D01*
X9826777Y-16856150D02*
X9845825Y-16865674D01*
X9845825Y-16865674D02*
X9855348Y-16884722D01*
X9855348Y-16884722D02*
X9855348Y-16989484D01*
X9950586Y-16989484D02*
X9950586Y-16856150D01*
X9950586Y-16875198D02*
X9960110Y-16865674D01*
X9960110Y-16865674D02*
X9979158Y-16856150D01*
X9979158Y-16856150D02*
X10007729Y-16856150D01*
X10007729Y-16856150D02*
X10026777Y-16865674D01*
X10026777Y-16865674D02*
X10036301Y-16884722D01*
X10036301Y-16884722D02*
X10036301Y-16989484D01*
X10036301Y-16884722D02*
X10045825Y-16865674D01*
X10045825Y-16865674D02*
X10064872Y-16856150D01*
X10064872Y-16856150D02*
X10093444Y-16856150D01*
X10093444Y-16856150D02*
X10112491Y-16865674D01*
X10112491Y-16865674D02*
X10122015Y-16884722D01*
X10122015Y-16884722D02*
X10122015Y-16989484D01*
X10512491Y-16779960D02*
X10341063Y-17037103D01*
X10769634Y-16789484D02*
X10788682Y-16789484D01*
X10788682Y-16789484D02*
X10807729Y-16799008D01*
X10807729Y-16799008D02*
X10817253Y-16808531D01*
X10817253Y-16808531D02*
X10826777Y-16827579D01*
X10826777Y-16827579D02*
X10836301Y-16865674D01*
X10836301Y-16865674D02*
X10836301Y-16913293D01*
X10836301Y-16913293D02*
X10826777Y-16951389D01*
X10826777Y-16951389D02*
X10817253Y-16970436D01*
X10817253Y-16970436D02*
X10807729Y-16979960D01*
X10807729Y-16979960D02*
X10788682Y-16989484D01*
X10788682Y-16989484D02*
X10769634Y-16989484D01*
X10769634Y-16989484D02*
X10750587Y-16979960D01*
X10750587Y-16979960D02*
X10741063Y-16970436D01*
X10741063Y-16970436D02*
X10731539Y-16951389D01*
X10731539Y-16951389D02*
X10722015Y-16913293D01*
X10722015Y-16913293D02*
X10722015Y-16865674D01*
X10722015Y-16865674D02*
X10731539Y-16827579D01*
X10731539Y-16827579D02*
X10741063Y-16808531D01*
X10741063Y-16808531D02*
X10750587Y-16799008D01*
X10750587Y-16799008D02*
X10769634Y-16789484D01*
X10922015Y-16970436D02*
X10931539Y-16979960D01*
X10931539Y-16979960D02*
X10922015Y-16989484D01*
X10922015Y-16989484D02*
X10912491Y-16979960D01*
X10912491Y-16979960D02*
X10922015Y-16970436D01*
X10922015Y-16970436D02*
X10922015Y-16989484D01*
X11055348Y-16789484D02*
X11074396Y-16789484D01*
X11074396Y-16789484D02*
X11093444Y-16799008D01*
X11093444Y-16799008D02*
X11102968Y-16808531D01*
X11102968Y-16808531D02*
X11112491Y-16827579D01*
X11112491Y-16827579D02*
X11122015Y-16865674D01*
X11122015Y-16865674D02*
X11122015Y-16913293D01*
X11122015Y-16913293D02*
X11112491Y-16951389D01*
X11112491Y-16951389D02*
X11102968Y-16970436D01*
X11102968Y-16970436D02*
X11093444Y-16979960D01*
X11093444Y-16979960D02*
X11074396Y-16989484D01*
X11074396Y-16989484D02*
X11055348Y-16989484D01*
X11055348Y-16989484D02*
X11036301Y-16979960D01*
X11036301Y-16979960D02*
X11026777Y-16970436D01*
X11026777Y-16970436D02*
X11017253Y-16951389D01*
X11017253Y-16951389D02*
X11007729Y-16913293D01*
X11007729Y-16913293D02*
X11007729Y-16865674D01*
X11007729Y-16865674D02*
X11017253Y-16827579D01*
X11017253Y-16827579D02*
X11026777Y-16808531D01*
X11026777Y-16808531D02*
X11036301Y-16799008D01*
X11036301Y-16799008D02*
X11055348Y-16789484D01*
X11188682Y-16789484D02*
X11312491Y-16789484D01*
X11312491Y-16789484D02*
X11245825Y-16865674D01*
X11245825Y-16865674D02*
X11274396Y-16865674D01*
X11274396Y-16865674D02*
X11293444Y-16875198D01*
X11293444Y-16875198D02*
X11302967Y-16884722D01*
X11302967Y-16884722D02*
X11312491Y-16903770D01*
X11312491Y-16903770D02*
X11312491Y-16951389D01*
X11312491Y-16951389D02*
X11302967Y-16970436D01*
X11302967Y-16970436D02*
X11293444Y-16979960D01*
X11293444Y-16979960D02*
X11274396Y-16989484D01*
X11274396Y-16989484D02*
X11217253Y-16989484D01*
X11217253Y-16989484D02*
X11198206Y-16979960D01*
X11198206Y-16979960D02*
X11188682Y-16970436D01*
X11407729Y-16989484D02*
X11445825Y-16989484D01*
X11445825Y-16989484D02*
X11464872Y-16979960D01*
X11464872Y-16979960D02*
X11474396Y-16970436D01*
X11474396Y-16970436D02*
X11493444Y-16941865D01*
X11493444Y-16941865D02*
X11502967Y-16903770D01*
X11502967Y-16903770D02*
X11502967Y-16827579D01*
X11502967Y-16827579D02*
X11493444Y-16808531D01*
X11493444Y-16808531D02*
X11483920Y-16799008D01*
X11483920Y-16799008D02*
X11464872Y-16789484D01*
X11464872Y-16789484D02*
X11426777Y-16789484D01*
X11426777Y-16789484D02*
X11407729Y-16799008D01*
X11407729Y-16799008D02*
X11398206Y-16808531D01*
X11398206Y-16808531D02*
X11388682Y-16827579D01*
X11388682Y-16827579D02*
X11388682Y-16875198D01*
X11388682Y-16875198D02*
X11398206Y-16894246D01*
X11398206Y-16894246D02*
X11407729Y-16903770D01*
X11407729Y-16903770D02*
X11426777Y-16913293D01*
X11426777Y-16913293D02*
X11464872Y-16913293D01*
X11464872Y-16913293D02*
X11483920Y-16903770D01*
X11483920Y-16903770D02*
X11493444Y-16894246D01*
X11493444Y-16894246D02*
X11502967Y-16875198D01*
X11674396Y-16856150D02*
X11674396Y-16989484D01*
X11626777Y-16779960D02*
X11579158Y-16922817D01*
X11579158Y-16922817D02*
X11702967Y-16922817D01*
X11769634Y-16789484D02*
X11769634Y-16827579D01*
X11845825Y-16789484D02*
X11845825Y-16827579D01*
X12141063Y-17065674D02*
X12131539Y-17056150D01*
X12131539Y-17056150D02*
X12112491Y-17027579D01*
X12112491Y-17027579D02*
X12102968Y-17008531D01*
X12102968Y-17008531D02*
X12093444Y-16979960D01*
X12093444Y-16979960D02*
X12083920Y-16932341D01*
X12083920Y-16932341D02*
X12083920Y-16894246D01*
X12083920Y-16894246D02*
X12093444Y-16846627D01*
X12093444Y-16846627D02*
X12102968Y-16818055D01*
X12102968Y-16818055D02*
X12112491Y-16799008D01*
X12112491Y-16799008D02*
X12131539Y-16770436D01*
X12131539Y-16770436D02*
X12141063Y-16760912D01*
X12302968Y-16856150D02*
X12302968Y-16989484D01*
X12255348Y-16779960D02*
X12207729Y-16922817D01*
X12207729Y-16922817D02*
X12331539Y-16922817D01*
X12560110Y-16989484D02*
X12560110Y-16789484D01*
X12645825Y-16989484D02*
X12645825Y-16884722D01*
X12645825Y-16884722D02*
X12636301Y-16865674D01*
X12636301Y-16865674D02*
X12617253Y-16856150D01*
X12617253Y-16856150D02*
X12588682Y-16856150D01*
X12588682Y-16856150D02*
X12569634Y-16865674D01*
X12569634Y-16865674D02*
X12560110Y-16875198D01*
X12769634Y-16989484D02*
X12750587Y-16979960D01*
X12750587Y-16979960D02*
X12741063Y-16970436D01*
X12741063Y-16970436D02*
X12731539Y-16951389D01*
X12731539Y-16951389D02*
X12731539Y-16894246D01*
X12731539Y-16894246D02*
X12741063Y-16875198D01*
X12741063Y-16875198D02*
X12750587Y-16865674D01*
X12750587Y-16865674D02*
X12769634Y-16856150D01*
X12769634Y-16856150D02*
X12798206Y-16856150D01*
X12798206Y-16856150D02*
X12817253Y-16865674D01*
X12817253Y-16865674D02*
X12826777Y-16875198D01*
X12826777Y-16875198D02*
X12836301Y-16894246D01*
X12836301Y-16894246D02*
X12836301Y-16951389D01*
X12836301Y-16951389D02*
X12826777Y-16970436D01*
X12826777Y-16970436D02*
X12817253Y-16979960D01*
X12817253Y-16979960D02*
X12798206Y-16989484D01*
X12798206Y-16989484D02*
X12769634Y-16989484D01*
X12950587Y-16989484D02*
X12931539Y-16979960D01*
X12931539Y-16979960D02*
X12922015Y-16960912D01*
X12922015Y-16960912D02*
X12922015Y-16789484D01*
X13102968Y-16979960D02*
X13083920Y-16989484D01*
X13083920Y-16989484D02*
X13045825Y-16989484D01*
X13045825Y-16989484D02*
X13026777Y-16979960D01*
X13026777Y-16979960D02*
X13017253Y-16960912D01*
X13017253Y-16960912D02*
X13017253Y-16884722D01*
X13017253Y-16884722D02*
X13026777Y-16865674D01*
X13026777Y-16865674D02*
X13045825Y-16856150D01*
X13045825Y-16856150D02*
X13083920Y-16856150D01*
X13083920Y-16856150D02*
X13102968Y-16865674D01*
X13102968Y-16865674D02*
X13112491Y-16884722D01*
X13112491Y-16884722D02*
X13112491Y-16903770D01*
X13112491Y-16903770D02*
X13017253Y-16922817D01*
X13188682Y-16979960D02*
X13207730Y-16989484D01*
X13207730Y-16989484D02*
X13245825Y-16989484D01*
X13245825Y-16989484D02*
X13264872Y-16979960D01*
X13264872Y-16979960D02*
X13274396Y-16960912D01*
X13274396Y-16960912D02*
X13274396Y-16951389D01*
X13274396Y-16951389D02*
X13264872Y-16932341D01*
X13264872Y-16932341D02*
X13245825Y-16922817D01*
X13245825Y-16922817D02*
X13217253Y-16922817D01*
X13217253Y-16922817D02*
X13198206Y-16913293D01*
X13198206Y-16913293D02*
X13188682Y-16894246D01*
X13188682Y-16894246D02*
X13188682Y-16884722D01*
X13188682Y-16884722D02*
X13198206Y-16865674D01*
X13198206Y-16865674D02*
X13217253Y-16856150D01*
X13217253Y-16856150D02*
X13245825Y-16856150D01*
X13245825Y-16856150D02*
X13264872Y-16865674D01*
X13341063Y-17065674D02*
X13350587Y-17056150D01*
X13350587Y-17056150D02*
X13369634Y-17027579D01*
X13369634Y-17027579D02*
X13379158Y-17008531D01*
X13379158Y-17008531D02*
X13388682Y-16979960D01*
X13388682Y-16979960D02*
X13398206Y-16932341D01*
X13398206Y-16932341D02*
X13398206Y-16894246D01*
X13398206Y-16894246D02*
X13388682Y-16846627D01*
X13388682Y-16846627D02*
X13379158Y-16818055D01*
X13379158Y-16818055D02*
X13369634Y-16799008D01*
X13369634Y-16799008D02*
X13350587Y-16770436D01*
X13350587Y-16770436D02*
X13341063Y-16760912D01*
D12*
X8546962Y-17207962D02*
X8546962Y-17116038D01*
X8455038Y-17116038D01*
X8455038Y-17207962D01*
X8546962Y-17207962D01*
D11*
X8931539Y-17253484D02*
X8817253Y-17253484D01*
X8874396Y-17253484D02*
X8874396Y-17053484D01*
X8874396Y-17053484D02*
X8855348Y-17082055D01*
X8855348Y-17082055D02*
X8836301Y-17101103D01*
X8836301Y-17101103D02*
X8817253Y-17110627D01*
X9017253Y-17234436D02*
X9026777Y-17243960D01*
X9026777Y-17243960D02*
X9017253Y-17253484D01*
X9017253Y-17253484D02*
X9007729Y-17243960D01*
X9007729Y-17243960D02*
X9017253Y-17234436D01*
X9017253Y-17234436D02*
X9017253Y-17253484D01*
X9093444Y-17053484D02*
X9217253Y-17053484D01*
X9217253Y-17053484D02*
X9150586Y-17129674D01*
X9150586Y-17129674D02*
X9179158Y-17129674D01*
X9179158Y-17129674D02*
X9198205Y-17139198D01*
X9198205Y-17139198D02*
X9207729Y-17148722D01*
X9207729Y-17148722D02*
X9217253Y-17167770D01*
X9217253Y-17167770D02*
X9217253Y-17215389D01*
X9217253Y-17215389D02*
X9207729Y-17234436D01*
X9207729Y-17234436D02*
X9198205Y-17243960D01*
X9198205Y-17243960D02*
X9179158Y-17253484D01*
X9179158Y-17253484D02*
X9122015Y-17253484D01*
X9122015Y-17253484D02*
X9102967Y-17243960D01*
X9102967Y-17243960D02*
X9093444Y-17234436D01*
X9341063Y-17053484D02*
X9360110Y-17053484D01*
X9360110Y-17053484D02*
X9379158Y-17063008D01*
X9379158Y-17063008D02*
X9388682Y-17072531D01*
X9388682Y-17072531D02*
X9398205Y-17091579D01*
X9398205Y-17091579D02*
X9407729Y-17129674D01*
X9407729Y-17129674D02*
X9407729Y-17177293D01*
X9407729Y-17177293D02*
X9398205Y-17215389D01*
X9398205Y-17215389D02*
X9388682Y-17234436D01*
X9388682Y-17234436D02*
X9379158Y-17243960D01*
X9379158Y-17243960D02*
X9360110Y-17253484D01*
X9360110Y-17253484D02*
X9341063Y-17253484D01*
X9341063Y-17253484D02*
X9322015Y-17243960D01*
X9322015Y-17243960D02*
X9312491Y-17234436D01*
X9312491Y-17234436D02*
X9302967Y-17215389D01*
X9302967Y-17215389D02*
X9293444Y-17177293D01*
X9293444Y-17177293D02*
X9293444Y-17129674D01*
X9293444Y-17129674D02*
X9302967Y-17091579D01*
X9302967Y-17091579D02*
X9312491Y-17072531D01*
X9312491Y-17072531D02*
X9322015Y-17063008D01*
X9322015Y-17063008D02*
X9341063Y-17053484D01*
X9531539Y-17053484D02*
X9550586Y-17053484D01*
X9550586Y-17053484D02*
X9569634Y-17063008D01*
X9569634Y-17063008D02*
X9579158Y-17072531D01*
X9579158Y-17072531D02*
X9588682Y-17091579D01*
X9588682Y-17091579D02*
X9598205Y-17129674D01*
X9598205Y-17129674D02*
X9598205Y-17177293D01*
X9598205Y-17177293D02*
X9588682Y-17215389D01*
X9588682Y-17215389D02*
X9579158Y-17234436D01*
X9579158Y-17234436D02*
X9569634Y-17243960D01*
X9569634Y-17243960D02*
X9550586Y-17253484D01*
X9550586Y-17253484D02*
X9531539Y-17253484D01*
X9531539Y-17253484D02*
X9512491Y-17243960D01*
X9512491Y-17243960D02*
X9502967Y-17234436D01*
X9502967Y-17234436D02*
X9493444Y-17215389D01*
X9493444Y-17215389D02*
X9483920Y-17177293D01*
X9483920Y-17177293D02*
X9483920Y-17129674D01*
X9483920Y-17129674D02*
X9493444Y-17091579D01*
X9493444Y-17091579D02*
X9502967Y-17072531D01*
X9502967Y-17072531D02*
X9512491Y-17063008D01*
X9512491Y-17063008D02*
X9531539Y-17053484D01*
X9683920Y-17253484D02*
X9683920Y-17120150D01*
X9683920Y-17139198D02*
X9693444Y-17129674D01*
X9693444Y-17129674D02*
X9712491Y-17120150D01*
X9712491Y-17120150D02*
X9741063Y-17120150D01*
X9741063Y-17120150D02*
X9760110Y-17129674D01*
X9760110Y-17129674D02*
X9769634Y-17148722D01*
X9769634Y-17148722D02*
X9769634Y-17253484D01*
X9769634Y-17148722D02*
X9779158Y-17129674D01*
X9779158Y-17129674D02*
X9798205Y-17120150D01*
X9798205Y-17120150D02*
X9826777Y-17120150D01*
X9826777Y-17120150D02*
X9845825Y-17129674D01*
X9845825Y-17129674D02*
X9855348Y-17148722D01*
X9855348Y-17148722D02*
X9855348Y-17253484D01*
X9950586Y-17253484D02*
X9950586Y-17120150D01*
X9950586Y-17139198D02*
X9960110Y-17129674D01*
X9960110Y-17129674D02*
X9979158Y-17120150D01*
X9979158Y-17120150D02*
X10007729Y-17120150D01*
X10007729Y-17120150D02*
X10026777Y-17129674D01*
X10026777Y-17129674D02*
X10036301Y-17148722D01*
X10036301Y-17148722D02*
X10036301Y-17253484D01*
X10036301Y-17148722D02*
X10045825Y-17129674D01*
X10045825Y-17129674D02*
X10064872Y-17120150D01*
X10064872Y-17120150D02*
X10093444Y-17120150D01*
X10093444Y-17120150D02*
X10112491Y-17129674D01*
X10112491Y-17129674D02*
X10122015Y-17148722D01*
X10122015Y-17148722D02*
X10122015Y-17253484D01*
X10512491Y-17043960D02*
X10341063Y-17301103D01*
X10769634Y-17053484D02*
X10788682Y-17053484D01*
X10788682Y-17053484D02*
X10807729Y-17063008D01*
X10807729Y-17063008D02*
X10817253Y-17072531D01*
X10817253Y-17072531D02*
X10826777Y-17091579D01*
X10826777Y-17091579D02*
X10836301Y-17129674D01*
X10836301Y-17129674D02*
X10836301Y-17177293D01*
X10836301Y-17177293D02*
X10826777Y-17215389D01*
X10826777Y-17215389D02*
X10817253Y-17234436D01*
X10817253Y-17234436D02*
X10807729Y-17243960D01*
X10807729Y-17243960D02*
X10788682Y-17253484D01*
X10788682Y-17253484D02*
X10769634Y-17253484D01*
X10769634Y-17253484D02*
X10750587Y-17243960D01*
X10750587Y-17243960D02*
X10741063Y-17234436D01*
X10741063Y-17234436D02*
X10731539Y-17215389D01*
X10731539Y-17215389D02*
X10722015Y-17177293D01*
X10722015Y-17177293D02*
X10722015Y-17129674D01*
X10722015Y-17129674D02*
X10731539Y-17091579D01*
X10731539Y-17091579D02*
X10741063Y-17072531D01*
X10741063Y-17072531D02*
X10750587Y-17063008D01*
X10750587Y-17063008D02*
X10769634Y-17053484D01*
X10922015Y-17234436D02*
X10931539Y-17243960D01*
X10931539Y-17243960D02*
X10922015Y-17253484D01*
X10922015Y-17253484D02*
X10912491Y-17243960D01*
X10912491Y-17243960D02*
X10922015Y-17234436D01*
X10922015Y-17234436D02*
X10922015Y-17253484D01*
X11055348Y-17053484D02*
X11074396Y-17053484D01*
X11074396Y-17053484D02*
X11093444Y-17063008D01*
X11093444Y-17063008D02*
X11102968Y-17072531D01*
X11102968Y-17072531D02*
X11112491Y-17091579D01*
X11112491Y-17091579D02*
X11122015Y-17129674D01*
X11122015Y-17129674D02*
X11122015Y-17177293D01*
X11122015Y-17177293D02*
X11112491Y-17215389D01*
X11112491Y-17215389D02*
X11102968Y-17234436D01*
X11102968Y-17234436D02*
X11093444Y-17243960D01*
X11093444Y-17243960D02*
X11074396Y-17253484D01*
X11074396Y-17253484D02*
X11055348Y-17253484D01*
X11055348Y-17253484D02*
X11036301Y-17243960D01*
X11036301Y-17243960D02*
X11026777Y-17234436D01*
X11026777Y-17234436D02*
X11017253Y-17215389D01*
X11017253Y-17215389D02*
X11007729Y-17177293D01*
X11007729Y-17177293D02*
X11007729Y-17129674D01*
X11007729Y-17129674D02*
X11017253Y-17091579D01*
X11017253Y-17091579D02*
X11026777Y-17072531D01*
X11026777Y-17072531D02*
X11036301Y-17063008D01*
X11036301Y-17063008D02*
X11055348Y-17053484D01*
X11302967Y-17053484D02*
X11207729Y-17053484D01*
X11207729Y-17053484D02*
X11198206Y-17148722D01*
X11198206Y-17148722D02*
X11207729Y-17139198D01*
X11207729Y-17139198D02*
X11226777Y-17129674D01*
X11226777Y-17129674D02*
X11274396Y-17129674D01*
X11274396Y-17129674D02*
X11293444Y-17139198D01*
X11293444Y-17139198D02*
X11302967Y-17148722D01*
X11302967Y-17148722D02*
X11312491Y-17167770D01*
X11312491Y-17167770D02*
X11312491Y-17215389D01*
X11312491Y-17215389D02*
X11302967Y-17234436D01*
X11302967Y-17234436D02*
X11293444Y-17243960D01*
X11293444Y-17243960D02*
X11274396Y-17253484D01*
X11274396Y-17253484D02*
X11226777Y-17253484D01*
X11226777Y-17253484D02*
X11207729Y-17243960D01*
X11207729Y-17243960D02*
X11198206Y-17234436D01*
X11502967Y-17253484D02*
X11388682Y-17253484D01*
X11445825Y-17253484D02*
X11445825Y-17053484D01*
X11445825Y-17053484D02*
X11426777Y-17082055D01*
X11426777Y-17082055D02*
X11407729Y-17101103D01*
X11407729Y-17101103D02*
X11388682Y-17110627D01*
X11579158Y-17072531D02*
X11588682Y-17063008D01*
X11588682Y-17063008D02*
X11607729Y-17053484D01*
X11607729Y-17053484D02*
X11655348Y-17053484D01*
X11655348Y-17053484D02*
X11674396Y-17063008D01*
X11674396Y-17063008D02*
X11683920Y-17072531D01*
X11683920Y-17072531D02*
X11693444Y-17091579D01*
X11693444Y-17091579D02*
X11693444Y-17110627D01*
X11693444Y-17110627D02*
X11683920Y-17139198D01*
X11683920Y-17139198D02*
X11569634Y-17253484D01*
X11569634Y-17253484D02*
X11693444Y-17253484D01*
X11769634Y-17053484D02*
X11769634Y-17091579D01*
X11845825Y-17053484D02*
X11845825Y-17091579D01*
X12141063Y-17329674D02*
X12131539Y-17320150D01*
X12131539Y-17320150D02*
X12112491Y-17291579D01*
X12112491Y-17291579D02*
X12102968Y-17272531D01*
X12102968Y-17272531D02*
X12093444Y-17243960D01*
X12093444Y-17243960D02*
X12083920Y-17196341D01*
X12083920Y-17196341D02*
X12083920Y-17158246D01*
X12083920Y-17158246D02*
X12093444Y-17110627D01*
X12093444Y-17110627D02*
X12102968Y-17082055D01*
X12102968Y-17082055D02*
X12112491Y-17063008D01*
X12112491Y-17063008D02*
X12131539Y-17034436D01*
X12131539Y-17034436D02*
X12141063Y-17024912D01*
X12312491Y-17053484D02*
X12217253Y-17053484D01*
X12217253Y-17053484D02*
X12207729Y-17148722D01*
X12207729Y-17148722D02*
X12217253Y-17139198D01*
X12217253Y-17139198D02*
X12236301Y-17129674D01*
X12236301Y-17129674D02*
X12283920Y-17129674D01*
X12283920Y-17129674D02*
X12302968Y-17139198D01*
X12302968Y-17139198D02*
X12312491Y-17148722D01*
X12312491Y-17148722D02*
X12322015Y-17167770D01*
X12322015Y-17167770D02*
X12322015Y-17215389D01*
X12322015Y-17215389D02*
X12312491Y-17234436D01*
X12312491Y-17234436D02*
X12302968Y-17243960D01*
X12302968Y-17243960D02*
X12283920Y-17253484D01*
X12283920Y-17253484D02*
X12236301Y-17253484D01*
X12236301Y-17253484D02*
X12217253Y-17243960D01*
X12217253Y-17243960D02*
X12207729Y-17234436D01*
X12560110Y-17253484D02*
X12560110Y-17053484D01*
X12645825Y-17253484D02*
X12645825Y-17148722D01*
X12645825Y-17148722D02*
X12636301Y-17129674D01*
X12636301Y-17129674D02*
X12617253Y-17120150D01*
X12617253Y-17120150D02*
X12588682Y-17120150D01*
X12588682Y-17120150D02*
X12569634Y-17129674D01*
X12569634Y-17129674D02*
X12560110Y-17139198D01*
X12769634Y-17253484D02*
X12750587Y-17243960D01*
X12750587Y-17243960D02*
X12741063Y-17234436D01*
X12741063Y-17234436D02*
X12731539Y-17215389D01*
X12731539Y-17215389D02*
X12731539Y-17158246D01*
X12731539Y-17158246D02*
X12741063Y-17139198D01*
X12741063Y-17139198D02*
X12750587Y-17129674D01*
X12750587Y-17129674D02*
X12769634Y-17120150D01*
X12769634Y-17120150D02*
X12798206Y-17120150D01*
X12798206Y-17120150D02*
X12817253Y-17129674D01*
X12817253Y-17129674D02*
X12826777Y-17139198D01*
X12826777Y-17139198D02*
X12836301Y-17158246D01*
X12836301Y-17158246D02*
X12836301Y-17215389D01*
X12836301Y-17215389D02*
X12826777Y-17234436D01*
X12826777Y-17234436D02*
X12817253Y-17243960D01*
X12817253Y-17243960D02*
X12798206Y-17253484D01*
X12798206Y-17253484D02*
X12769634Y-17253484D01*
X12950587Y-17253484D02*
X12931539Y-17243960D01*
X12931539Y-17243960D02*
X12922015Y-17224912D01*
X12922015Y-17224912D02*
X12922015Y-17053484D01*
X13102968Y-17243960D02*
X13083920Y-17253484D01*
X13083920Y-17253484D02*
X13045825Y-17253484D01*
X13045825Y-17253484D02*
X13026777Y-17243960D01*
X13026777Y-17243960D02*
X13017253Y-17224912D01*
X13017253Y-17224912D02*
X13017253Y-17148722D01*
X13017253Y-17148722D02*
X13026777Y-17129674D01*
X13026777Y-17129674D02*
X13045825Y-17120150D01*
X13045825Y-17120150D02*
X13083920Y-17120150D01*
X13083920Y-17120150D02*
X13102968Y-17129674D01*
X13102968Y-17129674D02*
X13112491Y-17148722D01*
X13112491Y-17148722D02*
X13112491Y-17167770D01*
X13112491Y-17167770D02*
X13017253Y-17186817D01*
X13188682Y-17243960D02*
X13207730Y-17253484D01*
X13207730Y-17253484D02*
X13245825Y-17253484D01*
X13245825Y-17253484D02*
X13264872Y-17243960D01*
X13264872Y-17243960D02*
X13274396Y-17224912D01*
X13274396Y-17224912D02*
X13274396Y-17215389D01*
X13274396Y-17215389D02*
X13264872Y-17196341D01*
X13264872Y-17196341D02*
X13245825Y-17186817D01*
X13245825Y-17186817D02*
X13217253Y-17186817D01*
X13217253Y-17186817D02*
X13198206Y-17177293D01*
X13198206Y-17177293D02*
X13188682Y-17158246D01*
X13188682Y-17158246D02*
X13188682Y-17148722D01*
X13188682Y-17148722D02*
X13198206Y-17129674D01*
X13198206Y-17129674D02*
X13217253Y-17120150D01*
X13217253Y-17120150D02*
X13245825Y-17120150D01*
X13245825Y-17120150D02*
X13264872Y-17129674D01*
X13341063Y-17329674D02*
X13350587Y-17320150D01*
X13350587Y-17320150D02*
X13369634Y-17291579D01*
X13369634Y-17291579D02*
X13379158Y-17272531D01*
X13379158Y-17272531D02*
X13388682Y-17243960D01*
X13388682Y-17243960D02*
X13398206Y-17196341D01*
X13398206Y-17196341D02*
X13398206Y-17158246D01*
X13398206Y-17158246D02*
X13388682Y-17110627D01*
X13388682Y-17110627D02*
X13379158Y-17082055D01*
X13379158Y-17082055D02*
X13369634Y-17063008D01*
X13369634Y-17063008D02*
X13350587Y-17034436D01*
X13350587Y-17034436D02*
X13341063Y-17024912D01*
X8466000Y-17526000D02*
X8566000Y-17426000D01*
X8466000Y-17326000D01*
X8366000Y-17426000D01*
X8466000Y-17526000D01*
X8817253Y-17336531D02*
X8826777Y-17327008D01*
X8826777Y-17327008D02*
X8845824Y-17317484D01*
X8845824Y-17317484D02*
X8893444Y-17317484D01*
X8893444Y-17317484D02*
X8912491Y-17327008D01*
X8912491Y-17327008D02*
X8922015Y-17336531D01*
X8922015Y-17336531D02*
X8931539Y-17355579D01*
X8931539Y-17355579D02*
X8931539Y-17374627D01*
X8931539Y-17374627D02*
X8922015Y-17403198D01*
X8922015Y-17403198D02*
X8807729Y-17517484D01*
X8807729Y-17517484D02*
X8931539Y-17517484D01*
X9017253Y-17498436D02*
X9026777Y-17507960D01*
X9026777Y-17507960D02*
X9017253Y-17517484D01*
X9017253Y-17517484D02*
X9007729Y-17507960D01*
X9007729Y-17507960D02*
X9017253Y-17498436D01*
X9017253Y-17498436D02*
X9017253Y-17517484D01*
X9102967Y-17336531D02*
X9112491Y-17327008D01*
X9112491Y-17327008D02*
X9131539Y-17317484D01*
X9131539Y-17317484D02*
X9179158Y-17317484D01*
X9179158Y-17317484D02*
X9198205Y-17327008D01*
X9198205Y-17327008D02*
X9207729Y-17336531D01*
X9207729Y-17336531D02*
X9217253Y-17355579D01*
X9217253Y-17355579D02*
X9217253Y-17374627D01*
X9217253Y-17374627D02*
X9207729Y-17403198D01*
X9207729Y-17403198D02*
X9093444Y-17517484D01*
X9093444Y-17517484D02*
X9217253Y-17517484D01*
X9341063Y-17317484D02*
X9360110Y-17317484D01*
X9360110Y-17317484D02*
X9379158Y-17327008D01*
X9379158Y-17327008D02*
X9388682Y-17336531D01*
X9388682Y-17336531D02*
X9398205Y-17355579D01*
X9398205Y-17355579D02*
X9407729Y-17393674D01*
X9407729Y-17393674D02*
X9407729Y-17441293D01*
X9407729Y-17441293D02*
X9398205Y-17479389D01*
X9398205Y-17479389D02*
X9388682Y-17498436D01*
X9388682Y-17498436D02*
X9379158Y-17507960D01*
X9379158Y-17507960D02*
X9360110Y-17517484D01*
X9360110Y-17517484D02*
X9341063Y-17517484D01*
X9341063Y-17517484D02*
X9322015Y-17507960D01*
X9322015Y-17507960D02*
X9312491Y-17498436D01*
X9312491Y-17498436D02*
X9302967Y-17479389D01*
X9302967Y-17479389D02*
X9293444Y-17441293D01*
X9293444Y-17441293D02*
X9293444Y-17393674D01*
X9293444Y-17393674D02*
X9302967Y-17355579D01*
X9302967Y-17355579D02*
X9312491Y-17336531D01*
X9312491Y-17336531D02*
X9322015Y-17327008D01*
X9322015Y-17327008D02*
X9341063Y-17317484D01*
X9531539Y-17317484D02*
X9550586Y-17317484D01*
X9550586Y-17317484D02*
X9569634Y-17327008D01*
X9569634Y-17327008D02*
X9579158Y-17336531D01*
X9579158Y-17336531D02*
X9588682Y-17355579D01*
X9588682Y-17355579D02*
X9598205Y-17393674D01*
X9598205Y-17393674D02*
X9598205Y-17441293D01*
X9598205Y-17441293D02*
X9588682Y-17479389D01*
X9588682Y-17479389D02*
X9579158Y-17498436D01*
X9579158Y-17498436D02*
X9569634Y-17507960D01*
X9569634Y-17507960D02*
X9550586Y-17517484D01*
X9550586Y-17517484D02*
X9531539Y-17517484D01*
X9531539Y-17517484D02*
X9512491Y-17507960D01*
X9512491Y-17507960D02*
X9502967Y-17498436D01*
X9502967Y-17498436D02*
X9493444Y-17479389D01*
X9493444Y-17479389D02*
X9483920Y-17441293D01*
X9483920Y-17441293D02*
X9483920Y-17393674D01*
X9483920Y-17393674D02*
X9493444Y-17355579D01*
X9493444Y-17355579D02*
X9502967Y-17336531D01*
X9502967Y-17336531D02*
X9512491Y-17327008D01*
X9512491Y-17327008D02*
X9531539Y-17317484D01*
X9683920Y-17517484D02*
X9683920Y-17384150D01*
X9683920Y-17403198D02*
X9693444Y-17393674D01*
X9693444Y-17393674D02*
X9712491Y-17384150D01*
X9712491Y-17384150D02*
X9741063Y-17384150D01*
X9741063Y-17384150D02*
X9760110Y-17393674D01*
X9760110Y-17393674D02*
X9769634Y-17412722D01*
X9769634Y-17412722D02*
X9769634Y-17517484D01*
X9769634Y-17412722D02*
X9779158Y-17393674D01*
X9779158Y-17393674D02*
X9798205Y-17384150D01*
X9798205Y-17384150D02*
X9826777Y-17384150D01*
X9826777Y-17384150D02*
X9845825Y-17393674D01*
X9845825Y-17393674D02*
X9855348Y-17412722D01*
X9855348Y-17412722D02*
X9855348Y-17517484D01*
X9950586Y-17517484D02*
X9950586Y-17384150D01*
X9950586Y-17403198D02*
X9960110Y-17393674D01*
X9960110Y-17393674D02*
X9979158Y-17384150D01*
X9979158Y-17384150D02*
X10007729Y-17384150D01*
X10007729Y-17384150D02*
X10026777Y-17393674D01*
X10026777Y-17393674D02*
X10036301Y-17412722D01*
X10036301Y-17412722D02*
X10036301Y-17517484D01*
X10036301Y-17412722D02*
X10045825Y-17393674D01*
X10045825Y-17393674D02*
X10064872Y-17384150D01*
X10064872Y-17384150D02*
X10093444Y-17384150D01*
X10093444Y-17384150D02*
X10112491Y-17393674D01*
X10112491Y-17393674D02*
X10122015Y-17412722D01*
X10122015Y-17412722D02*
X10122015Y-17517484D01*
X10512491Y-17307960D02*
X10341063Y-17565103D01*
X10769634Y-17317484D02*
X10788682Y-17317484D01*
X10788682Y-17317484D02*
X10807729Y-17327008D01*
X10807729Y-17327008D02*
X10817253Y-17336531D01*
X10817253Y-17336531D02*
X10826777Y-17355579D01*
X10826777Y-17355579D02*
X10836301Y-17393674D01*
X10836301Y-17393674D02*
X10836301Y-17441293D01*
X10836301Y-17441293D02*
X10826777Y-17479389D01*
X10826777Y-17479389D02*
X10817253Y-17498436D01*
X10817253Y-17498436D02*
X10807729Y-17507960D01*
X10807729Y-17507960D02*
X10788682Y-17517484D01*
X10788682Y-17517484D02*
X10769634Y-17517484D01*
X10769634Y-17517484D02*
X10750587Y-17507960D01*
X10750587Y-17507960D02*
X10741063Y-17498436D01*
X10741063Y-17498436D02*
X10731539Y-17479389D01*
X10731539Y-17479389D02*
X10722015Y-17441293D01*
X10722015Y-17441293D02*
X10722015Y-17393674D01*
X10722015Y-17393674D02*
X10731539Y-17355579D01*
X10731539Y-17355579D02*
X10741063Y-17336531D01*
X10741063Y-17336531D02*
X10750587Y-17327008D01*
X10750587Y-17327008D02*
X10769634Y-17317484D01*
X10922015Y-17498436D02*
X10931539Y-17507960D01*
X10931539Y-17507960D02*
X10922015Y-17517484D01*
X10922015Y-17517484D02*
X10912491Y-17507960D01*
X10912491Y-17507960D02*
X10922015Y-17498436D01*
X10922015Y-17498436D02*
X10922015Y-17517484D01*
X11055348Y-17317484D02*
X11074396Y-17317484D01*
X11074396Y-17317484D02*
X11093444Y-17327008D01*
X11093444Y-17327008D02*
X11102968Y-17336531D01*
X11102968Y-17336531D02*
X11112491Y-17355579D01*
X11112491Y-17355579D02*
X11122015Y-17393674D01*
X11122015Y-17393674D02*
X11122015Y-17441293D01*
X11122015Y-17441293D02*
X11112491Y-17479389D01*
X11112491Y-17479389D02*
X11102968Y-17498436D01*
X11102968Y-17498436D02*
X11093444Y-17507960D01*
X11093444Y-17507960D02*
X11074396Y-17517484D01*
X11074396Y-17517484D02*
X11055348Y-17517484D01*
X11055348Y-17517484D02*
X11036301Y-17507960D01*
X11036301Y-17507960D02*
X11026777Y-17498436D01*
X11026777Y-17498436D02*
X11017253Y-17479389D01*
X11017253Y-17479389D02*
X11007729Y-17441293D01*
X11007729Y-17441293D02*
X11007729Y-17393674D01*
X11007729Y-17393674D02*
X11017253Y-17355579D01*
X11017253Y-17355579D02*
X11026777Y-17336531D01*
X11026777Y-17336531D02*
X11036301Y-17327008D01*
X11036301Y-17327008D02*
X11055348Y-17317484D01*
X11236301Y-17403198D02*
X11217253Y-17393674D01*
X11217253Y-17393674D02*
X11207729Y-17384150D01*
X11207729Y-17384150D02*
X11198206Y-17365103D01*
X11198206Y-17365103D02*
X11198206Y-17355579D01*
X11198206Y-17355579D02*
X11207729Y-17336531D01*
X11207729Y-17336531D02*
X11217253Y-17327008D01*
X11217253Y-17327008D02*
X11236301Y-17317484D01*
X11236301Y-17317484D02*
X11274396Y-17317484D01*
X11274396Y-17317484D02*
X11293444Y-17327008D01*
X11293444Y-17327008D02*
X11302967Y-17336531D01*
X11302967Y-17336531D02*
X11312491Y-17355579D01*
X11312491Y-17355579D02*
X11312491Y-17365103D01*
X11312491Y-17365103D02*
X11302967Y-17384150D01*
X11302967Y-17384150D02*
X11293444Y-17393674D01*
X11293444Y-17393674D02*
X11274396Y-17403198D01*
X11274396Y-17403198D02*
X11236301Y-17403198D01*
X11236301Y-17403198D02*
X11217253Y-17412722D01*
X11217253Y-17412722D02*
X11207729Y-17422246D01*
X11207729Y-17422246D02*
X11198206Y-17441293D01*
X11198206Y-17441293D02*
X11198206Y-17479389D01*
X11198206Y-17479389D02*
X11207729Y-17498436D01*
X11207729Y-17498436D02*
X11217253Y-17507960D01*
X11217253Y-17507960D02*
X11236301Y-17517484D01*
X11236301Y-17517484D02*
X11274396Y-17517484D01*
X11274396Y-17517484D02*
X11293444Y-17507960D01*
X11293444Y-17507960D02*
X11302967Y-17498436D01*
X11302967Y-17498436D02*
X11312491Y-17479389D01*
X11312491Y-17479389D02*
X11312491Y-17441293D01*
X11312491Y-17441293D02*
X11302967Y-17422246D01*
X11302967Y-17422246D02*
X11293444Y-17412722D01*
X11293444Y-17412722D02*
X11274396Y-17403198D01*
X11483920Y-17317484D02*
X11445825Y-17317484D01*
X11445825Y-17317484D02*
X11426777Y-17327008D01*
X11426777Y-17327008D02*
X11417253Y-17336531D01*
X11417253Y-17336531D02*
X11398206Y-17365103D01*
X11398206Y-17365103D02*
X11388682Y-17403198D01*
X11388682Y-17403198D02*
X11388682Y-17479389D01*
X11388682Y-17479389D02*
X11398206Y-17498436D01*
X11398206Y-17498436D02*
X11407729Y-17507960D01*
X11407729Y-17507960D02*
X11426777Y-17517484D01*
X11426777Y-17517484D02*
X11464872Y-17517484D01*
X11464872Y-17517484D02*
X11483920Y-17507960D01*
X11483920Y-17507960D02*
X11493444Y-17498436D01*
X11493444Y-17498436D02*
X11502967Y-17479389D01*
X11502967Y-17479389D02*
X11502967Y-17431770D01*
X11502967Y-17431770D02*
X11493444Y-17412722D01*
X11493444Y-17412722D02*
X11483920Y-17403198D01*
X11483920Y-17403198D02*
X11464872Y-17393674D01*
X11464872Y-17393674D02*
X11426777Y-17393674D01*
X11426777Y-17393674D02*
X11407729Y-17403198D01*
X11407729Y-17403198D02*
X11398206Y-17412722D01*
X11398206Y-17412722D02*
X11388682Y-17431770D01*
X11674396Y-17317484D02*
X11636301Y-17317484D01*
X11636301Y-17317484D02*
X11617253Y-17327008D01*
X11617253Y-17327008D02*
X11607729Y-17336531D01*
X11607729Y-17336531D02*
X11588682Y-17365103D01*
X11588682Y-17365103D02*
X11579158Y-17403198D01*
X11579158Y-17403198D02*
X11579158Y-17479389D01*
X11579158Y-17479389D02*
X11588682Y-17498436D01*
X11588682Y-17498436D02*
X11598206Y-17507960D01*
X11598206Y-17507960D02*
X11617253Y-17517484D01*
X11617253Y-17517484D02*
X11655348Y-17517484D01*
X11655348Y-17517484D02*
X11674396Y-17507960D01*
X11674396Y-17507960D02*
X11683920Y-17498436D01*
X11683920Y-17498436D02*
X11693444Y-17479389D01*
X11693444Y-17479389D02*
X11693444Y-17431770D01*
X11693444Y-17431770D02*
X11683920Y-17412722D01*
X11683920Y-17412722D02*
X11674396Y-17403198D01*
X11674396Y-17403198D02*
X11655348Y-17393674D01*
X11655348Y-17393674D02*
X11617253Y-17393674D01*
X11617253Y-17393674D02*
X11598206Y-17403198D01*
X11598206Y-17403198D02*
X11588682Y-17412722D01*
X11588682Y-17412722D02*
X11579158Y-17431770D01*
X11769634Y-17317484D02*
X11769634Y-17355579D01*
X11845825Y-17317484D02*
X11845825Y-17355579D01*
X12141063Y-17593674D02*
X12131539Y-17584150D01*
X12131539Y-17584150D02*
X12112491Y-17555579D01*
X12112491Y-17555579D02*
X12102968Y-17536531D01*
X12102968Y-17536531D02*
X12093444Y-17507960D01*
X12093444Y-17507960D02*
X12083920Y-17460341D01*
X12083920Y-17460341D02*
X12083920Y-17422246D01*
X12083920Y-17422246D02*
X12093444Y-17374627D01*
X12093444Y-17374627D02*
X12102968Y-17346055D01*
X12102968Y-17346055D02*
X12112491Y-17327008D01*
X12112491Y-17327008D02*
X12131539Y-17298436D01*
X12131539Y-17298436D02*
X12141063Y-17288912D01*
X12207729Y-17336531D02*
X12217253Y-17327008D01*
X12217253Y-17327008D02*
X12236301Y-17317484D01*
X12236301Y-17317484D02*
X12283920Y-17317484D01*
X12283920Y-17317484D02*
X12302968Y-17327008D01*
X12302968Y-17327008D02*
X12312491Y-17336531D01*
X12312491Y-17336531D02*
X12322015Y-17355579D01*
X12322015Y-17355579D02*
X12322015Y-17374627D01*
X12322015Y-17374627D02*
X12312491Y-17403198D01*
X12312491Y-17403198D02*
X12198206Y-17517484D01*
X12198206Y-17517484D02*
X12322015Y-17517484D01*
X12560110Y-17517484D02*
X12560110Y-17317484D01*
X12645825Y-17517484D02*
X12645825Y-17412722D01*
X12645825Y-17412722D02*
X12636301Y-17393674D01*
X12636301Y-17393674D02*
X12617253Y-17384150D01*
X12617253Y-17384150D02*
X12588682Y-17384150D01*
X12588682Y-17384150D02*
X12569634Y-17393674D01*
X12569634Y-17393674D02*
X12560110Y-17403198D01*
X12769634Y-17517484D02*
X12750587Y-17507960D01*
X12750587Y-17507960D02*
X12741063Y-17498436D01*
X12741063Y-17498436D02*
X12731539Y-17479389D01*
X12731539Y-17479389D02*
X12731539Y-17422246D01*
X12731539Y-17422246D02*
X12741063Y-17403198D01*
X12741063Y-17403198D02*
X12750587Y-17393674D01*
X12750587Y-17393674D02*
X12769634Y-17384150D01*
X12769634Y-17384150D02*
X12798206Y-17384150D01*
X12798206Y-17384150D02*
X12817253Y-17393674D01*
X12817253Y-17393674D02*
X12826777Y-17403198D01*
X12826777Y-17403198D02*
X12836301Y-17422246D01*
X12836301Y-17422246D02*
X12836301Y-17479389D01*
X12836301Y-17479389D02*
X12826777Y-17498436D01*
X12826777Y-17498436D02*
X12817253Y-17507960D01*
X12817253Y-17507960D02*
X12798206Y-17517484D01*
X12798206Y-17517484D02*
X12769634Y-17517484D01*
X12950587Y-17517484D02*
X12931539Y-17507960D01*
X12931539Y-17507960D02*
X12922015Y-17488912D01*
X12922015Y-17488912D02*
X12922015Y-17317484D01*
X13102968Y-17507960D02*
X13083920Y-17517484D01*
X13083920Y-17517484D02*
X13045825Y-17517484D01*
X13045825Y-17517484D02*
X13026777Y-17507960D01*
X13026777Y-17507960D02*
X13017253Y-17488912D01*
X13017253Y-17488912D02*
X13017253Y-17412722D01*
X13017253Y-17412722D02*
X13026777Y-17393674D01*
X13026777Y-17393674D02*
X13045825Y-17384150D01*
X13045825Y-17384150D02*
X13083920Y-17384150D01*
X13083920Y-17384150D02*
X13102968Y-17393674D01*
X13102968Y-17393674D02*
X13112491Y-17412722D01*
X13112491Y-17412722D02*
X13112491Y-17431770D01*
X13112491Y-17431770D02*
X13017253Y-17450817D01*
X13188682Y-17507960D02*
X13207730Y-17517484D01*
X13207730Y-17517484D02*
X13245825Y-17517484D01*
X13245825Y-17517484D02*
X13264872Y-17507960D01*
X13264872Y-17507960D02*
X13274396Y-17488912D01*
X13274396Y-17488912D02*
X13274396Y-17479389D01*
X13274396Y-17479389D02*
X13264872Y-17460341D01*
X13264872Y-17460341D02*
X13245825Y-17450817D01*
X13245825Y-17450817D02*
X13217253Y-17450817D01*
X13217253Y-17450817D02*
X13198206Y-17441293D01*
X13198206Y-17441293D02*
X13188682Y-17422246D01*
X13188682Y-17422246D02*
X13188682Y-17412722D01*
X13188682Y-17412722D02*
X13198206Y-17393674D01*
X13198206Y-17393674D02*
X13217253Y-17384150D01*
X13217253Y-17384150D02*
X13245825Y-17384150D01*
X13245825Y-17384150D02*
X13264872Y-17393674D01*
X13341063Y-17593674D02*
X13350587Y-17584150D01*
X13350587Y-17584150D02*
X13369634Y-17555579D01*
X13369634Y-17555579D02*
X13379158Y-17536531D01*
X13379158Y-17536531D02*
X13388682Y-17507960D01*
X13388682Y-17507960D02*
X13398206Y-17460341D01*
X13398206Y-17460341D02*
X13398206Y-17422246D01*
X13398206Y-17422246D02*
X13388682Y-17374627D01*
X13388682Y-17374627D02*
X13379158Y-17346055D01*
X13379158Y-17346055D02*
X13369634Y-17327008D01*
X13369634Y-17327008D02*
X13350587Y-17298436D01*
X13350587Y-17298436D02*
X13341063Y-17288912D01*
M02*
