M48
; DRILL file {KiCad 8.0.1} date 2024-04-13T19:33:14-0700
; FORMAT={-:-/ absolute / metric / decimal}
; #@! TF.CreationDate,2024-04-13T19:33:14-07:00
; #@! TF.GenerationSoftware,Kicad,Pcbnew,8.0.1
; #@! TF.FileFunction,Plated,1,2,PTH
FMAT,2
METRIC
; #@! TA.AperFunction,Plated,PTH,ViaDrill
T1C0.400
; #@! TA.AperFunction,Plated,PTH,ComponentDrill
T2C0.800
; #@! TA.AperFunction,Plated,PTH,ComponentDrill
T3C1.000
; #@! TA.AperFunction,Plated,PTH,ComponentDrill
T4C1.300
; #@! TA.AperFunction,Plated,PTH,ComponentDrill
T5C2.200
%
G90
G05
T1
X93.65Y-130.935
X94.604Y-107.665
X99.917Y-152.64
X100.213Y-117.163
X102.02Y-131.542
X102.884Y-146.551
X106.02Y-131.538
X108.519Y-133.035
X111.604Y-118.072
X120.342Y-131.812
X121.56Y-146.561
X122.895Y-132.705
X124.141Y-132.56
X127.634Y-132.564
X133.927Y-152.05
X139.097Y-131.817
X143.098Y-131.818
X143.292Y-104.741
X143.62Y-146.567
X144.162Y-113.726
X146.415Y-132.09
X149.999Y-105.73
X150.658Y-119.694
X154.108Y-113.355
X157.225Y-108.258
X158.348Y-133.182
X158.598Y-120.296
X162.051Y-113.726
X162.314Y-132.692
X162.629Y-147.142
X166.09Y-132.09
X167.94Y-152.21
X176.85Y-113.821
X177.786Y-135.848
T2
X116.59Y-90.09
X116.59Y-92.63
X116.59Y-95.17
X116.59Y-97.71
X116.59Y-100.25
X116.59Y-102.79
X116.59Y-105.33
X116.59Y-107.87
X116.59Y-110.41
X119.13Y-110.41
X121.67Y-110.41
X124.21Y-110.41
X126.75Y-110.41
X129.29Y-110.41
X131.83Y-90.09
X131.83Y-92.63
X131.83Y-95.17
X131.83Y-97.71
X131.83Y-100.25
X131.83Y-102.79
X131.83Y-105.33
X131.83Y-107.87
X131.83Y-110.41
T3
X135.71Y-93.19
X135.71Y-95.73
X135.71Y-98.27
X135.71Y-100.81
T4
X97.75Y-111.25
X100.25Y-93.85
X102.75Y-111.25
X105.25Y-93.75
X107.75Y-111.25
T5
X94.35Y-100.75
X111.15Y-100.75
M30
