G04 #@! TF.GenerationSoftware,KiCad,Pcbnew,8.0.1*
G04 #@! TF.CreationDate,2024-04-13T19:32:52-07:00*
G04 #@! TF.ProjectId,strellpad,73747265-6c6c-4706-9164-2e6b69636164,rev?*
G04 #@! TF.SameCoordinates,Original*
G04 #@! TF.FileFunction,Copper,L1,Top*
G04 #@! TF.FilePolarity,Positive*
%FSLAX46Y46*%
G04 Gerber Fmt 4.6, Leading zero omitted, Abs format (unit mm)*
G04 Created by KiCad (PCBNEW 8.0.1) date 2024-04-13 19:32:52*
%MOMM*%
%LPD*%
G01*
G04 APERTURE LIST*
G04 Aperture macros list*
%AMRoundRect*
0 Rectangle with rounded corners*
0 $1 Rounding radius*
0 $2 $3 $4 $5 $6 $7 $8 $9 X,Y pos of 4 corners*
0 Add a 4 corners polygon primitive as box body*
4,1,4,$2,$3,$4,$5,$6,$7,$8,$9,$2,$3,0*
0 Add four circle primitives for the rounded corners*
1,1,$1+$1,$2,$3*
1,1,$1+$1,$4,$5*
1,1,$1+$1,$6,$7*
1,1,$1+$1,$8,$9*
0 Add four rect primitives between the rounded corners*
20,1,$1+$1,$2,$3,$4,$5,0*
20,1,$1+$1,$4,$5,$6,$7,0*
20,1,$1+$1,$6,$7,$8,$9,0*
20,1,$1+$1,$8,$9,$2,$3,0*%
G04 Aperture macros list end*
G04 #@! TA.AperFunction,SMDPad,CuDef*
%ADD10RoundRect,0.140000X0.140000X0.170000X-0.140000X0.170000X-0.140000X-0.170000X0.140000X-0.170000X0*%
G04 #@! TD*
G04 #@! TA.AperFunction,SMDPad,CuDef*
%ADD11R,1.500000X0.900000*%
G04 #@! TD*
G04 #@! TA.AperFunction,SMDPad,CuDef*
%ADD12R,0.900000X1.500000*%
G04 #@! TD*
G04 #@! TA.AperFunction,ComponentPad*
%ADD13R,3.216000X3.216000*%
G04 #@! TD*
G04 #@! TA.AperFunction,ComponentPad*
%ADD14C,1.950000*%
G04 #@! TD*
G04 #@! TA.AperFunction,SMDPad,CuDef*
%ADD15RoundRect,0.140000X-0.140000X-0.170000X0.140000X-0.170000X0.140000X0.170000X-0.140000X0.170000X0*%
G04 #@! TD*
G04 #@! TA.AperFunction,SMDPad,CuDef*
%ADD16RoundRect,0.135000X-0.135000X-0.185000X0.135000X-0.185000X0.135000X0.185000X-0.135000X0.185000X0*%
G04 #@! TD*
G04 #@! TA.AperFunction,SMDPad,CuDef*
%ADD17R,1.550000X1.300000*%
G04 #@! TD*
G04 #@! TA.AperFunction,SMDPad,CuDef*
%ADD18RoundRect,0.225000X-0.225000X-0.250000X0.225000X-0.250000X0.225000X0.250000X-0.225000X0.250000X0*%
G04 #@! TD*
G04 #@! TA.AperFunction,ComponentPad*
%ADD19C,1.600000*%
G04 #@! TD*
G04 #@! TA.AperFunction,ComponentPad*
%ADD20R,1.600000X1.600000*%
G04 #@! TD*
G04 #@! TA.AperFunction,ComponentPad*
%ADD21RoundRect,0.300000X0.000000X-0.707107X0.707107X0.000000X0.000000X0.707107X-0.707107X0.000000X0*%
G04 #@! TD*
G04 #@! TA.AperFunction,ComponentPad*
%ADD22R,1.700000X1.700000*%
G04 #@! TD*
G04 #@! TA.AperFunction,ComponentPad*
%ADD23O,1.700000X1.700000*%
G04 #@! TD*
G04 #@! TA.AperFunction,ViaPad*
%ADD24C,0.800000*%
G04 #@! TD*
G04 #@! TA.AperFunction,Conductor*
%ADD25C,0.250000*%
G04 #@! TD*
G04 APERTURE END LIST*
D10*
X140740000Y-132500000D03*
X139780000Y-132500000D03*
D11*
X171450000Y-155650000D03*
X171450000Y-152350000D03*
X166550000Y-152350000D03*
X166550000Y-155650000D03*
D12*
X90195000Y-112450000D03*
X93495000Y-112450000D03*
X93495000Y-107550000D03*
X90195000Y-107550000D03*
D13*
X94350000Y-100750000D03*
X111150000Y-100750000D03*
D14*
X97750000Y-111250000D03*
X102750000Y-111250000D03*
X107750000Y-111250000D03*
X100250000Y-93850000D03*
X105250000Y-93750000D03*
D11*
X147160000Y-150150000D03*
X147160000Y-146850000D03*
X142260000Y-146850000D03*
X142260000Y-150150000D03*
D15*
X106020000Y-132500000D03*
X106980000Y-132500000D03*
D11*
X103450000Y-155650000D03*
X103450000Y-152350000D03*
X98550000Y-152350000D03*
X98550000Y-155650000D03*
D15*
X163240000Y-132500000D03*
X164200000Y-132500000D03*
D10*
X102980000Y-132500000D03*
X102020000Y-132500000D03*
D12*
X180150000Y-107550000D03*
X176850000Y-107550000D03*
X176850000Y-112450000D03*
X180150000Y-112450000D03*
D15*
X125030000Y-132500000D03*
X125990000Y-132500000D03*
D12*
X180360000Y-132300000D03*
X177060000Y-132300000D03*
X177060000Y-137200000D03*
X180360000Y-137200000D03*
D16*
X109980000Y-132500000D03*
X111000000Y-132500000D03*
X128970000Y-132500000D03*
X129990000Y-132500000D03*
D17*
X155500000Y-113500000D03*
X163450000Y-113500000D03*
X155500000Y-118000000D03*
X163450000Y-118000000D03*
D11*
X109160000Y-150150000D03*
X109160000Y-146850000D03*
X104260000Y-146850000D03*
X104260000Y-150150000D03*
D17*
X149250000Y-120000000D03*
X157200000Y-120000000D03*
X149250000Y-124500000D03*
X157200000Y-124500000D03*
D18*
X109000000Y-118000000D03*
X110550000Y-118000000D03*
D11*
X166160000Y-150150000D03*
X166160000Y-146850000D03*
X161260000Y-146850000D03*
X161260000Y-150150000D03*
D10*
X159990000Y-132500000D03*
X159030000Y-132500000D03*
D15*
X143780000Y-132500000D03*
X144740000Y-132500000D03*
D19*
X131830000Y-90090000D03*
X131830000Y-92630000D03*
X131830000Y-95170000D03*
X131830000Y-97710000D03*
X131830000Y-100250000D03*
X131830000Y-102790000D03*
X131830000Y-105330000D03*
X131830000Y-107870000D03*
X131830000Y-110410000D03*
X129290000Y-110410000D03*
X126750000Y-110410000D03*
X124210000Y-110410000D03*
X121670000Y-110410000D03*
X119130000Y-110410000D03*
X116590000Y-110410000D03*
X116590000Y-107870000D03*
X116590000Y-105330000D03*
X116590000Y-102790000D03*
X116590000Y-100250000D03*
X116590000Y-97710000D03*
D20*
X116590000Y-92630000D03*
D21*
X116590000Y-95170000D03*
X116590000Y-90090000D03*
D10*
X121990000Y-132500000D03*
X121030000Y-132500000D03*
D11*
X127825000Y-150150000D03*
X127825000Y-146850000D03*
X122925000Y-146850000D03*
X122925000Y-150150000D03*
D22*
X135710000Y-100810000D03*
D23*
X135710000Y-98270000D03*
X135710000Y-95730000D03*
X135710000Y-93190000D03*
D11*
X137450000Y-155650000D03*
X137450000Y-152350000D03*
X132550000Y-152350000D03*
X132550000Y-155650000D03*
D16*
X147970000Y-132500000D03*
X148990000Y-132500000D03*
X167480000Y-132500000D03*
X168500000Y-132500000D03*
D17*
X149275000Y-107000000D03*
X157225000Y-107000000D03*
X149275000Y-111500000D03*
X157225000Y-111500000D03*
D18*
X101050000Y-118000000D03*
X102600000Y-118000000D03*
D12*
X90350000Y-137200000D03*
X93650000Y-137200000D03*
X93650000Y-132300000D03*
X90350000Y-132300000D03*
D17*
X142775000Y-113500000D03*
X150725000Y-113500000D03*
X142775000Y-118000000D03*
X150725000Y-118000000D03*
D24*
X143291600Y-104740700D03*
X122894700Y-132705000D03*
X166089800Y-132089700D03*
X146414800Y-132089700D03*
X127634000Y-132564500D03*
X108518900Y-133034900D03*
X100213000Y-117163000D03*
X150658000Y-119693700D03*
X154108400Y-113355000D03*
X177785700Y-135847700D03*
X124140600Y-132559600D03*
X139097100Y-131817100D03*
X94603800Y-107665500D03*
X102884100Y-146550800D03*
X111604300Y-118072200D03*
X120342000Y-131812000D03*
X121559600Y-146561300D03*
X143620000Y-146566700D03*
X144162000Y-113725900D03*
X149998600Y-105730000D03*
X157225000Y-108258100D03*
X158348000Y-133182000D03*
X162628900Y-147142200D03*
X167940500Y-152210400D03*
X93650000Y-130934800D03*
X106020000Y-131538100D03*
X158598100Y-120296400D03*
X162313600Y-132692400D03*
X176850000Y-113821000D03*
X133927100Y-152049600D03*
X143097700Y-131817700D03*
X102020000Y-131541800D03*
X162051400Y-113725900D03*
X99917100Y-152640400D03*
D25*
X177060000Y-116616700D02*
X180150000Y-113526700D01*
X177060000Y-132300000D02*
X177060000Y-116616700D01*
X180150000Y-112450000D02*
X180150000Y-113526700D01*
X180360000Y-144516700D02*
X172526700Y-152350000D01*
X180360000Y-137200000D02*
X180360000Y-144516700D01*
X171450000Y-152350000D02*
X172526700Y-152350000D01*
X166160000Y-146850000D02*
X165083300Y-146850000D01*
X142260000Y-150150000D02*
X143336700Y-150150000D01*
X165083300Y-148667100D02*
X165083300Y-146850000D01*
X162372000Y-151378400D02*
X165083300Y-148667100D01*
X144565100Y-151378400D02*
X162372000Y-151378400D01*
X143336700Y-150150000D02*
X144565100Y-151378400D01*
X145306600Y-147626700D02*
X146083300Y-146850000D01*
X126525000Y-147626700D02*
X145306600Y-147626700D01*
X124001700Y-150150000D02*
X126525000Y-147626700D01*
X122925000Y-150150000D02*
X124001700Y-150150000D01*
X147160000Y-146850000D02*
X146083300Y-146850000D01*
X162173300Y-152350000D02*
X165473300Y-155650000D01*
X137450000Y-152350000D02*
X162173300Y-152350000D01*
X166550000Y-155650000D02*
X165473300Y-155650000D01*
X106113400Y-149373300D02*
X105336700Y-150150000D01*
X123356200Y-149373300D02*
X106113400Y-149373300D01*
X125879500Y-146850000D02*
X123356200Y-149373300D01*
X127825000Y-146850000D02*
X125879500Y-146850000D01*
X104260000Y-150150000D02*
X105336700Y-150150000D01*
X107826700Y-155650000D02*
X104526700Y-152350000D01*
X132550000Y-155650000D02*
X107826700Y-155650000D01*
X103450000Y-152350000D02*
X104526700Y-152350000D01*
X93650000Y-137200000D02*
X93650000Y-138276700D01*
X98550000Y-155650000D02*
X97473300Y-155650000D01*
X97473300Y-142100000D02*
X97473300Y-155650000D01*
X93650000Y-138276700D02*
X97473300Y-142100000D01*
X114806700Y-108626700D02*
X90195000Y-108626700D01*
X116590000Y-110410000D02*
X114806700Y-108626700D01*
X90195000Y-107550000D02*
X90195000Y-108626700D01*
X90350000Y-116671700D02*
X93495000Y-113526700D01*
X90350000Y-132300000D02*
X90350000Y-116671700D01*
X93495000Y-112450000D02*
X93495000Y-113526700D01*
X149250000Y-124500000D02*
X149250000Y-123523300D01*
X155418700Y-124500000D02*
X151846000Y-120927300D01*
X157200000Y-124500000D02*
X155418700Y-124500000D01*
X151846000Y-117221200D02*
X151846000Y-120927300D01*
X137414800Y-102790000D02*
X151846000Y-117221200D01*
X131830000Y-102790000D02*
X137414800Y-102790000D01*
X151846000Y-120927300D02*
X149250000Y-123523300D01*
X133660100Y-99540100D02*
X131830000Y-97710000D01*
X147169700Y-99540100D02*
X133660100Y-99540100D01*
X158398400Y-110768800D02*
X147169700Y-99540100D01*
X158398400Y-118000000D02*
X158398400Y-110768800D01*
X163450000Y-118000000D02*
X158398400Y-118000000D01*
X158398400Y-118000000D02*
X155500000Y-118000000D01*
X139250200Y-113498500D02*
X142775000Y-117023300D01*
X139250200Y-111093700D02*
X139250200Y-113498500D01*
X132216500Y-104060000D02*
X139250200Y-111093700D01*
X131493900Y-104060000D02*
X132216500Y-104060000D01*
X130679700Y-103245800D02*
X131493900Y-104060000D01*
X130679700Y-101400300D02*
X130679700Y-103245800D01*
X131830000Y-100250000D02*
X130679700Y-101400300D01*
X142775000Y-118000000D02*
X142775000Y-117511600D01*
X142775000Y-117511600D02*
X142775000Y-117023300D01*
X149134900Y-117511600D02*
X149623300Y-118000000D01*
X142775000Y-117511600D02*
X149134900Y-117511600D01*
X150725000Y-118000000D02*
X149623300Y-118000000D01*
X149074200Y-110523300D02*
X149275000Y-110523300D01*
X143291600Y-104740700D02*
X149074200Y-110523300D01*
X149275000Y-111500000D02*
X149275000Y-111011600D01*
X149275000Y-111011600D02*
X149275000Y-110523300D01*
X155634900Y-111011600D02*
X156123300Y-111500000D01*
X149275000Y-111011600D02*
X155634900Y-111011600D01*
X157225000Y-111500000D02*
X156123300Y-111500000D01*
X161260000Y-150150000D02*
X160183300Y-150150000D01*
X135296100Y-108796100D02*
X131830000Y-105330000D01*
X135296100Y-112463300D02*
X135296100Y-108796100D01*
X152061600Y-129228800D02*
X135296100Y-112463300D01*
X166270700Y-129228800D02*
X152061600Y-129228800D01*
X169112200Y-132070300D02*
X166270700Y-129228800D01*
X169112200Y-137335700D02*
X169112200Y-132070300D01*
X160183300Y-146264600D02*
X169112200Y-137335700D01*
X160183300Y-150150000D02*
X160183300Y-146264600D01*
X141806100Y-133677800D02*
X140740000Y-132611700D01*
X150293900Y-133677800D02*
X141806100Y-133677800D01*
X152122300Y-131849400D02*
X150293900Y-133677800D01*
X159480600Y-131849400D02*
X152122300Y-131849400D01*
X159990000Y-132358800D02*
X159480600Y-131849400D01*
X159990000Y-132500000D02*
X159990000Y-132358800D01*
X140054200Y-133297500D02*
X140740000Y-132611700D01*
X123487200Y-133297500D02*
X140054200Y-133297500D01*
X122894700Y-132705000D02*
X123487200Y-133297500D01*
X140740000Y-132611700D02*
X140740000Y-132500000D01*
X120818300Y-133774200D02*
X122041300Y-132551200D01*
X104254200Y-133774200D02*
X120818300Y-133774200D01*
X102980000Y-132500000D02*
X104254200Y-133774200D01*
X121990000Y-132500000D02*
X122041300Y-132551200D01*
X122195000Y-132705000D02*
X122894700Y-132705000D01*
X122041300Y-132551200D02*
X122195000Y-132705000D01*
X105250000Y-98538800D02*
X105250000Y-93750000D01*
X114581200Y-107870000D02*
X105250000Y-98538800D01*
X116590000Y-107870000D02*
X114581200Y-107870000D01*
X109000400Y-117999600D02*
X109000000Y-118000000D01*
X109000400Y-117500400D02*
X109000400Y-117999600D01*
X109000400Y-117500400D02*
X102750000Y-111250000D01*
X116215900Y-113324100D02*
X119130000Y-110410000D01*
X113176700Y-113324100D02*
X116215900Y-113324100D01*
X109000400Y-117500400D02*
X113176700Y-113324100D01*
X102600000Y-116100000D02*
X102600000Y-118000000D01*
X97750000Y-111250000D02*
X102600000Y-116100000D01*
X180926700Y-130656600D02*
X180360000Y-131223300D01*
X180926700Y-109403400D02*
X180926700Y-130656600D01*
X180150000Y-108626700D02*
X180926700Y-109403400D01*
X180150000Y-107550000D02*
X180150000Y-108626700D01*
X90350000Y-137200000D02*
X90350000Y-136123300D01*
X90195000Y-112450000D02*
X90195000Y-113526700D01*
X127825000Y-150150000D02*
X128901700Y-150150000D01*
X147160000Y-150150000D02*
X146083300Y-150150000D01*
X135710000Y-98270000D02*
X134533300Y-98270000D01*
X128901700Y-150150000D02*
X136373300Y-150150000D01*
X136373300Y-155650000D02*
X136373300Y-150150000D01*
X180360000Y-132300000D02*
X180360000Y-131761600D01*
X180360000Y-131761600D02*
X180360000Y-131223300D01*
X171450000Y-155650000D02*
X170373300Y-155650000D01*
X137150000Y-149373300D02*
X136373300Y-150150000D01*
X145306600Y-149373300D02*
X137150000Y-149373300D01*
X146083300Y-150150000D02*
X145306600Y-149373300D01*
X137450000Y-155650000D02*
X136373300Y-155650000D01*
X149013400Y-150926700D02*
X148236700Y-150150000D01*
X162184900Y-150926700D02*
X149013400Y-150926700D01*
X163591600Y-149520000D02*
X162184900Y-150926700D01*
X163591600Y-147680900D02*
X163591600Y-149520000D01*
X165199700Y-146072800D02*
X163591600Y-147680900D01*
X167236700Y-146072800D02*
X165199700Y-146072800D01*
X167236700Y-144884900D02*
X167236700Y-146072800D01*
X180360000Y-131761600D02*
X167236700Y-144884900D01*
X147160000Y-150150000D02*
X148236700Y-150150000D01*
X167236700Y-146072800D02*
X167236700Y-150150000D01*
X166160000Y-150150000D02*
X167236700Y-150150000D01*
X170373300Y-153286600D02*
X170373300Y-155650000D01*
X167236700Y-150150000D02*
X170373300Y-153286600D01*
X90195000Y-112450000D02*
X90195000Y-111373300D01*
X116590000Y-90910000D02*
X116590000Y-90090000D01*
X117410000Y-90910000D02*
X116590000Y-90910000D01*
X122940000Y-96440000D02*
X117410000Y-90910000D01*
X132703300Y-96440000D02*
X122940000Y-96440000D01*
X134533300Y-98270000D02*
X132703300Y-96440000D01*
X89418300Y-110596600D02*
X90195000Y-111373300D01*
X89418300Y-106659600D02*
X89418300Y-110596600D01*
X90598300Y-105479600D02*
X89418300Y-106659600D01*
X93356900Y-105479600D02*
X90598300Y-105479600D01*
X98340300Y-100496200D02*
X93356900Y-105479600D01*
X98340300Y-98795200D02*
X98340300Y-100496200D01*
X106225500Y-90910000D02*
X98340300Y-98795200D01*
X116590000Y-90910000D02*
X106225500Y-90910000D01*
X89573300Y-135346600D02*
X90350000Y-136123300D01*
X89573300Y-114148400D02*
X89573300Y-135346600D01*
X90195000Y-113526700D02*
X89573300Y-114148400D01*
X103450000Y-155650000D02*
X102373300Y-155650000D01*
X125971600Y-150926700D02*
X126748300Y-150150000D01*
X111013400Y-150926700D02*
X125971600Y-150926700D01*
X110236700Y-150150000D02*
X111013400Y-150926700D01*
X109160000Y-150150000D02*
X110236700Y-150150000D01*
X127825000Y-150150000D02*
X126748300Y-150150000D01*
X102373300Y-151738400D02*
X102779200Y-151332500D01*
X102373300Y-155650000D02*
X102373300Y-151738400D01*
X94248100Y-136123300D02*
X90350000Y-136123300D01*
X97933000Y-139808200D02*
X94248100Y-136123300D01*
X97933000Y-146486300D02*
X97933000Y-139808200D01*
X102779200Y-151332500D02*
X97933000Y-146486300D01*
X106900800Y-151332500D02*
X108083300Y-150150000D01*
X102779200Y-151332500D02*
X106900800Y-151332500D01*
X109160000Y-150150000D02*
X108083300Y-150150000D01*
X167069700Y-132089700D02*
X167480000Y-132500000D01*
X166089800Y-132089700D02*
X167069700Y-132089700D01*
X147559700Y-132089700D02*
X147970000Y-132500000D01*
X146414800Y-132089700D02*
X147559700Y-132089700D01*
X128905500Y-132564500D02*
X128970000Y-132500000D01*
X127634000Y-132564500D02*
X128905500Y-132564500D01*
X109053800Y-132500000D02*
X108518900Y-133034900D01*
X109980000Y-132500000D02*
X109053800Y-132500000D01*
X164200000Y-132420200D02*
X164200000Y-132500000D01*
X163005200Y-131225400D02*
X164200000Y-132420200D01*
X151028200Y-131225400D02*
X163005200Y-131225400D01*
X130560000Y-110757200D02*
X151028200Y-131225400D01*
X130560000Y-110066700D02*
X130560000Y-110757200D01*
X118203300Y-97710000D02*
X130560000Y-110066700D01*
X116590000Y-97710000D02*
X118203300Y-97710000D01*
X164850200Y-133150200D02*
X164200000Y-132500000D01*
X167849800Y-133150200D02*
X164850200Y-133150200D01*
X168500000Y-132500000D02*
X167849800Y-133150200D01*
X144740000Y-132130200D02*
X144740000Y-132500000D01*
X125480000Y-112870200D02*
X144740000Y-132130200D01*
X125480000Y-109140000D02*
X125480000Y-112870200D01*
X116590000Y-100250000D02*
X125480000Y-109140000D01*
X148303400Y-133186600D02*
X148990000Y-132500000D01*
X145426600Y-133186600D02*
X148303400Y-133186600D01*
X144740000Y-132500000D02*
X145426600Y-133186600D01*
X120400000Y-125794000D02*
X126440400Y-131834400D01*
X120400000Y-106600000D02*
X120400000Y-125794000D01*
X116590000Y-102790000D02*
X120400000Y-106600000D01*
X129324400Y-131834400D02*
X126440400Y-131834400D01*
X129990000Y-132500000D02*
X129324400Y-131834400D01*
X125990000Y-132284800D02*
X125990000Y-132500000D01*
X126440400Y-131834400D02*
X125990000Y-132284800D01*
X117780600Y-106520600D02*
X116590000Y-105330000D01*
X117780600Y-110888700D02*
X117780600Y-106520600D01*
X117043100Y-111626200D02*
X117780600Y-110888700D01*
X115568100Y-111626200D02*
X117043100Y-111626200D01*
X113855100Y-109913200D02*
X115568100Y-111626200D01*
X102159800Y-109913200D02*
X113855100Y-109913200D01*
X101440900Y-110632100D02*
X102159800Y-109913200D01*
X101440900Y-112090800D02*
X101440900Y-110632100D01*
X107652300Y-118302200D02*
X101440900Y-112090800D01*
X107652300Y-131827700D02*
X107652300Y-118302200D01*
X110327700Y-131827700D02*
X107652300Y-131827700D01*
X111000000Y-132500000D02*
X110327700Y-131827700D01*
X107652300Y-131827700D02*
X106980000Y-132500000D01*
X100213000Y-117163000D02*
X101050000Y-118000000D01*
X149250000Y-120000000D02*
X150351700Y-120000000D01*
X150658000Y-119693700D02*
X150351700Y-120000000D01*
X155500000Y-113500000D02*
X154398300Y-113500000D01*
X177060000Y-137200000D02*
X177060000Y-136123300D01*
X177510100Y-136123300D02*
X177060000Y-136123300D01*
X177785700Y-135847700D02*
X177510100Y-136123300D01*
X124970400Y-132559600D02*
X125030000Y-132500000D01*
X124140600Y-132559600D02*
X124970400Y-132559600D01*
X139097100Y-131817100D02*
X139780000Y-132500000D01*
X93610500Y-107665500D02*
X93495000Y-107550000D01*
X94603800Y-107665500D02*
X93610500Y-107665500D01*
X104260000Y-146850000D02*
X103183300Y-146850000D01*
X103183300Y-146850000D02*
X102884100Y-146550800D01*
X110622200Y-118072200D02*
X110550000Y-118000000D01*
X111604300Y-118072200D02*
X110622200Y-118072200D01*
X121030000Y-132500000D02*
X120342000Y-131812000D01*
X122925000Y-146850000D02*
X121848300Y-146850000D01*
X121848300Y-146850000D02*
X121559600Y-146561300D01*
X142260000Y-146850000D02*
X143336700Y-146850000D01*
X143336700Y-146850000D02*
X143620000Y-146566700D01*
X142775000Y-113500000D02*
X143876700Y-113500000D01*
X144102600Y-113725900D02*
X143876700Y-113500000D01*
X144162000Y-113725900D02*
X144102600Y-113725900D01*
X149275000Y-107000000D02*
X149275000Y-106023300D01*
X149705300Y-106023300D02*
X149275000Y-106023300D01*
X149998600Y-105730000D02*
X149705300Y-106023300D01*
X150725000Y-113500000D02*
X151826700Y-113500000D01*
X154253300Y-113355000D02*
X154108400Y-113355000D01*
X154398300Y-113500000D02*
X154253300Y-113355000D01*
X151971700Y-113355000D02*
X151826700Y-113500000D01*
X154108400Y-113355000D02*
X151971700Y-113355000D01*
X157225000Y-108258100D02*
X157225000Y-107000000D01*
X159030000Y-132500000D02*
X158348000Y-133182000D01*
X161260000Y-146850000D02*
X162336700Y-146850000D01*
X162628900Y-147142200D02*
X162336700Y-146850000D01*
X167766300Y-152210400D02*
X167626700Y-152350000D01*
X167940500Y-152210400D02*
X167766300Y-152210400D01*
X166550000Y-152350000D02*
X167626700Y-152350000D01*
X93650000Y-132300000D02*
X93650000Y-130934800D01*
X106020000Y-131538100D02*
X106020000Y-132500000D01*
X157200000Y-120000000D02*
X158301700Y-120000000D01*
X158598100Y-120296400D02*
X158301700Y-120000000D01*
X163047600Y-132692400D02*
X163240000Y-132500000D01*
X162313600Y-132692400D02*
X163047600Y-132692400D01*
X176850000Y-112450000D02*
X176850000Y-113821000D01*
X132550000Y-152350000D02*
X133626700Y-152350000D01*
X133927100Y-152049600D02*
X133626700Y-152350000D01*
X143780000Y-132500000D02*
X143097700Y-131817700D01*
X102020000Y-131541800D02*
X102020000Y-132500000D01*
X163450000Y-113500000D02*
X162348300Y-113500000D01*
X162122400Y-113725900D02*
X162348300Y-113500000D01*
X162051400Y-113725900D02*
X162122400Y-113725900D01*
X98550000Y-152350000D02*
X99626700Y-152350000D01*
X99917100Y-152640400D02*
X99626700Y-152350000D01*
M02*
