G04 #@! TF.GenerationSoftware,KiCad,Pcbnew,8.0.1*
G04 #@! TF.CreationDate,2024-04-13T19:32:52-07:00*
G04 #@! TF.ProjectId,strellpad,73747265-6c6c-4706-9164-2e6b69636164,rev?*
G04 #@! TF.SameCoordinates,Original*
G04 #@! TF.FileFunction,Copper,L2,Bot*
G04 #@! TF.FilePolarity,Positive*
%FSLAX46Y46*%
G04 Gerber Fmt 4.6, Leading zero omitted, Abs format (unit mm)*
G04 Created by KiCad (PCBNEW 8.0.1) date 2024-04-13 19:32:52*
%MOMM*%
%LPD*%
G01*
G04 APERTURE LIST*
G04 Aperture macros list*
%AMRoundRect*
0 Rectangle with rounded corners*
0 $1 Rounding radius*
0 $2 $3 $4 $5 $6 $7 $8 $9 X,Y pos of 4 corners*
0 Add a 4 corners polygon primitive as box body*
4,1,4,$2,$3,$4,$5,$6,$7,$8,$9,$2,$3,0*
0 Add four circle primitives for the rounded corners*
1,1,$1+$1,$2,$3*
1,1,$1+$1,$4,$5*
1,1,$1+$1,$6,$7*
1,1,$1+$1,$8,$9*
0 Add four rect primitives between the rounded corners*
20,1,$1+$1,$2,$3,$4,$5,0*
20,1,$1+$1,$4,$5,$6,$7,0*
20,1,$1+$1,$6,$7,$8,$9,0*
20,1,$1+$1,$8,$9,$2,$3,0*%
G04 Aperture macros list end*
G04 #@! TA.AperFunction,ComponentPad*
%ADD10R,3.216000X3.216000*%
G04 #@! TD*
G04 #@! TA.AperFunction,ComponentPad*
%ADD11C,1.950000*%
G04 #@! TD*
G04 #@! TA.AperFunction,ComponentPad*
%ADD12C,1.600000*%
G04 #@! TD*
G04 #@! TA.AperFunction,ComponentPad*
%ADD13R,1.600000X1.600000*%
G04 #@! TD*
G04 #@! TA.AperFunction,ComponentPad*
%ADD14RoundRect,0.300000X0.000000X-0.707107X0.707107X0.000000X0.000000X0.707107X-0.707107X0.000000X0*%
G04 #@! TD*
G04 #@! TA.AperFunction,ComponentPad*
%ADD15R,1.700000X1.700000*%
G04 #@! TD*
G04 #@! TA.AperFunction,ComponentPad*
%ADD16O,1.700000X1.700000*%
G04 #@! TD*
G04 #@! TA.AperFunction,SMDPad,CuDef*
%ADD17RoundRect,0.150000X-0.587500X-0.150000X0.587500X-0.150000X0.587500X0.150000X-0.587500X0.150000X0*%
G04 #@! TD*
G04 #@! TA.AperFunction,ViaPad*
%ADD18C,0.800000*%
G04 #@! TD*
G04 #@! TA.AperFunction,Conductor*
%ADD19C,0.250000*%
G04 #@! TD*
G04 APERTURE END LIST*
D10*
X94350000Y-100750000D03*
X111150000Y-100750000D03*
D11*
X97750000Y-111250000D03*
X102750000Y-111250000D03*
X107750000Y-111250000D03*
X100250000Y-93850000D03*
X105250000Y-93750000D03*
D12*
X131830000Y-90090000D03*
X131830000Y-92630000D03*
X131830000Y-95170000D03*
X131830000Y-97710000D03*
X131830000Y-100250000D03*
X131830000Y-102790000D03*
X131830000Y-105330000D03*
X131830000Y-107870000D03*
X131830000Y-110410000D03*
X129290000Y-110410000D03*
X126750000Y-110410000D03*
X124210000Y-110410000D03*
X121670000Y-110410000D03*
X119130000Y-110410000D03*
X116590000Y-110410000D03*
X116590000Y-107870000D03*
X116590000Y-105330000D03*
X116590000Y-102790000D03*
X116590000Y-100250000D03*
X116590000Y-97710000D03*
D13*
X116590000Y-92630000D03*
D14*
X116590000Y-95170000D03*
X116590000Y-90090000D03*
D15*
X135710000Y-100810000D03*
D16*
X135710000Y-98270000D03*
X135710000Y-95730000D03*
X135710000Y-93190000D03*
D17*
X124772500Y-141950000D03*
X124772500Y-140050000D03*
X126647500Y-141000000D03*
X105772500Y-141950000D03*
X105772500Y-140050000D03*
X107647500Y-141000000D03*
X143772500Y-141950000D03*
X143772500Y-140050000D03*
X145647500Y-141000000D03*
X162772500Y-141950000D03*
X162772500Y-140050000D03*
X164647500Y-141000000D03*
D18*
X143291600Y-104740700D03*
X122894700Y-132705000D03*
X166089800Y-132089700D03*
X146414800Y-132089700D03*
X127634000Y-132564500D03*
X108518900Y-133034900D03*
X100213000Y-117163000D03*
X150658000Y-119693700D03*
X154108400Y-113355000D03*
X177785700Y-135847700D03*
X124140600Y-132559600D03*
X139097100Y-131817100D03*
X94603800Y-107665500D03*
X102884100Y-146550800D03*
X111604300Y-118072200D03*
X120342000Y-131812000D03*
X121559600Y-146561300D03*
X143620000Y-146566700D03*
X144162000Y-113725900D03*
X149998600Y-105730000D03*
X157225000Y-108258100D03*
X158348000Y-133182000D03*
X162628900Y-147142200D03*
X167940500Y-152210400D03*
X93650000Y-130934800D03*
X106020000Y-131538100D03*
X158598100Y-120296400D03*
X162313600Y-132692400D03*
X176850000Y-113821000D03*
X133927100Y-152049600D03*
X143097700Y-131817700D03*
X102020000Y-131541800D03*
X162051400Y-113725900D03*
X99917100Y-152640400D03*
D19*
X143291600Y-104156900D02*
X143291600Y-104740700D01*
X136134700Y-97000000D02*
X143291600Y-104156900D01*
X133660000Y-97000000D02*
X136134700Y-97000000D01*
X131830000Y-95170000D02*
X133660000Y-97000000D01*
X122894700Y-101474700D02*
X122894700Y-132705000D01*
X116590000Y-95170000D02*
X122894700Y-101474700D01*
X119427100Y-139475300D02*
X122894700Y-139475300D01*
X116439000Y-142463400D02*
X119427100Y-139475300D01*
X106285900Y-142463400D02*
X116439000Y-142463400D01*
X105772500Y-141950000D02*
X106285900Y-142463400D01*
X122894700Y-140072200D02*
X122894700Y-139475300D01*
X124772500Y-141950000D02*
X122894700Y-140072200D01*
X122894700Y-139475300D02*
X122894700Y-132705000D01*
X125275800Y-142453300D02*
X124772500Y-141950000D01*
X143269200Y-142453300D02*
X125275800Y-142453300D01*
X143772500Y-141950000D02*
X143269200Y-142453300D01*
X144322600Y-142500100D02*
X143772500Y-141950000D01*
X162222400Y-142500100D02*
X144322600Y-142500100D01*
X162772500Y-141950000D02*
X162222400Y-142500100D01*
X134533300Y-92793300D02*
X131830000Y-90090000D01*
X134533300Y-93190000D02*
X134533300Y-92793300D01*
X135710000Y-93190000D02*
X134533300Y-93190000D01*
X134533300Y-95333300D02*
X131830000Y-92630000D01*
X134533300Y-95730000D02*
X134533300Y-95333300D01*
X135710000Y-95730000D02*
X134533300Y-95730000D01*
X99780600Y-109219400D02*
X97750000Y-111250000D01*
X120479400Y-109219400D02*
X99780600Y-109219400D01*
X121670000Y-110410000D02*
X120479400Y-109219400D01*
X166089800Y-136732700D02*
X166089800Y-132089700D01*
X162772500Y-140050000D02*
X166089800Y-136732700D01*
X146414800Y-137407700D02*
X146414800Y-132089700D01*
X143772500Y-140050000D02*
X146414800Y-137407700D01*
X124772500Y-135426000D02*
X127634000Y-132564500D01*
X124772500Y-140050000D02*
X124772500Y-135426000D01*
X108518900Y-137303600D02*
X108518900Y-133034900D01*
X105772500Y-140050000D02*
X108518900Y-137303600D01*
G04 #@! TA.AperFunction,Conductor*
G36*
X184643039Y-87519685D02*
G01*
X184688794Y-87572489D01*
X184700000Y-87624000D01*
X184700000Y-157076000D01*
X184680315Y-157143039D01*
X184627511Y-157188794D01*
X184576000Y-157200000D01*
X85834000Y-157200000D01*
X85766961Y-157180315D01*
X85721206Y-157127511D01*
X85710000Y-157076000D01*
X85710000Y-151371288D01*
X89859500Y-151371288D01*
X89891161Y-151611785D01*
X89953947Y-151846104D01*
X90046773Y-152070205D01*
X90046776Y-152070212D01*
X90168064Y-152280289D01*
X90168066Y-152280292D01*
X90168067Y-152280293D01*
X90315733Y-152472736D01*
X90315739Y-152472743D01*
X90487256Y-152644260D01*
X90487262Y-152644265D01*
X90679711Y-152791936D01*
X90889788Y-152913224D01*
X91113900Y-153006054D01*
X91348211Y-153068838D01*
X91528586Y-153092584D01*
X91588711Y-153100500D01*
X91588712Y-153100500D01*
X91831289Y-153100500D01*
X91879388Y-153094167D01*
X92071789Y-153068838D01*
X92306100Y-153006054D01*
X92530212Y-152913224D01*
X92740289Y-152791936D01*
X92932738Y-152644265D01*
X93104265Y-152472738D01*
X93251936Y-152280289D01*
X93373224Y-152070212D01*
X93466054Y-151846100D01*
X93528838Y-151611789D01*
X93560500Y-151371288D01*
X176859500Y-151371288D01*
X176891161Y-151611785D01*
X176953947Y-151846104D01*
X177046773Y-152070205D01*
X177046776Y-152070212D01*
X177168064Y-152280289D01*
X177168066Y-152280292D01*
X177168067Y-152280293D01*
X177315733Y-152472736D01*
X177315739Y-152472743D01*
X177487256Y-152644260D01*
X177487262Y-152644265D01*
X177679711Y-152791936D01*
X177889788Y-152913224D01*
X178113900Y-153006054D01*
X178348211Y-153068838D01*
X178528586Y-153092584D01*
X178588711Y-153100500D01*
X178588712Y-153100500D01*
X178831289Y-153100500D01*
X178879388Y-153094167D01*
X179071789Y-153068838D01*
X179306100Y-153006054D01*
X179530212Y-152913224D01*
X179740289Y-152791936D01*
X179932738Y-152644265D01*
X180104265Y-152472738D01*
X180251936Y-152280289D01*
X180373224Y-152070212D01*
X180466054Y-151846100D01*
X180528838Y-151611789D01*
X180560500Y-151371288D01*
X180560500Y-151128712D01*
X180528838Y-150888211D01*
X180466054Y-150653900D01*
X180373224Y-150429788D01*
X180251936Y-150219711D01*
X180104265Y-150027262D01*
X180104260Y-150027256D01*
X179932743Y-149855739D01*
X179932736Y-149855733D01*
X179740293Y-149708067D01*
X179740292Y-149708066D01*
X179740289Y-149708064D01*
X179530212Y-149586776D01*
X179530205Y-149586773D01*
X179306104Y-149493947D01*
X179071785Y-149431161D01*
X178831289Y-149399500D01*
X178831288Y-149399500D01*
X178588712Y-149399500D01*
X178588711Y-149399500D01*
X178348214Y-149431161D01*
X178113895Y-149493947D01*
X177889794Y-149586773D01*
X177889785Y-149586777D01*
X177679706Y-149708067D01*
X177487263Y-149855733D01*
X177487256Y-149855739D01*
X177315739Y-150027256D01*
X177315733Y-150027263D01*
X177168067Y-150219706D01*
X177046777Y-150429785D01*
X177046773Y-150429794D01*
X176953947Y-150653895D01*
X176891161Y-150888214D01*
X176859500Y-151128711D01*
X176859500Y-151371288D01*
X93560500Y-151371288D01*
X93560500Y-151128712D01*
X93528838Y-150888211D01*
X93466054Y-150653900D01*
X93373224Y-150429788D01*
X93251936Y-150219711D01*
X93104265Y-150027262D01*
X93104260Y-150027256D01*
X92932743Y-149855739D01*
X92932736Y-149855733D01*
X92740293Y-149708067D01*
X92740292Y-149708066D01*
X92740289Y-149708064D01*
X92530212Y-149586776D01*
X92530205Y-149586773D01*
X92306104Y-149493947D01*
X92071785Y-149431161D01*
X91831289Y-149399500D01*
X91831288Y-149399500D01*
X91588712Y-149399500D01*
X91588711Y-149399500D01*
X91348214Y-149431161D01*
X91113895Y-149493947D01*
X90889794Y-149586773D01*
X90889785Y-149586777D01*
X90679706Y-149708067D01*
X90487263Y-149855733D01*
X90487256Y-149855739D01*
X90315739Y-150027256D01*
X90315733Y-150027263D01*
X90168067Y-150219706D01*
X90046777Y-150429785D01*
X90046773Y-150429794D01*
X89953947Y-150653895D01*
X89891161Y-150888214D01*
X89859500Y-151128711D01*
X89859500Y-151371288D01*
X85710000Y-151371288D01*
X85710000Y-141088578D01*
X100504500Y-141088578D01*
X100532214Y-141263556D01*
X100586956Y-141432039D01*
X100586957Y-141432042D01*
X100647856Y-141551561D01*
X100667386Y-141589890D01*
X100771517Y-141733214D01*
X100896786Y-141858483D01*
X101040110Y-141962614D01*
X101117529Y-142002061D01*
X101197957Y-142043042D01*
X101197960Y-142043043D01*
X101282201Y-142070414D01*
X101366445Y-142097786D01*
X101541421Y-142125500D01*
X101541422Y-142125500D01*
X101718578Y-142125500D01*
X101718579Y-142125500D01*
X101893555Y-142097786D01*
X102062042Y-142043042D01*
X102219890Y-141962614D01*
X102363214Y-141858483D01*
X102488483Y-141733214D01*
X102592614Y-141589890D01*
X102673042Y-141432042D01*
X102727786Y-141263555D01*
X102755500Y-141088579D01*
X102755500Y-140911421D01*
X102727786Y-140736445D01*
X102673042Y-140567958D01*
X102673042Y-140567957D01*
X102632061Y-140487529D01*
X102592614Y-140410110D01*
X102488483Y-140266786D01*
X102487398Y-140265701D01*
X104534500Y-140265701D01*
X104537401Y-140302567D01*
X104537402Y-140302573D01*
X104583254Y-140460393D01*
X104583255Y-140460396D01*
X104583256Y-140460398D01*
X104589488Y-140470936D01*
X104666917Y-140601862D01*
X104666923Y-140601870D01*
X104783129Y-140718076D01*
X104783133Y-140718079D01*
X104783135Y-140718081D01*
X104924602Y-140801744D01*
X104966224Y-140813836D01*
X105082426Y-140847597D01*
X105082429Y-140847597D01*
X105082431Y-140847598D01*
X105119306Y-140850500D01*
X105119314Y-140850500D01*
X106425686Y-140850500D01*
X106425694Y-140850500D01*
X106462569Y-140847598D01*
X106462571Y-140847597D01*
X106462573Y-140847597D01*
X106504191Y-140835505D01*
X106620398Y-140801744D01*
X106678694Y-140767268D01*
X106741815Y-140750000D01*
X107397500Y-140750000D01*
X107397500Y-140200000D01*
X107897500Y-140200000D01*
X107897500Y-140750000D01*
X108882295Y-140750000D01*
X108882295Y-140749998D01*
X108882100Y-140747513D01*
X108836281Y-140589801D01*
X108752685Y-140448447D01*
X108752678Y-140448438D01*
X108636561Y-140332321D01*
X108636552Y-140332314D01*
X108495196Y-140248717D01*
X108495193Y-140248716D01*
X108337495Y-140202900D01*
X108337489Y-140202899D01*
X108300649Y-140200000D01*
X107897500Y-140200000D01*
X107397500Y-140200000D01*
X107134500Y-140200000D01*
X107067461Y-140180315D01*
X107021706Y-140127511D01*
X107010500Y-140076000D01*
X107010500Y-139834313D01*
X107010499Y-139834298D01*
X107007598Y-139797434D01*
X107007598Y-139797431D01*
X107006008Y-139791958D01*
X107006208Y-139722090D01*
X107037402Y-139669686D01*
X108917629Y-137789460D01*
X108917633Y-137789458D01*
X109004758Y-137702333D01*
X109038984Y-137651109D01*
X109073212Y-137599886D01*
X109120363Y-137486051D01*
X109144400Y-137365207D01*
X109144400Y-137241993D01*
X109144400Y-133733587D01*
X109164085Y-133666548D01*
X109176250Y-133650615D01*
X109194791Y-133630022D01*
X109251433Y-133567116D01*
X109346079Y-133403184D01*
X109404574Y-133223156D01*
X109424360Y-133034900D01*
X109404574Y-132846644D01*
X109346079Y-132666616D01*
X109251433Y-132502684D01*
X109124771Y-132362012D01*
X109124770Y-132362011D01*
X108971634Y-132250751D01*
X108971629Y-132250748D01*
X108798707Y-132173757D01*
X108798702Y-132173755D01*
X108652901Y-132142765D01*
X108613546Y-132134400D01*
X108424254Y-132134400D01*
X108391797Y-132141298D01*
X108239097Y-132173755D01*
X108239092Y-132173757D01*
X108066170Y-132250748D01*
X108066165Y-132250751D01*
X107913029Y-132362011D01*
X107786366Y-132502685D01*
X107691721Y-132666615D01*
X107691718Y-132666622D01*
X107633227Y-132846640D01*
X107633226Y-132846644D01*
X107613440Y-133034900D01*
X107633226Y-133223156D01*
X107633227Y-133223159D01*
X107691718Y-133403177D01*
X107691721Y-133403184D01*
X107786367Y-133567116D01*
X107829672Y-133615210D01*
X107861550Y-133650615D01*
X107891780Y-133713606D01*
X107893400Y-133733587D01*
X107893400Y-136993148D01*
X107873715Y-137060187D01*
X107857081Y-137080829D01*
X105724729Y-139213181D01*
X105663406Y-139246666D01*
X105637048Y-139249500D01*
X105119298Y-139249500D01*
X105082432Y-139252401D01*
X105082426Y-139252402D01*
X104924606Y-139298254D01*
X104924603Y-139298255D01*
X104783137Y-139381917D01*
X104783129Y-139381923D01*
X104666923Y-139498129D01*
X104666917Y-139498137D01*
X104583255Y-139639603D01*
X104583254Y-139639606D01*
X104537402Y-139797426D01*
X104537401Y-139797432D01*
X104534500Y-139834298D01*
X104534500Y-140265701D01*
X102487398Y-140265701D01*
X102363214Y-140141517D01*
X102219890Y-140037386D01*
X102062042Y-139956957D01*
X102062039Y-139956956D01*
X101893556Y-139902214D01*
X101806067Y-139888357D01*
X101718579Y-139874500D01*
X101541421Y-139874500D01*
X101483095Y-139883738D01*
X101366443Y-139902214D01*
X101197960Y-139956956D01*
X101197957Y-139956957D01*
X101040109Y-140037386D01*
X100986962Y-140076000D01*
X100896786Y-140141517D01*
X100896784Y-140141519D01*
X100896783Y-140141519D01*
X100771519Y-140266783D01*
X100771519Y-140266784D01*
X100771517Y-140266786D01*
X100749068Y-140297685D01*
X100667386Y-140410109D01*
X100586957Y-140567957D01*
X100586956Y-140567960D01*
X100532214Y-140736443D01*
X100504500Y-140911421D01*
X100504500Y-141088578D01*
X85710000Y-141088578D01*
X85710000Y-111250005D01*
X96269443Y-111250005D01*
X96289634Y-111493683D01*
X96289636Y-111493695D01*
X96349663Y-111730734D01*
X96447888Y-111954666D01*
X96581632Y-112159378D01*
X96747242Y-112339277D01*
X96747252Y-112339286D01*
X96939670Y-112489051D01*
X96940212Y-112489473D01*
X97155267Y-112605855D01*
X97155270Y-112605856D01*
X97386541Y-112685251D01*
X97386543Y-112685251D01*
X97386545Y-112685252D01*
X97627737Y-112725500D01*
X97627738Y-112725500D01*
X97872262Y-112725500D01*
X97872263Y-112725500D01*
X98113455Y-112685252D01*
X98344733Y-112605855D01*
X98559788Y-112489473D01*
X98752754Y-112339281D01*
X98918368Y-112159377D01*
X99052111Y-111954667D01*
X99150336Y-111730736D01*
X99210364Y-111493692D01*
X99210371Y-111493605D01*
X99230557Y-111250005D01*
X99230557Y-111249994D01*
X99210365Y-111006316D01*
X99210364Y-111006313D01*
X99210364Y-111006308D01*
X99160557Y-110809625D01*
X99163182Y-110739807D01*
X99193080Y-110691508D01*
X100003371Y-109881219D01*
X100064694Y-109847734D01*
X100091052Y-109844900D01*
X101791811Y-109844900D01*
X101858850Y-109864585D01*
X101904605Y-109917389D01*
X101914549Y-109986547D01*
X101885524Y-110050103D01*
X101867978Y-110066748D01*
X101802260Y-110117899D01*
X101747245Y-110160719D01*
X101747242Y-110160722D01*
X101581632Y-110340621D01*
X101447888Y-110545333D01*
X101349663Y-110769265D01*
X101289636Y-111006304D01*
X101289634Y-111006316D01*
X101269443Y-111249994D01*
X101269443Y-111250005D01*
X101289634Y-111493683D01*
X101289636Y-111493695D01*
X101349663Y-111730734D01*
X101447888Y-111954666D01*
X101581632Y-112159378D01*
X101747242Y-112339277D01*
X101747252Y-112339286D01*
X101939670Y-112489051D01*
X101940212Y-112489473D01*
X102155267Y-112605855D01*
X102155270Y-112605856D01*
X102386541Y-112685251D01*
X102386543Y-112685251D01*
X102386545Y-112685252D01*
X102627737Y-112725500D01*
X102627738Y-112725500D01*
X102872262Y-112725500D01*
X102872263Y-112725500D01*
X103113455Y-112685252D01*
X103344733Y-112605855D01*
X103559788Y-112489473D01*
X103752754Y-112339281D01*
X103918368Y-112159377D01*
X104052111Y-111954667D01*
X104150336Y-111730736D01*
X104210364Y-111493692D01*
X104210371Y-111493605D01*
X104230557Y-111250005D01*
X104230557Y-111249994D01*
X104210365Y-111006316D01*
X104210363Y-111006307D01*
X104150336Y-110769264D01*
X104052111Y-110545333D01*
X103918368Y-110340623D01*
X103918367Y-110340621D01*
X103752757Y-110160722D01*
X103752754Y-110160719D01*
X103706807Y-110124957D01*
X103632025Y-110066751D01*
X103591214Y-110010043D01*
X103587539Y-109940270D01*
X103622170Y-109879587D01*
X103684112Y-109847260D01*
X103708189Y-109844900D01*
X106792622Y-109844900D01*
X106859661Y-109864585D01*
X106905416Y-109917389D01*
X106915360Y-109986547D01*
X106899131Y-110022082D01*
X106897757Y-110044204D01*
X107502511Y-110648958D01*
X107442110Y-110673978D01*
X107335649Y-110745112D01*
X107245112Y-110835649D01*
X107173978Y-110942110D01*
X107148958Y-111002511D01*
X106544626Y-110398179D01*
X106448328Y-110545575D01*
X106350138Y-110769426D01*
X106290130Y-111006394D01*
X106269945Y-111249994D01*
X106269945Y-111250005D01*
X106290130Y-111493605D01*
X106350138Y-111730573D01*
X106448330Y-111954429D01*
X106544626Y-112101819D01*
X107148958Y-111497487D01*
X107173978Y-111557890D01*
X107245112Y-111664351D01*
X107335649Y-111754888D01*
X107442110Y-111826022D01*
X107502511Y-111851041D01*
X106897758Y-112455794D01*
X106897758Y-112455796D01*
X106940478Y-112489046D01*
X106940484Y-112489050D01*
X107155468Y-112605394D01*
X107155476Y-112605397D01*
X107386664Y-112684765D01*
X107627779Y-112725000D01*
X107872221Y-112725000D01*
X108113335Y-112684765D01*
X108344523Y-112605397D01*
X108344531Y-112605394D01*
X108559514Y-112489051D01*
X108559514Y-112489050D01*
X108602240Y-112455795D01*
X108602240Y-112455794D01*
X107997488Y-111851041D01*
X108057890Y-111826022D01*
X108164351Y-111754888D01*
X108254888Y-111664351D01*
X108326022Y-111557890D01*
X108351041Y-111497488D01*
X108955372Y-112101819D01*
X109051667Y-111954431D01*
X109051672Y-111954423D01*
X109149861Y-111730573D01*
X109209869Y-111493605D01*
X109230055Y-111250005D01*
X109230055Y-111249994D01*
X109209869Y-111006394D01*
X109149861Y-110769426D01*
X109051669Y-110545570D01*
X108955372Y-110398179D01*
X108351041Y-111002510D01*
X108326022Y-110942110D01*
X108254888Y-110835649D01*
X108164351Y-110745112D01*
X108057890Y-110673978D01*
X107997487Y-110648958D01*
X108602240Y-110044204D01*
X108601037Y-110024823D01*
X108590400Y-110010043D01*
X108586725Y-109940270D01*
X108621356Y-109879587D01*
X108683298Y-109847260D01*
X108707375Y-109844900D01*
X115233441Y-109844900D01*
X115300480Y-109864585D01*
X115346235Y-109917389D01*
X115356179Y-109986547D01*
X115353216Y-110000993D01*
X115304366Y-110183302D01*
X115304364Y-110183313D01*
X115284532Y-110409998D01*
X115284532Y-110410001D01*
X115304364Y-110636686D01*
X115304366Y-110636697D01*
X115363258Y-110856488D01*
X115363261Y-110856497D01*
X115459431Y-111062732D01*
X115459432Y-111062734D01*
X115589954Y-111249141D01*
X115750858Y-111410045D01*
X115750861Y-111410047D01*
X115937266Y-111540568D01*
X116143504Y-111636739D01*
X116143509Y-111636740D01*
X116143511Y-111636741D01*
X116153099Y-111639310D01*
X116363308Y-111695635D01*
X116525230Y-111709801D01*
X116589998Y-111715468D01*
X116590000Y-111715468D01*
X116590002Y-111715468D01*
X116646673Y-111710509D01*
X116816692Y-111695635D01*
X117036496Y-111636739D01*
X117242734Y-111540568D01*
X117429139Y-111410047D01*
X117590047Y-111249139D01*
X117720568Y-111062734D01*
X117747618Y-111004724D01*
X117793790Y-110952285D01*
X117860983Y-110933133D01*
X117927865Y-110953348D01*
X117972381Y-111004724D01*
X117973120Y-111006308D01*
X117999429Y-111062728D01*
X117999432Y-111062734D01*
X118129954Y-111249141D01*
X118290858Y-111410045D01*
X118290861Y-111410047D01*
X118477266Y-111540568D01*
X118683504Y-111636739D01*
X118683509Y-111636740D01*
X118683511Y-111636741D01*
X118693099Y-111639310D01*
X118903308Y-111695635D01*
X119065230Y-111709801D01*
X119129998Y-111715468D01*
X119130000Y-111715468D01*
X119130002Y-111715468D01*
X119186673Y-111710509D01*
X119356692Y-111695635D01*
X119576496Y-111636739D01*
X119782734Y-111540568D01*
X119969139Y-111410047D01*
X120130047Y-111249139D01*
X120260568Y-111062734D01*
X120287618Y-111004724D01*
X120333790Y-110952285D01*
X120400983Y-110933133D01*
X120467865Y-110953348D01*
X120512381Y-111004724D01*
X120513120Y-111006308D01*
X120539429Y-111062728D01*
X120539432Y-111062734D01*
X120669954Y-111249141D01*
X120830858Y-111410045D01*
X120830861Y-111410047D01*
X121017266Y-111540568D01*
X121223504Y-111636739D01*
X121223509Y-111636740D01*
X121223511Y-111636741D01*
X121233099Y-111639310D01*
X121443308Y-111695635D01*
X121605230Y-111709801D01*
X121669998Y-111715468D01*
X121670000Y-111715468D01*
X121670002Y-111715468D01*
X121726673Y-111710509D01*
X121896692Y-111695635D01*
X122113107Y-111637647D01*
X122182956Y-111639310D01*
X122240819Y-111678473D01*
X122268323Y-111742701D01*
X122269200Y-111757422D01*
X122269200Y-132006312D01*
X122249515Y-132073351D01*
X122237350Y-132089284D01*
X122162166Y-132172784D01*
X122067521Y-132336715D01*
X122067518Y-132336722D01*
X122028118Y-132457984D01*
X122009026Y-132516744D01*
X121989240Y-132705000D01*
X122009026Y-132893256D01*
X122009027Y-132893259D01*
X122067518Y-133073277D01*
X122067521Y-133073284D01*
X122162167Y-133237216D01*
X122205472Y-133285310D01*
X122237350Y-133320715D01*
X122267580Y-133383706D01*
X122269200Y-133403687D01*
X122269200Y-138725800D01*
X122249515Y-138792839D01*
X122196711Y-138838594D01*
X122145200Y-138849800D01*
X119494841Y-138849800D01*
X119494821Y-138849799D01*
X119488707Y-138849799D01*
X119365494Y-138849799D01*
X119264697Y-138869848D01*
X119264692Y-138869848D01*
X119244649Y-138873836D01*
X119244647Y-138873836D01*
X119197497Y-138893367D01*
X119130819Y-138920985D01*
X119130817Y-138920986D01*
X119028366Y-138989441D01*
X119028363Y-138989444D01*
X116216229Y-141801581D01*
X116154906Y-141835066D01*
X116128548Y-141837900D01*
X112815788Y-141837900D01*
X112748749Y-141818215D01*
X112702994Y-141765411D01*
X112693050Y-141696253D01*
X112715470Y-141641014D01*
X112726219Y-141626219D01*
X112752614Y-141589890D01*
X112833042Y-141432042D01*
X112887786Y-141263555D01*
X112915500Y-141088579D01*
X112915500Y-140911421D01*
X112887786Y-140736445D01*
X112833042Y-140567958D01*
X112833042Y-140567957D01*
X112792061Y-140487529D01*
X112752614Y-140410110D01*
X112648483Y-140266786D01*
X112523214Y-140141517D01*
X112379890Y-140037386D01*
X112222042Y-139956957D01*
X112222039Y-139956956D01*
X112053556Y-139902214D01*
X111966067Y-139888357D01*
X111878579Y-139874500D01*
X111701421Y-139874500D01*
X111643095Y-139883738D01*
X111526443Y-139902214D01*
X111357960Y-139956956D01*
X111357957Y-139956957D01*
X111200109Y-140037386D01*
X111146962Y-140076000D01*
X111056786Y-140141517D01*
X111056784Y-140141519D01*
X111056783Y-140141519D01*
X110931519Y-140266783D01*
X110931519Y-140266784D01*
X110931517Y-140266786D01*
X110909068Y-140297685D01*
X110827386Y-140410109D01*
X110746957Y-140567957D01*
X110746956Y-140567960D01*
X110692214Y-140736443D01*
X110664500Y-140911421D01*
X110664500Y-141088578D01*
X110692214Y-141263556D01*
X110746956Y-141432039D01*
X110746957Y-141432042D01*
X110807856Y-141551561D01*
X110827386Y-141589890D01*
X110846442Y-141616119D01*
X110864530Y-141641014D01*
X110888010Y-141706821D01*
X110872185Y-141774875D01*
X110822079Y-141823570D01*
X110764212Y-141837900D01*
X108765702Y-141837900D01*
X108698663Y-141818215D01*
X108652908Y-141765411D01*
X108642964Y-141696253D01*
X108671989Y-141632697D01*
X108678021Y-141626219D01*
X108752678Y-141551561D01*
X108752685Y-141551552D01*
X108836281Y-141410198D01*
X108882100Y-141252486D01*
X108882295Y-141250001D01*
X108882295Y-141250000D01*
X106741815Y-141250000D01*
X106678694Y-141232732D01*
X106620396Y-141198255D01*
X106620393Y-141198254D01*
X106462573Y-141152402D01*
X106462567Y-141152401D01*
X106425701Y-141149500D01*
X106425694Y-141149500D01*
X105119306Y-141149500D01*
X105119298Y-141149500D01*
X105082432Y-141152401D01*
X105082426Y-141152402D01*
X104924606Y-141198254D01*
X104924603Y-141198255D01*
X104783137Y-141281917D01*
X104783129Y-141281923D01*
X104666923Y-141398129D01*
X104666917Y-141398137D01*
X104583255Y-141539603D01*
X104583254Y-141539606D01*
X104537402Y-141697426D01*
X104537401Y-141697432D01*
X104534500Y-141734298D01*
X104534500Y-142165701D01*
X104537401Y-142202567D01*
X104537402Y-142202573D01*
X104583254Y-142360393D01*
X104583255Y-142360396D01*
X104666917Y-142501862D01*
X104666923Y-142501870D01*
X104783129Y-142618076D01*
X104783133Y-142618079D01*
X104783135Y-142618081D01*
X104924602Y-142701744D01*
X104966224Y-142713836D01*
X105082426Y-142747597D01*
X105082429Y-142747597D01*
X105082431Y-142747598D01*
X105119306Y-142750500D01*
X105637048Y-142750500D01*
X105704087Y-142770185D01*
X105724729Y-142786819D01*
X105796916Y-142859006D01*
X105796945Y-142859037D01*
X105887163Y-142949255D01*
X105887167Y-142949258D01*
X105989607Y-143017707D01*
X105989614Y-143017711D01*
X106103448Y-143064863D01*
X106163871Y-143076881D01*
X106224293Y-143088900D01*
X116500607Y-143088900D01*
X116561029Y-143076881D01*
X116621452Y-143064863D01*
X116621455Y-143064861D01*
X116621458Y-143064861D01*
X116654787Y-143051054D01*
X116654786Y-143051054D01*
X116654792Y-143051052D01*
X116735286Y-143017712D01*
X116786509Y-142983484D01*
X116837733Y-142949258D01*
X116924858Y-142862133D01*
X116924858Y-142862131D01*
X116935066Y-142851924D01*
X116935067Y-142851921D01*
X119415579Y-140371410D01*
X119476899Y-140337928D01*
X119546591Y-140342912D01*
X119602524Y-140384784D01*
X119626941Y-140450248D01*
X119613743Y-140515387D01*
X119586958Y-140567956D01*
X119586956Y-140567960D01*
X119532214Y-140736443D01*
X119504500Y-140911421D01*
X119504500Y-141088578D01*
X119532214Y-141263556D01*
X119586956Y-141432039D01*
X119586957Y-141432042D01*
X119647856Y-141551561D01*
X119667386Y-141589890D01*
X119771517Y-141733214D01*
X119896786Y-141858483D01*
X120040110Y-141962614D01*
X120117529Y-142002061D01*
X120197957Y-142043042D01*
X120197960Y-142043043D01*
X120282201Y-142070414D01*
X120366445Y-142097786D01*
X120541421Y-142125500D01*
X120541422Y-142125500D01*
X120718578Y-142125500D01*
X120718579Y-142125500D01*
X120893555Y-142097786D01*
X121062042Y-142043042D01*
X121219890Y-141962614D01*
X121363214Y-141858483D01*
X121488483Y-141733214D01*
X121592614Y-141589890D01*
X121673042Y-141432042D01*
X121727786Y-141263555D01*
X121755500Y-141088579D01*
X121755500Y-140911421D01*
X121727786Y-140736445D01*
X121673042Y-140567958D01*
X121673042Y-140567957D01*
X121645190Y-140513295D01*
X121592614Y-140410110D01*
X121562375Y-140368489D01*
X121510933Y-140297685D01*
X121487453Y-140231879D01*
X121503278Y-140163825D01*
X121553384Y-140115130D01*
X121611251Y-140100800D01*
X122160870Y-140100800D01*
X122227909Y-140120485D01*
X122273664Y-140173289D01*
X122282487Y-140200609D01*
X122293235Y-140254644D01*
X122293240Y-140254661D01*
X122340385Y-140368480D01*
X122340387Y-140368483D01*
X122340388Y-140368486D01*
X122368201Y-140410110D01*
X122408841Y-140470932D01*
X122408844Y-140470936D01*
X122500286Y-140562378D01*
X122500308Y-140562398D01*
X123507595Y-141569685D01*
X123541080Y-141631008D01*
X123538993Y-141691951D01*
X123537404Y-141697420D01*
X123537401Y-141697436D01*
X123534500Y-141734298D01*
X123534500Y-142165701D01*
X123537401Y-142202567D01*
X123537402Y-142202573D01*
X123583254Y-142360393D01*
X123583255Y-142360396D01*
X123666917Y-142501862D01*
X123666923Y-142501870D01*
X123783129Y-142618076D01*
X123783133Y-142618079D01*
X123783135Y-142618081D01*
X123924602Y-142701744D01*
X123966224Y-142713836D01*
X124082426Y-142747597D01*
X124082429Y-142747597D01*
X124082431Y-142747598D01*
X124119306Y-142750500D01*
X124637047Y-142750500D01*
X124704086Y-142770185D01*
X124724723Y-142786814D01*
X124826697Y-142888788D01*
X124877068Y-142939159D01*
X124979510Y-143007609D01*
X124979511Y-143007609D01*
X124979515Y-143007612D01*
X125046196Y-143035231D01*
X125046198Y-143035233D01*
X125092503Y-143054413D01*
X125093348Y-143054763D01*
X125113397Y-143058751D01*
X125144114Y-143064861D01*
X125214192Y-143078801D01*
X125214194Y-143078801D01*
X125343521Y-143078801D01*
X125343541Y-143078800D01*
X143330808Y-143078800D01*
X143330808Y-143078799D01*
X143400874Y-143064863D01*
X143400875Y-143064863D01*
X143418112Y-143061434D01*
X143451652Y-143054763D01*
X143484992Y-143040952D01*
X143565486Y-143007612D01*
X143616709Y-142973384D01*
X143667933Y-142939158D01*
X143684816Y-142922274D01*
X143746135Y-142888788D01*
X143815827Y-142893769D01*
X143860180Y-142922272D01*
X143923864Y-142985956D01*
X143923867Y-142985958D01*
X144000790Y-143037356D01*
X144026310Y-143054409D01*
X144026317Y-143054413D01*
X144027160Y-143054762D01*
X144085192Y-143078799D01*
X144085193Y-143078800D01*
X144085194Y-143078800D01*
X144140148Y-143101563D01*
X144200571Y-143113581D01*
X144260993Y-143125600D01*
X162284007Y-143125600D01*
X162344429Y-143113581D01*
X162404852Y-143101563D01*
X162459804Y-143078801D01*
X162518686Y-143054412D01*
X162573611Y-143017711D01*
X162621133Y-142985958D01*
X162708258Y-142898833D01*
X162708259Y-142898831D01*
X162715325Y-142891765D01*
X162715329Y-142891760D01*
X162820273Y-142786818D01*
X162881596Y-142753334D01*
X162907953Y-142750500D01*
X163425686Y-142750500D01*
X163425694Y-142750500D01*
X163462569Y-142747598D01*
X163462571Y-142747597D01*
X163462573Y-142747597D01*
X163504191Y-142735505D01*
X163620398Y-142701744D01*
X163761865Y-142618081D01*
X163878081Y-142501865D01*
X163961744Y-142360398D01*
X164007598Y-142202569D01*
X164010500Y-142165694D01*
X164010500Y-141924000D01*
X164030185Y-141856961D01*
X164082989Y-141811206D01*
X164134500Y-141800000D01*
X164397500Y-141800000D01*
X164397500Y-141250000D01*
X164897500Y-141250000D01*
X164897500Y-141800000D01*
X165300634Y-141800000D01*
X165300649Y-141799999D01*
X165337489Y-141797100D01*
X165337495Y-141797099D01*
X165495193Y-141751283D01*
X165495196Y-141751282D01*
X165636552Y-141667685D01*
X165636561Y-141667678D01*
X165752678Y-141551561D01*
X165752685Y-141551552D01*
X165836281Y-141410198D01*
X165882100Y-141252486D01*
X165882295Y-141250001D01*
X165882295Y-141250000D01*
X164897500Y-141250000D01*
X164397500Y-141250000D01*
X163741815Y-141250000D01*
X163678694Y-141232732D01*
X163620396Y-141198255D01*
X163620393Y-141198254D01*
X163462573Y-141152402D01*
X163462567Y-141152401D01*
X163425701Y-141149500D01*
X163425694Y-141149500D01*
X162119306Y-141149500D01*
X162119298Y-141149500D01*
X162082432Y-141152401D01*
X162082426Y-141152402D01*
X161924606Y-141198254D01*
X161924603Y-141198255D01*
X161783137Y-141281917D01*
X161783129Y-141281923D01*
X161666923Y-141398129D01*
X161666917Y-141398137D01*
X161583255Y-141539603D01*
X161583254Y-141539606D01*
X161537402Y-141697426D01*
X161537401Y-141697432D01*
X161534500Y-141734298D01*
X161534500Y-141750600D01*
X161514815Y-141817639D01*
X161462011Y-141863394D01*
X161410500Y-141874600D01*
X159629124Y-141874600D01*
X159562085Y-141854915D01*
X159516330Y-141802111D01*
X159506386Y-141732953D01*
X159528806Y-141677715D01*
X159569619Y-141621540D01*
X159592614Y-141589890D01*
X159673042Y-141432042D01*
X159727786Y-141263555D01*
X159755500Y-141088579D01*
X159755500Y-141088578D01*
X167664500Y-141088578D01*
X167692214Y-141263556D01*
X167746956Y-141432039D01*
X167746957Y-141432042D01*
X167807856Y-141551561D01*
X167827386Y-141589890D01*
X167931517Y-141733214D01*
X168056786Y-141858483D01*
X168200110Y-141962614D01*
X168277529Y-142002061D01*
X168357957Y-142043042D01*
X168357960Y-142043043D01*
X168442201Y-142070414D01*
X168526445Y-142097786D01*
X168701421Y-142125500D01*
X168701422Y-142125500D01*
X168878578Y-142125500D01*
X168878579Y-142125500D01*
X169053555Y-142097786D01*
X169222042Y-142043042D01*
X169379890Y-141962614D01*
X169523214Y-141858483D01*
X169648483Y-141733214D01*
X169752614Y-141589890D01*
X169833042Y-141432042D01*
X169887786Y-141263555D01*
X169915500Y-141088579D01*
X169915500Y-140911421D01*
X169887786Y-140736445D01*
X169833042Y-140567958D01*
X169833042Y-140567957D01*
X169792061Y-140487529D01*
X169752614Y-140410110D01*
X169648483Y-140266786D01*
X169523214Y-140141517D01*
X169379890Y-140037386D01*
X169222042Y-139956957D01*
X169222039Y-139956956D01*
X169053556Y-139902214D01*
X168966067Y-139888357D01*
X168878579Y-139874500D01*
X168701421Y-139874500D01*
X168643095Y-139883738D01*
X168526443Y-139902214D01*
X168357960Y-139956956D01*
X168357957Y-139956957D01*
X168200109Y-140037386D01*
X168146962Y-140076000D01*
X168056786Y-140141517D01*
X168056784Y-140141519D01*
X168056783Y-140141519D01*
X167931519Y-140266783D01*
X167931519Y-140266784D01*
X167931517Y-140266786D01*
X167909068Y-140297685D01*
X167827386Y-140410109D01*
X167746957Y-140567957D01*
X167746956Y-140567960D01*
X167692214Y-140736443D01*
X167664500Y-140911421D01*
X167664500Y-141088578D01*
X159755500Y-141088578D01*
X159755500Y-140911421D01*
X159727786Y-140736445D01*
X159673042Y-140567958D01*
X159673042Y-140567957D01*
X159632061Y-140487529D01*
X159592614Y-140410110D01*
X159488483Y-140266786D01*
X159487398Y-140265701D01*
X161534500Y-140265701D01*
X161537401Y-140302567D01*
X161537402Y-140302573D01*
X161583254Y-140460393D01*
X161583255Y-140460396D01*
X161583256Y-140460398D01*
X161589488Y-140470936D01*
X161666917Y-140601862D01*
X161666923Y-140601870D01*
X161783129Y-140718076D01*
X161783133Y-140718079D01*
X161783135Y-140718081D01*
X161924602Y-140801744D01*
X161966224Y-140813836D01*
X162082426Y-140847597D01*
X162082429Y-140847597D01*
X162082431Y-140847598D01*
X162119306Y-140850500D01*
X162119314Y-140850500D01*
X163425686Y-140850500D01*
X163425694Y-140850500D01*
X163462569Y-140847598D01*
X163462571Y-140847597D01*
X163462573Y-140847597D01*
X163504191Y-140835505D01*
X163620398Y-140801744D01*
X163678694Y-140767268D01*
X163741815Y-140750000D01*
X164397500Y-140750000D01*
X164397500Y-140200000D01*
X164897500Y-140200000D01*
X164897500Y-140750000D01*
X165882295Y-140750000D01*
X165882295Y-140749998D01*
X165882100Y-140747513D01*
X165836281Y-140589801D01*
X165752685Y-140448447D01*
X165752678Y-140448438D01*
X165636561Y-140332321D01*
X165636552Y-140332314D01*
X165495196Y-140248717D01*
X165495193Y-140248716D01*
X165337495Y-140202900D01*
X165337489Y-140202899D01*
X165300649Y-140200000D01*
X164897500Y-140200000D01*
X164397500Y-140200000D01*
X164134500Y-140200000D01*
X164067461Y-140180315D01*
X164021706Y-140127511D01*
X164010500Y-140076000D01*
X164010500Y-139834313D01*
X164010499Y-139834298D01*
X164007598Y-139797434D01*
X164007598Y-139797431D01*
X164006008Y-139791958D01*
X164006208Y-139722090D01*
X164037402Y-139669686D01*
X166575658Y-137131433D01*
X166644112Y-137028985D01*
X166691263Y-136915151D01*
X166715301Y-136794306D01*
X166715301Y-136671093D01*
X166715301Y-136665983D01*
X166715300Y-136665957D01*
X166715300Y-132788387D01*
X166734985Y-132721348D01*
X166747150Y-132705415D01*
X166782079Y-132666622D01*
X166822333Y-132621916D01*
X166916979Y-132457984D01*
X166975474Y-132277956D01*
X166995260Y-132089700D01*
X166975474Y-131901444D01*
X166916979Y-131721416D01*
X166822333Y-131557484D01*
X166695671Y-131416812D01*
X166695670Y-131416811D01*
X166542534Y-131305551D01*
X166542529Y-131305548D01*
X166369607Y-131228557D01*
X166369602Y-131228555D01*
X166223801Y-131197565D01*
X166184446Y-131189200D01*
X165995154Y-131189200D01*
X165962697Y-131196098D01*
X165809997Y-131228555D01*
X165809992Y-131228557D01*
X165637070Y-131305548D01*
X165637065Y-131305551D01*
X165483929Y-131416811D01*
X165357266Y-131557485D01*
X165262621Y-131721415D01*
X165262618Y-131721422D01*
X165204127Y-131901440D01*
X165204126Y-131901444D01*
X165184340Y-132089700D01*
X165204126Y-132277956D01*
X165204127Y-132277959D01*
X165262618Y-132457977D01*
X165262621Y-132457984D01*
X165357267Y-132621916D01*
X165397521Y-132666622D01*
X165432450Y-132705415D01*
X165462680Y-132768406D01*
X165464300Y-132788387D01*
X165464300Y-136422247D01*
X165444615Y-136489286D01*
X165427981Y-136509928D01*
X162724729Y-139213181D01*
X162663406Y-139246666D01*
X162637048Y-139249500D01*
X162119298Y-139249500D01*
X162082432Y-139252401D01*
X162082426Y-139252402D01*
X161924606Y-139298254D01*
X161924603Y-139298255D01*
X161783137Y-139381917D01*
X161783129Y-139381923D01*
X161666923Y-139498129D01*
X161666917Y-139498137D01*
X161583255Y-139639603D01*
X161583254Y-139639606D01*
X161537402Y-139797426D01*
X161537401Y-139797432D01*
X161534500Y-139834298D01*
X161534500Y-140265701D01*
X159487398Y-140265701D01*
X159363214Y-140141517D01*
X159219890Y-140037386D01*
X159062042Y-139956957D01*
X159062039Y-139956956D01*
X158893556Y-139902214D01*
X158806067Y-139888357D01*
X158718579Y-139874500D01*
X158541421Y-139874500D01*
X158483095Y-139883738D01*
X158366443Y-139902214D01*
X158197960Y-139956956D01*
X158197957Y-139956957D01*
X158040109Y-140037386D01*
X157986962Y-140076000D01*
X157896786Y-140141517D01*
X157896784Y-140141519D01*
X157896783Y-140141519D01*
X157771519Y-140266783D01*
X157771519Y-140266784D01*
X157771517Y-140266786D01*
X157749068Y-140297685D01*
X157667386Y-140410109D01*
X157586957Y-140567957D01*
X157586956Y-140567960D01*
X157532214Y-140736443D01*
X157504500Y-140911421D01*
X157504500Y-141088578D01*
X157532214Y-141263556D01*
X157586956Y-141432039D01*
X157586957Y-141432042D01*
X157667388Y-141589893D01*
X157731194Y-141677715D01*
X157754674Y-141743521D01*
X157738849Y-141811575D01*
X157688743Y-141860270D01*
X157630876Y-141874600D01*
X150789124Y-141874600D01*
X150722085Y-141854915D01*
X150676330Y-141802111D01*
X150666386Y-141732953D01*
X150688806Y-141677715D01*
X150729619Y-141621540D01*
X150752614Y-141589890D01*
X150833042Y-141432042D01*
X150887786Y-141263555D01*
X150915500Y-141088579D01*
X150915500Y-140911421D01*
X150887786Y-140736445D01*
X150833042Y-140567958D01*
X150833042Y-140567957D01*
X150792061Y-140487529D01*
X150752614Y-140410110D01*
X150648483Y-140266786D01*
X150523214Y-140141517D01*
X150379890Y-140037386D01*
X150222042Y-139956957D01*
X150222039Y-139956956D01*
X150053556Y-139902214D01*
X149966067Y-139888357D01*
X149878579Y-139874500D01*
X149701421Y-139874500D01*
X149643095Y-139883738D01*
X149526443Y-139902214D01*
X149357960Y-139956956D01*
X149357957Y-139956957D01*
X149200109Y-140037386D01*
X149146962Y-140076000D01*
X149056786Y-140141517D01*
X149056784Y-140141519D01*
X149056783Y-140141519D01*
X148931519Y-140266783D01*
X148931519Y-140266784D01*
X148931517Y-140266786D01*
X148909068Y-140297685D01*
X148827386Y-140410109D01*
X148746957Y-140567957D01*
X148746956Y-140567960D01*
X148692214Y-140736443D01*
X148664500Y-140911421D01*
X148664500Y-141088578D01*
X148692214Y-141263556D01*
X148746956Y-141432039D01*
X148746957Y-141432042D01*
X148827388Y-141589893D01*
X148891194Y-141677715D01*
X148914674Y-141743521D01*
X148898849Y-141811575D01*
X148848743Y-141860270D01*
X148790876Y-141874600D01*
X146729002Y-141874600D01*
X146661963Y-141854915D01*
X146616208Y-141802111D01*
X146606264Y-141732953D01*
X146635289Y-141669397D01*
X146641321Y-141662919D01*
X146752678Y-141551561D01*
X146752685Y-141551552D01*
X146836281Y-141410198D01*
X146882100Y-141252486D01*
X146882295Y-141250001D01*
X146882295Y-141250000D01*
X144741815Y-141250000D01*
X144678694Y-141232732D01*
X144620396Y-141198255D01*
X144620393Y-141198254D01*
X144462573Y-141152402D01*
X144462567Y-141152401D01*
X144425701Y-141149500D01*
X144425694Y-141149500D01*
X143119306Y-141149500D01*
X143119298Y-141149500D01*
X143082432Y-141152401D01*
X143082426Y-141152402D01*
X142924606Y-141198254D01*
X142924603Y-141198255D01*
X142783137Y-141281917D01*
X142783129Y-141281923D01*
X142666923Y-141398129D01*
X142666917Y-141398137D01*
X142583255Y-141539603D01*
X142583254Y-141539606D01*
X142537402Y-141697426D01*
X142537401Y-141697432D01*
X142536135Y-141713529D01*
X142511251Y-141778817D01*
X142455020Y-141820288D01*
X142412517Y-141827800D01*
X140663126Y-141827800D01*
X140596087Y-141808115D01*
X140550332Y-141755311D01*
X140540388Y-141686153D01*
X140562808Y-141630914D01*
X140568851Y-141622597D01*
X140592614Y-141589890D01*
X140673042Y-141432042D01*
X140727786Y-141263555D01*
X140755500Y-141088579D01*
X140755500Y-140911421D01*
X140727786Y-140736445D01*
X140673042Y-140567958D01*
X140673042Y-140567957D01*
X140632061Y-140487529D01*
X140592614Y-140410110D01*
X140488483Y-140266786D01*
X140487398Y-140265701D01*
X142534500Y-140265701D01*
X142537401Y-140302567D01*
X142537402Y-140302573D01*
X142583254Y-140460393D01*
X142583255Y-140460396D01*
X142583256Y-140460398D01*
X142589488Y-140470936D01*
X142666917Y-140601862D01*
X142666923Y-140601870D01*
X142783129Y-140718076D01*
X142783133Y-140718079D01*
X142783135Y-140718081D01*
X142924602Y-140801744D01*
X142966224Y-140813836D01*
X143082426Y-140847597D01*
X143082429Y-140847597D01*
X143082431Y-140847598D01*
X143119306Y-140850500D01*
X143119314Y-140850500D01*
X144425686Y-140850500D01*
X144425694Y-140850500D01*
X144462569Y-140847598D01*
X144462571Y-140847597D01*
X144462573Y-140847597D01*
X144504191Y-140835505D01*
X144620398Y-140801744D01*
X144678694Y-140767268D01*
X144741815Y-140750000D01*
X145397500Y-140750000D01*
X145397500Y-140200000D01*
X145897500Y-140200000D01*
X145897500Y-140750000D01*
X146882295Y-140750000D01*
X146882295Y-140749998D01*
X146882100Y-140747513D01*
X146836281Y-140589801D01*
X146752685Y-140448447D01*
X146752678Y-140448438D01*
X146636561Y-140332321D01*
X146636552Y-140332314D01*
X146495196Y-140248717D01*
X146495193Y-140248716D01*
X146337495Y-140202900D01*
X146337489Y-140202899D01*
X146300649Y-140200000D01*
X145897500Y-140200000D01*
X145397500Y-140200000D01*
X145134500Y-140200000D01*
X145067461Y-140180315D01*
X145021706Y-140127511D01*
X145010500Y-140076000D01*
X145010500Y-139834313D01*
X145010499Y-139834298D01*
X145007598Y-139797434D01*
X145007598Y-139797431D01*
X145006008Y-139791958D01*
X145006208Y-139722090D01*
X145037402Y-139669686D01*
X146900657Y-137806434D01*
X146969111Y-137703986D01*
X147016263Y-137590152D01*
X147040300Y-137469307D01*
X147040300Y-137346094D01*
X147040300Y-132788387D01*
X147059985Y-132721348D01*
X147072150Y-132705415D01*
X147107079Y-132666622D01*
X147147333Y-132621916D01*
X147241979Y-132457984D01*
X147300474Y-132277956D01*
X147320260Y-132089700D01*
X147300474Y-131901444D01*
X147241979Y-131721416D01*
X147147333Y-131557484D01*
X147020671Y-131416812D01*
X147020670Y-131416811D01*
X146867534Y-131305551D01*
X146867529Y-131305548D01*
X146694607Y-131228557D01*
X146694602Y-131228555D01*
X146548801Y-131197565D01*
X146509446Y-131189200D01*
X146320154Y-131189200D01*
X146287697Y-131196098D01*
X146134997Y-131228555D01*
X146134992Y-131228557D01*
X145962070Y-131305548D01*
X145962065Y-131305551D01*
X145808929Y-131416811D01*
X145682266Y-131557485D01*
X145587621Y-131721415D01*
X145587618Y-131721422D01*
X145529127Y-131901440D01*
X145529126Y-131901444D01*
X145509340Y-132089700D01*
X145529126Y-132277956D01*
X145529127Y-132277959D01*
X145587618Y-132457977D01*
X145587621Y-132457984D01*
X145682267Y-132621916D01*
X145722521Y-132666622D01*
X145757450Y-132705415D01*
X145787680Y-132768406D01*
X145789300Y-132788387D01*
X145789300Y-137097247D01*
X145769615Y-137164286D01*
X145752981Y-137184928D01*
X143724729Y-139213181D01*
X143663406Y-139246666D01*
X143637048Y-139249500D01*
X143119298Y-139249500D01*
X143082432Y-139252401D01*
X143082426Y-139252402D01*
X142924606Y-139298254D01*
X142924603Y-139298255D01*
X142783137Y-139381917D01*
X142783129Y-139381923D01*
X142666923Y-139498129D01*
X142666917Y-139498137D01*
X142583255Y-139639603D01*
X142583254Y-139639606D01*
X142537402Y-139797426D01*
X142537401Y-139797432D01*
X142534500Y-139834298D01*
X142534500Y-140265701D01*
X140487398Y-140265701D01*
X140363214Y-140141517D01*
X140219890Y-140037386D01*
X140062042Y-139956957D01*
X140062039Y-139956956D01*
X139893556Y-139902214D01*
X139806067Y-139888357D01*
X139718579Y-139874500D01*
X139541421Y-139874500D01*
X139483095Y-139883738D01*
X139366443Y-139902214D01*
X139197960Y-139956956D01*
X139197957Y-139956957D01*
X139040109Y-140037386D01*
X138986962Y-140076000D01*
X138896786Y-140141517D01*
X138896784Y-140141519D01*
X138896783Y-140141519D01*
X138771519Y-140266783D01*
X138771519Y-140266784D01*
X138771517Y-140266786D01*
X138749068Y-140297685D01*
X138667386Y-140410109D01*
X138586957Y-140567957D01*
X138586956Y-140567960D01*
X138532214Y-140736443D01*
X138504500Y-140911421D01*
X138504500Y-141088578D01*
X138532214Y-141263556D01*
X138586956Y-141432039D01*
X138586957Y-141432042D01*
X138647856Y-141551561D01*
X138667386Y-141589890D01*
X138686442Y-141616119D01*
X138697192Y-141630914D01*
X138720672Y-141696720D01*
X138704847Y-141764774D01*
X138654741Y-141813469D01*
X138596874Y-141827800D01*
X131823126Y-141827800D01*
X131756087Y-141808115D01*
X131710332Y-141755311D01*
X131700388Y-141686153D01*
X131722808Y-141630914D01*
X131728851Y-141622597D01*
X131752614Y-141589890D01*
X131833042Y-141432042D01*
X131887786Y-141263555D01*
X131915500Y-141088579D01*
X131915500Y-140911421D01*
X131887786Y-140736445D01*
X131833042Y-140567958D01*
X131833042Y-140567957D01*
X131792061Y-140487529D01*
X131752614Y-140410110D01*
X131648483Y-140266786D01*
X131523214Y-140141517D01*
X131379890Y-140037386D01*
X131222042Y-139956957D01*
X131222039Y-139956956D01*
X131053556Y-139902214D01*
X130966067Y-139888357D01*
X130878579Y-139874500D01*
X130701421Y-139874500D01*
X130643095Y-139883738D01*
X130526443Y-139902214D01*
X130357960Y-139956956D01*
X130357957Y-139956957D01*
X130200109Y-140037386D01*
X130146962Y-140076000D01*
X130056786Y-140141517D01*
X130056784Y-140141519D01*
X130056783Y-140141519D01*
X129931519Y-140266783D01*
X129931519Y-140266784D01*
X129931517Y-140266786D01*
X129909068Y-140297685D01*
X129827386Y-140410109D01*
X129746957Y-140567957D01*
X129746956Y-140567960D01*
X129692214Y-140736443D01*
X129664500Y-140911421D01*
X129664500Y-141088578D01*
X129692214Y-141263556D01*
X129746956Y-141432039D01*
X129746957Y-141432042D01*
X129807856Y-141551561D01*
X129827386Y-141589890D01*
X129846442Y-141616119D01*
X129857192Y-141630914D01*
X129880672Y-141696720D01*
X129864847Y-141764774D01*
X129814741Y-141813469D01*
X129756874Y-141827800D01*
X127775802Y-141827800D01*
X127708763Y-141808115D01*
X127663008Y-141755311D01*
X127653064Y-141686153D01*
X127682089Y-141622597D01*
X127688121Y-141616119D01*
X127752678Y-141551561D01*
X127752685Y-141551552D01*
X127836281Y-141410198D01*
X127882100Y-141252486D01*
X127882295Y-141250001D01*
X127882295Y-141250000D01*
X125741815Y-141250000D01*
X125678694Y-141232732D01*
X125620396Y-141198255D01*
X125620393Y-141198254D01*
X125462573Y-141152402D01*
X125462567Y-141152401D01*
X125425701Y-141149500D01*
X125425694Y-141149500D01*
X124907952Y-141149500D01*
X124840913Y-141129815D01*
X124820271Y-141113181D01*
X124769271Y-141062181D01*
X124735786Y-141000858D01*
X124740770Y-140931166D01*
X124782642Y-140875233D01*
X124848106Y-140850816D01*
X124856952Y-140850500D01*
X125425686Y-140850500D01*
X125425694Y-140850500D01*
X125462569Y-140847598D01*
X125462571Y-140847597D01*
X125462573Y-140847597D01*
X125504191Y-140835505D01*
X125620398Y-140801744D01*
X125678694Y-140767268D01*
X125741815Y-140750000D01*
X126397500Y-140750000D01*
X126397500Y-140200000D01*
X126897500Y-140200000D01*
X126897500Y-140750000D01*
X127882295Y-140750000D01*
X127882295Y-140749998D01*
X127882100Y-140747513D01*
X127836281Y-140589801D01*
X127752685Y-140448447D01*
X127752678Y-140448438D01*
X127636561Y-140332321D01*
X127636552Y-140332314D01*
X127495196Y-140248717D01*
X127495193Y-140248716D01*
X127337495Y-140202900D01*
X127337489Y-140202899D01*
X127300649Y-140200000D01*
X126897500Y-140200000D01*
X126397500Y-140200000D01*
X126134500Y-140200000D01*
X126067461Y-140180315D01*
X126021706Y-140127511D01*
X126010500Y-140076000D01*
X126010500Y-139834313D01*
X126010499Y-139834298D01*
X126007598Y-139797432D01*
X126007597Y-139797426D01*
X125961745Y-139639606D01*
X125961744Y-139639603D01*
X125961744Y-139639602D01*
X125878081Y-139498135D01*
X125878079Y-139498133D01*
X125878076Y-139498129D01*
X125761870Y-139381923D01*
X125761862Y-139381917D01*
X125620396Y-139298255D01*
X125620393Y-139298254D01*
X125487405Y-139259617D01*
X125428519Y-139222011D01*
X125399313Y-139158538D01*
X125398000Y-139140541D01*
X125398000Y-135736452D01*
X125417685Y-135669413D01*
X125434319Y-135648771D01*
X127581771Y-133501319D01*
X127643094Y-133467834D01*
X127669452Y-133465000D01*
X127728644Y-133465000D01*
X127728646Y-133465000D01*
X127913803Y-133425644D01*
X128086730Y-133348651D01*
X128239871Y-133237388D01*
X128366533Y-133096716D01*
X128461179Y-132932784D01*
X128519674Y-132752756D01*
X128539460Y-132564500D01*
X128519674Y-132376244D01*
X128461179Y-132196216D01*
X128366533Y-132032284D01*
X128239871Y-131891612D01*
X128239870Y-131891611D01*
X128086734Y-131780351D01*
X128086729Y-131780348D01*
X127913807Y-131703357D01*
X127913802Y-131703355D01*
X127768001Y-131672365D01*
X127728646Y-131664000D01*
X127539354Y-131664000D01*
X127506897Y-131670898D01*
X127354197Y-131703355D01*
X127354192Y-131703357D01*
X127181270Y-131780348D01*
X127181265Y-131780351D01*
X127028129Y-131891611D01*
X126901466Y-132032285D01*
X126806821Y-132196215D01*
X126806818Y-132196222D01*
X126752950Y-132362012D01*
X126748326Y-132376244D01*
X126740405Y-132451605D01*
X126730678Y-132544151D01*
X126704093Y-132608766D01*
X126695038Y-132618870D01*
X124373770Y-134940139D01*
X124286644Y-135027264D01*
X124286638Y-135027272D01*
X124218192Y-135129705D01*
X124218184Y-135129719D01*
X124184847Y-135210207D01*
X124179323Y-135223543D01*
X124171037Y-135243545D01*
X124171035Y-135243553D01*
X124147000Y-135364389D01*
X124147000Y-139140541D01*
X124127315Y-139207580D01*
X124074511Y-139253335D01*
X124057595Y-139259617D01*
X123924606Y-139298254D01*
X123924603Y-139298255D01*
X123783137Y-139381917D01*
X123783129Y-139381923D01*
X123731881Y-139433172D01*
X123670558Y-139466657D01*
X123600866Y-139461673D01*
X123544933Y-139419801D01*
X123520516Y-139354337D01*
X123520200Y-139345491D01*
X123520200Y-133403687D01*
X123539885Y-133336648D01*
X123552050Y-133320715D01*
X123570591Y-133300122D01*
X123627233Y-133237216D01*
X123721879Y-133073284D01*
X123780374Y-132893256D01*
X123800160Y-132705000D01*
X123780374Y-132516744D01*
X123721879Y-132336716D01*
X123627233Y-132172784D01*
X123592672Y-132134400D01*
X123552050Y-132089284D01*
X123521820Y-132026292D01*
X123520200Y-132006312D01*
X123520200Y-111717925D01*
X123539885Y-111650886D01*
X123592689Y-111605131D01*
X123661847Y-111595187D01*
X123696603Y-111605542D01*
X123763504Y-111636739D01*
X123763509Y-111636740D01*
X123763511Y-111636741D01*
X123773099Y-111639310D01*
X123983308Y-111695635D01*
X124145230Y-111709801D01*
X124209998Y-111715468D01*
X124210000Y-111715468D01*
X124210002Y-111715468D01*
X124266673Y-111710509D01*
X124436692Y-111695635D01*
X124656496Y-111636739D01*
X124862734Y-111540568D01*
X125049139Y-111410047D01*
X125210047Y-111249139D01*
X125340568Y-111062734D01*
X125367618Y-111004724D01*
X125413790Y-110952285D01*
X125480983Y-110933133D01*
X125547865Y-110953348D01*
X125592381Y-111004724D01*
X125593120Y-111006308D01*
X125619429Y-111062728D01*
X125619432Y-111062734D01*
X125749954Y-111249141D01*
X125910858Y-111410045D01*
X125910861Y-111410047D01*
X126097266Y-111540568D01*
X126303504Y-111636739D01*
X126303509Y-111636740D01*
X126303511Y-111636741D01*
X126313099Y-111639310D01*
X126523308Y-111695635D01*
X126685230Y-111709801D01*
X126749998Y-111715468D01*
X126750000Y-111715468D01*
X126750002Y-111715468D01*
X126806673Y-111710509D01*
X126976692Y-111695635D01*
X127196496Y-111636739D01*
X127402734Y-111540568D01*
X127589139Y-111410047D01*
X127750047Y-111249139D01*
X127880568Y-111062734D01*
X127907618Y-111004724D01*
X127953790Y-110952285D01*
X128020983Y-110933133D01*
X128087865Y-110953348D01*
X128132381Y-111004724D01*
X128133120Y-111006308D01*
X128159429Y-111062728D01*
X128159432Y-111062734D01*
X128289954Y-111249141D01*
X128450858Y-111410045D01*
X128450861Y-111410047D01*
X128637266Y-111540568D01*
X128843504Y-111636739D01*
X128843509Y-111636740D01*
X128843511Y-111636741D01*
X128853099Y-111639310D01*
X129063308Y-111695635D01*
X129225230Y-111709801D01*
X129289998Y-111715468D01*
X129290000Y-111715468D01*
X129290002Y-111715468D01*
X129346673Y-111710509D01*
X129516692Y-111695635D01*
X129736496Y-111636739D01*
X129942734Y-111540568D01*
X130129139Y-111410047D01*
X130290047Y-111249139D01*
X130420568Y-111062734D01*
X130447618Y-111004724D01*
X130493790Y-110952285D01*
X130560983Y-110933133D01*
X130627865Y-110953348D01*
X130672381Y-111004724D01*
X130673120Y-111006308D01*
X130699429Y-111062728D01*
X130699432Y-111062734D01*
X130829954Y-111249141D01*
X130990858Y-111410045D01*
X130990861Y-111410047D01*
X131177266Y-111540568D01*
X131383504Y-111636739D01*
X131383509Y-111636740D01*
X131383511Y-111636741D01*
X131393099Y-111639310D01*
X131603308Y-111695635D01*
X131765230Y-111709801D01*
X131829998Y-111715468D01*
X131830000Y-111715468D01*
X131830002Y-111715468D01*
X131886673Y-111710509D01*
X132056692Y-111695635D01*
X132276496Y-111636739D01*
X132482734Y-111540568D01*
X132669139Y-111410047D01*
X132830047Y-111249139D01*
X132960568Y-111062734D01*
X133056739Y-110856496D01*
X133115635Y-110636692D01*
X133135468Y-110410000D01*
X133115635Y-110183308D01*
X133056739Y-109963504D01*
X132960568Y-109757266D01*
X132830047Y-109570861D01*
X132830045Y-109570858D01*
X132669141Y-109409954D01*
X132482734Y-109279432D01*
X132482728Y-109279429D01*
X132455038Y-109266517D01*
X132424724Y-109252381D01*
X132372285Y-109206210D01*
X132353133Y-109139017D01*
X132373348Y-109072135D01*
X132424725Y-109027618D01*
X132482734Y-109000568D01*
X132669139Y-108870047D01*
X132830047Y-108709139D01*
X132960568Y-108522734D01*
X133056739Y-108316496D01*
X133115635Y-108096692D01*
X133135468Y-107870000D01*
X133115635Y-107643308D01*
X133056739Y-107423504D01*
X132960568Y-107217266D01*
X132830047Y-107030861D01*
X132830045Y-107030858D01*
X132669141Y-106869954D01*
X132482734Y-106739432D01*
X132482728Y-106739429D01*
X132424725Y-106712382D01*
X132372285Y-106666210D01*
X132353133Y-106599017D01*
X132373348Y-106532135D01*
X132424725Y-106487618D01*
X132482734Y-106460568D01*
X132669139Y-106330047D01*
X132830047Y-106169139D01*
X132960568Y-105982734D01*
X133056739Y-105776496D01*
X133115635Y-105556692D01*
X133135468Y-105330000D01*
X133115635Y-105103308D01*
X133056739Y-104883504D01*
X132960568Y-104677266D01*
X132830047Y-104490861D01*
X132830045Y-104490858D01*
X132669141Y-104329954D01*
X132482734Y-104199432D01*
X132482728Y-104199429D01*
X132424725Y-104172382D01*
X132372285Y-104126210D01*
X132353133Y-104059017D01*
X132373348Y-103992135D01*
X132424725Y-103947618D01*
X132482734Y-103920568D01*
X132669139Y-103790047D01*
X132830047Y-103629139D01*
X132960568Y-103442734D01*
X133056739Y-103236496D01*
X133115635Y-103016692D01*
X133135468Y-102790000D01*
X133115635Y-102563308D01*
X133056739Y-102343504D01*
X132960568Y-102137266D01*
X132830047Y-101950861D01*
X132830045Y-101950858D01*
X132669141Y-101789954D01*
X132482734Y-101659432D01*
X132482728Y-101659429D01*
X132424725Y-101632382D01*
X132372285Y-101586210D01*
X132353133Y-101519017D01*
X132373348Y-101452135D01*
X132424725Y-101407618D01*
X132482734Y-101380568D01*
X132669139Y-101250047D01*
X132830047Y-101089139D01*
X132960568Y-100902734D01*
X133056739Y-100696496D01*
X133115635Y-100476692D01*
X133135468Y-100250000D01*
X133115635Y-100023308D01*
X133056739Y-99803504D01*
X132960568Y-99597266D01*
X132857916Y-99450662D01*
X132830045Y-99410858D01*
X132669141Y-99249954D01*
X132482734Y-99119432D01*
X132482728Y-99119429D01*
X132455038Y-99106517D01*
X132424724Y-99092381D01*
X132372285Y-99046210D01*
X132353133Y-98979017D01*
X132373348Y-98912135D01*
X132424725Y-98867618D01*
X132482734Y-98840568D01*
X132669139Y-98710047D01*
X132830047Y-98549139D01*
X132960568Y-98362734D01*
X133056739Y-98156496D01*
X133115635Y-97936692D01*
X133135468Y-97710000D01*
X133129361Y-97640199D01*
X133143127Y-97571701D01*
X133191742Y-97521518D01*
X133259771Y-97505584D01*
X133321775Y-97526288D01*
X133338187Y-97537254D01*
X133338189Y-97537256D01*
X133363710Y-97554309D01*
X133363712Y-97554310D01*
X133363715Y-97554312D01*
X133430396Y-97581931D01*
X133430398Y-97581933D01*
X133467734Y-97597398D01*
X133477548Y-97601463D01*
X133537971Y-97613481D01*
X133598393Y-97625500D01*
X133598394Y-97625500D01*
X134325782Y-97625500D01*
X134392821Y-97645185D01*
X134438576Y-97697989D01*
X134448520Y-97767147D01*
X134438163Y-97801906D01*
X134436099Y-97806330D01*
X134436094Y-97806344D01*
X134374938Y-98034586D01*
X134374936Y-98034596D01*
X134354341Y-98269999D01*
X134354341Y-98270000D01*
X134374936Y-98505403D01*
X134374938Y-98505413D01*
X134436094Y-98733655D01*
X134436096Y-98733659D01*
X134436097Y-98733663D01*
X134510981Y-98894251D01*
X134535965Y-98947830D01*
X134535967Y-98947834D01*
X134588782Y-99023261D01*
X134671501Y-99141396D01*
X134671506Y-99141402D01*
X134793818Y-99263714D01*
X134827303Y-99325037D01*
X134822319Y-99394729D01*
X134780447Y-99450662D01*
X134749471Y-99467577D01*
X134617912Y-99516646D01*
X134617906Y-99516649D01*
X134502812Y-99602809D01*
X134502809Y-99602812D01*
X134416649Y-99717906D01*
X134416645Y-99717913D01*
X134366403Y-99852620D01*
X134366401Y-99852627D01*
X134360000Y-99912155D01*
X134360000Y-100560000D01*
X135276988Y-100560000D01*
X135244075Y-100617007D01*
X135210000Y-100744174D01*
X135210000Y-100875826D01*
X135244075Y-101002993D01*
X135276988Y-101060000D01*
X134360000Y-101060000D01*
X134360000Y-101707844D01*
X134366401Y-101767372D01*
X134366403Y-101767379D01*
X134416645Y-101902086D01*
X134416649Y-101902093D01*
X134502809Y-102017187D01*
X134502812Y-102017190D01*
X134617906Y-102103350D01*
X134617913Y-102103354D01*
X134752620Y-102153596D01*
X134752627Y-102153598D01*
X134812155Y-102159999D01*
X134812172Y-102160000D01*
X135460000Y-102160000D01*
X135460000Y-101243012D01*
X135517007Y-101275925D01*
X135644174Y-101310000D01*
X135775826Y-101310000D01*
X135902993Y-101275925D01*
X135960000Y-101243012D01*
X135960000Y-102160000D01*
X136607828Y-102160000D01*
X136607844Y-102159999D01*
X136667372Y-102153598D01*
X136667379Y-102153596D01*
X136802086Y-102103354D01*
X136802093Y-102103350D01*
X136917187Y-102017190D01*
X136917190Y-102017187D01*
X137003350Y-101902093D01*
X137003354Y-101902086D01*
X137053596Y-101767379D01*
X137053598Y-101767372D01*
X137059999Y-101707844D01*
X137060000Y-101707827D01*
X137060000Y-101060000D01*
X136143012Y-101060000D01*
X136175925Y-101002993D01*
X136210000Y-100875826D01*
X136210000Y-100744174D01*
X136175925Y-100617007D01*
X136143012Y-100560000D01*
X137060000Y-100560000D01*
X137060000Y-99912172D01*
X137059999Y-99912155D01*
X137053598Y-99852627D01*
X137053596Y-99852620D01*
X137003354Y-99717913D01*
X137003350Y-99717906D01*
X136917190Y-99602812D01*
X136917187Y-99602809D01*
X136802093Y-99516649D01*
X136802088Y-99516646D01*
X136670528Y-99467577D01*
X136614595Y-99425705D01*
X136590178Y-99360241D01*
X136605030Y-99291968D01*
X136626175Y-99263720D01*
X136748495Y-99141401D01*
X136884035Y-98947830D01*
X136909020Y-98894248D01*
X136955189Y-98841810D01*
X137022382Y-98822657D01*
X137089264Y-98842871D01*
X137109082Y-98858972D01*
X142455010Y-104204900D01*
X142488495Y-104266223D01*
X142483511Y-104335915D01*
X142474719Y-104354576D01*
X142464421Y-104372413D01*
X142405927Y-104552440D01*
X142405926Y-104552444D01*
X142386140Y-104740700D01*
X142405926Y-104928956D01*
X142405927Y-104928959D01*
X142464418Y-105108977D01*
X142464421Y-105108984D01*
X142559067Y-105272916D01*
X142610464Y-105329998D01*
X142685729Y-105413588D01*
X142838865Y-105524848D01*
X142838870Y-105524851D01*
X143011792Y-105601842D01*
X143011797Y-105601844D01*
X143196954Y-105641200D01*
X143196955Y-105641200D01*
X143386244Y-105641200D01*
X143386246Y-105641200D01*
X143571403Y-105601844D01*
X143744330Y-105524851D01*
X143897471Y-105413588D01*
X144024133Y-105272916D01*
X144118779Y-105108984D01*
X144177274Y-104928956D01*
X144197060Y-104740700D01*
X144177274Y-104552444D01*
X144118779Y-104372416D01*
X144024133Y-104208484D01*
X143950053Y-104126210D01*
X143938465Y-104113340D01*
X143908998Y-104054559D01*
X143893064Y-103974455D01*
X143893063Y-103974448D01*
X143870745Y-103920568D01*
X143845912Y-103860614D01*
X143811684Y-103809390D01*
X143777458Y-103758167D01*
X143777456Y-103758164D01*
X143687237Y-103667945D01*
X143687206Y-103667916D01*
X136769434Y-96750144D01*
X136735949Y-96688821D01*
X136740933Y-96619129D01*
X136755540Y-96591339D01*
X136884035Y-96407830D01*
X136983903Y-96193663D01*
X137045063Y-95965408D01*
X137065659Y-95730000D01*
X137045063Y-95494592D01*
X136983903Y-95266337D01*
X136884035Y-95052171D01*
X136876869Y-95041936D01*
X136748494Y-94858597D01*
X136581402Y-94691506D01*
X136581396Y-94691501D01*
X136395842Y-94561575D01*
X136352217Y-94506998D01*
X136345023Y-94437500D01*
X136376546Y-94375145D01*
X136395842Y-94358425D01*
X136530193Y-94264351D01*
X136581401Y-94228495D01*
X136748495Y-94061401D01*
X136884035Y-93867830D01*
X136983903Y-93653663D01*
X136992578Y-93621288D01*
X176859500Y-93621288D01*
X176889610Y-93850005D01*
X176891162Y-93861789D01*
X176901401Y-93900000D01*
X176953947Y-94096104D01*
X177046773Y-94320205D01*
X177046776Y-94320212D01*
X177168064Y-94530289D01*
X177168066Y-94530292D01*
X177168067Y-94530293D01*
X177315733Y-94722736D01*
X177315739Y-94722743D01*
X177487256Y-94894260D01*
X177487262Y-94894265D01*
X177679711Y-95041936D01*
X177889788Y-95163224D01*
X178113900Y-95256054D01*
X178348211Y-95318838D01*
X178528586Y-95342584D01*
X178588711Y-95350500D01*
X178588712Y-95350500D01*
X178831289Y-95350500D01*
X178879388Y-95344167D01*
X179071789Y-95318838D01*
X179306100Y-95256054D01*
X179530212Y-95163224D01*
X179740289Y-95041936D01*
X179932738Y-94894265D01*
X180104265Y-94722738D01*
X180251936Y-94530289D01*
X180373224Y-94320212D01*
X180466054Y-94096100D01*
X180528838Y-93861789D01*
X180560500Y-93621288D01*
X180560500Y-93378712D01*
X180559277Y-93369426D01*
X180540261Y-93224979D01*
X180528838Y-93138211D01*
X180466054Y-92903900D01*
X180373224Y-92679788D01*
X180251936Y-92469711D01*
X180135984Y-92318599D01*
X180104266Y-92277263D01*
X180104260Y-92277256D01*
X179932743Y-92105739D01*
X179932736Y-92105733D01*
X179740293Y-91958067D01*
X179740292Y-91958066D01*
X179740289Y-91958064D01*
X179530212Y-91836776D01*
X179530205Y-91836773D01*
X179306104Y-91743947D01*
X179071785Y-91681161D01*
X178831289Y-91649500D01*
X178831288Y-91649500D01*
X178588712Y-91649500D01*
X178588711Y-91649500D01*
X178348214Y-91681161D01*
X178113895Y-91743947D01*
X177889794Y-91836773D01*
X177889785Y-91836777D01*
X177679706Y-91958067D01*
X177487263Y-92105733D01*
X177487256Y-92105739D01*
X177315739Y-92277256D01*
X177315733Y-92277263D01*
X177168067Y-92469706D01*
X177046777Y-92679785D01*
X177046773Y-92679794D01*
X176953947Y-92903895D01*
X176891161Y-93138214D01*
X176859500Y-93378711D01*
X176859500Y-93621288D01*
X136992578Y-93621288D01*
X137045063Y-93425408D01*
X137065659Y-93190000D01*
X137045063Y-92954592D01*
X136983903Y-92726337D01*
X136884035Y-92512171D01*
X136882886Y-92510529D01*
X136748494Y-92318597D01*
X136581402Y-92151506D01*
X136581395Y-92151501D01*
X136387834Y-92015967D01*
X136387830Y-92015965D01*
X136304840Y-91977266D01*
X136173663Y-91916097D01*
X136173659Y-91916096D01*
X136173655Y-91916094D01*
X135945413Y-91854938D01*
X135945403Y-91854936D01*
X135710001Y-91834341D01*
X135709999Y-91834341D01*
X135474596Y-91854936D01*
X135474586Y-91854938D01*
X135246344Y-91916094D01*
X135246335Y-91916098D01*
X135032171Y-92015964D01*
X135032169Y-92015965D01*
X134887067Y-92117566D01*
X134820860Y-92139893D01*
X134753093Y-92122882D01*
X134728263Y-92103672D01*
X133129413Y-90504822D01*
X133095928Y-90443499D01*
X133097319Y-90385048D01*
X133105086Y-90356061D01*
X133115635Y-90316692D01*
X133135468Y-90090000D01*
X133115635Y-89863308D01*
X133056739Y-89643504D01*
X132960568Y-89437266D01*
X132830047Y-89250861D01*
X132830045Y-89250858D01*
X132669141Y-89089954D01*
X132482734Y-88959432D01*
X132482732Y-88959431D01*
X132276497Y-88863261D01*
X132276488Y-88863258D01*
X132056697Y-88804366D01*
X132056693Y-88804365D01*
X132056692Y-88804365D01*
X132056691Y-88804364D01*
X132056686Y-88804364D01*
X131830002Y-88784532D01*
X131829998Y-88784532D01*
X131603313Y-88804364D01*
X131603302Y-88804366D01*
X131383511Y-88863258D01*
X131383502Y-88863261D01*
X131177267Y-88959431D01*
X131177265Y-88959432D01*
X130990858Y-89089954D01*
X130829954Y-89250858D01*
X130699432Y-89437265D01*
X130699431Y-89437267D01*
X130603261Y-89643502D01*
X130603258Y-89643511D01*
X130544366Y-89863302D01*
X130544364Y-89863313D01*
X130524532Y-90089998D01*
X130524532Y-90090001D01*
X130544364Y-90316686D01*
X130544366Y-90316697D01*
X130603258Y-90536488D01*
X130603261Y-90536497D01*
X130699431Y-90742732D01*
X130699432Y-90742734D01*
X130829954Y-90929141D01*
X130990858Y-91090045D01*
X130990861Y-91090047D01*
X131177266Y-91220568D01*
X131235275Y-91247618D01*
X131287714Y-91293791D01*
X131306866Y-91360984D01*
X131286650Y-91427865D01*
X131235275Y-91472381D01*
X131220658Y-91479198D01*
X131177267Y-91499431D01*
X131177265Y-91499432D01*
X130990858Y-91629954D01*
X130829954Y-91790858D01*
X130699432Y-91977265D01*
X130699431Y-91977267D01*
X130603261Y-92183502D01*
X130603258Y-92183511D01*
X130544366Y-92403302D01*
X130544364Y-92403313D01*
X130524532Y-92629998D01*
X130524532Y-92630001D01*
X130544364Y-92856686D01*
X130544366Y-92856697D01*
X130603258Y-93076488D01*
X130603261Y-93076497D01*
X130699431Y-93282732D01*
X130699432Y-93282734D01*
X130829954Y-93469141D01*
X130990858Y-93630045D01*
X130990861Y-93630047D01*
X131177266Y-93760568D01*
X131234357Y-93787190D01*
X131235275Y-93787618D01*
X131287714Y-93833791D01*
X131306866Y-93900984D01*
X131286650Y-93967865D01*
X131235275Y-94012382D01*
X131177267Y-94039431D01*
X131177265Y-94039432D01*
X130990858Y-94169954D01*
X130829954Y-94330858D01*
X130699432Y-94517265D01*
X130699431Y-94517267D01*
X130603261Y-94723502D01*
X130603258Y-94723511D01*
X130544366Y-94943302D01*
X130544364Y-94943313D01*
X130524532Y-95169998D01*
X130524532Y-95170001D01*
X130544364Y-95396686D01*
X130544366Y-95396697D01*
X130603258Y-95616488D01*
X130603261Y-95616497D01*
X130699431Y-95822732D01*
X130699432Y-95822734D01*
X130829954Y-96009141D01*
X130990858Y-96170045D01*
X130990861Y-96170047D01*
X131177266Y-96300568D01*
X131235275Y-96327618D01*
X131287714Y-96373791D01*
X131306866Y-96440984D01*
X131286650Y-96507865D01*
X131235275Y-96552382D01*
X131177267Y-96579431D01*
X131177265Y-96579432D01*
X130990858Y-96709954D01*
X130829954Y-96870858D01*
X130699432Y-97057265D01*
X130699431Y-97057267D01*
X130603261Y-97263502D01*
X130603258Y-97263511D01*
X130544366Y-97483302D01*
X130544364Y-97483313D01*
X130524532Y-97709998D01*
X130524532Y-97710001D01*
X130544364Y-97936686D01*
X130544366Y-97936697D01*
X130603258Y-98156488D01*
X130603261Y-98156497D01*
X130699431Y-98362732D01*
X130699432Y-98362734D01*
X130829954Y-98549141D01*
X130990858Y-98710045D01*
X130990861Y-98710047D01*
X131177266Y-98840568D01*
X131235275Y-98867618D01*
X131287714Y-98913791D01*
X131306866Y-98980984D01*
X131286650Y-99047865D01*
X131235275Y-99092381D01*
X131218272Y-99100310D01*
X131177267Y-99119431D01*
X131177265Y-99119432D01*
X130990858Y-99249954D01*
X130829954Y-99410858D01*
X130699432Y-99597265D01*
X130699431Y-99597267D01*
X130603261Y-99803502D01*
X130603258Y-99803511D01*
X130544366Y-100023302D01*
X130544364Y-100023313D01*
X130524532Y-100249998D01*
X130524532Y-100250001D01*
X130544364Y-100476686D01*
X130544366Y-100476697D01*
X130603258Y-100696488D01*
X130603261Y-100696497D01*
X130699431Y-100902732D01*
X130699432Y-100902734D01*
X130829954Y-101089141D01*
X130990858Y-101250045D01*
X130990861Y-101250047D01*
X131177266Y-101380568D01*
X131235275Y-101407618D01*
X131287714Y-101453791D01*
X131306866Y-101520984D01*
X131286650Y-101587865D01*
X131235275Y-101632382D01*
X131177267Y-101659431D01*
X131177265Y-101659432D01*
X130990858Y-101789954D01*
X130829954Y-101950858D01*
X130699432Y-102137265D01*
X130699431Y-102137267D01*
X130603261Y-102343502D01*
X130603258Y-102343511D01*
X130544366Y-102563302D01*
X130544364Y-102563313D01*
X130524532Y-102789998D01*
X130524532Y-102790001D01*
X130544364Y-103016686D01*
X130544366Y-103016697D01*
X130603258Y-103236488D01*
X130603261Y-103236497D01*
X130699431Y-103442732D01*
X130699432Y-103442734D01*
X130829954Y-103629141D01*
X130990858Y-103790045D01*
X130990861Y-103790047D01*
X131177266Y-103920568D01*
X131235275Y-103947618D01*
X131287714Y-103993791D01*
X131306866Y-104060984D01*
X131286650Y-104127865D01*
X131235275Y-104172382D01*
X131177267Y-104199431D01*
X131177265Y-104199432D01*
X130990858Y-104329954D01*
X130829954Y-104490858D01*
X130699432Y-104677265D01*
X130699431Y-104677267D01*
X130603261Y-104883502D01*
X130603258Y-104883511D01*
X130544366Y-105103302D01*
X130544364Y-105103313D01*
X130524532Y-105329998D01*
X130524532Y-105330001D01*
X130544364Y-105556686D01*
X130544366Y-105556697D01*
X130603258Y-105776488D01*
X130603261Y-105776497D01*
X130699431Y-105982732D01*
X130699432Y-105982734D01*
X130829954Y-106169141D01*
X130990858Y-106330045D01*
X130990861Y-106330047D01*
X131177266Y-106460568D01*
X131235275Y-106487618D01*
X131287714Y-106533791D01*
X131306866Y-106600984D01*
X131286650Y-106667865D01*
X131235275Y-106712382D01*
X131177267Y-106739431D01*
X131177265Y-106739432D01*
X130990858Y-106869954D01*
X130829954Y-107030858D01*
X130699432Y-107217265D01*
X130699431Y-107217267D01*
X130603261Y-107423502D01*
X130603258Y-107423511D01*
X130544366Y-107643302D01*
X130544364Y-107643313D01*
X130524532Y-107869998D01*
X130524532Y-107870001D01*
X130544364Y-108096686D01*
X130544366Y-108096697D01*
X130603258Y-108316488D01*
X130603261Y-108316497D01*
X130699431Y-108522732D01*
X130699432Y-108522734D01*
X130829954Y-108709141D01*
X130990858Y-108870045D01*
X130990861Y-108870047D01*
X131177266Y-109000568D01*
X131235275Y-109027618D01*
X131287714Y-109073791D01*
X131306866Y-109140984D01*
X131286650Y-109207865D01*
X131235275Y-109252382D01*
X131177267Y-109279431D01*
X131177265Y-109279432D01*
X130990858Y-109409954D01*
X130829954Y-109570858D01*
X130699432Y-109757265D01*
X130699431Y-109757267D01*
X130672382Y-109815275D01*
X130626209Y-109867714D01*
X130559016Y-109886866D01*
X130492135Y-109866650D01*
X130447618Y-109815275D01*
X130420568Y-109757267D01*
X130420567Y-109757265D01*
X130290045Y-109570858D01*
X130129141Y-109409954D01*
X129942734Y-109279432D01*
X129942732Y-109279431D01*
X129736497Y-109183261D01*
X129736488Y-109183258D01*
X129516697Y-109124366D01*
X129516693Y-109124365D01*
X129516692Y-109124365D01*
X129516691Y-109124364D01*
X129516686Y-109124364D01*
X129290002Y-109104532D01*
X129289998Y-109104532D01*
X129063313Y-109124364D01*
X129063302Y-109124366D01*
X128843511Y-109183258D01*
X128843502Y-109183261D01*
X128637267Y-109279431D01*
X128637265Y-109279432D01*
X128450858Y-109409954D01*
X128289954Y-109570858D01*
X128159432Y-109757265D01*
X128159431Y-109757267D01*
X128132382Y-109815275D01*
X128086209Y-109867714D01*
X128019016Y-109886866D01*
X127952135Y-109866650D01*
X127907618Y-109815275D01*
X127880568Y-109757267D01*
X127880567Y-109757265D01*
X127750045Y-109570858D01*
X127589141Y-109409954D01*
X127402734Y-109279432D01*
X127402732Y-109279431D01*
X127196497Y-109183261D01*
X127196488Y-109183258D01*
X126976697Y-109124366D01*
X126976693Y-109124365D01*
X126976692Y-109124365D01*
X126976691Y-109124364D01*
X126976686Y-109124364D01*
X126750002Y-109104532D01*
X126749998Y-109104532D01*
X126523313Y-109124364D01*
X126523302Y-109124366D01*
X126303511Y-109183258D01*
X126303502Y-109183261D01*
X126097267Y-109279431D01*
X126097265Y-109279432D01*
X125910858Y-109409954D01*
X125749954Y-109570858D01*
X125619432Y-109757265D01*
X125619431Y-109757267D01*
X125592382Y-109815275D01*
X125546209Y-109867714D01*
X125479016Y-109886866D01*
X125412135Y-109866650D01*
X125367618Y-109815275D01*
X125340568Y-109757267D01*
X125340567Y-109757265D01*
X125210045Y-109570858D01*
X125049141Y-109409954D01*
X124862734Y-109279432D01*
X124862732Y-109279431D01*
X124656497Y-109183261D01*
X124656488Y-109183258D01*
X124436697Y-109124366D01*
X124436693Y-109124365D01*
X124436692Y-109124365D01*
X124436691Y-109124364D01*
X124436686Y-109124364D01*
X124210002Y-109104532D01*
X124209998Y-109104532D01*
X123983313Y-109124364D01*
X123983302Y-109124366D01*
X123763511Y-109183258D01*
X123763506Y-109183260D01*
X123696604Y-109214457D01*
X123627526Y-109224948D01*
X123563743Y-109196428D01*
X123525503Y-109137951D01*
X123520200Y-109102074D01*
X123520200Y-101413093D01*
X123520199Y-101413089D01*
X123496164Y-101292255D01*
X123496163Y-101292248D01*
X123449011Y-101178414D01*
X123449010Y-101178413D01*
X123449007Y-101178407D01*
X123380558Y-101075967D01*
X123380555Y-101075963D01*
X123290337Y-100985745D01*
X123290306Y-100985716D01*
X118016701Y-95712111D01*
X117983216Y-95650788D01*
X117988200Y-95581096D01*
X117992662Y-95570628D01*
X117999673Y-95556071D01*
X118057466Y-95436061D01*
X118097607Y-95260194D01*
X118097607Y-95079806D01*
X118057466Y-94903939D01*
X118052807Y-94894265D01*
X117979200Y-94741417D01*
X117979197Y-94741412D01*
X117964921Y-94723511D01*
X117894933Y-94635748D01*
X117396587Y-94137402D01*
X117363102Y-94076079D01*
X117368086Y-94006387D01*
X117409958Y-93950454D01*
X117471015Y-93926431D01*
X117497379Y-93923596D01*
X117632086Y-93873354D01*
X117632093Y-93873350D01*
X117747187Y-93787190D01*
X117747190Y-93787187D01*
X117833350Y-93672093D01*
X117833354Y-93672086D01*
X117883596Y-93537379D01*
X117883598Y-93537372D01*
X117889999Y-93477844D01*
X117890000Y-93477827D01*
X117890000Y-92880000D01*
X116905686Y-92880000D01*
X116910080Y-92875606D01*
X116962741Y-92784394D01*
X116990000Y-92682661D01*
X116990000Y-92577339D01*
X116962741Y-92475606D01*
X116910080Y-92384394D01*
X116905686Y-92380000D01*
X117890000Y-92380000D01*
X117890000Y-91782172D01*
X117889999Y-91782155D01*
X117883598Y-91722627D01*
X117883596Y-91722620D01*
X117833354Y-91587913D01*
X117833350Y-91587906D01*
X117747190Y-91472812D01*
X117747187Y-91472809D01*
X117632093Y-91386649D01*
X117632086Y-91386645D01*
X117497379Y-91336403D01*
X117497373Y-91336401D01*
X117471011Y-91333567D01*
X117406460Y-91306828D01*
X117366613Y-91249435D01*
X117364120Y-91179610D01*
X117396585Y-91122599D01*
X117894933Y-90624252D01*
X117979198Y-90518587D01*
X118057466Y-90356061D01*
X118097607Y-90180194D01*
X118097607Y-89999806D01*
X118057466Y-89823939D01*
X117979198Y-89661413D01*
X117894933Y-89555748D01*
X117124252Y-88785067D01*
X117018587Y-88700802D01*
X117018582Y-88700799D01*
X116856064Y-88622535D01*
X116856062Y-88622534D01*
X116856061Y-88622534D01*
X116800620Y-88609879D01*
X116680197Y-88582393D01*
X116680194Y-88582393D01*
X116499806Y-88582393D01*
X116499802Y-88582393D01*
X116323935Y-88622535D01*
X116323934Y-88622535D01*
X116161417Y-88700799D01*
X116161412Y-88700802D01*
X116055748Y-88785066D01*
X115285066Y-89555748D01*
X115200802Y-89661412D01*
X115200799Y-89661417D01*
X115122535Y-89823934D01*
X115122535Y-89823935D01*
X115082393Y-89999802D01*
X115082393Y-90180197D01*
X115122535Y-90356064D01*
X115122535Y-90356065D01*
X115200799Y-90518582D01*
X115200802Y-90518587D01*
X115285066Y-90624251D01*
X115783412Y-91122597D01*
X115816897Y-91183920D01*
X115811913Y-91253612D01*
X115770041Y-91309545D01*
X115708988Y-91333567D01*
X115682626Y-91336401D01*
X115682620Y-91336403D01*
X115547913Y-91386645D01*
X115547906Y-91386649D01*
X115432812Y-91472809D01*
X115432809Y-91472812D01*
X115346649Y-91587906D01*
X115346645Y-91587913D01*
X115296403Y-91722620D01*
X115296401Y-91722627D01*
X115290000Y-91782155D01*
X115290000Y-92380000D01*
X116274314Y-92380000D01*
X116269920Y-92384394D01*
X116217259Y-92475606D01*
X116190000Y-92577339D01*
X116190000Y-92682661D01*
X116217259Y-92784394D01*
X116269920Y-92875606D01*
X116274314Y-92880000D01*
X115290000Y-92880000D01*
X115290000Y-93477844D01*
X115296401Y-93537372D01*
X115296403Y-93537379D01*
X115346645Y-93672086D01*
X115346649Y-93672093D01*
X115432809Y-93787187D01*
X115432812Y-93787190D01*
X115547906Y-93873350D01*
X115547913Y-93873354D01*
X115682620Y-93923596D01*
X115682619Y-93923596D01*
X115708985Y-93926431D01*
X115773536Y-93953169D01*
X115813385Y-94010561D01*
X115815880Y-94080386D01*
X115783412Y-94137402D01*
X115285066Y-94635748D01*
X115200802Y-94741412D01*
X115200799Y-94741417D01*
X115122535Y-94903934D01*
X115122535Y-94903935D01*
X115082393Y-95079802D01*
X115082393Y-95260197D01*
X115122535Y-95436064D01*
X115122535Y-95436065D01*
X115200799Y-95598582D01*
X115200802Y-95598587D01*
X115285066Y-95704251D01*
X115964361Y-96383546D01*
X115997846Y-96444869D01*
X115992862Y-96514561D01*
X115950990Y-96570494D01*
X115938707Y-96578599D01*
X115937273Y-96579427D01*
X115750858Y-96709954D01*
X115589954Y-96870858D01*
X115459432Y-97057265D01*
X115459431Y-97057267D01*
X115363261Y-97263502D01*
X115363258Y-97263511D01*
X115304366Y-97483302D01*
X115304364Y-97483313D01*
X115284532Y-97709998D01*
X115284532Y-97710001D01*
X115304364Y-97936686D01*
X115304366Y-97936697D01*
X115363258Y-98156488D01*
X115363261Y-98156497D01*
X115459431Y-98362732D01*
X115459432Y-98362734D01*
X115589954Y-98549141D01*
X115750858Y-98710045D01*
X115750861Y-98710047D01*
X115937266Y-98840568D01*
X115995275Y-98867618D01*
X116047714Y-98913791D01*
X116066866Y-98980984D01*
X116046650Y-99047865D01*
X115995275Y-99092381D01*
X115978272Y-99100310D01*
X115937267Y-99119431D01*
X115937265Y-99119432D01*
X115750858Y-99249954D01*
X115589954Y-99410858D01*
X115459432Y-99597265D01*
X115459431Y-99597267D01*
X115363261Y-99803502D01*
X115363258Y-99803511D01*
X115304366Y-100023302D01*
X115304364Y-100023313D01*
X115284532Y-100249998D01*
X115284532Y-100250001D01*
X115304364Y-100476686D01*
X115304366Y-100476697D01*
X115363258Y-100696488D01*
X115363261Y-100696497D01*
X115459431Y-100902732D01*
X115459432Y-100902734D01*
X115589954Y-101089141D01*
X115750858Y-101250045D01*
X115750861Y-101250047D01*
X115937266Y-101380568D01*
X115995275Y-101407618D01*
X116047714Y-101453791D01*
X116066866Y-101520984D01*
X116046650Y-101587865D01*
X115995275Y-101632382D01*
X115937267Y-101659431D01*
X115937265Y-101659432D01*
X115750858Y-101789954D01*
X115589954Y-101950858D01*
X115459432Y-102137265D01*
X115459431Y-102137267D01*
X115363261Y-102343502D01*
X115363258Y-102343511D01*
X115304366Y-102563302D01*
X115304364Y-102563313D01*
X115284532Y-102789998D01*
X115284532Y-102790001D01*
X115304364Y-103016686D01*
X115304366Y-103016697D01*
X115363258Y-103236488D01*
X115363261Y-103236497D01*
X115459431Y-103442732D01*
X115459432Y-103442734D01*
X115589954Y-103629141D01*
X115750858Y-103790045D01*
X115750861Y-103790047D01*
X115937266Y-103920568D01*
X115995275Y-103947618D01*
X116047714Y-103993791D01*
X116066866Y-104060984D01*
X116046650Y-104127865D01*
X115995275Y-104172382D01*
X115937267Y-104199431D01*
X115937265Y-104199432D01*
X115750858Y-104329954D01*
X115589954Y-104490858D01*
X115459432Y-104677265D01*
X115459431Y-104677267D01*
X115363261Y-104883502D01*
X115363258Y-104883511D01*
X115304366Y-105103302D01*
X115304364Y-105103313D01*
X115284532Y-105329998D01*
X115284532Y-105330001D01*
X115304364Y-105556686D01*
X115304366Y-105556697D01*
X115363258Y-105776488D01*
X115363261Y-105776497D01*
X115459431Y-105982732D01*
X115459432Y-105982734D01*
X115589954Y-106169141D01*
X115750858Y-106330045D01*
X115750861Y-106330047D01*
X115937266Y-106460568D01*
X115995275Y-106487618D01*
X116047714Y-106533791D01*
X116066866Y-106600984D01*
X116046650Y-106667865D01*
X115995275Y-106712382D01*
X115937267Y-106739431D01*
X115937265Y-106739432D01*
X115750858Y-106869954D01*
X115589954Y-107030858D01*
X115459432Y-107217265D01*
X115459431Y-107217267D01*
X115363261Y-107423502D01*
X115363258Y-107423511D01*
X115304366Y-107643302D01*
X115304364Y-107643313D01*
X115284532Y-107869998D01*
X115284532Y-107870001D01*
X115304364Y-108096686D01*
X115304366Y-108096697D01*
X115363258Y-108316488D01*
X115363260Y-108316492D01*
X115363261Y-108316496D01*
X115410358Y-108417495D01*
X115420850Y-108486573D01*
X115392330Y-108550357D01*
X115333854Y-108588596D01*
X115297976Y-108593900D01*
X99718989Y-108593900D01*
X99658571Y-108605918D01*
X99620859Y-108613419D01*
X99598150Y-108617936D01*
X99598148Y-108617937D01*
X99564807Y-108631747D01*
X99484319Y-108665084D01*
X99484305Y-108665092D01*
X99381872Y-108733538D01*
X99381864Y-108733544D01*
X99294739Y-108820670D01*
X98307551Y-109807857D01*
X98246228Y-109841342D01*
X98179608Y-109837458D01*
X98113454Y-109814747D01*
X97912510Y-109781216D01*
X97872263Y-109774500D01*
X97627737Y-109774500D01*
X97579498Y-109782549D01*
X97386541Y-109814748D01*
X97155270Y-109894143D01*
X97155265Y-109894145D01*
X96940212Y-110010526D01*
X96940208Y-110010529D01*
X96747252Y-110160713D01*
X96747242Y-110160722D01*
X96581632Y-110340621D01*
X96447888Y-110545333D01*
X96349663Y-110769265D01*
X96289636Y-111006304D01*
X96289634Y-111006316D01*
X96269443Y-111249994D01*
X96269443Y-111250005D01*
X85710000Y-111250005D01*
X85710000Y-102405870D01*
X92241500Y-102405870D01*
X92241501Y-102405876D01*
X92247908Y-102465483D01*
X92298202Y-102600328D01*
X92298206Y-102600335D01*
X92384452Y-102715544D01*
X92384455Y-102715547D01*
X92499664Y-102801793D01*
X92499671Y-102801797D01*
X92634517Y-102852091D01*
X92634516Y-102852091D01*
X92641444Y-102852835D01*
X92694127Y-102858500D01*
X96005872Y-102858499D01*
X96065483Y-102852091D01*
X96200331Y-102801796D01*
X96315546Y-102715546D01*
X96401796Y-102600331D01*
X96452091Y-102465483D01*
X96458500Y-102405873D01*
X96458500Y-102405870D01*
X109041500Y-102405870D01*
X109041501Y-102405876D01*
X109047908Y-102465483D01*
X109098202Y-102600328D01*
X109098206Y-102600335D01*
X109184452Y-102715544D01*
X109184455Y-102715547D01*
X109299664Y-102801793D01*
X109299671Y-102801797D01*
X109434517Y-102852091D01*
X109434516Y-102852091D01*
X109441444Y-102852835D01*
X109494127Y-102858500D01*
X112805872Y-102858499D01*
X112865483Y-102852091D01*
X113000331Y-102801796D01*
X113115546Y-102715546D01*
X113201796Y-102600331D01*
X113252091Y-102465483D01*
X113258500Y-102405873D01*
X113258499Y-99094128D01*
X113252091Y-99034517D01*
X113231757Y-98980000D01*
X113201797Y-98899671D01*
X113201793Y-98899664D01*
X113115547Y-98784455D01*
X113115544Y-98784452D01*
X113000335Y-98698206D01*
X113000328Y-98698202D01*
X112865482Y-98647908D01*
X112865483Y-98647908D01*
X112805883Y-98641501D01*
X112805881Y-98641500D01*
X112805873Y-98641500D01*
X112805864Y-98641500D01*
X109494129Y-98641500D01*
X109494123Y-98641501D01*
X109434516Y-98647908D01*
X109299671Y-98698202D01*
X109299664Y-98698206D01*
X109184455Y-98784452D01*
X109184452Y-98784455D01*
X109098206Y-98899664D01*
X109098202Y-98899671D01*
X109047908Y-99034517D01*
X109041501Y-99094116D01*
X109041501Y-99094123D01*
X109041500Y-99094135D01*
X109041500Y-102405870D01*
X96458500Y-102405870D01*
X96458499Y-99094128D01*
X96452091Y-99034517D01*
X96431757Y-98980000D01*
X96401797Y-98899671D01*
X96401793Y-98899664D01*
X96315547Y-98784455D01*
X96315544Y-98784452D01*
X96200335Y-98698206D01*
X96200328Y-98698202D01*
X96065482Y-98647908D01*
X96065483Y-98647908D01*
X96005883Y-98641501D01*
X96005881Y-98641500D01*
X96005873Y-98641500D01*
X96005864Y-98641500D01*
X92694129Y-98641500D01*
X92694123Y-98641501D01*
X92634516Y-98647908D01*
X92499671Y-98698202D01*
X92499664Y-98698206D01*
X92384455Y-98784452D01*
X92384452Y-98784455D01*
X92298206Y-98899664D01*
X92298202Y-98899671D01*
X92247908Y-99034517D01*
X92241501Y-99094116D01*
X92241501Y-99094123D01*
X92241500Y-99094135D01*
X92241500Y-102405870D01*
X85710000Y-102405870D01*
X85710000Y-93621288D01*
X89859500Y-93621288D01*
X89889610Y-93850005D01*
X89891162Y-93861789D01*
X89901401Y-93900000D01*
X89953947Y-94096104D01*
X90046773Y-94320205D01*
X90046776Y-94320212D01*
X90168064Y-94530289D01*
X90168066Y-94530292D01*
X90168067Y-94530293D01*
X90315733Y-94722736D01*
X90315739Y-94722743D01*
X90487256Y-94894260D01*
X90487262Y-94894265D01*
X90679711Y-95041936D01*
X90889788Y-95163224D01*
X91113900Y-95256054D01*
X91348211Y-95318838D01*
X91528586Y-95342584D01*
X91588711Y-95350500D01*
X91588712Y-95350500D01*
X91831289Y-95350500D01*
X91879388Y-95344167D01*
X92071789Y-95318838D01*
X92306100Y-95256054D01*
X92530212Y-95163224D01*
X92740289Y-95041936D01*
X92932738Y-94894265D01*
X93104265Y-94722738D01*
X93251936Y-94530289D01*
X93373224Y-94320212D01*
X93466054Y-94096100D01*
X93528838Y-93861789D01*
X93530389Y-93850005D01*
X98769945Y-93850005D01*
X98790130Y-94093605D01*
X98850138Y-94330573D01*
X98948330Y-94554429D01*
X99044626Y-94701819D01*
X99648958Y-94097487D01*
X99673978Y-94157890D01*
X99745112Y-94264351D01*
X99835649Y-94354888D01*
X99942110Y-94426022D01*
X100002511Y-94451041D01*
X99397758Y-95055794D01*
X99397758Y-95055796D01*
X99440478Y-95089046D01*
X99440484Y-95089050D01*
X99655468Y-95205394D01*
X99655476Y-95205397D01*
X99886664Y-95284765D01*
X100127779Y-95325000D01*
X100372221Y-95325000D01*
X100613335Y-95284765D01*
X100844523Y-95205397D01*
X100844531Y-95205394D01*
X101059514Y-95089051D01*
X101059514Y-95089050D01*
X101102240Y-95055795D01*
X101102240Y-95055794D01*
X100497488Y-94451041D01*
X100557890Y-94426022D01*
X100664351Y-94354888D01*
X100754888Y-94264351D01*
X100826022Y-94157890D01*
X100851041Y-94097488D01*
X101455372Y-94701819D01*
X101551667Y-94554431D01*
X101551672Y-94554423D01*
X101649861Y-94330573D01*
X101709869Y-94093605D01*
X101730055Y-93850005D01*
X101730055Y-93849994D01*
X101721769Y-93750005D01*
X103769443Y-93750005D01*
X103789634Y-93993683D01*
X103789636Y-93993695D01*
X103849663Y-94230734D01*
X103947888Y-94454666D01*
X104081632Y-94659378D01*
X104247242Y-94839277D01*
X104247252Y-94839286D01*
X104380899Y-94943308D01*
X104440212Y-94989473D01*
X104655267Y-95105855D01*
X104655270Y-95105856D01*
X104886541Y-95185251D01*
X104886543Y-95185251D01*
X104886545Y-95185252D01*
X105127737Y-95225500D01*
X105127738Y-95225500D01*
X105372262Y-95225500D01*
X105372263Y-95225500D01*
X105613455Y-95185252D01*
X105844733Y-95105855D01*
X106059788Y-94989473D01*
X106252754Y-94839281D01*
X106418368Y-94659377D01*
X106552111Y-94454667D01*
X106650336Y-94230736D01*
X106710364Y-93993692D01*
X106715084Y-93936736D01*
X106730557Y-93750005D01*
X106730557Y-93749994D01*
X106710365Y-93506316D01*
X106710363Y-93506304D01*
X106676465Y-93372444D01*
X106650336Y-93269264D01*
X106552111Y-93045333D01*
X106492823Y-92954586D01*
X106418367Y-92840621D01*
X106252757Y-92660722D01*
X106252747Y-92660713D01*
X106059791Y-92510529D01*
X106059787Y-92510526D01*
X105844734Y-92394145D01*
X105844729Y-92394143D01*
X105613458Y-92314748D01*
X105432561Y-92284562D01*
X105372263Y-92274500D01*
X105127737Y-92274500D01*
X105079498Y-92282549D01*
X104886541Y-92314748D01*
X104655270Y-92394143D01*
X104655265Y-92394145D01*
X104440212Y-92510526D01*
X104440208Y-92510529D01*
X104247252Y-92660713D01*
X104247242Y-92660722D01*
X104081632Y-92840621D01*
X103947888Y-93045333D01*
X103849663Y-93269265D01*
X103789636Y-93506304D01*
X103789634Y-93506316D01*
X103769443Y-93749994D01*
X103769443Y-93750005D01*
X101721769Y-93750005D01*
X101709869Y-93606394D01*
X101649861Y-93369426D01*
X101551669Y-93145570D01*
X101455372Y-92998179D01*
X100851041Y-93602510D01*
X100826022Y-93542110D01*
X100754888Y-93435649D01*
X100664351Y-93345112D01*
X100557890Y-93273978D01*
X100497487Y-93248958D01*
X101102240Y-92644204D01*
X101102240Y-92644203D01*
X101059514Y-92610949D01*
X100844531Y-92494605D01*
X100844523Y-92494602D01*
X100613335Y-92415234D01*
X100372221Y-92375000D01*
X100127779Y-92375000D01*
X99886664Y-92415234D01*
X99655476Y-92494602D01*
X99655468Y-92494605D01*
X99440481Y-92610951D01*
X99397758Y-92644202D01*
X99397757Y-92644204D01*
X100002511Y-93248958D01*
X99942110Y-93273978D01*
X99835649Y-93345112D01*
X99745112Y-93435649D01*
X99673978Y-93542110D01*
X99648958Y-93602511D01*
X99044626Y-92998179D01*
X98948328Y-93145575D01*
X98850138Y-93369426D01*
X98790130Y-93606394D01*
X98769945Y-93849994D01*
X98769945Y-93850005D01*
X93530389Y-93850005D01*
X93560500Y-93621288D01*
X93560500Y-93378712D01*
X93559277Y-93369426D01*
X93540261Y-93224979D01*
X93528838Y-93138211D01*
X93466054Y-92903900D01*
X93373224Y-92679788D01*
X93251936Y-92469711D01*
X93135984Y-92318599D01*
X93104266Y-92277263D01*
X93104260Y-92277256D01*
X92932743Y-92105739D01*
X92932736Y-92105733D01*
X92740293Y-91958067D01*
X92740292Y-91958066D01*
X92740289Y-91958064D01*
X92530212Y-91836776D01*
X92530205Y-91836773D01*
X92306104Y-91743947D01*
X92071785Y-91681161D01*
X91831289Y-91649500D01*
X91831288Y-91649500D01*
X91588712Y-91649500D01*
X91588711Y-91649500D01*
X91348214Y-91681161D01*
X91113895Y-91743947D01*
X90889794Y-91836773D01*
X90889785Y-91836777D01*
X90679706Y-91958067D01*
X90487263Y-92105733D01*
X90487256Y-92105739D01*
X90315739Y-92277256D01*
X90315733Y-92277263D01*
X90168067Y-92469706D01*
X90046777Y-92679785D01*
X90046773Y-92679794D01*
X89953947Y-92903895D01*
X89891161Y-93138214D01*
X89859500Y-93378711D01*
X89859500Y-93621288D01*
X85710000Y-93621288D01*
X85710000Y-87624000D01*
X85729685Y-87556961D01*
X85782489Y-87511206D01*
X85834000Y-87500000D01*
X184576000Y-87500000D01*
X184643039Y-87519685D01*
G37*
G04 #@! TD.AperFunction*
M02*
