G04 #@! TF.GenerationSoftware,KiCad,Pcbnew,7.0.8*
G04 #@! TF.CreationDate,2023-11-04T04:32:00-07:00*
G04 #@! TF.ProjectId,picovoltexv2,7069636f-766f-46c7-9465-7876322e6b69,rev?*
G04 #@! TF.SameCoordinates,Original*
G04 #@! TF.FileFunction,Paste,Top*
G04 #@! TF.FilePolarity,Positive*
%FSLAX46Y46*%
G04 Gerber Fmt 4.6, Leading zero omitted, Abs format (unit mm)*
G04 Created by KiCad (PCBNEW 7.0.8) date 2023-11-04 04:32:00*
%MOMM*%
%LPD*%
G01*
G04 APERTURE LIST*
G04 Aperture macros list*
%AMRoundRect*
0 Rectangle with rounded corners*
0 $1 Rounding radius*
0 $2 $3 $4 $5 $6 $7 $8 $9 X,Y pos of 4 corners*
0 Add a 4 corners polygon primitive as box body*
4,1,4,$2,$3,$4,$5,$6,$7,$8,$9,$2,$3,0*
0 Add four circle primitives for the rounded corners*
1,1,$1+$1,$2,$3*
1,1,$1+$1,$4,$5*
1,1,$1+$1,$6,$7*
1,1,$1+$1,$8,$9*
0 Add four rect primitives between the rounded corners*
20,1,$1+$1,$2,$3,$4,$5,0*
20,1,$1+$1,$4,$5,$6,$7,0*
20,1,$1+$1,$6,$7,$8,$9,0*
20,1,$1+$1,$8,$9,$2,$3,0*%
G04 Aperture macros list end*
%ADD10R,0.900000X1.500000*%
%ADD11R,1.500000X0.900000*%
%ADD12RoundRect,0.200000X-0.200000X-0.275000X0.200000X-0.275000X0.200000X0.275000X-0.200000X0.275000X0*%
%ADD13RoundRect,0.200000X0.200000X0.275000X-0.200000X0.275000X-0.200000X-0.275000X0.200000X-0.275000X0*%
%ADD14R,1.500000X2.600000*%
%ADD15R,1.400000X1.650000*%
%ADD16RoundRect,0.225000X0.225000X0.250000X-0.225000X0.250000X-0.225000X-0.250000X0.225000X-0.250000X0*%
%ADD17RoundRect,0.225000X-0.225000X-0.250000X0.225000X-0.250000X0.225000X0.250000X-0.225000X0.250000X0*%
G04 APERTURE END LIST*
D10*
X46250000Y-60870000D03*
X49550000Y-60870000D03*
X49550000Y-55970000D03*
X46250000Y-55970000D03*
X46250000Y-86270000D03*
X49550000Y-86270000D03*
X49550000Y-81370000D03*
X46250000Y-81370000D03*
X46250000Y-111670000D03*
X49550000Y-111670000D03*
X49550000Y-106770000D03*
X46250000Y-106770000D03*
X46250000Y-137070000D03*
X49550000Y-137070000D03*
X49550000Y-132170000D03*
X46250000Y-132170000D03*
D11*
X154850000Y-154170000D03*
X154850000Y-150870000D03*
X149950000Y-150870000D03*
X149950000Y-154170000D03*
D10*
X258550000Y-132170000D03*
X255250000Y-132170000D03*
X255250000Y-137070000D03*
X258550000Y-137070000D03*
X258550000Y-106770000D03*
X255250000Y-106770000D03*
X255250000Y-111670000D03*
X258550000Y-111670000D03*
X258550000Y-81370000D03*
X255250000Y-81370000D03*
X255250000Y-86270000D03*
X258550000Y-86270000D03*
X258550000Y-55970000D03*
X255250000Y-55970000D03*
X255250000Y-60870000D03*
X258550000Y-60870000D03*
D11*
X149950000Y-38870000D03*
X149950000Y-42170000D03*
X154850000Y-42170000D03*
X154850000Y-38870000D03*
D12*
X94375000Y-113020000D03*
X96025000Y-113020000D03*
D13*
X153570000Y-65720000D03*
X151920000Y-65720000D03*
X172545000Y-113820000D03*
X170895000Y-113820000D03*
D14*
X188900000Y-149600000D03*
X191900000Y-149600000D03*
D15*
X54400000Y-45445000D03*
X54400000Y-39595000D03*
X57400000Y-45445000D03*
X57400000Y-39595000D03*
D16*
X232450000Y-79120000D03*
X230900000Y-79120000D03*
D14*
X169900000Y-106600000D03*
X172900000Y-106600000D03*
X112900000Y-149600000D03*
X115900000Y-149600000D03*
D16*
X76175000Y-70820000D03*
X74625000Y-70820000D03*
D13*
X115470000Y-132020000D03*
X113820000Y-132020000D03*
X134345000Y-113620000D03*
X132695000Y-113620000D03*
D14*
X150900000Y-58600000D03*
X153900000Y-58600000D03*
D15*
X60370000Y-45445000D03*
X60370000Y-39595000D03*
X63370000Y-45445000D03*
X63370000Y-39595000D03*
D13*
X191245000Y-132520000D03*
X189595000Y-132520000D03*
D15*
X66340000Y-45445000D03*
X66340000Y-39595000D03*
X69340000Y-45445000D03*
X69340000Y-39595000D03*
D13*
X210325000Y-114520000D03*
X208675000Y-114520000D03*
D16*
X232375000Y-76620000D03*
X230825000Y-76620000D03*
D14*
X131900000Y-106600000D03*
X134900000Y-106600000D03*
D17*
X74625000Y-68020000D03*
X76175000Y-68020000D03*
D14*
X207900000Y-106600000D03*
X210900000Y-106600000D03*
X93900000Y-106600000D03*
X96900000Y-106600000D03*
M02*
