G04 #@! TF.GenerationSoftware,KiCad,Pcbnew,7.0.8*
G04 #@! TF.CreationDate,2023-11-04T04:32:00-07:00*
G04 #@! TF.ProjectId,picovoltexv2,7069636f-766f-46c7-9465-7876322e6b69,rev?*
G04 #@! TF.SameCoordinates,Original*
G04 #@! TF.FileFunction,Copper,L2,Bot*
G04 #@! TF.FilePolarity,Positive*
%FSLAX46Y46*%
G04 Gerber Fmt 4.6, Leading zero omitted, Abs format (unit mm)*
G04 Created by KiCad (PCBNEW 7.0.8) date 2023-11-04 04:32:00*
%MOMM*%
%LPD*%
G01*
G04 APERTURE LIST*
G04 #@! TA.AperFunction,ComponentPad*
%ADD10C,1.800000*%
G04 #@! TD*
G04 #@! TA.AperFunction,ComponentPad*
%ADD11C,4.350000*%
G04 #@! TD*
G04 #@! TA.AperFunction,SMDPad,CuDef*
%ADD12R,2.550000X2.500000*%
G04 #@! TD*
G04 #@! TA.AperFunction,ComponentPad*
%ADD13O,1.700000X1.700000*%
G04 #@! TD*
G04 #@! TA.AperFunction,ComponentPad*
%ADD14R,1.700000X1.700000*%
G04 #@! TD*
G04 #@! TA.AperFunction,ViaPad*
%ADD15C,0.800000*%
G04 #@! TD*
G04 #@! TA.AperFunction,Conductor*
%ADD16C,0.250000*%
G04 #@! TD*
G04 APERTURE END LIST*
D10*
X56900000Y-69320000D03*
X61900000Y-69320000D03*
X66900000Y-69320000D03*
D11*
X54950000Y-58820000D03*
X68850000Y-58820000D03*
D12*
X183315000Y-141980000D03*
X196242000Y-139440000D03*
D10*
X237900000Y-69320000D03*
X242900000Y-69320000D03*
X247900000Y-69320000D03*
D11*
X235950000Y-58820000D03*
X249850000Y-58820000D03*
D12*
X164315000Y-98980000D03*
X177242000Y-96440000D03*
X107315000Y-141980000D03*
X120242000Y-139440000D03*
D13*
X94010000Y-38445000D03*
X94010000Y-40985000D03*
D14*
X94010000Y-43525000D03*
D13*
X94010000Y-46065000D03*
X94010000Y-48605000D03*
X94010000Y-51145000D03*
X94010000Y-53685000D03*
D14*
X94010000Y-56225000D03*
D13*
X94010000Y-58765000D03*
X94010000Y-61305000D03*
X94010000Y-63845000D03*
X94010000Y-66385000D03*
D14*
X94010000Y-68925000D03*
D13*
X94010000Y-71465000D03*
X94010000Y-74005000D03*
X94010000Y-76545000D03*
X94010000Y-79085000D03*
D14*
X94010000Y-81625000D03*
D13*
X94010000Y-84165000D03*
X94010000Y-86705000D03*
X111790000Y-86705000D03*
X111790000Y-84165000D03*
D14*
X111790000Y-81625000D03*
D13*
X111790000Y-79085000D03*
X111790000Y-76545000D03*
X111790000Y-74005000D03*
X111790000Y-71465000D03*
D14*
X111790000Y-68925000D03*
D13*
X111790000Y-66385000D03*
X111790000Y-63845000D03*
X111790000Y-61305000D03*
X111790000Y-58765000D03*
D14*
X111790000Y-56225000D03*
D13*
X111790000Y-53685000D03*
X111790000Y-51145000D03*
X111790000Y-48605000D03*
X111790000Y-46065000D03*
D14*
X111790000Y-43525000D03*
D13*
X111790000Y-40985000D03*
X111790000Y-38445000D03*
X100360000Y-86475000D03*
D14*
X102900000Y-86475000D03*
D13*
X105440000Y-86475000D03*
D12*
X145315000Y-50980000D03*
X158242000Y-48440000D03*
X126315000Y-98980000D03*
X139242000Y-96440000D03*
X202315000Y-98980000D03*
X215242000Y-96440000D03*
X88315000Y-98980000D03*
X101242000Y-96440000D03*
D15*
X144824900Y-84437700D03*
X91615400Y-93840500D03*
X112492600Y-132020000D03*
X132550700Y-112530600D03*
X149929800Y-92641200D03*
X117734000Y-150870000D03*
X173140300Y-104689400D03*
X157058500Y-50295900D03*
X192199600Y-147697500D03*
X212877200Y-102994600D03*
D16*
X94375800Y-39621900D02*
X94010000Y-39621900D01*
X95205500Y-40451600D02*
X94375800Y-39621900D01*
X95205500Y-41522400D02*
X95205500Y-40451600D01*
X94472800Y-42255100D02*
X95205500Y-41522400D01*
X93117600Y-42255100D02*
X94472800Y-42255100D01*
X67279600Y-68093100D02*
X93117600Y-42255100D01*
X63126900Y-68093100D02*
X67279600Y-68093100D01*
X61900000Y-69320000D02*
X63126900Y-68093100D01*
X94010000Y-38445000D02*
X94010000Y-39621900D01*
X144552200Y-84165000D02*
X144824900Y-84437700D01*
X111790000Y-84165000D02*
X144552200Y-84165000D01*
X91615400Y-51808700D02*
X91615400Y-93840500D01*
X93642200Y-49781900D02*
X91615400Y-51808700D01*
X94010000Y-49781900D02*
X93642200Y-49781900D01*
X94010000Y-48605000D02*
X94010000Y-49781900D01*
X59473700Y-66746300D02*
X56900000Y-69320000D01*
X67071800Y-66746300D02*
X59473700Y-66746300D01*
X92833100Y-40985000D02*
X67071800Y-66746300D01*
X94010000Y-40985000D02*
X92833100Y-40985000D01*
X98928600Y-118456000D02*
X112492600Y-132020000D01*
X98928600Y-100661900D02*
X98928600Y-118456000D01*
X92829300Y-94562600D02*
X98928600Y-100661900D01*
X92829300Y-63357300D02*
X92829300Y-94562600D01*
X93704700Y-62481900D02*
X92829300Y-63357300D01*
X94010000Y-62481900D02*
X93704700Y-62481900D01*
X94010000Y-61305000D02*
X94010000Y-62481900D01*
X94010000Y-53685000D02*
X94010000Y-54861900D01*
X94819100Y-54861900D02*
X94010000Y-54861900D01*
X101608700Y-61651500D02*
X94819100Y-54861900D01*
X101608700Y-80979300D02*
X101608700Y-61651500D01*
X132550700Y-111921300D02*
X101608700Y-80979300D01*
X132550700Y-112530600D02*
X132550700Y-111921300D01*
X159278200Y-141980000D02*
X183315000Y-141980000D01*
X104169900Y-86871700D02*
X159278200Y-141980000D01*
X104169900Y-85075500D02*
X104169900Y-86871700D01*
X101054200Y-81959800D02*
X104169900Y-85075500D01*
X101054200Y-71698300D02*
X101054200Y-81959800D01*
X94377800Y-65021900D02*
X101054200Y-71698300D01*
X94010000Y-65021900D02*
X94377800Y-65021900D01*
X94010000Y-63845000D02*
X94010000Y-65021900D01*
X94010000Y-58765000D02*
X94010000Y-59941900D01*
X107315000Y-141980000D02*
X107315000Y-140403100D01*
X93642200Y-59941900D02*
X94010000Y-59941900D01*
X92377400Y-61206700D02*
X93642200Y-59941900D01*
X92377400Y-94849100D02*
X92377400Y-61206700D01*
X98447800Y-100919500D02*
X92377400Y-94849100D01*
X98447800Y-131535900D02*
X98447800Y-100919500D01*
X107315000Y-140403100D02*
X98447800Y-131535900D01*
X191616900Y-86705000D02*
X202315000Y-97403100D01*
X111790000Y-86705000D02*
X191616900Y-86705000D01*
X202315000Y-98980000D02*
X202315000Y-97403100D01*
X164315000Y-98980000D02*
X164315000Y-97403100D01*
X159553100Y-92641200D02*
X164315000Y-97403100D01*
X149929800Y-92641200D02*
X159553100Y-92641200D01*
X94010000Y-51145000D02*
X94010000Y-52321900D01*
X121757500Y-98980000D02*
X126315000Y-98980000D01*
X109890400Y-87112900D02*
X121757500Y-98980000D01*
X109890400Y-67829800D02*
X109890400Y-87112900D01*
X94382500Y-52321900D02*
X109890400Y-67829800D01*
X94010000Y-52321900D02*
X94382500Y-52321900D01*
X88315000Y-52569100D02*
X88315000Y-98980000D01*
X93642200Y-47241900D02*
X88315000Y-52569100D01*
X94010000Y-47241900D02*
X93642200Y-47241900D01*
X94010000Y-46065000D02*
X94010000Y-47241900D01*
X111422100Y-70101900D02*
X111790000Y-70101900D01*
X110613100Y-70910900D02*
X111422100Y-70101900D01*
X110613100Y-79639000D02*
X110613100Y-70910900D01*
X111422200Y-80448100D02*
X110613100Y-79639000D01*
X111790000Y-80448100D02*
X111422200Y-80448100D01*
X111790000Y-68925000D02*
X111790000Y-70101900D01*
X120996000Y-147608000D02*
X117734000Y-150870000D01*
X120996000Y-141770900D02*
X120996000Y-147608000D01*
X120242000Y-141016900D02*
X120996000Y-141770900D01*
X120242000Y-139440000D02*
X120242000Y-141016900D01*
X157337500Y-50016900D02*
X157058500Y-50295900D01*
X158242000Y-50016900D02*
X157337500Y-50016900D01*
X158242000Y-48440000D02*
X158242000Y-50016900D01*
X177242000Y-96440000D02*
X177242000Y-98016900D01*
X95186900Y-88808000D02*
X101242000Y-94863100D01*
X95186900Y-83610900D02*
X95186900Y-88808000D01*
X94377900Y-82801900D02*
X95186900Y-83610900D01*
X94010000Y-82801900D02*
X94377900Y-82801900D01*
X94010000Y-81625000D02*
X94010000Y-82801900D01*
X101242000Y-96440000D02*
X101242000Y-94863100D01*
X111790000Y-81625000D02*
X111790000Y-81036500D01*
X111790000Y-81036500D02*
X111790000Y-80448100D01*
X137754000Y-93375100D02*
X139242000Y-94863100D01*
X116795700Y-93375100D02*
X137754000Y-93375100D01*
X110550400Y-87129800D02*
X116795700Y-93375100D01*
X110550400Y-82276100D02*
X110550400Y-87129800D01*
X111790000Y-81036500D02*
X110550400Y-82276100D01*
X139242000Y-96440000D02*
X139242000Y-94863100D01*
X174340100Y-103489600D02*
X173140300Y-104689400D01*
X174340100Y-100918800D02*
X174340100Y-103489600D01*
X177242000Y-98016900D02*
X174340100Y-100918800D01*
X145914500Y-104689400D02*
X139242000Y-98016900D01*
X173140300Y-104689400D02*
X145914500Y-104689400D01*
X139242000Y-96440000D02*
X139242000Y-98016900D01*
X196242000Y-139440000D02*
X196242000Y-141016900D01*
X194026900Y-145870200D02*
X192199600Y-147697500D01*
X194026900Y-143232000D02*
X194026900Y-145870200D01*
X196242000Y-141016900D02*
X194026900Y-143232000D01*
X215242000Y-96440000D02*
X215242000Y-98016900D01*
X177242000Y-98016900D02*
X196242000Y-117016900D01*
X196242000Y-117016900D02*
X196242000Y-139440000D01*
X212877200Y-100381700D02*
X212877200Y-102994600D01*
X215242000Y-98016900D02*
X212877200Y-100381700D01*
X198854900Y-117016900D02*
X212877200Y-102994600D01*
X196242000Y-117016900D02*
X198854900Y-117016900D01*
X141071900Y-50980000D02*
X145315000Y-50980000D01*
X112966900Y-79085000D02*
X141071900Y-50980000D01*
X111790000Y-79085000D02*
X112966900Y-79085000D01*
M02*
