M48
; DRILL file {KiCad 7.0.8} date Sat 04 Nov 2023 04:32:07 AM PDT
; FORMAT={-:-/ absolute / metric / decimal}
; #@! TF.CreationDate,2023-11-04T04:32:07-07:00
; #@! TF.GenerationSoftware,Kicad,Pcbnew,7.0.8
; #@! TF.FileFunction,Plated,1,2,PTH
FMAT,2
METRIC
; #@! TA.AperFunction,Plated,PTH,ViaDrill
T1C0.400
; #@! TA.AperFunction,Plated,PTH,ComponentDrill
T2C1.020
; #@! TA.AperFunction,Plated,PTH,ComponentDrill
T3C1.200
; #@! TA.AperFunction,Plated,PTH,ComponentDrill
T4C2.900
%
G90
G05
T1
X91.615Y-93.84
X112.493Y-132.02
X117.734Y-150.87
X132.551Y-112.531
X144.825Y-84.438
X149.93Y-92.641
X157.058Y-50.296
X173.14Y-104.689
X192.2Y-147.697
X212.877Y-102.995
T2
X94.01Y-38.445
X94.01Y-40.985
X94.01Y-43.525
X94.01Y-46.065
X94.01Y-48.605
X94.01Y-51.145
X94.01Y-53.685
X94.01Y-56.225
X94.01Y-58.765
X94.01Y-61.305
X94.01Y-63.845
X94.01Y-66.385
X94.01Y-68.925
X94.01Y-71.465
X94.01Y-74.005
X94.01Y-76.545
X94.01Y-79.085
X94.01Y-81.625
X94.01Y-84.165
X94.01Y-86.705
X100.36Y-86.475
X102.9Y-86.475
X105.44Y-86.475
X111.79Y-38.445
X111.79Y-40.985
X111.79Y-43.525
X111.79Y-46.065
X111.79Y-48.605
X111.79Y-51.145
X111.79Y-53.685
X111.79Y-56.225
X111.79Y-58.765
X111.79Y-61.305
X111.79Y-63.845
X111.79Y-66.385
X111.79Y-68.925
X111.79Y-71.465
X111.79Y-74.005
X111.79Y-76.545
X111.79Y-79.085
X111.79Y-81.625
X111.79Y-84.165
X111.79Y-86.705
T3
X56.9Y-69.32
X61.9Y-69.32
X66.9Y-69.32
X237.9Y-69.32
X242.9Y-69.32
X247.9Y-69.32
T4
X54.95Y-58.82
X68.85Y-58.82
X235.95Y-58.82
X249.85Y-58.82
T0
M30
