%TF.GenerationSoftware,KiCad,Pcbnew,7.0.8*%
%TF.CreationDate,2023-11-04T04:32:08-07:00*%
%TF.ProjectId,picovoltexv2,7069636f-766f-46c7-9465-7876322e6b69,rev?*%
%TF.SameCoordinates,Original*%
%TF.FileFunction,Drillmap*%
%TF.FilePolarity,Positive*%
%FSLAX45Y45*%
G04 Gerber Fmt 4.5, Leading zero omitted, Abs format (unit mm)*
G04 Created by KiCad (PCBNEW 7.0.8) date 2023-11-04 04:32:08*
%MOMM*%
%LPD*%
G01*
G04 APERTURE LIST*
%ADD10C,0.100000*%
%ADD11C,0.200000*%
%ADD12C,0.040000*%
%ADD13C,0.102000*%
%ADD14C,0.120000*%
%ADD15C,0.290000*%
G04 APERTURE END LIST*
D10*
X3990000Y-3652000D02*
X26490000Y-3652000D01*
X26490000Y-15652000D01*
X3990000Y-15652000D01*
X3990000Y-3652000D01*
D11*
D12*
X9141540Y-9364050D02*
X9181540Y-9404050D01*
X9181540Y-9364050D02*
X9141540Y-9404050D01*
X11229260Y-13182000D02*
X11269260Y-13222000D01*
X11269260Y-13182000D02*
X11229260Y-13222000D01*
X11753400Y-15067000D02*
X11793400Y-15107000D01*
X11793400Y-15067000D02*
X11753400Y-15107000D01*
X13235070Y-11233060D02*
X13275070Y-11273060D01*
X13275070Y-11233060D02*
X13235070Y-11273060D01*
X14462490Y-8423770D02*
X14502490Y-8463770D01*
X14502490Y-8423770D02*
X14462490Y-8463770D01*
X14972980Y-9244120D02*
X15012980Y-9284120D01*
X15012980Y-9244120D02*
X14972980Y-9284120D01*
X15685850Y-5009590D02*
X15725850Y-5049590D01*
X15725850Y-5009590D02*
X15685850Y-5049590D01*
X17294030Y-10448940D02*
X17334030Y-10488940D01*
X17334030Y-10448940D02*
X17294030Y-10488940D01*
X19199960Y-14749750D02*
X19239960Y-14789750D01*
X19239960Y-14749750D02*
X19199960Y-14789750D01*
X21267720Y-10279460D02*
X21307720Y-10319460D01*
X21307720Y-10279460D02*
X21267720Y-10319460D01*
D13*
X9452000Y-3844500D02*
G75*
G03*
X9452000Y-3844500I-51000J0D01*
G01*
X9452000Y-4098500D02*
G75*
G03*
X9452000Y-4098500I-51000J0D01*
G01*
X9452000Y-4352500D02*
G75*
G03*
X9452000Y-4352500I-51000J0D01*
G01*
X9452000Y-4606500D02*
G75*
G03*
X9452000Y-4606500I-51000J0D01*
G01*
X9452000Y-4860500D02*
G75*
G03*
X9452000Y-4860500I-51000J0D01*
G01*
X9452000Y-5114500D02*
G75*
G03*
X9452000Y-5114500I-51000J0D01*
G01*
X9452000Y-5368500D02*
G75*
G03*
X9452000Y-5368500I-51000J0D01*
G01*
X9452000Y-5622500D02*
G75*
G03*
X9452000Y-5622500I-51000J0D01*
G01*
X9452000Y-5876500D02*
G75*
G03*
X9452000Y-5876500I-51000J0D01*
G01*
X9452000Y-6130500D02*
G75*
G03*
X9452000Y-6130500I-51000J0D01*
G01*
X9452000Y-6384500D02*
G75*
G03*
X9452000Y-6384500I-51000J0D01*
G01*
X9452000Y-6638500D02*
G75*
G03*
X9452000Y-6638500I-51000J0D01*
G01*
X9452000Y-6892500D02*
G75*
G03*
X9452000Y-6892500I-51000J0D01*
G01*
X9452000Y-7146500D02*
G75*
G03*
X9452000Y-7146500I-51000J0D01*
G01*
X9452000Y-7400500D02*
G75*
G03*
X9452000Y-7400500I-51000J0D01*
G01*
X9452000Y-7654500D02*
G75*
G03*
X9452000Y-7654500I-51000J0D01*
G01*
X9452000Y-7908500D02*
G75*
G03*
X9452000Y-7908500I-51000J0D01*
G01*
X9452000Y-8162500D02*
G75*
G03*
X9452000Y-8162500I-51000J0D01*
G01*
X9452000Y-8416500D02*
G75*
G03*
X9452000Y-8416500I-51000J0D01*
G01*
X9452000Y-8670500D02*
G75*
G03*
X9452000Y-8670500I-51000J0D01*
G01*
X10087000Y-8647500D02*
G75*
G03*
X10087000Y-8647500I-51000J0D01*
G01*
X10341000Y-8647500D02*
G75*
G03*
X10341000Y-8647500I-51000J0D01*
G01*
X10595000Y-8647500D02*
G75*
G03*
X10595000Y-8647500I-51000J0D01*
G01*
X11230000Y-3844500D02*
G75*
G03*
X11230000Y-3844500I-51000J0D01*
G01*
X11230000Y-4098500D02*
G75*
G03*
X11230000Y-4098500I-51000J0D01*
G01*
X11230000Y-4352500D02*
G75*
G03*
X11230000Y-4352500I-51000J0D01*
G01*
X11230000Y-4606500D02*
G75*
G03*
X11230000Y-4606500I-51000J0D01*
G01*
X11230000Y-4860500D02*
G75*
G03*
X11230000Y-4860500I-51000J0D01*
G01*
X11230000Y-5114500D02*
G75*
G03*
X11230000Y-5114500I-51000J0D01*
G01*
X11230000Y-5368500D02*
G75*
G03*
X11230000Y-5368500I-51000J0D01*
G01*
X11230000Y-5622500D02*
G75*
G03*
X11230000Y-5622500I-51000J0D01*
G01*
X11230000Y-5876500D02*
G75*
G03*
X11230000Y-5876500I-51000J0D01*
G01*
X11230000Y-6130500D02*
G75*
G03*
X11230000Y-6130500I-51000J0D01*
G01*
X11230000Y-6384500D02*
G75*
G03*
X11230000Y-6384500I-51000J0D01*
G01*
X11230000Y-6638500D02*
G75*
G03*
X11230000Y-6638500I-51000J0D01*
G01*
X11230000Y-6892500D02*
G75*
G03*
X11230000Y-6892500I-51000J0D01*
G01*
X11230000Y-7146500D02*
G75*
G03*
X11230000Y-7146500I-51000J0D01*
G01*
X11230000Y-7400500D02*
G75*
G03*
X11230000Y-7400500I-51000J0D01*
G01*
X11230000Y-7654500D02*
G75*
G03*
X11230000Y-7654500I-51000J0D01*
G01*
X11230000Y-7908500D02*
G75*
G03*
X11230000Y-7908500I-51000J0D01*
G01*
X11230000Y-8162500D02*
G75*
G03*
X11230000Y-8162500I-51000J0D01*
G01*
X11230000Y-8416500D02*
G75*
G03*
X11230000Y-8416500I-51000J0D01*
G01*
X11230000Y-8670500D02*
G75*
G03*
X11230000Y-8670500I-51000J0D01*
G01*
D14*
X5690000Y-6872000D02*
X5690000Y-6992000D01*
X5630000Y-6932000D02*
X5750000Y-6932000D01*
X6190000Y-6872000D02*
X6190000Y-6992000D01*
X6130000Y-6932000D02*
X6250000Y-6932000D01*
X6690000Y-6872000D02*
X6690000Y-6992000D01*
X6630000Y-6932000D02*
X6750000Y-6932000D01*
X23790000Y-6872000D02*
X23790000Y-6992000D01*
X23730000Y-6932000D02*
X23850000Y-6932000D01*
X24290000Y-6872000D02*
X24290000Y-6992000D01*
X24230000Y-6932000D02*
X24350000Y-6932000D01*
X24790000Y-6872000D02*
X24790000Y-6992000D01*
X24730000Y-6932000D02*
X24850000Y-6932000D01*
D15*
X5597531Y-5984531D02*
X5597531Y-5779468D01*
X5392469Y-5779468D01*
X5392469Y-5984531D01*
X5597531Y-5984531D01*
X6987531Y-5984531D02*
X6987531Y-5779468D01*
X6782468Y-5779468D01*
X6782468Y-5984531D01*
X6987531Y-5984531D01*
X23697531Y-5984531D02*
X23697531Y-5779468D01*
X23492468Y-5779468D01*
X23492468Y-5984531D01*
X23697531Y-5984531D01*
X25087531Y-5984531D02*
X25087531Y-5779468D01*
X24882468Y-5779468D01*
X24882468Y-5984531D01*
X25087531Y-5984531D01*
D11*
X4245777Y-15968484D02*
X4245777Y-15768484D01*
X4245777Y-15768484D02*
X4293396Y-15768484D01*
X4293396Y-15768484D02*
X4321967Y-15778008D01*
X4321967Y-15778008D02*
X4341015Y-15797055D01*
X4341015Y-15797055D02*
X4350539Y-15816103D01*
X4350539Y-15816103D02*
X4360063Y-15854198D01*
X4360063Y-15854198D02*
X4360063Y-15882769D01*
X4360063Y-15882769D02*
X4350539Y-15920865D01*
X4350539Y-15920865D02*
X4341015Y-15939912D01*
X4341015Y-15939912D02*
X4321967Y-15958960D01*
X4321967Y-15958960D02*
X4293396Y-15968484D01*
X4293396Y-15968484D02*
X4245777Y-15968484D01*
X4445777Y-15968484D02*
X4445777Y-15835150D01*
X4445777Y-15873246D02*
X4455301Y-15854198D01*
X4455301Y-15854198D02*
X4464824Y-15844674D01*
X4464824Y-15844674D02*
X4483872Y-15835150D01*
X4483872Y-15835150D02*
X4502920Y-15835150D01*
X4569586Y-15968484D02*
X4569586Y-15835150D01*
X4569586Y-15768484D02*
X4560063Y-15778008D01*
X4560063Y-15778008D02*
X4569586Y-15787531D01*
X4569586Y-15787531D02*
X4579110Y-15778008D01*
X4579110Y-15778008D02*
X4569586Y-15768484D01*
X4569586Y-15768484D02*
X4569586Y-15787531D01*
X4693396Y-15968484D02*
X4674348Y-15958960D01*
X4674348Y-15958960D02*
X4664824Y-15939912D01*
X4664824Y-15939912D02*
X4664824Y-15768484D01*
X4798158Y-15968484D02*
X4779110Y-15958960D01*
X4779110Y-15958960D02*
X4769586Y-15939912D01*
X4769586Y-15939912D02*
X4769586Y-15768484D01*
X5026729Y-15968484D02*
X5026729Y-15768484D01*
X5026729Y-15768484D02*
X5093396Y-15911341D01*
X5093396Y-15911341D02*
X5160063Y-15768484D01*
X5160063Y-15768484D02*
X5160063Y-15968484D01*
X5341015Y-15968484D02*
X5341015Y-15863722D01*
X5341015Y-15863722D02*
X5331491Y-15844674D01*
X5331491Y-15844674D02*
X5312444Y-15835150D01*
X5312444Y-15835150D02*
X5274348Y-15835150D01*
X5274348Y-15835150D02*
X5255301Y-15844674D01*
X5341015Y-15958960D02*
X5321967Y-15968484D01*
X5321967Y-15968484D02*
X5274348Y-15968484D01*
X5274348Y-15968484D02*
X5255301Y-15958960D01*
X5255301Y-15958960D02*
X5245777Y-15939912D01*
X5245777Y-15939912D02*
X5245777Y-15920865D01*
X5245777Y-15920865D02*
X5255301Y-15901817D01*
X5255301Y-15901817D02*
X5274348Y-15892293D01*
X5274348Y-15892293D02*
X5321967Y-15892293D01*
X5321967Y-15892293D02*
X5341015Y-15882769D01*
X5436253Y-15835150D02*
X5436253Y-16035150D01*
X5436253Y-15844674D02*
X5455301Y-15835150D01*
X5455301Y-15835150D02*
X5493396Y-15835150D01*
X5493396Y-15835150D02*
X5512444Y-15844674D01*
X5512444Y-15844674D02*
X5521967Y-15854198D01*
X5521967Y-15854198D02*
X5531491Y-15873246D01*
X5531491Y-15873246D02*
X5531491Y-15930388D01*
X5531491Y-15930388D02*
X5521967Y-15949436D01*
X5521967Y-15949436D02*
X5512444Y-15958960D01*
X5512444Y-15958960D02*
X5493396Y-15968484D01*
X5493396Y-15968484D02*
X5455301Y-15968484D01*
X5455301Y-15968484D02*
X5436253Y-15958960D01*
X5617205Y-15949436D02*
X5626729Y-15958960D01*
X5626729Y-15958960D02*
X5617205Y-15968484D01*
X5617205Y-15968484D02*
X5607682Y-15958960D01*
X5607682Y-15958960D02*
X5617205Y-15949436D01*
X5617205Y-15949436D02*
X5617205Y-15968484D01*
X5617205Y-15844674D02*
X5626729Y-15854198D01*
X5626729Y-15854198D02*
X5617205Y-15863722D01*
X5617205Y-15863722D02*
X5607682Y-15854198D01*
X5607682Y-15854198D02*
X5617205Y-15844674D01*
X5617205Y-15844674D02*
X5617205Y-15863722D01*
D12*
X3945000Y-16277000D02*
X3985000Y-16317000D01*
X3985000Y-16277000D02*
X3945000Y-16317000D01*
D11*
X4283872Y-16188484D02*
X4302920Y-16188484D01*
X4302920Y-16188484D02*
X4321967Y-16198008D01*
X4321967Y-16198008D02*
X4331491Y-16207531D01*
X4331491Y-16207531D02*
X4341015Y-16226579D01*
X4341015Y-16226579D02*
X4350539Y-16264674D01*
X4350539Y-16264674D02*
X4350539Y-16312293D01*
X4350539Y-16312293D02*
X4341015Y-16350388D01*
X4341015Y-16350388D02*
X4331491Y-16369436D01*
X4331491Y-16369436D02*
X4321967Y-16378960D01*
X4321967Y-16378960D02*
X4302920Y-16388484D01*
X4302920Y-16388484D02*
X4283872Y-16388484D01*
X4283872Y-16388484D02*
X4264824Y-16378960D01*
X4264824Y-16378960D02*
X4255301Y-16369436D01*
X4255301Y-16369436D02*
X4245777Y-16350388D01*
X4245777Y-16350388D02*
X4236253Y-16312293D01*
X4236253Y-16312293D02*
X4236253Y-16264674D01*
X4236253Y-16264674D02*
X4245777Y-16226579D01*
X4245777Y-16226579D02*
X4255301Y-16207531D01*
X4255301Y-16207531D02*
X4264824Y-16198008D01*
X4264824Y-16198008D02*
X4283872Y-16188484D01*
X4436253Y-16369436D02*
X4445777Y-16378960D01*
X4445777Y-16378960D02*
X4436253Y-16388484D01*
X4436253Y-16388484D02*
X4426729Y-16378960D01*
X4426729Y-16378960D02*
X4436253Y-16369436D01*
X4436253Y-16369436D02*
X4436253Y-16388484D01*
X4617205Y-16255150D02*
X4617205Y-16388484D01*
X4569586Y-16178960D02*
X4521967Y-16321817D01*
X4521967Y-16321817D02*
X4645777Y-16321817D01*
X4760063Y-16188484D02*
X4779110Y-16188484D01*
X4779110Y-16188484D02*
X4798158Y-16198008D01*
X4798158Y-16198008D02*
X4807682Y-16207531D01*
X4807682Y-16207531D02*
X4817205Y-16226579D01*
X4817205Y-16226579D02*
X4826729Y-16264674D01*
X4826729Y-16264674D02*
X4826729Y-16312293D01*
X4826729Y-16312293D02*
X4817205Y-16350388D01*
X4817205Y-16350388D02*
X4807682Y-16369436D01*
X4807682Y-16369436D02*
X4798158Y-16378960D01*
X4798158Y-16378960D02*
X4779110Y-16388484D01*
X4779110Y-16388484D02*
X4760063Y-16388484D01*
X4760063Y-16388484D02*
X4741015Y-16378960D01*
X4741015Y-16378960D02*
X4731491Y-16369436D01*
X4731491Y-16369436D02*
X4721967Y-16350388D01*
X4721967Y-16350388D02*
X4712444Y-16312293D01*
X4712444Y-16312293D02*
X4712444Y-16264674D01*
X4712444Y-16264674D02*
X4721967Y-16226579D01*
X4721967Y-16226579D02*
X4731491Y-16207531D01*
X4731491Y-16207531D02*
X4741015Y-16198008D01*
X4741015Y-16198008D02*
X4760063Y-16188484D01*
X4950539Y-16188484D02*
X4969586Y-16188484D01*
X4969586Y-16188484D02*
X4988634Y-16198008D01*
X4988634Y-16198008D02*
X4998158Y-16207531D01*
X4998158Y-16207531D02*
X5007682Y-16226579D01*
X5007682Y-16226579D02*
X5017205Y-16264674D01*
X5017205Y-16264674D02*
X5017205Y-16312293D01*
X5017205Y-16312293D02*
X5007682Y-16350388D01*
X5007682Y-16350388D02*
X4998158Y-16369436D01*
X4998158Y-16369436D02*
X4988634Y-16378960D01*
X4988634Y-16378960D02*
X4969586Y-16388484D01*
X4969586Y-16388484D02*
X4950539Y-16388484D01*
X4950539Y-16388484D02*
X4931491Y-16378960D01*
X4931491Y-16378960D02*
X4921967Y-16369436D01*
X4921967Y-16369436D02*
X4912444Y-16350388D01*
X4912444Y-16350388D02*
X4902920Y-16312293D01*
X4902920Y-16312293D02*
X4902920Y-16264674D01*
X4902920Y-16264674D02*
X4912444Y-16226579D01*
X4912444Y-16226579D02*
X4921967Y-16207531D01*
X4921967Y-16207531D02*
X4931491Y-16198008D01*
X4931491Y-16198008D02*
X4950539Y-16188484D01*
X5102920Y-16388484D02*
X5102920Y-16255150D01*
X5102920Y-16274198D02*
X5112444Y-16264674D01*
X5112444Y-16264674D02*
X5131491Y-16255150D01*
X5131491Y-16255150D02*
X5160063Y-16255150D01*
X5160063Y-16255150D02*
X5179110Y-16264674D01*
X5179110Y-16264674D02*
X5188634Y-16283722D01*
X5188634Y-16283722D02*
X5188634Y-16388484D01*
X5188634Y-16283722D02*
X5198158Y-16264674D01*
X5198158Y-16264674D02*
X5217205Y-16255150D01*
X5217205Y-16255150D02*
X5245777Y-16255150D01*
X5245777Y-16255150D02*
X5264825Y-16264674D01*
X5264825Y-16264674D02*
X5274348Y-16283722D01*
X5274348Y-16283722D02*
X5274348Y-16388484D01*
X5369586Y-16388484D02*
X5369586Y-16255150D01*
X5369586Y-16274198D02*
X5379110Y-16264674D01*
X5379110Y-16264674D02*
X5398158Y-16255150D01*
X5398158Y-16255150D02*
X5426729Y-16255150D01*
X5426729Y-16255150D02*
X5445777Y-16264674D01*
X5445777Y-16264674D02*
X5455301Y-16283722D01*
X5455301Y-16283722D02*
X5455301Y-16388484D01*
X5455301Y-16283722D02*
X5464825Y-16264674D01*
X5464825Y-16264674D02*
X5483872Y-16255150D01*
X5483872Y-16255150D02*
X5512444Y-16255150D01*
X5512444Y-16255150D02*
X5531491Y-16264674D01*
X5531491Y-16264674D02*
X5541015Y-16283722D01*
X5541015Y-16283722D02*
X5541015Y-16388484D01*
X5931491Y-16178960D02*
X5760063Y-16436103D01*
X6188634Y-16188484D02*
X6207682Y-16188484D01*
X6207682Y-16188484D02*
X6226729Y-16198008D01*
X6226729Y-16198008D02*
X6236253Y-16207531D01*
X6236253Y-16207531D02*
X6245777Y-16226579D01*
X6245777Y-16226579D02*
X6255301Y-16264674D01*
X6255301Y-16264674D02*
X6255301Y-16312293D01*
X6255301Y-16312293D02*
X6245777Y-16350388D01*
X6245777Y-16350388D02*
X6236253Y-16369436D01*
X6236253Y-16369436D02*
X6226729Y-16378960D01*
X6226729Y-16378960D02*
X6207682Y-16388484D01*
X6207682Y-16388484D02*
X6188634Y-16388484D01*
X6188634Y-16388484D02*
X6169586Y-16378960D01*
X6169586Y-16378960D02*
X6160063Y-16369436D01*
X6160063Y-16369436D02*
X6150539Y-16350388D01*
X6150539Y-16350388D02*
X6141015Y-16312293D01*
X6141015Y-16312293D02*
X6141015Y-16264674D01*
X6141015Y-16264674D02*
X6150539Y-16226579D01*
X6150539Y-16226579D02*
X6160063Y-16207531D01*
X6160063Y-16207531D02*
X6169586Y-16198008D01*
X6169586Y-16198008D02*
X6188634Y-16188484D01*
X6341015Y-16369436D02*
X6350539Y-16378960D01*
X6350539Y-16378960D02*
X6341015Y-16388484D01*
X6341015Y-16388484D02*
X6331491Y-16378960D01*
X6331491Y-16378960D02*
X6341015Y-16369436D01*
X6341015Y-16369436D02*
X6341015Y-16388484D01*
X6474348Y-16188484D02*
X6493396Y-16188484D01*
X6493396Y-16188484D02*
X6512444Y-16198008D01*
X6512444Y-16198008D02*
X6521967Y-16207531D01*
X6521967Y-16207531D02*
X6531491Y-16226579D01*
X6531491Y-16226579D02*
X6541015Y-16264674D01*
X6541015Y-16264674D02*
X6541015Y-16312293D01*
X6541015Y-16312293D02*
X6531491Y-16350388D01*
X6531491Y-16350388D02*
X6521967Y-16369436D01*
X6521967Y-16369436D02*
X6512444Y-16378960D01*
X6512444Y-16378960D02*
X6493396Y-16388484D01*
X6493396Y-16388484D02*
X6474348Y-16388484D01*
X6474348Y-16388484D02*
X6455301Y-16378960D01*
X6455301Y-16378960D02*
X6445777Y-16369436D01*
X6445777Y-16369436D02*
X6436253Y-16350388D01*
X6436253Y-16350388D02*
X6426729Y-16312293D01*
X6426729Y-16312293D02*
X6426729Y-16264674D01*
X6426729Y-16264674D02*
X6436253Y-16226579D01*
X6436253Y-16226579D02*
X6445777Y-16207531D01*
X6445777Y-16207531D02*
X6455301Y-16198008D01*
X6455301Y-16198008D02*
X6474348Y-16188484D01*
X6731491Y-16388484D02*
X6617206Y-16388484D01*
X6674348Y-16388484D02*
X6674348Y-16188484D01*
X6674348Y-16188484D02*
X6655301Y-16217055D01*
X6655301Y-16217055D02*
X6636253Y-16236103D01*
X6636253Y-16236103D02*
X6617206Y-16245627D01*
X6912444Y-16188484D02*
X6817206Y-16188484D01*
X6817206Y-16188484D02*
X6807682Y-16283722D01*
X6807682Y-16283722D02*
X6817206Y-16274198D01*
X6817206Y-16274198D02*
X6836253Y-16264674D01*
X6836253Y-16264674D02*
X6883872Y-16264674D01*
X6883872Y-16264674D02*
X6902920Y-16274198D01*
X6902920Y-16274198D02*
X6912444Y-16283722D01*
X6912444Y-16283722D02*
X6921967Y-16302769D01*
X6921967Y-16302769D02*
X6921967Y-16350388D01*
X6921967Y-16350388D02*
X6912444Y-16369436D01*
X6912444Y-16369436D02*
X6902920Y-16378960D01*
X6902920Y-16378960D02*
X6883872Y-16388484D01*
X6883872Y-16388484D02*
X6836253Y-16388484D01*
X6836253Y-16388484D02*
X6817206Y-16378960D01*
X6817206Y-16378960D02*
X6807682Y-16369436D01*
X6988634Y-16188484D02*
X7121967Y-16188484D01*
X7121967Y-16188484D02*
X7036253Y-16388484D01*
X7188634Y-16188484D02*
X7188634Y-16226579D01*
X7264825Y-16188484D02*
X7264825Y-16226579D01*
X7560063Y-16464674D02*
X7550539Y-16455150D01*
X7550539Y-16455150D02*
X7531491Y-16426579D01*
X7531491Y-16426579D02*
X7521968Y-16407531D01*
X7521968Y-16407531D02*
X7512444Y-16378960D01*
X7512444Y-16378960D02*
X7502920Y-16331341D01*
X7502920Y-16331341D02*
X7502920Y-16293246D01*
X7502920Y-16293246D02*
X7512444Y-16245627D01*
X7512444Y-16245627D02*
X7521968Y-16217055D01*
X7521968Y-16217055D02*
X7531491Y-16198008D01*
X7531491Y-16198008D02*
X7550539Y-16169436D01*
X7550539Y-16169436D02*
X7560063Y-16159912D01*
X7741015Y-16388484D02*
X7626729Y-16388484D01*
X7683872Y-16388484D02*
X7683872Y-16188484D01*
X7683872Y-16188484D02*
X7664825Y-16217055D01*
X7664825Y-16217055D02*
X7645777Y-16236103D01*
X7645777Y-16236103D02*
X7626729Y-16245627D01*
X7864825Y-16188484D02*
X7883872Y-16188484D01*
X7883872Y-16188484D02*
X7902920Y-16198008D01*
X7902920Y-16198008D02*
X7912444Y-16207531D01*
X7912444Y-16207531D02*
X7921968Y-16226579D01*
X7921968Y-16226579D02*
X7931491Y-16264674D01*
X7931491Y-16264674D02*
X7931491Y-16312293D01*
X7931491Y-16312293D02*
X7921968Y-16350388D01*
X7921968Y-16350388D02*
X7912444Y-16369436D01*
X7912444Y-16369436D02*
X7902920Y-16378960D01*
X7902920Y-16378960D02*
X7883872Y-16388484D01*
X7883872Y-16388484D02*
X7864825Y-16388484D01*
X7864825Y-16388484D02*
X7845777Y-16378960D01*
X7845777Y-16378960D02*
X7836253Y-16369436D01*
X7836253Y-16369436D02*
X7826729Y-16350388D01*
X7826729Y-16350388D02*
X7817206Y-16312293D01*
X7817206Y-16312293D02*
X7817206Y-16264674D01*
X7817206Y-16264674D02*
X7826729Y-16226579D01*
X7826729Y-16226579D02*
X7836253Y-16207531D01*
X7836253Y-16207531D02*
X7845777Y-16198008D01*
X7845777Y-16198008D02*
X7864825Y-16188484D01*
X8169587Y-16388484D02*
X8169587Y-16188484D01*
X8255301Y-16388484D02*
X8255301Y-16283722D01*
X8255301Y-16283722D02*
X8245777Y-16264674D01*
X8245777Y-16264674D02*
X8226730Y-16255150D01*
X8226730Y-16255150D02*
X8198158Y-16255150D01*
X8198158Y-16255150D02*
X8179110Y-16264674D01*
X8179110Y-16264674D02*
X8169587Y-16274198D01*
X8379110Y-16388484D02*
X8360063Y-16378960D01*
X8360063Y-16378960D02*
X8350539Y-16369436D01*
X8350539Y-16369436D02*
X8341015Y-16350388D01*
X8341015Y-16350388D02*
X8341015Y-16293246D01*
X8341015Y-16293246D02*
X8350539Y-16274198D01*
X8350539Y-16274198D02*
X8360063Y-16264674D01*
X8360063Y-16264674D02*
X8379110Y-16255150D01*
X8379110Y-16255150D02*
X8407682Y-16255150D01*
X8407682Y-16255150D02*
X8426730Y-16264674D01*
X8426730Y-16264674D02*
X8436253Y-16274198D01*
X8436253Y-16274198D02*
X8445777Y-16293246D01*
X8445777Y-16293246D02*
X8445777Y-16350388D01*
X8445777Y-16350388D02*
X8436253Y-16369436D01*
X8436253Y-16369436D02*
X8426730Y-16378960D01*
X8426730Y-16378960D02*
X8407682Y-16388484D01*
X8407682Y-16388484D02*
X8379110Y-16388484D01*
X8560063Y-16388484D02*
X8541015Y-16378960D01*
X8541015Y-16378960D02*
X8531492Y-16359912D01*
X8531492Y-16359912D02*
X8531492Y-16188484D01*
X8712444Y-16378960D02*
X8693396Y-16388484D01*
X8693396Y-16388484D02*
X8655301Y-16388484D01*
X8655301Y-16388484D02*
X8636253Y-16378960D01*
X8636253Y-16378960D02*
X8626730Y-16359912D01*
X8626730Y-16359912D02*
X8626730Y-16283722D01*
X8626730Y-16283722D02*
X8636253Y-16264674D01*
X8636253Y-16264674D02*
X8655301Y-16255150D01*
X8655301Y-16255150D02*
X8693396Y-16255150D01*
X8693396Y-16255150D02*
X8712444Y-16264674D01*
X8712444Y-16264674D02*
X8721968Y-16283722D01*
X8721968Y-16283722D02*
X8721968Y-16302769D01*
X8721968Y-16302769D02*
X8626730Y-16321817D01*
X8798158Y-16378960D02*
X8817206Y-16388484D01*
X8817206Y-16388484D02*
X8855301Y-16388484D01*
X8855301Y-16388484D02*
X8874349Y-16378960D01*
X8874349Y-16378960D02*
X8883873Y-16359912D01*
X8883873Y-16359912D02*
X8883873Y-16350388D01*
X8883873Y-16350388D02*
X8874349Y-16331341D01*
X8874349Y-16331341D02*
X8855301Y-16321817D01*
X8855301Y-16321817D02*
X8826730Y-16321817D01*
X8826730Y-16321817D02*
X8807682Y-16312293D01*
X8807682Y-16312293D02*
X8798158Y-16293246D01*
X8798158Y-16293246D02*
X8798158Y-16283722D01*
X8798158Y-16283722D02*
X8807682Y-16264674D01*
X8807682Y-16264674D02*
X8826730Y-16255150D01*
X8826730Y-16255150D02*
X8855301Y-16255150D01*
X8855301Y-16255150D02*
X8874349Y-16264674D01*
X8950539Y-16464674D02*
X8960063Y-16455150D01*
X8960063Y-16455150D02*
X8979111Y-16426579D01*
X8979111Y-16426579D02*
X8988634Y-16407531D01*
X8988634Y-16407531D02*
X8998158Y-16378960D01*
X8998158Y-16378960D02*
X9007682Y-16331341D01*
X9007682Y-16331341D02*
X9007682Y-16293246D01*
X9007682Y-16293246D02*
X8998158Y-16245627D01*
X8998158Y-16245627D02*
X8988634Y-16217055D01*
X8988634Y-16217055D02*
X8979111Y-16198008D01*
X8979111Y-16198008D02*
X8960063Y-16169436D01*
X8960063Y-16169436D02*
X8950539Y-16159912D01*
D13*
X3985000Y-16561000D02*
G75*
G03*
X3985000Y-16561000I-51000J0D01*
G01*
D11*
X4350539Y-16652484D02*
X4236253Y-16652484D01*
X4293396Y-16652484D02*
X4293396Y-16452484D01*
X4293396Y-16452484D02*
X4274348Y-16481055D01*
X4274348Y-16481055D02*
X4255301Y-16500103D01*
X4255301Y-16500103D02*
X4236253Y-16509627D01*
X4436253Y-16633436D02*
X4445777Y-16642960D01*
X4445777Y-16642960D02*
X4436253Y-16652484D01*
X4436253Y-16652484D02*
X4426729Y-16642960D01*
X4426729Y-16642960D02*
X4436253Y-16633436D01*
X4436253Y-16633436D02*
X4436253Y-16652484D01*
X4569586Y-16452484D02*
X4588634Y-16452484D01*
X4588634Y-16452484D02*
X4607682Y-16462008D01*
X4607682Y-16462008D02*
X4617205Y-16471531D01*
X4617205Y-16471531D02*
X4626729Y-16490579D01*
X4626729Y-16490579D02*
X4636253Y-16528674D01*
X4636253Y-16528674D02*
X4636253Y-16576293D01*
X4636253Y-16576293D02*
X4626729Y-16614388D01*
X4626729Y-16614388D02*
X4617205Y-16633436D01*
X4617205Y-16633436D02*
X4607682Y-16642960D01*
X4607682Y-16642960D02*
X4588634Y-16652484D01*
X4588634Y-16652484D02*
X4569586Y-16652484D01*
X4569586Y-16652484D02*
X4550539Y-16642960D01*
X4550539Y-16642960D02*
X4541015Y-16633436D01*
X4541015Y-16633436D02*
X4531491Y-16614388D01*
X4531491Y-16614388D02*
X4521967Y-16576293D01*
X4521967Y-16576293D02*
X4521967Y-16528674D01*
X4521967Y-16528674D02*
X4531491Y-16490579D01*
X4531491Y-16490579D02*
X4541015Y-16471531D01*
X4541015Y-16471531D02*
X4550539Y-16462008D01*
X4550539Y-16462008D02*
X4569586Y-16452484D01*
X4712444Y-16471531D02*
X4721967Y-16462008D01*
X4721967Y-16462008D02*
X4741015Y-16452484D01*
X4741015Y-16452484D02*
X4788634Y-16452484D01*
X4788634Y-16452484D02*
X4807682Y-16462008D01*
X4807682Y-16462008D02*
X4817205Y-16471531D01*
X4817205Y-16471531D02*
X4826729Y-16490579D01*
X4826729Y-16490579D02*
X4826729Y-16509627D01*
X4826729Y-16509627D02*
X4817205Y-16538198D01*
X4817205Y-16538198D02*
X4702920Y-16652484D01*
X4702920Y-16652484D02*
X4826729Y-16652484D01*
X4950539Y-16452484D02*
X4969586Y-16452484D01*
X4969586Y-16452484D02*
X4988634Y-16462008D01*
X4988634Y-16462008D02*
X4998158Y-16471531D01*
X4998158Y-16471531D02*
X5007682Y-16490579D01*
X5007682Y-16490579D02*
X5017205Y-16528674D01*
X5017205Y-16528674D02*
X5017205Y-16576293D01*
X5017205Y-16576293D02*
X5007682Y-16614388D01*
X5007682Y-16614388D02*
X4998158Y-16633436D01*
X4998158Y-16633436D02*
X4988634Y-16642960D01*
X4988634Y-16642960D02*
X4969586Y-16652484D01*
X4969586Y-16652484D02*
X4950539Y-16652484D01*
X4950539Y-16652484D02*
X4931491Y-16642960D01*
X4931491Y-16642960D02*
X4921967Y-16633436D01*
X4921967Y-16633436D02*
X4912444Y-16614388D01*
X4912444Y-16614388D02*
X4902920Y-16576293D01*
X4902920Y-16576293D02*
X4902920Y-16528674D01*
X4902920Y-16528674D02*
X4912444Y-16490579D01*
X4912444Y-16490579D02*
X4921967Y-16471531D01*
X4921967Y-16471531D02*
X4931491Y-16462008D01*
X4931491Y-16462008D02*
X4950539Y-16452484D01*
X5102920Y-16652484D02*
X5102920Y-16519150D01*
X5102920Y-16538198D02*
X5112444Y-16528674D01*
X5112444Y-16528674D02*
X5131491Y-16519150D01*
X5131491Y-16519150D02*
X5160063Y-16519150D01*
X5160063Y-16519150D02*
X5179110Y-16528674D01*
X5179110Y-16528674D02*
X5188634Y-16547722D01*
X5188634Y-16547722D02*
X5188634Y-16652484D01*
X5188634Y-16547722D02*
X5198158Y-16528674D01*
X5198158Y-16528674D02*
X5217205Y-16519150D01*
X5217205Y-16519150D02*
X5245777Y-16519150D01*
X5245777Y-16519150D02*
X5264825Y-16528674D01*
X5264825Y-16528674D02*
X5274348Y-16547722D01*
X5274348Y-16547722D02*
X5274348Y-16652484D01*
X5369586Y-16652484D02*
X5369586Y-16519150D01*
X5369586Y-16538198D02*
X5379110Y-16528674D01*
X5379110Y-16528674D02*
X5398158Y-16519150D01*
X5398158Y-16519150D02*
X5426729Y-16519150D01*
X5426729Y-16519150D02*
X5445777Y-16528674D01*
X5445777Y-16528674D02*
X5455301Y-16547722D01*
X5455301Y-16547722D02*
X5455301Y-16652484D01*
X5455301Y-16547722D02*
X5464825Y-16528674D01*
X5464825Y-16528674D02*
X5483872Y-16519150D01*
X5483872Y-16519150D02*
X5512444Y-16519150D01*
X5512444Y-16519150D02*
X5531491Y-16528674D01*
X5531491Y-16528674D02*
X5541015Y-16547722D01*
X5541015Y-16547722D02*
X5541015Y-16652484D01*
X5931491Y-16442960D02*
X5760063Y-16700103D01*
X6188634Y-16452484D02*
X6207682Y-16452484D01*
X6207682Y-16452484D02*
X6226729Y-16462008D01*
X6226729Y-16462008D02*
X6236253Y-16471531D01*
X6236253Y-16471531D02*
X6245777Y-16490579D01*
X6245777Y-16490579D02*
X6255301Y-16528674D01*
X6255301Y-16528674D02*
X6255301Y-16576293D01*
X6255301Y-16576293D02*
X6245777Y-16614388D01*
X6245777Y-16614388D02*
X6236253Y-16633436D01*
X6236253Y-16633436D02*
X6226729Y-16642960D01*
X6226729Y-16642960D02*
X6207682Y-16652484D01*
X6207682Y-16652484D02*
X6188634Y-16652484D01*
X6188634Y-16652484D02*
X6169586Y-16642960D01*
X6169586Y-16642960D02*
X6160063Y-16633436D01*
X6160063Y-16633436D02*
X6150539Y-16614388D01*
X6150539Y-16614388D02*
X6141015Y-16576293D01*
X6141015Y-16576293D02*
X6141015Y-16528674D01*
X6141015Y-16528674D02*
X6150539Y-16490579D01*
X6150539Y-16490579D02*
X6160063Y-16471531D01*
X6160063Y-16471531D02*
X6169586Y-16462008D01*
X6169586Y-16462008D02*
X6188634Y-16452484D01*
X6341015Y-16633436D02*
X6350539Y-16642960D01*
X6350539Y-16642960D02*
X6341015Y-16652484D01*
X6341015Y-16652484D02*
X6331491Y-16642960D01*
X6331491Y-16642960D02*
X6341015Y-16633436D01*
X6341015Y-16633436D02*
X6341015Y-16652484D01*
X6474348Y-16452484D02*
X6493396Y-16452484D01*
X6493396Y-16452484D02*
X6512444Y-16462008D01*
X6512444Y-16462008D02*
X6521967Y-16471531D01*
X6521967Y-16471531D02*
X6531491Y-16490579D01*
X6531491Y-16490579D02*
X6541015Y-16528674D01*
X6541015Y-16528674D02*
X6541015Y-16576293D01*
X6541015Y-16576293D02*
X6531491Y-16614388D01*
X6531491Y-16614388D02*
X6521967Y-16633436D01*
X6521967Y-16633436D02*
X6512444Y-16642960D01*
X6512444Y-16642960D02*
X6493396Y-16652484D01*
X6493396Y-16652484D02*
X6474348Y-16652484D01*
X6474348Y-16652484D02*
X6455301Y-16642960D01*
X6455301Y-16642960D02*
X6445777Y-16633436D01*
X6445777Y-16633436D02*
X6436253Y-16614388D01*
X6436253Y-16614388D02*
X6426729Y-16576293D01*
X6426729Y-16576293D02*
X6426729Y-16528674D01*
X6426729Y-16528674D02*
X6436253Y-16490579D01*
X6436253Y-16490579D02*
X6445777Y-16471531D01*
X6445777Y-16471531D02*
X6455301Y-16462008D01*
X6455301Y-16462008D02*
X6474348Y-16452484D01*
X6712444Y-16519150D02*
X6712444Y-16652484D01*
X6664825Y-16442960D02*
X6617206Y-16585817D01*
X6617206Y-16585817D02*
X6741015Y-16585817D01*
X6855301Y-16452484D02*
X6874348Y-16452484D01*
X6874348Y-16452484D02*
X6893396Y-16462008D01*
X6893396Y-16462008D02*
X6902920Y-16471531D01*
X6902920Y-16471531D02*
X6912444Y-16490579D01*
X6912444Y-16490579D02*
X6921967Y-16528674D01*
X6921967Y-16528674D02*
X6921967Y-16576293D01*
X6921967Y-16576293D02*
X6912444Y-16614388D01*
X6912444Y-16614388D02*
X6902920Y-16633436D01*
X6902920Y-16633436D02*
X6893396Y-16642960D01*
X6893396Y-16642960D02*
X6874348Y-16652484D01*
X6874348Y-16652484D02*
X6855301Y-16652484D01*
X6855301Y-16652484D02*
X6836253Y-16642960D01*
X6836253Y-16642960D02*
X6826729Y-16633436D01*
X6826729Y-16633436D02*
X6817206Y-16614388D01*
X6817206Y-16614388D02*
X6807682Y-16576293D01*
X6807682Y-16576293D02*
X6807682Y-16528674D01*
X6807682Y-16528674D02*
X6817206Y-16490579D01*
X6817206Y-16490579D02*
X6826729Y-16471531D01*
X6826729Y-16471531D02*
X6836253Y-16462008D01*
X6836253Y-16462008D02*
X6855301Y-16452484D01*
X6998158Y-16471531D02*
X7007682Y-16462008D01*
X7007682Y-16462008D02*
X7026729Y-16452484D01*
X7026729Y-16452484D02*
X7074348Y-16452484D01*
X7074348Y-16452484D02*
X7093396Y-16462008D01*
X7093396Y-16462008D02*
X7102920Y-16471531D01*
X7102920Y-16471531D02*
X7112444Y-16490579D01*
X7112444Y-16490579D02*
X7112444Y-16509627D01*
X7112444Y-16509627D02*
X7102920Y-16538198D01*
X7102920Y-16538198D02*
X6988634Y-16652484D01*
X6988634Y-16652484D02*
X7112444Y-16652484D01*
X7188634Y-16452484D02*
X7188634Y-16490579D01*
X7264825Y-16452484D02*
X7264825Y-16490579D01*
X7560063Y-16728674D02*
X7550539Y-16719150D01*
X7550539Y-16719150D02*
X7531491Y-16690579D01*
X7531491Y-16690579D02*
X7521968Y-16671531D01*
X7521968Y-16671531D02*
X7512444Y-16642960D01*
X7512444Y-16642960D02*
X7502920Y-16595341D01*
X7502920Y-16595341D02*
X7502920Y-16557246D01*
X7502920Y-16557246D02*
X7512444Y-16509627D01*
X7512444Y-16509627D02*
X7521968Y-16481055D01*
X7521968Y-16481055D02*
X7531491Y-16462008D01*
X7531491Y-16462008D02*
X7550539Y-16433436D01*
X7550539Y-16433436D02*
X7560063Y-16423912D01*
X7721968Y-16519150D02*
X7721968Y-16652484D01*
X7674348Y-16442960D02*
X7626729Y-16585817D01*
X7626729Y-16585817D02*
X7750539Y-16585817D01*
X7807682Y-16452484D02*
X7931491Y-16452484D01*
X7931491Y-16452484D02*
X7864825Y-16528674D01*
X7864825Y-16528674D02*
X7893396Y-16528674D01*
X7893396Y-16528674D02*
X7912444Y-16538198D01*
X7912444Y-16538198D02*
X7921968Y-16547722D01*
X7921968Y-16547722D02*
X7931491Y-16566769D01*
X7931491Y-16566769D02*
X7931491Y-16614388D01*
X7931491Y-16614388D02*
X7921968Y-16633436D01*
X7921968Y-16633436D02*
X7912444Y-16642960D01*
X7912444Y-16642960D02*
X7893396Y-16652484D01*
X7893396Y-16652484D02*
X7836253Y-16652484D01*
X7836253Y-16652484D02*
X7817206Y-16642960D01*
X7817206Y-16642960D02*
X7807682Y-16633436D01*
X8169587Y-16652484D02*
X8169587Y-16452484D01*
X8255301Y-16652484D02*
X8255301Y-16547722D01*
X8255301Y-16547722D02*
X8245777Y-16528674D01*
X8245777Y-16528674D02*
X8226730Y-16519150D01*
X8226730Y-16519150D02*
X8198158Y-16519150D01*
X8198158Y-16519150D02*
X8179110Y-16528674D01*
X8179110Y-16528674D02*
X8169587Y-16538198D01*
X8379110Y-16652484D02*
X8360063Y-16642960D01*
X8360063Y-16642960D02*
X8350539Y-16633436D01*
X8350539Y-16633436D02*
X8341015Y-16614388D01*
X8341015Y-16614388D02*
X8341015Y-16557246D01*
X8341015Y-16557246D02*
X8350539Y-16538198D01*
X8350539Y-16538198D02*
X8360063Y-16528674D01*
X8360063Y-16528674D02*
X8379110Y-16519150D01*
X8379110Y-16519150D02*
X8407682Y-16519150D01*
X8407682Y-16519150D02*
X8426730Y-16528674D01*
X8426730Y-16528674D02*
X8436253Y-16538198D01*
X8436253Y-16538198D02*
X8445777Y-16557246D01*
X8445777Y-16557246D02*
X8445777Y-16614388D01*
X8445777Y-16614388D02*
X8436253Y-16633436D01*
X8436253Y-16633436D02*
X8426730Y-16642960D01*
X8426730Y-16642960D02*
X8407682Y-16652484D01*
X8407682Y-16652484D02*
X8379110Y-16652484D01*
X8560063Y-16652484D02*
X8541015Y-16642960D01*
X8541015Y-16642960D02*
X8531492Y-16623912D01*
X8531492Y-16623912D02*
X8531492Y-16452484D01*
X8712444Y-16642960D02*
X8693396Y-16652484D01*
X8693396Y-16652484D02*
X8655301Y-16652484D01*
X8655301Y-16652484D02*
X8636253Y-16642960D01*
X8636253Y-16642960D02*
X8626730Y-16623912D01*
X8626730Y-16623912D02*
X8626730Y-16547722D01*
X8626730Y-16547722D02*
X8636253Y-16528674D01*
X8636253Y-16528674D02*
X8655301Y-16519150D01*
X8655301Y-16519150D02*
X8693396Y-16519150D01*
X8693396Y-16519150D02*
X8712444Y-16528674D01*
X8712444Y-16528674D02*
X8721968Y-16547722D01*
X8721968Y-16547722D02*
X8721968Y-16566769D01*
X8721968Y-16566769D02*
X8626730Y-16585817D01*
X8798158Y-16642960D02*
X8817206Y-16652484D01*
X8817206Y-16652484D02*
X8855301Y-16652484D01*
X8855301Y-16652484D02*
X8874349Y-16642960D01*
X8874349Y-16642960D02*
X8883873Y-16623912D01*
X8883873Y-16623912D02*
X8883873Y-16614388D01*
X8883873Y-16614388D02*
X8874349Y-16595341D01*
X8874349Y-16595341D02*
X8855301Y-16585817D01*
X8855301Y-16585817D02*
X8826730Y-16585817D01*
X8826730Y-16585817D02*
X8807682Y-16576293D01*
X8807682Y-16576293D02*
X8798158Y-16557246D01*
X8798158Y-16557246D02*
X8798158Y-16547722D01*
X8798158Y-16547722D02*
X8807682Y-16528674D01*
X8807682Y-16528674D02*
X8826730Y-16519150D01*
X8826730Y-16519150D02*
X8855301Y-16519150D01*
X8855301Y-16519150D02*
X8874349Y-16528674D01*
X8950539Y-16728674D02*
X8960063Y-16719150D01*
X8960063Y-16719150D02*
X8979111Y-16690579D01*
X8979111Y-16690579D02*
X8988634Y-16671531D01*
X8988634Y-16671531D02*
X8998158Y-16642960D01*
X8998158Y-16642960D02*
X9007682Y-16595341D01*
X9007682Y-16595341D02*
X9007682Y-16557246D01*
X9007682Y-16557246D02*
X8998158Y-16509627D01*
X8998158Y-16509627D02*
X8988634Y-16481055D01*
X8988634Y-16481055D02*
X8979111Y-16462008D01*
X8979111Y-16462008D02*
X8960063Y-16433436D01*
X8960063Y-16433436D02*
X8950539Y-16423912D01*
D14*
X3925000Y-16765000D02*
X3925000Y-16885000D01*
X3865000Y-16825000D02*
X3985000Y-16825000D01*
D11*
X4350539Y-16916484D02*
X4236253Y-16916484D01*
X4293396Y-16916484D02*
X4293396Y-16716484D01*
X4293396Y-16716484D02*
X4274348Y-16745055D01*
X4274348Y-16745055D02*
X4255301Y-16764103D01*
X4255301Y-16764103D02*
X4236253Y-16773627D01*
X4436253Y-16897436D02*
X4445777Y-16906960D01*
X4445777Y-16906960D02*
X4436253Y-16916484D01*
X4436253Y-16916484D02*
X4426729Y-16906960D01*
X4426729Y-16906960D02*
X4436253Y-16897436D01*
X4436253Y-16897436D02*
X4436253Y-16916484D01*
X4521967Y-16735531D02*
X4531491Y-16726008D01*
X4531491Y-16726008D02*
X4550539Y-16716484D01*
X4550539Y-16716484D02*
X4598158Y-16716484D01*
X4598158Y-16716484D02*
X4617205Y-16726008D01*
X4617205Y-16726008D02*
X4626729Y-16735531D01*
X4626729Y-16735531D02*
X4636253Y-16754579D01*
X4636253Y-16754579D02*
X4636253Y-16773627D01*
X4636253Y-16773627D02*
X4626729Y-16802198D01*
X4626729Y-16802198D02*
X4512444Y-16916484D01*
X4512444Y-16916484D02*
X4636253Y-16916484D01*
X4760063Y-16716484D02*
X4779110Y-16716484D01*
X4779110Y-16716484D02*
X4798158Y-16726008D01*
X4798158Y-16726008D02*
X4807682Y-16735531D01*
X4807682Y-16735531D02*
X4817205Y-16754579D01*
X4817205Y-16754579D02*
X4826729Y-16792674D01*
X4826729Y-16792674D02*
X4826729Y-16840293D01*
X4826729Y-16840293D02*
X4817205Y-16878389D01*
X4817205Y-16878389D02*
X4807682Y-16897436D01*
X4807682Y-16897436D02*
X4798158Y-16906960D01*
X4798158Y-16906960D02*
X4779110Y-16916484D01*
X4779110Y-16916484D02*
X4760063Y-16916484D01*
X4760063Y-16916484D02*
X4741015Y-16906960D01*
X4741015Y-16906960D02*
X4731491Y-16897436D01*
X4731491Y-16897436D02*
X4721967Y-16878389D01*
X4721967Y-16878389D02*
X4712444Y-16840293D01*
X4712444Y-16840293D02*
X4712444Y-16792674D01*
X4712444Y-16792674D02*
X4721967Y-16754579D01*
X4721967Y-16754579D02*
X4731491Y-16735531D01*
X4731491Y-16735531D02*
X4741015Y-16726008D01*
X4741015Y-16726008D02*
X4760063Y-16716484D01*
X4950539Y-16716484D02*
X4969586Y-16716484D01*
X4969586Y-16716484D02*
X4988634Y-16726008D01*
X4988634Y-16726008D02*
X4998158Y-16735531D01*
X4998158Y-16735531D02*
X5007682Y-16754579D01*
X5007682Y-16754579D02*
X5017205Y-16792674D01*
X5017205Y-16792674D02*
X5017205Y-16840293D01*
X5017205Y-16840293D02*
X5007682Y-16878389D01*
X5007682Y-16878389D02*
X4998158Y-16897436D01*
X4998158Y-16897436D02*
X4988634Y-16906960D01*
X4988634Y-16906960D02*
X4969586Y-16916484D01*
X4969586Y-16916484D02*
X4950539Y-16916484D01*
X4950539Y-16916484D02*
X4931491Y-16906960D01*
X4931491Y-16906960D02*
X4921967Y-16897436D01*
X4921967Y-16897436D02*
X4912444Y-16878389D01*
X4912444Y-16878389D02*
X4902920Y-16840293D01*
X4902920Y-16840293D02*
X4902920Y-16792674D01*
X4902920Y-16792674D02*
X4912444Y-16754579D01*
X4912444Y-16754579D02*
X4921967Y-16735531D01*
X4921967Y-16735531D02*
X4931491Y-16726008D01*
X4931491Y-16726008D02*
X4950539Y-16716484D01*
X5102920Y-16916484D02*
X5102920Y-16783150D01*
X5102920Y-16802198D02*
X5112444Y-16792674D01*
X5112444Y-16792674D02*
X5131491Y-16783150D01*
X5131491Y-16783150D02*
X5160063Y-16783150D01*
X5160063Y-16783150D02*
X5179110Y-16792674D01*
X5179110Y-16792674D02*
X5188634Y-16811722D01*
X5188634Y-16811722D02*
X5188634Y-16916484D01*
X5188634Y-16811722D02*
X5198158Y-16792674D01*
X5198158Y-16792674D02*
X5217205Y-16783150D01*
X5217205Y-16783150D02*
X5245777Y-16783150D01*
X5245777Y-16783150D02*
X5264825Y-16792674D01*
X5264825Y-16792674D02*
X5274348Y-16811722D01*
X5274348Y-16811722D02*
X5274348Y-16916484D01*
X5369586Y-16916484D02*
X5369586Y-16783150D01*
X5369586Y-16802198D02*
X5379110Y-16792674D01*
X5379110Y-16792674D02*
X5398158Y-16783150D01*
X5398158Y-16783150D02*
X5426729Y-16783150D01*
X5426729Y-16783150D02*
X5445777Y-16792674D01*
X5445777Y-16792674D02*
X5455301Y-16811722D01*
X5455301Y-16811722D02*
X5455301Y-16916484D01*
X5455301Y-16811722D02*
X5464825Y-16792674D01*
X5464825Y-16792674D02*
X5483872Y-16783150D01*
X5483872Y-16783150D02*
X5512444Y-16783150D01*
X5512444Y-16783150D02*
X5531491Y-16792674D01*
X5531491Y-16792674D02*
X5541015Y-16811722D01*
X5541015Y-16811722D02*
X5541015Y-16916484D01*
X5931491Y-16706960D02*
X5760063Y-16964103D01*
X6188634Y-16716484D02*
X6207682Y-16716484D01*
X6207682Y-16716484D02*
X6226729Y-16726008D01*
X6226729Y-16726008D02*
X6236253Y-16735531D01*
X6236253Y-16735531D02*
X6245777Y-16754579D01*
X6245777Y-16754579D02*
X6255301Y-16792674D01*
X6255301Y-16792674D02*
X6255301Y-16840293D01*
X6255301Y-16840293D02*
X6245777Y-16878389D01*
X6245777Y-16878389D02*
X6236253Y-16897436D01*
X6236253Y-16897436D02*
X6226729Y-16906960D01*
X6226729Y-16906960D02*
X6207682Y-16916484D01*
X6207682Y-16916484D02*
X6188634Y-16916484D01*
X6188634Y-16916484D02*
X6169586Y-16906960D01*
X6169586Y-16906960D02*
X6160063Y-16897436D01*
X6160063Y-16897436D02*
X6150539Y-16878389D01*
X6150539Y-16878389D02*
X6141015Y-16840293D01*
X6141015Y-16840293D02*
X6141015Y-16792674D01*
X6141015Y-16792674D02*
X6150539Y-16754579D01*
X6150539Y-16754579D02*
X6160063Y-16735531D01*
X6160063Y-16735531D02*
X6169586Y-16726008D01*
X6169586Y-16726008D02*
X6188634Y-16716484D01*
X6341015Y-16897436D02*
X6350539Y-16906960D01*
X6350539Y-16906960D02*
X6341015Y-16916484D01*
X6341015Y-16916484D02*
X6331491Y-16906960D01*
X6331491Y-16906960D02*
X6341015Y-16897436D01*
X6341015Y-16897436D02*
X6341015Y-16916484D01*
X6474348Y-16716484D02*
X6493396Y-16716484D01*
X6493396Y-16716484D02*
X6512444Y-16726008D01*
X6512444Y-16726008D02*
X6521967Y-16735531D01*
X6521967Y-16735531D02*
X6531491Y-16754579D01*
X6531491Y-16754579D02*
X6541015Y-16792674D01*
X6541015Y-16792674D02*
X6541015Y-16840293D01*
X6541015Y-16840293D02*
X6531491Y-16878389D01*
X6531491Y-16878389D02*
X6521967Y-16897436D01*
X6521967Y-16897436D02*
X6512444Y-16906960D01*
X6512444Y-16906960D02*
X6493396Y-16916484D01*
X6493396Y-16916484D02*
X6474348Y-16916484D01*
X6474348Y-16916484D02*
X6455301Y-16906960D01*
X6455301Y-16906960D02*
X6445777Y-16897436D01*
X6445777Y-16897436D02*
X6436253Y-16878389D01*
X6436253Y-16878389D02*
X6426729Y-16840293D01*
X6426729Y-16840293D02*
X6426729Y-16792674D01*
X6426729Y-16792674D02*
X6436253Y-16754579D01*
X6436253Y-16754579D02*
X6445777Y-16735531D01*
X6445777Y-16735531D02*
X6455301Y-16726008D01*
X6455301Y-16726008D02*
X6474348Y-16716484D01*
X6712444Y-16783150D02*
X6712444Y-16916484D01*
X6664825Y-16706960D02*
X6617206Y-16849817D01*
X6617206Y-16849817D02*
X6741015Y-16849817D01*
X6798158Y-16716484D02*
X6931491Y-16716484D01*
X6931491Y-16716484D02*
X6845777Y-16916484D01*
X6998158Y-16735531D02*
X7007682Y-16726008D01*
X7007682Y-16726008D02*
X7026729Y-16716484D01*
X7026729Y-16716484D02*
X7074348Y-16716484D01*
X7074348Y-16716484D02*
X7093396Y-16726008D01*
X7093396Y-16726008D02*
X7102920Y-16735531D01*
X7102920Y-16735531D02*
X7112444Y-16754579D01*
X7112444Y-16754579D02*
X7112444Y-16773627D01*
X7112444Y-16773627D02*
X7102920Y-16802198D01*
X7102920Y-16802198D02*
X6988634Y-16916484D01*
X6988634Y-16916484D02*
X7112444Y-16916484D01*
X7188634Y-16716484D02*
X7188634Y-16754579D01*
X7264825Y-16716484D02*
X7264825Y-16754579D01*
X7560063Y-16992674D02*
X7550539Y-16983150D01*
X7550539Y-16983150D02*
X7531491Y-16954579D01*
X7531491Y-16954579D02*
X7521968Y-16935531D01*
X7521968Y-16935531D02*
X7512444Y-16906960D01*
X7512444Y-16906960D02*
X7502920Y-16859341D01*
X7502920Y-16859341D02*
X7502920Y-16821246D01*
X7502920Y-16821246D02*
X7512444Y-16773627D01*
X7512444Y-16773627D02*
X7521968Y-16745055D01*
X7521968Y-16745055D02*
X7531491Y-16726008D01*
X7531491Y-16726008D02*
X7550539Y-16697436D01*
X7550539Y-16697436D02*
X7560063Y-16687912D01*
X7721968Y-16716484D02*
X7683872Y-16716484D01*
X7683872Y-16716484D02*
X7664825Y-16726008D01*
X7664825Y-16726008D02*
X7655301Y-16735531D01*
X7655301Y-16735531D02*
X7636253Y-16764103D01*
X7636253Y-16764103D02*
X7626729Y-16802198D01*
X7626729Y-16802198D02*
X7626729Y-16878389D01*
X7626729Y-16878389D02*
X7636253Y-16897436D01*
X7636253Y-16897436D02*
X7645777Y-16906960D01*
X7645777Y-16906960D02*
X7664825Y-16916484D01*
X7664825Y-16916484D02*
X7702920Y-16916484D01*
X7702920Y-16916484D02*
X7721968Y-16906960D01*
X7721968Y-16906960D02*
X7731491Y-16897436D01*
X7731491Y-16897436D02*
X7741015Y-16878389D01*
X7741015Y-16878389D02*
X7741015Y-16830770D01*
X7741015Y-16830770D02*
X7731491Y-16811722D01*
X7731491Y-16811722D02*
X7721968Y-16802198D01*
X7721968Y-16802198D02*
X7702920Y-16792674D01*
X7702920Y-16792674D02*
X7664825Y-16792674D01*
X7664825Y-16792674D02*
X7645777Y-16802198D01*
X7645777Y-16802198D02*
X7636253Y-16811722D01*
X7636253Y-16811722D02*
X7626729Y-16830770D01*
X7979110Y-16916484D02*
X7979110Y-16716484D01*
X8064825Y-16916484D02*
X8064825Y-16811722D01*
X8064825Y-16811722D02*
X8055301Y-16792674D01*
X8055301Y-16792674D02*
X8036253Y-16783150D01*
X8036253Y-16783150D02*
X8007682Y-16783150D01*
X8007682Y-16783150D02*
X7988634Y-16792674D01*
X7988634Y-16792674D02*
X7979110Y-16802198D01*
X8188634Y-16916484D02*
X8169587Y-16906960D01*
X8169587Y-16906960D02*
X8160063Y-16897436D01*
X8160063Y-16897436D02*
X8150539Y-16878389D01*
X8150539Y-16878389D02*
X8150539Y-16821246D01*
X8150539Y-16821246D02*
X8160063Y-16802198D01*
X8160063Y-16802198D02*
X8169587Y-16792674D01*
X8169587Y-16792674D02*
X8188634Y-16783150D01*
X8188634Y-16783150D02*
X8217206Y-16783150D01*
X8217206Y-16783150D02*
X8236253Y-16792674D01*
X8236253Y-16792674D02*
X8245777Y-16802198D01*
X8245777Y-16802198D02*
X8255301Y-16821246D01*
X8255301Y-16821246D02*
X8255301Y-16878389D01*
X8255301Y-16878389D02*
X8245777Y-16897436D01*
X8245777Y-16897436D02*
X8236253Y-16906960D01*
X8236253Y-16906960D02*
X8217206Y-16916484D01*
X8217206Y-16916484D02*
X8188634Y-16916484D01*
X8369587Y-16916484D02*
X8350539Y-16906960D01*
X8350539Y-16906960D02*
X8341015Y-16887912D01*
X8341015Y-16887912D02*
X8341015Y-16716484D01*
X8521968Y-16906960D02*
X8502920Y-16916484D01*
X8502920Y-16916484D02*
X8464825Y-16916484D01*
X8464825Y-16916484D02*
X8445777Y-16906960D01*
X8445777Y-16906960D02*
X8436253Y-16887912D01*
X8436253Y-16887912D02*
X8436253Y-16811722D01*
X8436253Y-16811722D02*
X8445777Y-16792674D01*
X8445777Y-16792674D02*
X8464825Y-16783150D01*
X8464825Y-16783150D02*
X8502920Y-16783150D01*
X8502920Y-16783150D02*
X8521968Y-16792674D01*
X8521968Y-16792674D02*
X8531492Y-16811722D01*
X8531492Y-16811722D02*
X8531492Y-16830770D01*
X8531492Y-16830770D02*
X8436253Y-16849817D01*
X8607682Y-16906960D02*
X8626730Y-16916484D01*
X8626730Y-16916484D02*
X8664825Y-16916484D01*
X8664825Y-16916484D02*
X8683873Y-16906960D01*
X8683873Y-16906960D02*
X8693396Y-16887912D01*
X8693396Y-16887912D02*
X8693396Y-16878389D01*
X8693396Y-16878389D02*
X8683873Y-16859341D01*
X8683873Y-16859341D02*
X8664825Y-16849817D01*
X8664825Y-16849817D02*
X8636253Y-16849817D01*
X8636253Y-16849817D02*
X8617206Y-16840293D01*
X8617206Y-16840293D02*
X8607682Y-16821246D01*
X8607682Y-16821246D02*
X8607682Y-16811722D01*
X8607682Y-16811722D02*
X8617206Y-16792674D01*
X8617206Y-16792674D02*
X8636253Y-16783150D01*
X8636253Y-16783150D02*
X8664825Y-16783150D01*
X8664825Y-16783150D02*
X8683873Y-16792674D01*
X8760063Y-16992674D02*
X8769587Y-16983150D01*
X8769587Y-16983150D02*
X8788634Y-16954579D01*
X8788634Y-16954579D02*
X8798158Y-16935531D01*
X8798158Y-16935531D02*
X8807682Y-16906960D01*
X8807682Y-16906960D02*
X8817206Y-16859341D01*
X8817206Y-16859341D02*
X8817206Y-16821246D01*
X8817206Y-16821246D02*
X8807682Y-16773627D01*
X8807682Y-16773627D02*
X8798158Y-16745055D01*
X8798158Y-16745055D02*
X8788634Y-16726008D01*
X8788634Y-16726008D02*
X8769587Y-16697436D01*
X8769587Y-16697436D02*
X8760063Y-16687912D01*
X3955711Y-17159711D02*
X3955711Y-17018289D01*
X3814289Y-17018289D01*
X3814289Y-17159711D01*
X3955711Y-17159711D01*
X4236253Y-16999531D02*
X4245777Y-16990008D01*
X4245777Y-16990008D02*
X4264824Y-16980484D01*
X4264824Y-16980484D02*
X4312444Y-16980484D01*
X4312444Y-16980484D02*
X4331491Y-16990008D01*
X4331491Y-16990008D02*
X4341015Y-16999531D01*
X4341015Y-16999531D02*
X4350539Y-17018579D01*
X4350539Y-17018579D02*
X4350539Y-17037627D01*
X4350539Y-17037627D02*
X4341015Y-17066198D01*
X4341015Y-17066198D02*
X4226729Y-17180484D01*
X4226729Y-17180484D02*
X4350539Y-17180484D01*
X4436253Y-17161436D02*
X4445777Y-17170960D01*
X4445777Y-17170960D02*
X4436253Y-17180484D01*
X4436253Y-17180484D02*
X4426729Y-17170960D01*
X4426729Y-17170960D02*
X4436253Y-17161436D01*
X4436253Y-17161436D02*
X4436253Y-17180484D01*
X4541015Y-17180484D02*
X4579110Y-17180484D01*
X4579110Y-17180484D02*
X4598158Y-17170960D01*
X4598158Y-17170960D02*
X4607682Y-17161436D01*
X4607682Y-17161436D02*
X4626729Y-17132865D01*
X4626729Y-17132865D02*
X4636253Y-17094770D01*
X4636253Y-17094770D02*
X4636253Y-17018579D01*
X4636253Y-17018579D02*
X4626729Y-16999531D01*
X4626729Y-16999531D02*
X4617205Y-16990008D01*
X4617205Y-16990008D02*
X4598158Y-16980484D01*
X4598158Y-16980484D02*
X4560063Y-16980484D01*
X4560063Y-16980484D02*
X4541015Y-16990008D01*
X4541015Y-16990008D02*
X4531491Y-16999531D01*
X4531491Y-16999531D02*
X4521967Y-17018579D01*
X4521967Y-17018579D02*
X4521967Y-17066198D01*
X4521967Y-17066198D02*
X4531491Y-17085246D01*
X4531491Y-17085246D02*
X4541015Y-17094770D01*
X4541015Y-17094770D02*
X4560063Y-17104293D01*
X4560063Y-17104293D02*
X4598158Y-17104293D01*
X4598158Y-17104293D02*
X4617205Y-17094770D01*
X4617205Y-17094770D02*
X4626729Y-17085246D01*
X4626729Y-17085246D02*
X4636253Y-17066198D01*
X4760063Y-16980484D02*
X4779110Y-16980484D01*
X4779110Y-16980484D02*
X4798158Y-16990008D01*
X4798158Y-16990008D02*
X4807682Y-16999531D01*
X4807682Y-16999531D02*
X4817205Y-17018579D01*
X4817205Y-17018579D02*
X4826729Y-17056674D01*
X4826729Y-17056674D02*
X4826729Y-17104293D01*
X4826729Y-17104293D02*
X4817205Y-17142389D01*
X4817205Y-17142389D02*
X4807682Y-17161436D01*
X4807682Y-17161436D02*
X4798158Y-17170960D01*
X4798158Y-17170960D02*
X4779110Y-17180484D01*
X4779110Y-17180484D02*
X4760063Y-17180484D01*
X4760063Y-17180484D02*
X4741015Y-17170960D01*
X4741015Y-17170960D02*
X4731491Y-17161436D01*
X4731491Y-17161436D02*
X4721967Y-17142389D01*
X4721967Y-17142389D02*
X4712444Y-17104293D01*
X4712444Y-17104293D02*
X4712444Y-17056674D01*
X4712444Y-17056674D02*
X4721967Y-17018579D01*
X4721967Y-17018579D02*
X4731491Y-16999531D01*
X4731491Y-16999531D02*
X4741015Y-16990008D01*
X4741015Y-16990008D02*
X4760063Y-16980484D01*
X4950539Y-16980484D02*
X4969586Y-16980484D01*
X4969586Y-16980484D02*
X4988634Y-16990008D01*
X4988634Y-16990008D02*
X4998158Y-16999531D01*
X4998158Y-16999531D02*
X5007682Y-17018579D01*
X5007682Y-17018579D02*
X5017205Y-17056674D01*
X5017205Y-17056674D02*
X5017205Y-17104293D01*
X5017205Y-17104293D02*
X5007682Y-17142389D01*
X5007682Y-17142389D02*
X4998158Y-17161436D01*
X4998158Y-17161436D02*
X4988634Y-17170960D01*
X4988634Y-17170960D02*
X4969586Y-17180484D01*
X4969586Y-17180484D02*
X4950539Y-17180484D01*
X4950539Y-17180484D02*
X4931491Y-17170960D01*
X4931491Y-17170960D02*
X4921967Y-17161436D01*
X4921967Y-17161436D02*
X4912444Y-17142389D01*
X4912444Y-17142389D02*
X4902920Y-17104293D01*
X4902920Y-17104293D02*
X4902920Y-17056674D01*
X4902920Y-17056674D02*
X4912444Y-17018579D01*
X4912444Y-17018579D02*
X4921967Y-16999531D01*
X4921967Y-16999531D02*
X4931491Y-16990008D01*
X4931491Y-16990008D02*
X4950539Y-16980484D01*
X5102920Y-17180484D02*
X5102920Y-17047150D01*
X5102920Y-17066198D02*
X5112444Y-17056674D01*
X5112444Y-17056674D02*
X5131491Y-17047150D01*
X5131491Y-17047150D02*
X5160063Y-17047150D01*
X5160063Y-17047150D02*
X5179110Y-17056674D01*
X5179110Y-17056674D02*
X5188634Y-17075722D01*
X5188634Y-17075722D02*
X5188634Y-17180484D01*
X5188634Y-17075722D02*
X5198158Y-17056674D01*
X5198158Y-17056674D02*
X5217205Y-17047150D01*
X5217205Y-17047150D02*
X5245777Y-17047150D01*
X5245777Y-17047150D02*
X5264825Y-17056674D01*
X5264825Y-17056674D02*
X5274348Y-17075722D01*
X5274348Y-17075722D02*
X5274348Y-17180484D01*
X5369586Y-17180484D02*
X5369586Y-17047150D01*
X5369586Y-17066198D02*
X5379110Y-17056674D01*
X5379110Y-17056674D02*
X5398158Y-17047150D01*
X5398158Y-17047150D02*
X5426729Y-17047150D01*
X5426729Y-17047150D02*
X5445777Y-17056674D01*
X5445777Y-17056674D02*
X5455301Y-17075722D01*
X5455301Y-17075722D02*
X5455301Y-17180484D01*
X5455301Y-17075722D02*
X5464825Y-17056674D01*
X5464825Y-17056674D02*
X5483872Y-17047150D01*
X5483872Y-17047150D02*
X5512444Y-17047150D01*
X5512444Y-17047150D02*
X5531491Y-17056674D01*
X5531491Y-17056674D02*
X5541015Y-17075722D01*
X5541015Y-17075722D02*
X5541015Y-17180484D01*
X5931491Y-16970960D02*
X5760063Y-17228103D01*
X6188634Y-16980484D02*
X6207682Y-16980484D01*
X6207682Y-16980484D02*
X6226729Y-16990008D01*
X6226729Y-16990008D02*
X6236253Y-16999531D01*
X6236253Y-16999531D02*
X6245777Y-17018579D01*
X6245777Y-17018579D02*
X6255301Y-17056674D01*
X6255301Y-17056674D02*
X6255301Y-17104293D01*
X6255301Y-17104293D02*
X6245777Y-17142389D01*
X6245777Y-17142389D02*
X6236253Y-17161436D01*
X6236253Y-17161436D02*
X6226729Y-17170960D01*
X6226729Y-17170960D02*
X6207682Y-17180484D01*
X6207682Y-17180484D02*
X6188634Y-17180484D01*
X6188634Y-17180484D02*
X6169586Y-17170960D01*
X6169586Y-17170960D02*
X6160063Y-17161436D01*
X6160063Y-17161436D02*
X6150539Y-17142389D01*
X6150539Y-17142389D02*
X6141015Y-17104293D01*
X6141015Y-17104293D02*
X6141015Y-17056674D01*
X6141015Y-17056674D02*
X6150539Y-17018579D01*
X6150539Y-17018579D02*
X6160063Y-16999531D01*
X6160063Y-16999531D02*
X6169586Y-16990008D01*
X6169586Y-16990008D02*
X6188634Y-16980484D01*
X6341015Y-17161436D02*
X6350539Y-17170960D01*
X6350539Y-17170960D02*
X6341015Y-17180484D01*
X6341015Y-17180484D02*
X6331491Y-17170960D01*
X6331491Y-17170960D02*
X6341015Y-17161436D01*
X6341015Y-17161436D02*
X6341015Y-17180484D01*
X6541015Y-17180484D02*
X6426729Y-17180484D01*
X6483872Y-17180484D02*
X6483872Y-16980484D01*
X6483872Y-16980484D02*
X6464825Y-17009055D01*
X6464825Y-17009055D02*
X6445777Y-17028103D01*
X6445777Y-17028103D02*
X6426729Y-17037627D01*
X6731491Y-17180484D02*
X6617206Y-17180484D01*
X6674348Y-17180484D02*
X6674348Y-16980484D01*
X6674348Y-16980484D02*
X6655301Y-17009055D01*
X6655301Y-17009055D02*
X6636253Y-17028103D01*
X6636253Y-17028103D02*
X6617206Y-17037627D01*
X6902920Y-17047150D02*
X6902920Y-17180484D01*
X6855301Y-16970960D02*
X6807682Y-17113817D01*
X6807682Y-17113817D02*
X6931491Y-17113817D01*
X6998158Y-16999531D02*
X7007682Y-16990008D01*
X7007682Y-16990008D02*
X7026729Y-16980484D01*
X7026729Y-16980484D02*
X7074348Y-16980484D01*
X7074348Y-16980484D02*
X7093396Y-16990008D01*
X7093396Y-16990008D02*
X7102920Y-16999531D01*
X7102920Y-16999531D02*
X7112444Y-17018579D01*
X7112444Y-17018579D02*
X7112444Y-17037627D01*
X7112444Y-17037627D02*
X7102920Y-17066198D01*
X7102920Y-17066198D02*
X6988634Y-17180484D01*
X6988634Y-17180484D02*
X7112444Y-17180484D01*
X7188634Y-16980484D02*
X7188634Y-17018579D01*
X7264825Y-16980484D02*
X7264825Y-17018579D01*
X7560063Y-17256674D02*
X7550539Y-17247150D01*
X7550539Y-17247150D02*
X7531491Y-17218579D01*
X7531491Y-17218579D02*
X7521968Y-17199531D01*
X7521968Y-17199531D02*
X7512444Y-17170960D01*
X7512444Y-17170960D02*
X7502920Y-17123341D01*
X7502920Y-17123341D02*
X7502920Y-17085246D01*
X7502920Y-17085246D02*
X7512444Y-17037627D01*
X7512444Y-17037627D02*
X7521968Y-17009055D01*
X7521968Y-17009055D02*
X7531491Y-16990008D01*
X7531491Y-16990008D02*
X7550539Y-16961436D01*
X7550539Y-16961436D02*
X7560063Y-16951912D01*
X7721968Y-17047150D02*
X7721968Y-17180484D01*
X7674348Y-16970960D02*
X7626729Y-17113817D01*
X7626729Y-17113817D02*
X7750539Y-17113817D01*
X7979110Y-17180484D02*
X7979110Y-16980484D01*
X8064825Y-17180484D02*
X8064825Y-17075722D01*
X8064825Y-17075722D02*
X8055301Y-17056674D01*
X8055301Y-17056674D02*
X8036253Y-17047150D01*
X8036253Y-17047150D02*
X8007682Y-17047150D01*
X8007682Y-17047150D02*
X7988634Y-17056674D01*
X7988634Y-17056674D02*
X7979110Y-17066198D01*
X8188634Y-17180484D02*
X8169587Y-17170960D01*
X8169587Y-17170960D02*
X8160063Y-17161436D01*
X8160063Y-17161436D02*
X8150539Y-17142389D01*
X8150539Y-17142389D02*
X8150539Y-17085246D01*
X8150539Y-17085246D02*
X8160063Y-17066198D01*
X8160063Y-17066198D02*
X8169587Y-17056674D01*
X8169587Y-17056674D02*
X8188634Y-17047150D01*
X8188634Y-17047150D02*
X8217206Y-17047150D01*
X8217206Y-17047150D02*
X8236253Y-17056674D01*
X8236253Y-17056674D02*
X8245777Y-17066198D01*
X8245777Y-17066198D02*
X8255301Y-17085246D01*
X8255301Y-17085246D02*
X8255301Y-17142389D01*
X8255301Y-17142389D02*
X8245777Y-17161436D01*
X8245777Y-17161436D02*
X8236253Y-17170960D01*
X8236253Y-17170960D02*
X8217206Y-17180484D01*
X8217206Y-17180484D02*
X8188634Y-17180484D01*
X8369587Y-17180484D02*
X8350539Y-17170960D01*
X8350539Y-17170960D02*
X8341015Y-17151912D01*
X8341015Y-17151912D02*
X8341015Y-16980484D01*
X8521968Y-17170960D02*
X8502920Y-17180484D01*
X8502920Y-17180484D02*
X8464825Y-17180484D01*
X8464825Y-17180484D02*
X8445777Y-17170960D01*
X8445777Y-17170960D02*
X8436253Y-17151912D01*
X8436253Y-17151912D02*
X8436253Y-17075722D01*
X8436253Y-17075722D02*
X8445777Y-17056674D01*
X8445777Y-17056674D02*
X8464825Y-17047150D01*
X8464825Y-17047150D02*
X8502920Y-17047150D01*
X8502920Y-17047150D02*
X8521968Y-17056674D01*
X8521968Y-17056674D02*
X8531492Y-17075722D01*
X8531492Y-17075722D02*
X8531492Y-17094770D01*
X8531492Y-17094770D02*
X8436253Y-17113817D01*
X8607682Y-17170960D02*
X8626730Y-17180484D01*
X8626730Y-17180484D02*
X8664825Y-17180484D01*
X8664825Y-17180484D02*
X8683873Y-17170960D01*
X8683873Y-17170960D02*
X8693396Y-17151912D01*
X8693396Y-17151912D02*
X8693396Y-17142389D01*
X8693396Y-17142389D02*
X8683873Y-17123341D01*
X8683873Y-17123341D02*
X8664825Y-17113817D01*
X8664825Y-17113817D02*
X8636253Y-17113817D01*
X8636253Y-17113817D02*
X8617206Y-17104293D01*
X8617206Y-17104293D02*
X8607682Y-17085246D01*
X8607682Y-17085246D02*
X8607682Y-17075722D01*
X8607682Y-17075722D02*
X8617206Y-17056674D01*
X8617206Y-17056674D02*
X8636253Y-17047150D01*
X8636253Y-17047150D02*
X8664825Y-17047150D01*
X8664825Y-17047150D02*
X8683873Y-17056674D01*
X8760063Y-17256674D02*
X8769587Y-17247150D01*
X8769587Y-17247150D02*
X8788634Y-17218579D01*
X8788634Y-17218579D02*
X8798158Y-17199531D01*
X8798158Y-17199531D02*
X8807682Y-17170960D01*
X8807682Y-17170960D02*
X8817206Y-17123341D01*
X8817206Y-17123341D02*
X8817206Y-17085246D01*
X8817206Y-17085246D02*
X8807682Y-17037627D01*
X8807682Y-17037627D02*
X8798158Y-17009055D01*
X8798158Y-17009055D02*
X8788634Y-16990008D01*
X8788634Y-16990008D02*
X8769587Y-16961436D01*
X8769587Y-16961436D02*
X8760063Y-16951912D01*
M02*
