G04 #@! TF.GenerationSoftware,KiCad,Pcbnew,7.0.8*
G04 #@! TF.CreationDate,2023-11-04T04:32:00-07:00*
G04 #@! TF.ProjectId,picovoltexv2,7069636f-766f-46c7-9465-7876322e6b69,rev?*
G04 #@! TF.SameCoordinates,Original*
G04 #@! TF.FileFunction,Legend,Top*
G04 #@! TF.FilePolarity,Positive*
%FSLAX46Y46*%
G04 Gerber Fmt 4.6, Leading zero omitted, Abs format (unit mm)*
G04 Created by KiCad (PCBNEW 7.0.8) date 2023-11-04 04:32:00*
%MOMM*%
%LPD*%
G01*
G04 APERTURE LIST*
G04 Aperture macros list*
%AMRoundRect*
0 Rectangle with rounded corners*
0 $1 Rounding radius*
0 $2 $3 $4 $5 $6 $7 $8 $9 X,Y pos of 4 corners*
0 Add a 4 corners polygon primitive as box body*
4,1,4,$2,$3,$4,$5,$6,$7,$8,$9,$2,$3,0*
0 Add four circle primitives for the rounded corners*
1,1,$1+$1,$2,$3*
1,1,$1+$1,$4,$5*
1,1,$1+$1,$6,$7*
1,1,$1+$1,$8,$9*
0 Add four rect primitives between the rounded corners*
20,1,$1+$1,$2,$3,$4,$5,0*
20,1,$1+$1,$4,$5,$6,$7,0*
20,1,$1+$1,$6,$7,$8,$9,0*
20,1,$1+$1,$8,$9,$2,$3,0*%
G04 Aperture macros list end*
%ADD10C,0.150000*%
%ADD11C,0.254000*%
%ADD12C,0.120000*%
%ADD13C,0.200000*%
%ADD14C,0.100000*%
%ADD15R,0.900000X1.500000*%
%ADD16R,1.500000X0.900000*%
%ADD17C,3.200000*%
%ADD18C,1.800000*%
%ADD19C,4.350000*%
%ADD20RoundRect,0.200000X-0.200000X-0.275000X0.200000X-0.275000X0.200000X0.275000X-0.200000X0.275000X0*%
%ADD21RoundRect,0.200000X0.200000X0.275000X-0.200000X0.275000X-0.200000X-0.275000X0.200000X-0.275000X0*%
%ADD22C,1.750000*%
%ADD23C,3.000000*%
%ADD24C,3.987800*%
%ADD25R,1.500000X2.600000*%
%ADD26R,1.400000X1.650000*%
%ADD27RoundRect,0.225000X0.225000X0.250000X-0.225000X0.250000X-0.225000X-0.250000X0.225000X-0.250000X0*%
%ADD28O,1.800000X1.800000*%
%ADD29O,1.500000X1.500000*%
%ADD30O,1.700000X1.700000*%
%ADD31R,3.500000X1.700000*%
%ADD32R,1.700000X1.700000*%
%ADD33R,1.700000X3.500000*%
%ADD34RoundRect,0.225000X-0.225000X-0.250000X0.225000X-0.250000X0.225000X0.250000X-0.225000X0.250000X0*%
G04 APERTURE END LIST*
D10*
X98942493Y-73489819D02*
X98942493Y-74204104D01*
X98942493Y-74204104D02*
X98894874Y-74346961D01*
X98894874Y-74346961D02*
X98799636Y-74442200D01*
X98799636Y-74442200D02*
X98656779Y-74489819D01*
X98656779Y-74489819D02*
X98561541Y-74489819D01*
X99894874Y-74489819D02*
X99418684Y-74489819D01*
X99418684Y-74489819D02*
X99418684Y-73489819D01*
X100799636Y-74394580D02*
X100752017Y-74442200D01*
X100752017Y-74442200D02*
X100609160Y-74489819D01*
X100609160Y-74489819D02*
X100513922Y-74489819D01*
X100513922Y-74489819D02*
X100371065Y-74442200D01*
X100371065Y-74442200D02*
X100275827Y-74346961D01*
X100275827Y-74346961D02*
X100228208Y-74251723D01*
X100228208Y-74251723D02*
X100180589Y-74061247D01*
X100180589Y-74061247D02*
X100180589Y-73918390D01*
X100180589Y-73918390D02*
X100228208Y-73727914D01*
X100228208Y-73727914D02*
X100275827Y-73632676D01*
X100275827Y-73632676D02*
X100371065Y-73537438D01*
X100371065Y-73537438D02*
X100513922Y-73489819D01*
X100513922Y-73489819D02*
X100609160Y-73489819D01*
X100609160Y-73489819D02*
X100752017Y-73537438D01*
X100752017Y-73537438D02*
X100799636Y-73585057D01*
X101513922Y-73489819D02*
X101513922Y-74204104D01*
X101513922Y-74204104D02*
X101466303Y-74346961D01*
X101466303Y-74346961D02*
X101371065Y-74442200D01*
X101371065Y-74442200D02*
X101228208Y-74489819D01*
X101228208Y-74489819D02*
X101132970Y-74489819D01*
X102466303Y-74489819D02*
X101990113Y-74489819D01*
X101990113Y-74489819D02*
X101990113Y-73489819D01*
X103371065Y-74394580D02*
X103323446Y-74442200D01*
X103323446Y-74442200D02*
X103180589Y-74489819D01*
X103180589Y-74489819D02*
X103085351Y-74489819D01*
X103085351Y-74489819D02*
X102942494Y-74442200D01*
X102942494Y-74442200D02*
X102847256Y-74346961D01*
X102847256Y-74346961D02*
X102799637Y-74251723D01*
X102799637Y-74251723D02*
X102752018Y-74061247D01*
X102752018Y-74061247D02*
X102752018Y-73918390D01*
X102752018Y-73918390D02*
X102799637Y-73727914D01*
X102799637Y-73727914D02*
X102847256Y-73632676D01*
X102847256Y-73632676D02*
X102942494Y-73537438D01*
X102942494Y-73537438D02*
X103085351Y-73489819D01*
X103085351Y-73489819D02*
X103180589Y-73489819D01*
X103180589Y-73489819D02*
X103323446Y-73537438D01*
X103323446Y-73537438D02*
X103371065Y-73585057D01*
X104085351Y-73489819D02*
X104085351Y-74204104D01*
X104085351Y-74204104D02*
X104037732Y-74346961D01*
X104037732Y-74346961D02*
X103942494Y-74442200D01*
X103942494Y-74442200D02*
X103799637Y-74489819D01*
X103799637Y-74489819D02*
X103704399Y-74489819D01*
X105037732Y-74489819D02*
X104561542Y-74489819D01*
X104561542Y-74489819D02*
X104561542Y-73489819D01*
X105942494Y-74394580D02*
X105894875Y-74442200D01*
X105894875Y-74442200D02*
X105752018Y-74489819D01*
X105752018Y-74489819D02*
X105656780Y-74489819D01*
X105656780Y-74489819D02*
X105513923Y-74442200D01*
X105513923Y-74442200D02*
X105418685Y-74346961D01*
X105418685Y-74346961D02*
X105371066Y-74251723D01*
X105371066Y-74251723D02*
X105323447Y-74061247D01*
X105323447Y-74061247D02*
X105323447Y-73918390D01*
X105323447Y-73918390D02*
X105371066Y-73727914D01*
X105371066Y-73727914D02*
X105418685Y-73632676D01*
X105418685Y-73632676D02*
X105513923Y-73537438D01*
X105513923Y-73537438D02*
X105656780Y-73489819D01*
X105656780Y-73489819D02*
X105752018Y-73489819D01*
X105752018Y-73489819D02*
X105894875Y-73537438D01*
X105894875Y-73537438D02*
X105942494Y-73585057D01*
X106656780Y-73489819D02*
X106656780Y-74204104D01*
X106656780Y-74204104D02*
X106609161Y-74346961D01*
X106609161Y-74346961D02*
X106513923Y-74442200D01*
X106513923Y-74442200D02*
X106371066Y-74489819D01*
X106371066Y-74489819D02*
X106275828Y-74489819D01*
X107609161Y-74489819D02*
X107132971Y-74489819D01*
X107132971Y-74489819D02*
X107132971Y-73489819D01*
X108513923Y-74394580D02*
X108466304Y-74442200D01*
X108466304Y-74442200D02*
X108323447Y-74489819D01*
X108323447Y-74489819D02*
X108228209Y-74489819D01*
X108228209Y-74489819D02*
X108085352Y-74442200D01*
X108085352Y-74442200D02*
X107990114Y-74346961D01*
X107990114Y-74346961D02*
X107942495Y-74251723D01*
X107942495Y-74251723D02*
X107894876Y-74061247D01*
X107894876Y-74061247D02*
X107894876Y-73918390D01*
X107894876Y-73918390D02*
X107942495Y-73727914D01*
X107942495Y-73727914D02*
X107990114Y-73632676D01*
X107990114Y-73632676D02*
X108085352Y-73537438D01*
X108085352Y-73537438D02*
X108228209Y-73489819D01*
X108228209Y-73489819D02*
X108323447Y-73489819D01*
X108323447Y-73489819D02*
X108466304Y-73537438D01*
X108466304Y-73537438D02*
X108513923Y-73585057D01*
X44854819Y-59634285D02*
X43854819Y-59634285D01*
X43854819Y-59634285D02*
X43854819Y-59396190D01*
X43854819Y-59396190D02*
X43902438Y-59253333D01*
X43902438Y-59253333D02*
X43997676Y-59158095D01*
X43997676Y-59158095D02*
X44092914Y-59110476D01*
X44092914Y-59110476D02*
X44283390Y-59062857D01*
X44283390Y-59062857D02*
X44426247Y-59062857D01*
X44426247Y-59062857D02*
X44616723Y-59110476D01*
X44616723Y-59110476D02*
X44711961Y-59158095D01*
X44711961Y-59158095D02*
X44807200Y-59253333D01*
X44807200Y-59253333D02*
X44854819Y-59396190D01*
X44854819Y-59396190D02*
X44854819Y-59634285D01*
X44854819Y-58110476D02*
X44854819Y-58681904D01*
X44854819Y-58396190D02*
X43854819Y-58396190D01*
X43854819Y-58396190D02*
X43997676Y-58491428D01*
X43997676Y-58491428D02*
X44092914Y-58586666D01*
X44092914Y-58586666D02*
X44140533Y-58681904D01*
X43854819Y-57491428D02*
X43854819Y-57396190D01*
X43854819Y-57396190D02*
X43902438Y-57300952D01*
X43902438Y-57300952D02*
X43950057Y-57253333D01*
X43950057Y-57253333D02*
X44045295Y-57205714D01*
X44045295Y-57205714D02*
X44235771Y-57158095D01*
X44235771Y-57158095D02*
X44473866Y-57158095D01*
X44473866Y-57158095D02*
X44664342Y-57205714D01*
X44664342Y-57205714D02*
X44759580Y-57253333D01*
X44759580Y-57253333D02*
X44807200Y-57300952D01*
X44807200Y-57300952D02*
X44854819Y-57396190D01*
X44854819Y-57396190D02*
X44854819Y-57491428D01*
X44854819Y-57491428D02*
X44807200Y-57586666D01*
X44807200Y-57586666D02*
X44759580Y-57634285D01*
X44759580Y-57634285D02*
X44664342Y-57681904D01*
X44664342Y-57681904D02*
X44473866Y-57729523D01*
X44473866Y-57729523D02*
X44235771Y-57729523D01*
X44235771Y-57729523D02*
X44045295Y-57681904D01*
X44045295Y-57681904D02*
X43950057Y-57634285D01*
X43950057Y-57634285D02*
X43902438Y-57586666D01*
X43902438Y-57586666D02*
X43854819Y-57491428D01*
X46754819Y-62284285D02*
X46754819Y-62855713D01*
X46754819Y-62569999D02*
X45754819Y-62569999D01*
X45754819Y-62569999D02*
X45897676Y-62665237D01*
X45897676Y-62665237D02*
X45992914Y-62760475D01*
X45992914Y-62760475D02*
X46040533Y-62855713D01*
X44854819Y-84558094D02*
X43854819Y-84558094D01*
X43854819Y-84558094D02*
X43854819Y-84319999D01*
X43854819Y-84319999D02*
X43902438Y-84177142D01*
X43902438Y-84177142D02*
X43997676Y-84081904D01*
X43997676Y-84081904D02*
X44092914Y-84034285D01*
X44092914Y-84034285D02*
X44283390Y-83986666D01*
X44283390Y-83986666D02*
X44426247Y-83986666D01*
X44426247Y-83986666D02*
X44616723Y-84034285D01*
X44616723Y-84034285D02*
X44711961Y-84081904D01*
X44711961Y-84081904D02*
X44807200Y-84177142D01*
X44807200Y-84177142D02*
X44854819Y-84319999D01*
X44854819Y-84319999D02*
X44854819Y-84558094D01*
X44854819Y-83510475D02*
X44854819Y-83319999D01*
X44854819Y-83319999D02*
X44807200Y-83224761D01*
X44807200Y-83224761D02*
X44759580Y-83177142D01*
X44759580Y-83177142D02*
X44616723Y-83081904D01*
X44616723Y-83081904D02*
X44426247Y-83034285D01*
X44426247Y-83034285D02*
X44045295Y-83034285D01*
X44045295Y-83034285D02*
X43950057Y-83081904D01*
X43950057Y-83081904D02*
X43902438Y-83129523D01*
X43902438Y-83129523D02*
X43854819Y-83224761D01*
X43854819Y-83224761D02*
X43854819Y-83415237D01*
X43854819Y-83415237D02*
X43902438Y-83510475D01*
X43902438Y-83510475D02*
X43950057Y-83558094D01*
X43950057Y-83558094D02*
X44045295Y-83605713D01*
X44045295Y-83605713D02*
X44283390Y-83605713D01*
X44283390Y-83605713D02*
X44378628Y-83558094D01*
X44378628Y-83558094D02*
X44426247Y-83510475D01*
X44426247Y-83510475D02*
X44473866Y-83415237D01*
X44473866Y-83415237D02*
X44473866Y-83224761D01*
X44473866Y-83224761D02*
X44426247Y-83129523D01*
X44426247Y-83129523D02*
X44378628Y-83081904D01*
X44378628Y-83081904D02*
X44283390Y-83034285D01*
X46754819Y-87684285D02*
X46754819Y-88255713D01*
X46754819Y-87969999D02*
X45754819Y-87969999D01*
X45754819Y-87969999D02*
X45897676Y-88065237D01*
X45897676Y-88065237D02*
X45992914Y-88160475D01*
X45992914Y-88160475D02*
X46040533Y-88255713D01*
X44854819Y-109958094D02*
X43854819Y-109958094D01*
X43854819Y-109958094D02*
X43854819Y-109719999D01*
X43854819Y-109719999D02*
X43902438Y-109577142D01*
X43902438Y-109577142D02*
X43997676Y-109481904D01*
X43997676Y-109481904D02*
X44092914Y-109434285D01*
X44092914Y-109434285D02*
X44283390Y-109386666D01*
X44283390Y-109386666D02*
X44426247Y-109386666D01*
X44426247Y-109386666D02*
X44616723Y-109434285D01*
X44616723Y-109434285D02*
X44711961Y-109481904D01*
X44711961Y-109481904D02*
X44807200Y-109577142D01*
X44807200Y-109577142D02*
X44854819Y-109719999D01*
X44854819Y-109719999D02*
X44854819Y-109958094D01*
X44283390Y-108815237D02*
X44235771Y-108910475D01*
X44235771Y-108910475D02*
X44188152Y-108958094D01*
X44188152Y-108958094D02*
X44092914Y-109005713D01*
X44092914Y-109005713D02*
X44045295Y-109005713D01*
X44045295Y-109005713D02*
X43950057Y-108958094D01*
X43950057Y-108958094D02*
X43902438Y-108910475D01*
X43902438Y-108910475D02*
X43854819Y-108815237D01*
X43854819Y-108815237D02*
X43854819Y-108624761D01*
X43854819Y-108624761D02*
X43902438Y-108529523D01*
X43902438Y-108529523D02*
X43950057Y-108481904D01*
X43950057Y-108481904D02*
X44045295Y-108434285D01*
X44045295Y-108434285D02*
X44092914Y-108434285D01*
X44092914Y-108434285D02*
X44188152Y-108481904D01*
X44188152Y-108481904D02*
X44235771Y-108529523D01*
X44235771Y-108529523D02*
X44283390Y-108624761D01*
X44283390Y-108624761D02*
X44283390Y-108815237D01*
X44283390Y-108815237D02*
X44331009Y-108910475D01*
X44331009Y-108910475D02*
X44378628Y-108958094D01*
X44378628Y-108958094D02*
X44473866Y-109005713D01*
X44473866Y-109005713D02*
X44664342Y-109005713D01*
X44664342Y-109005713D02*
X44759580Y-108958094D01*
X44759580Y-108958094D02*
X44807200Y-108910475D01*
X44807200Y-108910475D02*
X44854819Y-108815237D01*
X44854819Y-108815237D02*
X44854819Y-108624761D01*
X44854819Y-108624761D02*
X44807200Y-108529523D01*
X44807200Y-108529523D02*
X44759580Y-108481904D01*
X44759580Y-108481904D02*
X44664342Y-108434285D01*
X44664342Y-108434285D02*
X44473866Y-108434285D01*
X44473866Y-108434285D02*
X44378628Y-108481904D01*
X44378628Y-108481904D02*
X44331009Y-108529523D01*
X44331009Y-108529523D02*
X44283390Y-108624761D01*
X46754819Y-113084285D02*
X46754819Y-113655713D01*
X46754819Y-113369999D02*
X45754819Y-113369999D01*
X45754819Y-113369999D02*
X45897676Y-113465237D01*
X45897676Y-113465237D02*
X45992914Y-113560475D01*
X45992914Y-113560475D02*
X46040533Y-113655713D01*
X44854819Y-135358094D02*
X43854819Y-135358094D01*
X43854819Y-135358094D02*
X43854819Y-135119999D01*
X43854819Y-135119999D02*
X43902438Y-134977142D01*
X43902438Y-134977142D02*
X43997676Y-134881904D01*
X43997676Y-134881904D02*
X44092914Y-134834285D01*
X44092914Y-134834285D02*
X44283390Y-134786666D01*
X44283390Y-134786666D02*
X44426247Y-134786666D01*
X44426247Y-134786666D02*
X44616723Y-134834285D01*
X44616723Y-134834285D02*
X44711961Y-134881904D01*
X44711961Y-134881904D02*
X44807200Y-134977142D01*
X44807200Y-134977142D02*
X44854819Y-135119999D01*
X44854819Y-135119999D02*
X44854819Y-135358094D01*
X43854819Y-134453332D02*
X43854819Y-133786666D01*
X43854819Y-133786666D02*
X44854819Y-134215237D01*
X46754819Y-138484285D02*
X46754819Y-139055713D01*
X46754819Y-138769999D02*
X45754819Y-138769999D01*
X45754819Y-138769999D02*
X45897676Y-138865237D01*
X45897676Y-138865237D02*
X45992914Y-138960475D01*
X45992914Y-138960475D02*
X46040533Y-139055713D01*
X156835714Y-154574819D02*
X156264286Y-154574819D01*
X156550000Y-154574819D02*
X156550000Y-153574819D01*
X156550000Y-153574819D02*
X156454762Y-153717676D01*
X156454762Y-153717676D02*
X156359524Y-153812914D01*
X156359524Y-153812914D02*
X156264286Y-153860533D01*
X260854819Y-135358094D02*
X259854819Y-135358094D01*
X259854819Y-135358094D02*
X259854819Y-135119999D01*
X259854819Y-135119999D02*
X259902438Y-134977142D01*
X259902438Y-134977142D02*
X259997676Y-134881904D01*
X259997676Y-134881904D02*
X260092914Y-134834285D01*
X260092914Y-134834285D02*
X260283390Y-134786666D01*
X260283390Y-134786666D02*
X260426247Y-134786666D01*
X260426247Y-134786666D02*
X260616723Y-134834285D01*
X260616723Y-134834285D02*
X260711961Y-134881904D01*
X260711961Y-134881904D02*
X260807200Y-134977142D01*
X260807200Y-134977142D02*
X260854819Y-135119999D01*
X260854819Y-135119999D02*
X260854819Y-135358094D01*
X259854819Y-133881904D02*
X259854819Y-134358094D01*
X259854819Y-134358094D02*
X260331009Y-134405713D01*
X260331009Y-134405713D02*
X260283390Y-134358094D01*
X260283390Y-134358094D02*
X260235771Y-134262856D01*
X260235771Y-134262856D02*
X260235771Y-134024761D01*
X260235771Y-134024761D02*
X260283390Y-133929523D01*
X260283390Y-133929523D02*
X260331009Y-133881904D01*
X260331009Y-133881904D02*
X260426247Y-133834285D01*
X260426247Y-133834285D02*
X260664342Y-133834285D01*
X260664342Y-133834285D02*
X260759580Y-133881904D01*
X260759580Y-133881904D02*
X260807200Y-133929523D01*
X260807200Y-133929523D02*
X260854819Y-134024761D01*
X260854819Y-134024761D02*
X260854819Y-134262856D01*
X260854819Y-134262856D02*
X260807200Y-134358094D01*
X260807200Y-134358094D02*
X260759580Y-134405713D01*
X258954819Y-130184285D02*
X258954819Y-130755713D01*
X258954819Y-130469999D02*
X257954819Y-130469999D01*
X257954819Y-130469999D02*
X258097676Y-130565237D01*
X258097676Y-130565237D02*
X258192914Y-130660475D01*
X258192914Y-130660475D02*
X258240533Y-130755713D01*
X260854819Y-109958094D02*
X259854819Y-109958094D01*
X259854819Y-109958094D02*
X259854819Y-109719999D01*
X259854819Y-109719999D02*
X259902438Y-109577142D01*
X259902438Y-109577142D02*
X259997676Y-109481904D01*
X259997676Y-109481904D02*
X260092914Y-109434285D01*
X260092914Y-109434285D02*
X260283390Y-109386666D01*
X260283390Y-109386666D02*
X260426247Y-109386666D01*
X260426247Y-109386666D02*
X260616723Y-109434285D01*
X260616723Y-109434285D02*
X260711961Y-109481904D01*
X260711961Y-109481904D02*
X260807200Y-109577142D01*
X260807200Y-109577142D02*
X260854819Y-109719999D01*
X260854819Y-109719999D02*
X260854819Y-109958094D01*
X260188152Y-108529523D02*
X260854819Y-108529523D01*
X259807200Y-108767618D02*
X260521485Y-109005713D01*
X260521485Y-109005713D02*
X260521485Y-108386666D01*
X258954819Y-104784285D02*
X258954819Y-105355713D01*
X258954819Y-105069999D02*
X257954819Y-105069999D01*
X257954819Y-105069999D02*
X258097676Y-105165237D01*
X258097676Y-105165237D02*
X258192914Y-105260475D01*
X258192914Y-105260475D02*
X258240533Y-105355713D01*
X260854819Y-84558094D02*
X259854819Y-84558094D01*
X259854819Y-84558094D02*
X259854819Y-84319999D01*
X259854819Y-84319999D02*
X259902438Y-84177142D01*
X259902438Y-84177142D02*
X259997676Y-84081904D01*
X259997676Y-84081904D02*
X260092914Y-84034285D01*
X260092914Y-84034285D02*
X260283390Y-83986666D01*
X260283390Y-83986666D02*
X260426247Y-83986666D01*
X260426247Y-83986666D02*
X260616723Y-84034285D01*
X260616723Y-84034285D02*
X260711961Y-84081904D01*
X260711961Y-84081904D02*
X260807200Y-84177142D01*
X260807200Y-84177142D02*
X260854819Y-84319999D01*
X260854819Y-84319999D02*
X260854819Y-84558094D01*
X259854819Y-83653332D02*
X259854819Y-83034285D01*
X259854819Y-83034285D02*
X260235771Y-83367618D01*
X260235771Y-83367618D02*
X260235771Y-83224761D01*
X260235771Y-83224761D02*
X260283390Y-83129523D01*
X260283390Y-83129523D02*
X260331009Y-83081904D01*
X260331009Y-83081904D02*
X260426247Y-83034285D01*
X260426247Y-83034285D02*
X260664342Y-83034285D01*
X260664342Y-83034285D02*
X260759580Y-83081904D01*
X260759580Y-83081904D02*
X260807200Y-83129523D01*
X260807200Y-83129523D02*
X260854819Y-83224761D01*
X260854819Y-83224761D02*
X260854819Y-83510475D01*
X260854819Y-83510475D02*
X260807200Y-83605713D01*
X260807200Y-83605713D02*
X260759580Y-83653332D01*
X258954819Y-79384285D02*
X258954819Y-79955713D01*
X258954819Y-79669999D02*
X257954819Y-79669999D01*
X257954819Y-79669999D02*
X258097676Y-79765237D01*
X258097676Y-79765237D02*
X258192914Y-79860475D01*
X258192914Y-79860475D02*
X258240533Y-79955713D01*
X260854819Y-59158094D02*
X259854819Y-59158094D01*
X259854819Y-59158094D02*
X259854819Y-58919999D01*
X259854819Y-58919999D02*
X259902438Y-58777142D01*
X259902438Y-58777142D02*
X259997676Y-58681904D01*
X259997676Y-58681904D02*
X260092914Y-58634285D01*
X260092914Y-58634285D02*
X260283390Y-58586666D01*
X260283390Y-58586666D02*
X260426247Y-58586666D01*
X260426247Y-58586666D02*
X260616723Y-58634285D01*
X260616723Y-58634285D02*
X260711961Y-58681904D01*
X260711961Y-58681904D02*
X260807200Y-58777142D01*
X260807200Y-58777142D02*
X260854819Y-58919999D01*
X260854819Y-58919999D02*
X260854819Y-59158094D01*
X259950057Y-58205713D02*
X259902438Y-58158094D01*
X259902438Y-58158094D02*
X259854819Y-58062856D01*
X259854819Y-58062856D02*
X259854819Y-57824761D01*
X259854819Y-57824761D02*
X259902438Y-57729523D01*
X259902438Y-57729523D02*
X259950057Y-57681904D01*
X259950057Y-57681904D02*
X260045295Y-57634285D01*
X260045295Y-57634285D02*
X260140533Y-57634285D01*
X260140533Y-57634285D02*
X260283390Y-57681904D01*
X260283390Y-57681904D02*
X260854819Y-58253332D01*
X260854819Y-58253332D02*
X260854819Y-57634285D01*
X258954819Y-53984285D02*
X258954819Y-54555713D01*
X258954819Y-54269999D02*
X257954819Y-54269999D01*
X257954819Y-54269999D02*
X258097676Y-54365237D01*
X258097676Y-54365237D02*
X258192914Y-54460475D01*
X258192914Y-54460475D02*
X258240533Y-54555713D01*
X148535714Y-39374819D02*
X147964286Y-39374819D01*
X148250000Y-39374819D02*
X148250000Y-38374819D01*
X148250000Y-38374819D02*
X148154762Y-38517676D01*
X148154762Y-38517676D02*
X148059524Y-38612914D01*
X148059524Y-38612914D02*
X147964286Y-38660533D01*
D11*
X61023094Y-60279080D02*
X61446428Y-60279080D01*
X61627856Y-60944318D02*
X61023094Y-60944318D01*
X61023094Y-60944318D02*
X61023094Y-59674318D01*
X61023094Y-59674318D02*
X61627856Y-59674318D01*
X62837381Y-60944318D02*
X62111666Y-60944318D01*
X62474523Y-60944318D02*
X62474523Y-59674318D01*
X62474523Y-59674318D02*
X62353571Y-59855746D01*
X62353571Y-59855746D02*
X62232619Y-59976699D01*
X62232619Y-59976699D02*
X62111666Y-60037175D01*
D10*
X95033333Y-112044819D02*
X94700000Y-111568628D01*
X94461905Y-112044819D02*
X94461905Y-111044819D01*
X94461905Y-111044819D02*
X94842857Y-111044819D01*
X94842857Y-111044819D02*
X94938095Y-111092438D01*
X94938095Y-111092438D02*
X94985714Y-111140057D01*
X94985714Y-111140057D02*
X95033333Y-111235295D01*
X95033333Y-111235295D02*
X95033333Y-111378152D01*
X95033333Y-111378152D02*
X94985714Y-111473390D01*
X94985714Y-111473390D02*
X94938095Y-111521009D01*
X94938095Y-111521009D02*
X94842857Y-111568628D01*
X94842857Y-111568628D02*
X94461905Y-111568628D01*
X95414286Y-111140057D02*
X95461905Y-111092438D01*
X95461905Y-111092438D02*
X95557143Y-111044819D01*
X95557143Y-111044819D02*
X95795238Y-111044819D01*
X95795238Y-111044819D02*
X95890476Y-111092438D01*
X95890476Y-111092438D02*
X95938095Y-111140057D01*
X95938095Y-111140057D02*
X95985714Y-111235295D01*
X95985714Y-111235295D02*
X95985714Y-111330533D01*
X95985714Y-111330533D02*
X95938095Y-111473390D01*
X95938095Y-111473390D02*
X95366667Y-112044819D01*
X95366667Y-112044819D02*
X95985714Y-112044819D01*
X152578333Y-67604819D02*
X152245000Y-67128628D01*
X152006905Y-67604819D02*
X152006905Y-66604819D01*
X152006905Y-66604819D02*
X152387857Y-66604819D01*
X152387857Y-66604819D02*
X152483095Y-66652438D01*
X152483095Y-66652438D02*
X152530714Y-66700057D01*
X152530714Y-66700057D02*
X152578333Y-66795295D01*
X152578333Y-66795295D02*
X152578333Y-66938152D01*
X152578333Y-66938152D02*
X152530714Y-67033390D01*
X152530714Y-67033390D02*
X152483095Y-67081009D01*
X152483095Y-67081009D02*
X152387857Y-67128628D01*
X152387857Y-67128628D02*
X152006905Y-67128628D01*
X153530714Y-67604819D02*
X152959286Y-67604819D01*
X153245000Y-67604819D02*
X153245000Y-66604819D01*
X153245000Y-66604819D02*
X153149762Y-66747676D01*
X153149762Y-66747676D02*
X153054524Y-66842914D01*
X153054524Y-66842914D02*
X152959286Y-66890533D01*
X171553333Y-115704819D02*
X171220000Y-115228628D01*
X170981905Y-115704819D02*
X170981905Y-114704819D01*
X170981905Y-114704819D02*
X171362857Y-114704819D01*
X171362857Y-114704819D02*
X171458095Y-114752438D01*
X171458095Y-114752438D02*
X171505714Y-114800057D01*
X171505714Y-114800057D02*
X171553333Y-114895295D01*
X171553333Y-114895295D02*
X171553333Y-115038152D01*
X171553333Y-115038152D02*
X171505714Y-115133390D01*
X171505714Y-115133390D02*
X171458095Y-115181009D01*
X171458095Y-115181009D02*
X171362857Y-115228628D01*
X171362857Y-115228628D02*
X170981905Y-115228628D01*
X172410476Y-115038152D02*
X172410476Y-115704819D01*
X172172381Y-114657200D02*
X171934286Y-115371485D01*
X171934286Y-115371485D02*
X172553333Y-115371485D01*
X193219048Y-149593866D02*
X193980953Y-149593866D01*
X186819048Y-149593866D02*
X187580953Y-149593866D01*
X187200000Y-149974819D02*
X187200000Y-149212914D01*
D11*
X242023094Y-60279080D02*
X242446428Y-60279080D01*
X242627856Y-60944318D02*
X242023094Y-60944318D01*
X242023094Y-60944318D02*
X242023094Y-59674318D01*
X242023094Y-59674318D02*
X242627856Y-59674318D01*
X243111666Y-59795270D02*
X243172142Y-59734794D01*
X243172142Y-59734794D02*
X243293095Y-59674318D01*
X243293095Y-59674318D02*
X243595476Y-59674318D01*
X243595476Y-59674318D02*
X243716428Y-59734794D01*
X243716428Y-59734794D02*
X243776904Y-59795270D01*
X243776904Y-59795270D02*
X243837381Y-59916222D01*
X243837381Y-59916222D02*
X243837381Y-60037175D01*
X243837381Y-60037175D02*
X243776904Y-60218603D01*
X243776904Y-60218603D02*
X243051190Y-60944318D01*
X243051190Y-60944318D02*
X243837381Y-60944318D01*
D10*
X53207200Y-43853332D02*
X53254819Y-43710475D01*
X53254819Y-43710475D02*
X53254819Y-43472380D01*
X53254819Y-43472380D02*
X53207200Y-43377142D01*
X53207200Y-43377142D02*
X53159580Y-43329523D01*
X53159580Y-43329523D02*
X53064342Y-43281904D01*
X53064342Y-43281904D02*
X52969104Y-43281904D01*
X52969104Y-43281904D02*
X52873866Y-43329523D01*
X52873866Y-43329523D02*
X52826247Y-43377142D01*
X52826247Y-43377142D02*
X52778628Y-43472380D01*
X52778628Y-43472380D02*
X52731009Y-43662856D01*
X52731009Y-43662856D02*
X52683390Y-43758094D01*
X52683390Y-43758094D02*
X52635771Y-43805713D01*
X52635771Y-43805713D02*
X52540533Y-43853332D01*
X52540533Y-43853332D02*
X52445295Y-43853332D01*
X52445295Y-43853332D02*
X52350057Y-43805713D01*
X52350057Y-43805713D02*
X52302438Y-43758094D01*
X52302438Y-43758094D02*
X52254819Y-43662856D01*
X52254819Y-43662856D02*
X52254819Y-43424761D01*
X52254819Y-43424761D02*
X52302438Y-43281904D01*
X52254819Y-42948570D02*
X53254819Y-42710475D01*
X53254819Y-42710475D02*
X52540533Y-42519999D01*
X52540533Y-42519999D02*
X53254819Y-42329523D01*
X53254819Y-42329523D02*
X52254819Y-42091428D01*
X53254819Y-41186666D02*
X53254819Y-41758094D01*
X53254819Y-41472380D02*
X52254819Y-41472380D01*
X52254819Y-41472380D02*
X52397676Y-41567618D01*
X52397676Y-41567618D02*
X52492914Y-41662856D01*
X52492914Y-41662856D02*
X52540533Y-41758094D01*
X231508333Y-80909580D02*
X231460714Y-80957200D01*
X231460714Y-80957200D02*
X231317857Y-81004819D01*
X231317857Y-81004819D02*
X231222619Y-81004819D01*
X231222619Y-81004819D02*
X231079762Y-80957200D01*
X231079762Y-80957200D02*
X230984524Y-80861961D01*
X230984524Y-80861961D02*
X230936905Y-80766723D01*
X230936905Y-80766723D02*
X230889286Y-80576247D01*
X230889286Y-80576247D02*
X230889286Y-80433390D01*
X230889286Y-80433390D02*
X230936905Y-80242914D01*
X230936905Y-80242914D02*
X230984524Y-80147676D01*
X230984524Y-80147676D02*
X231079762Y-80052438D01*
X231079762Y-80052438D02*
X231222619Y-80004819D01*
X231222619Y-80004819D02*
X231317857Y-80004819D01*
X231317857Y-80004819D02*
X231460714Y-80052438D01*
X231460714Y-80052438D02*
X231508333Y-80100057D01*
X232365476Y-80338152D02*
X232365476Y-81004819D01*
X232127381Y-79957200D02*
X231889286Y-80671485D01*
X231889286Y-80671485D02*
X232508333Y-80671485D01*
X167819048Y-106593866D02*
X168580953Y-106593866D01*
X168200000Y-106974819D02*
X168200000Y-106212914D01*
X174219048Y-106593866D02*
X174980953Y-106593866D01*
X110819048Y-149593866D02*
X111580953Y-149593866D01*
X111200000Y-149974819D02*
X111200000Y-149212914D01*
X117219048Y-149593866D02*
X117980953Y-149593866D01*
X75233333Y-72609580D02*
X75185714Y-72657200D01*
X75185714Y-72657200D02*
X75042857Y-72704819D01*
X75042857Y-72704819D02*
X74947619Y-72704819D01*
X74947619Y-72704819D02*
X74804762Y-72657200D01*
X74804762Y-72657200D02*
X74709524Y-72561961D01*
X74709524Y-72561961D02*
X74661905Y-72466723D01*
X74661905Y-72466723D02*
X74614286Y-72276247D01*
X74614286Y-72276247D02*
X74614286Y-72133390D01*
X74614286Y-72133390D02*
X74661905Y-71942914D01*
X74661905Y-71942914D02*
X74709524Y-71847676D01*
X74709524Y-71847676D02*
X74804762Y-71752438D01*
X74804762Y-71752438D02*
X74947619Y-71704819D01*
X74947619Y-71704819D02*
X75042857Y-71704819D01*
X75042857Y-71704819D02*
X75185714Y-71752438D01*
X75185714Y-71752438D02*
X75233333Y-71800057D01*
X76185714Y-72704819D02*
X75614286Y-72704819D01*
X75900000Y-72704819D02*
X75900000Y-71704819D01*
X75900000Y-71704819D02*
X75804762Y-71847676D01*
X75804762Y-71847676D02*
X75709524Y-71942914D01*
X75709524Y-71942914D02*
X75614286Y-71990533D01*
X114478333Y-133904819D02*
X114145000Y-133428628D01*
X113906905Y-133904819D02*
X113906905Y-132904819D01*
X113906905Y-132904819D02*
X114287857Y-132904819D01*
X114287857Y-132904819D02*
X114383095Y-132952438D01*
X114383095Y-132952438D02*
X114430714Y-133000057D01*
X114430714Y-133000057D02*
X114478333Y-133095295D01*
X114478333Y-133095295D02*
X114478333Y-133238152D01*
X114478333Y-133238152D02*
X114430714Y-133333390D01*
X114430714Y-133333390D02*
X114383095Y-133381009D01*
X114383095Y-133381009D02*
X114287857Y-133428628D01*
X114287857Y-133428628D02*
X113906905Y-133428628D01*
X115335476Y-132904819D02*
X115145000Y-132904819D01*
X115145000Y-132904819D02*
X115049762Y-132952438D01*
X115049762Y-132952438D02*
X115002143Y-133000057D01*
X115002143Y-133000057D02*
X114906905Y-133142914D01*
X114906905Y-133142914D02*
X114859286Y-133333390D01*
X114859286Y-133333390D02*
X114859286Y-133714342D01*
X114859286Y-133714342D02*
X114906905Y-133809580D01*
X114906905Y-133809580D02*
X114954524Y-133857200D01*
X114954524Y-133857200D02*
X115049762Y-133904819D01*
X115049762Y-133904819D02*
X115240238Y-133904819D01*
X115240238Y-133904819D02*
X115335476Y-133857200D01*
X115335476Y-133857200D02*
X115383095Y-133809580D01*
X115383095Y-133809580D02*
X115430714Y-133714342D01*
X115430714Y-133714342D02*
X115430714Y-133476247D01*
X115430714Y-133476247D02*
X115383095Y-133381009D01*
X115383095Y-133381009D02*
X115335476Y-133333390D01*
X115335476Y-133333390D02*
X115240238Y-133285771D01*
X115240238Y-133285771D02*
X115049762Y-133285771D01*
X115049762Y-133285771D02*
X114954524Y-133333390D01*
X114954524Y-133333390D02*
X114906905Y-133381009D01*
X114906905Y-133381009D02*
X114859286Y-133476247D01*
X133353333Y-115504819D02*
X133020000Y-115028628D01*
X132781905Y-115504819D02*
X132781905Y-114504819D01*
X132781905Y-114504819D02*
X133162857Y-114504819D01*
X133162857Y-114504819D02*
X133258095Y-114552438D01*
X133258095Y-114552438D02*
X133305714Y-114600057D01*
X133305714Y-114600057D02*
X133353333Y-114695295D01*
X133353333Y-114695295D02*
X133353333Y-114838152D01*
X133353333Y-114838152D02*
X133305714Y-114933390D01*
X133305714Y-114933390D02*
X133258095Y-114981009D01*
X133258095Y-114981009D02*
X133162857Y-115028628D01*
X133162857Y-115028628D02*
X132781905Y-115028628D01*
X133686667Y-114504819D02*
X134305714Y-114504819D01*
X134305714Y-114504819D02*
X133972381Y-114885771D01*
X133972381Y-114885771D02*
X134115238Y-114885771D01*
X134115238Y-114885771D02*
X134210476Y-114933390D01*
X134210476Y-114933390D02*
X134258095Y-114981009D01*
X134258095Y-114981009D02*
X134305714Y-115076247D01*
X134305714Y-115076247D02*
X134305714Y-115314342D01*
X134305714Y-115314342D02*
X134258095Y-115409580D01*
X134258095Y-115409580D02*
X134210476Y-115457200D01*
X134210476Y-115457200D02*
X134115238Y-115504819D01*
X134115238Y-115504819D02*
X133829524Y-115504819D01*
X133829524Y-115504819D02*
X133734286Y-115457200D01*
X133734286Y-115457200D02*
X133686667Y-115409580D01*
X47138095Y-144774819D02*
X47138095Y-143774819D01*
X47138095Y-144251009D02*
X47709523Y-144251009D01*
X47709523Y-144774819D02*
X47709523Y-143774819D01*
X48090476Y-143774819D02*
X48709523Y-143774819D01*
X48709523Y-143774819D02*
X48376190Y-144155771D01*
X48376190Y-144155771D02*
X48519047Y-144155771D01*
X48519047Y-144155771D02*
X48614285Y-144203390D01*
X48614285Y-144203390D02*
X48661904Y-144251009D01*
X48661904Y-144251009D02*
X48709523Y-144346247D01*
X48709523Y-144346247D02*
X48709523Y-144584342D01*
X48709523Y-144584342D02*
X48661904Y-144679580D01*
X48661904Y-144679580D02*
X48614285Y-144727200D01*
X48614285Y-144727200D02*
X48519047Y-144774819D01*
X48519047Y-144774819D02*
X48233333Y-144774819D01*
X48233333Y-144774819D02*
X48138095Y-144727200D01*
X48138095Y-144727200D02*
X48090476Y-144679580D01*
X102138095Y-62029819D02*
X102138095Y-62839342D01*
X102138095Y-62839342D02*
X102185714Y-62934580D01*
X102185714Y-62934580D02*
X102233333Y-62982200D01*
X102233333Y-62982200D02*
X102328571Y-63029819D01*
X102328571Y-63029819D02*
X102519047Y-63029819D01*
X102519047Y-63029819D02*
X102614285Y-62982200D01*
X102614285Y-62982200D02*
X102661904Y-62934580D01*
X102661904Y-62934580D02*
X102709523Y-62839342D01*
X102709523Y-62839342D02*
X102709523Y-62029819D01*
X103709523Y-63029819D02*
X103138095Y-63029819D01*
X103423809Y-63029819D02*
X103423809Y-62029819D01*
X103423809Y-62029819D02*
X103328571Y-62172676D01*
X103328571Y-62172676D02*
X103233333Y-62267914D01*
X103233333Y-62267914D02*
X103138095Y-62315533D01*
X89313372Y-46186494D02*
X89232560Y-46213431D01*
X89232560Y-46213431D02*
X89151748Y-46294243D01*
X89151748Y-46294243D02*
X89097873Y-46401993D01*
X89097873Y-46401993D02*
X89097873Y-46509742D01*
X89097873Y-46509742D02*
X89124810Y-46590555D01*
X89124810Y-46590555D02*
X89205623Y-46725242D01*
X89205623Y-46725242D02*
X89286435Y-46806054D01*
X89286435Y-46806054D02*
X89421122Y-46886866D01*
X89421122Y-46886866D02*
X89501934Y-46913803D01*
X89501934Y-46913803D02*
X89609684Y-46913803D01*
X89609684Y-46913803D02*
X89717433Y-46859929D01*
X89717433Y-46859929D02*
X89771308Y-46806054D01*
X89771308Y-46806054D02*
X89825183Y-46698304D01*
X89825183Y-46698304D02*
X89825183Y-46644429D01*
X89825183Y-46644429D02*
X89636621Y-46455868D01*
X89636621Y-46455868D02*
X89528871Y-46563617D01*
X90121494Y-46455868D02*
X89555809Y-45890182D01*
X89555809Y-45890182D02*
X89771308Y-45674683D01*
X89771308Y-45674683D02*
X89852120Y-45647746D01*
X89852120Y-45647746D02*
X89905995Y-45647746D01*
X89905995Y-45647746D02*
X89986807Y-45674683D01*
X89986807Y-45674683D02*
X90067619Y-45755495D01*
X90067619Y-45755495D02*
X90094557Y-45836307D01*
X90094557Y-45836307D02*
X90094557Y-45890182D01*
X90094557Y-45890182D02*
X90067619Y-45970994D01*
X90067619Y-45970994D02*
X89852120Y-46186494D01*
X90148432Y-45405309D02*
X90148432Y-45351434D01*
X90148432Y-45351434D02*
X90175369Y-45270622D01*
X90175369Y-45270622D02*
X90310056Y-45135935D01*
X90310056Y-45135935D02*
X90390868Y-45108998D01*
X90390868Y-45108998D02*
X90444743Y-45108998D01*
X90444743Y-45108998D02*
X90525555Y-45135935D01*
X90525555Y-45135935D02*
X90579430Y-45189810D01*
X90579430Y-45189810D02*
X90633305Y-45297559D01*
X90633305Y-45297559D02*
X90633305Y-45944057D01*
X90633305Y-45944057D02*
X90983491Y-45593871D01*
X114986435Y-69073431D02*
X114905623Y-69100368D01*
X114905623Y-69100368D02*
X114824811Y-69181180D01*
X114824811Y-69181180D02*
X114770936Y-69288930D01*
X114770936Y-69288930D02*
X114770936Y-69396680D01*
X114770936Y-69396680D02*
X114797873Y-69477492D01*
X114797873Y-69477492D02*
X114878685Y-69612179D01*
X114878685Y-69612179D02*
X114959498Y-69692991D01*
X114959498Y-69692991D02*
X115094185Y-69773803D01*
X115094185Y-69773803D02*
X115174997Y-69800741D01*
X115174997Y-69800741D02*
X115282746Y-69800741D01*
X115282746Y-69800741D02*
X115390496Y-69746866D01*
X115390496Y-69746866D02*
X115444371Y-69692991D01*
X115444371Y-69692991D02*
X115498246Y-69585241D01*
X115498246Y-69585241D02*
X115498246Y-69531367D01*
X115498246Y-69531367D02*
X115309684Y-69342805D01*
X115309684Y-69342805D02*
X115201934Y-69450554D01*
X115794557Y-69342805D02*
X115228872Y-68777119D01*
X115228872Y-68777119D02*
X116117806Y-69019556D01*
X116117806Y-69019556D02*
X115552120Y-68453871D01*
X116387180Y-68750182D02*
X115821494Y-68184497D01*
X115821494Y-68184497D02*
X115956181Y-68049810D01*
X115956181Y-68049810D02*
X116063931Y-67995935D01*
X116063931Y-67995935D02*
X116171680Y-67995935D01*
X116171680Y-67995935D02*
X116252493Y-68022872D01*
X116252493Y-68022872D02*
X116387180Y-68103685D01*
X116387180Y-68103685D02*
X116467992Y-68184497D01*
X116467992Y-68184497D02*
X116548804Y-68319184D01*
X116548804Y-68319184D02*
X116575741Y-68399996D01*
X116575741Y-68399996D02*
X116575741Y-68507746D01*
X116575741Y-68507746D02*
X116521867Y-68615495D01*
X116521867Y-68615495D02*
X116387180Y-68750182D01*
X89313372Y-41096494D02*
X89232560Y-41123431D01*
X89232560Y-41123431D02*
X89151748Y-41204243D01*
X89151748Y-41204243D02*
X89097873Y-41311993D01*
X89097873Y-41311993D02*
X89097873Y-41419742D01*
X89097873Y-41419742D02*
X89124810Y-41500555D01*
X89124810Y-41500555D02*
X89205623Y-41635242D01*
X89205623Y-41635242D02*
X89286435Y-41716054D01*
X89286435Y-41716054D02*
X89421122Y-41796866D01*
X89421122Y-41796866D02*
X89501934Y-41823803D01*
X89501934Y-41823803D02*
X89609684Y-41823803D01*
X89609684Y-41823803D02*
X89717433Y-41769929D01*
X89717433Y-41769929D02*
X89771308Y-41716054D01*
X89771308Y-41716054D02*
X89825183Y-41608304D01*
X89825183Y-41608304D02*
X89825183Y-41554429D01*
X89825183Y-41554429D02*
X89636621Y-41365868D01*
X89636621Y-41365868D02*
X89528871Y-41473617D01*
X90121494Y-41365868D02*
X89555809Y-40800182D01*
X89555809Y-40800182D02*
X89771308Y-40584683D01*
X89771308Y-40584683D02*
X89852120Y-40557746D01*
X89852120Y-40557746D02*
X89905995Y-40557746D01*
X89905995Y-40557746D02*
X89986807Y-40584683D01*
X89986807Y-40584683D02*
X90067619Y-40665495D01*
X90067619Y-40665495D02*
X90094557Y-40746307D01*
X90094557Y-40746307D02*
X90094557Y-40800182D01*
X90094557Y-40800182D02*
X90067619Y-40880994D01*
X90067619Y-40880994D02*
X89852120Y-41096494D01*
X90983491Y-40503871D02*
X90660242Y-40827120D01*
X90821867Y-40665495D02*
X90256181Y-40099810D01*
X90256181Y-40099810D02*
X90283119Y-40234497D01*
X90283119Y-40234497D02*
X90283119Y-40342246D01*
X90283119Y-40342246D02*
X90256181Y-40423059D01*
X95390475Y-89099200D02*
X95504761Y-89137295D01*
X95504761Y-89137295D02*
X95695237Y-89137295D01*
X95695237Y-89137295D02*
X95771428Y-89099200D01*
X95771428Y-89099200D02*
X95809523Y-89061104D01*
X95809523Y-89061104D02*
X95847618Y-88984914D01*
X95847618Y-88984914D02*
X95847618Y-88908723D01*
X95847618Y-88908723D02*
X95809523Y-88832533D01*
X95809523Y-88832533D02*
X95771428Y-88794438D01*
X95771428Y-88794438D02*
X95695237Y-88756342D01*
X95695237Y-88756342D02*
X95542856Y-88718247D01*
X95542856Y-88718247D02*
X95466666Y-88680152D01*
X95466666Y-88680152D02*
X95428571Y-88642057D01*
X95428571Y-88642057D02*
X95390475Y-88565866D01*
X95390475Y-88565866D02*
X95390475Y-88489676D01*
X95390475Y-88489676D02*
X95428571Y-88413485D01*
X95428571Y-88413485D02*
X95466666Y-88375390D01*
X95466666Y-88375390D02*
X95542856Y-88337295D01*
X95542856Y-88337295D02*
X95733333Y-88337295D01*
X95733333Y-88337295D02*
X95847618Y-88375390D01*
X96114285Y-88337295D02*
X96304761Y-89137295D01*
X96304761Y-89137295D02*
X96457142Y-88565866D01*
X96457142Y-88565866D02*
X96609523Y-89137295D01*
X96609523Y-89137295D02*
X96800000Y-88337295D01*
X97561905Y-89061104D02*
X97523809Y-89099200D01*
X97523809Y-89099200D02*
X97409524Y-89137295D01*
X97409524Y-89137295D02*
X97333333Y-89137295D01*
X97333333Y-89137295D02*
X97219047Y-89099200D01*
X97219047Y-89099200D02*
X97142857Y-89023009D01*
X97142857Y-89023009D02*
X97104762Y-88946819D01*
X97104762Y-88946819D02*
X97066666Y-88794438D01*
X97066666Y-88794438D02*
X97066666Y-88680152D01*
X97066666Y-88680152D02*
X97104762Y-88527771D01*
X97104762Y-88527771D02*
X97142857Y-88451580D01*
X97142857Y-88451580D02*
X97219047Y-88375390D01*
X97219047Y-88375390D02*
X97333333Y-88337295D01*
X97333333Y-88337295D02*
X97409524Y-88337295D01*
X97409524Y-88337295D02*
X97523809Y-88375390D01*
X97523809Y-88375390D02*
X97561905Y-88413485D01*
X98285714Y-89137295D02*
X97904762Y-89137295D01*
X97904762Y-89137295D02*
X97904762Y-88337295D01*
X98552381Y-89137295D02*
X98552381Y-88337295D01*
X99009524Y-89137295D02*
X98666666Y-88680152D01*
X99009524Y-88337295D02*
X98552381Y-88794438D01*
X88743998Y-74395868D02*
X88663185Y-74422805D01*
X88663185Y-74422805D02*
X88582373Y-74503618D01*
X88582373Y-74503618D02*
X88528498Y-74611367D01*
X88528498Y-74611367D02*
X88528498Y-74719117D01*
X88528498Y-74719117D02*
X88555436Y-74799929D01*
X88555436Y-74799929D02*
X88636248Y-74934616D01*
X88636248Y-74934616D02*
X88717060Y-75015428D01*
X88717060Y-75015428D02*
X88851747Y-75096241D01*
X88851747Y-75096241D02*
X88932560Y-75123178D01*
X88932560Y-75123178D02*
X89040309Y-75123178D01*
X89040309Y-75123178D02*
X89148059Y-75069303D01*
X89148059Y-75069303D02*
X89201934Y-75015428D01*
X89201934Y-75015428D02*
X89255808Y-74907679D01*
X89255808Y-74907679D02*
X89255808Y-74853804D01*
X89255808Y-74853804D02*
X89067247Y-74665242D01*
X89067247Y-74665242D02*
X88959497Y-74772992D01*
X89552120Y-74665242D02*
X88986434Y-74099557D01*
X88986434Y-74099557D02*
X89201934Y-73884057D01*
X89201934Y-73884057D02*
X89282746Y-73857120D01*
X89282746Y-73857120D02*
X89336621Y-73857120D01*
X89336621Y-73857120D02*
X89417433Y-73884057D01*
X89417433Y-73884057D02*
X89498245Y-73964870D01*
X89498245Y-73964870D02*
X89525182Y-74045682D01*
X89525182Y-74045682D02*
X89525182Y-74099557D01*
X89525182Y-74099557D02*
X89498245Y-74180369D01*
X89498245Y-74180369D02*
X89282746Y-74395868D01*
X90414117Y-73803245D02*
X90090868Y-74126494D01*
X90252492Y-73964870D02*
X89686807Y-73399184D01*
X89686807Y-73399184D02*
X89713744Y-73533871D01*
X89713744Y-73533871D02*
X89713744Y-73641621D01*
X89713744Y-73641621D02*
X89686807Y-73722433D01*
X90952865Y-73264497D02*
X90629616Y-73587746D01*
X90791240Y-73426121D02*
X90225555Y-72860436D01*
X90225555Y-72860436D02*
X90252492Y-72995123D01*
X90252492Y-72995123D02*
X90252492Y-73102873D01*
X90252492Y-73102873D02*
X90225555Y-73183685D01*
X114997998Y-79475868D02*
X114917185Y-79502805D01*
X114917185Y-79502805D02*
X114836373Y-79583618D01*
X114836373Y-79583618D02*
X114782498Y-79691367D01*
X114782498Y-79691367D02*
X114782498Y-79799117D01*
X114782498Y-79799117D02*
X114809436Y-79879929D01*
X114809436Y-79879929D02*
X114890248Y-80014616D01*
X114890248Y-80014616D02*
X114971060Y-80095428D01*
X114971060Y-80095428D02*
X115105747Y-80176241D01*
X115105747Y-80176241D02*
X115186560Y-80203178D01*
X115186560Y-80203178D02*
X115294309Y-80203178D01*
X115294309Y-80203178D02*
X115402059Y-80149303D01*
X115402059Y-80149303D02*
X115455934Y-80095428D01*
X115455934Y-80095428D02*
X115509808Y-79987679D01*
X115509808Y-79987679D02*
X115509808Y-79933804D01*
X115509808Y-79933804D02*
X115321247Y-79745242D01*
X115321247Y-79745242D02*
X115213497Y-79852992D01*
X115806120Y-79745242D02*
X115240434Y-79179557D01*
X115240434Y-79179557D02*
X115455934Y-78964057D01*
X115455934Y-78964057D02*
X115536746Y-78937120D01*
X115536746Y-78937120D02*
X115590621Y-78937120D01*
X115590621Y-78937120D02*
X115671433Y-78964057D01*
X115671433Y-78964057D02*
X115752245Y-79044870D01*
X115752245Y-79044870D02*
X115779182Y-79125682D01*
X115779182Y-79125682D02*
X115779182Y-79179557D01*
X115779182Y-79179557D02*
X115752245Y-79260369D01*
X115752245Y-79260369D02*
X115536746Y-79475868D01*
X116668117Y-78883245D02*
X116344868Y-79206494D01*
X116506492Y-79044870D02*
X115940807Y-78479184D01*
X115940807Y-78479184D02*
X115967744Y-78613871D01*
X115967744Y-78613871D02*
X115967744Y-78721621D01*
X115967744Y-78721621D02*
X115940807Y-78802433D01*
X116668117Y-78236747D02*
X116587305Y-78263685D01*
X116587305Y-78263685D02*
X116533430Y-78263685D01*
X116533430Y-78263685D02*
X116452618Y-78236747D01*
X116452618Y-78236747D02*
X116425680Y-78209810D01*
X116425680Y-78209810D02*
X116398743Y-78128998D01*
X116398743Y-78128998D02*
X116398743Y-78075123D01*
X116398743Y-78075123D02*
X116425680Y-77994311D01*
X116425680Y-77994311D02*
X116533430Y-77886561D01*
X116533430Y-77886561D02*
X116614242Y-77859624D01*
X116614242Y-77859624D02*
X116668117Y-77859624D01*
X116668117Y-77859624D02*
X116748929Y-77886561D01*
X116748929Y-77886561D02*
X116775866Y-77913499D01*
X116775866Y-77913499D02*
X116802804Y-77994311D01*
X116802804Y-77994311D02*
X116802804Y-78048186D01*
X116802804Y-78048186D02*
X116775866Y-78128998D01*
X116775866Y-78128998D02*
X116668117Y-78236747D01*
X116668117Y-78236747D02*
X116641179Y-78317560D01*
X116641179Y-78317560D02*
X116641179Y-78371434D01*
X116641179Y-78371434D02*
X116668117Y-78452247D01*
X116668117Y-78452247D02*
X116775866Y-78559996D01*
X116775866Y-78559996D02*
X116856679Y-78586934D01*
X116856679Y-78586934D02*
X116910553Y-78586934D01*
X116910553Y-78586934D02*
X116991366Y-78559996D01*
X116991366Y-78559996D02*
X117099115Y-78452247D01*
X117099115Y-78452247D02*
X117126053Y-78371434D01*
X117126053Y-78371434D02*
X117126053Y-78317560D01*
X117126053Y-78317560D02*
X117099115Y-78236747D01*
X117099115Y-78236747D02*
X116991366Y-78128998D01*
X116991366Y-78128998D02*
X116910553Y-78102060D01*
X116910553Y-78102060D02*
X116856679Y-78102060D01*
X116856679Y-78102060D02*
X116775866Y-78128998D01*
X89386435Y-69073431D02*
X89305623Y-69100368D01*
X89305623Y-69100368D02*
X89224811Y-69181180D01*
X89224811Y-69181180D02*
X89170936Y-69288930D01*
X89170936Y-69288930D02*
X89170936Y-69396680D01*
X89170936Y-69396680D02*
X89197873Y-69477492D01*
X89197873Y-69477492D02*
X89278685Y-69612179D01*
X89278685Y-69612179D02*
X89359498Y-69692991D01*
X89359498Y-69692991D02*
X89494185Y-69773803D01*
X89494185Y-69773803D02*
X89574997Y-69800741D01*
X89574997Y-69800741D02*
X89682746Y-69800741D01*
X89682746Y-69800741D02*
X89790496Y-69746866D01*
X89790496Y-69746866D02*
X89844371Y-69692991D01*
X89844371Y-69692991D02*
X89898246Y-69585241D01*
X89898246Y-69585241D02*
X89898246Y-69531367D01*
X89898246Y-69531367D02*
X89709684Y-69342805D01*
X89709684Y-69342805D02*
X89601934Y-69450554D01*
X90194557Y-69342805D02*
X89628872Y-68777119D01*
X89628872Y-68777119D02*
X90517806Y-69019556D01*
X90517806Y-69019556D02*
X89952120Y-68453871D01*
X90787180Y-68750182D02*
X90221494Y-68184497D01*
X90221494Y-68184497D02*
X90356181Y-68049810D01*
X90356181Y-68049810D02*
X90463931Y-67995935D01*
X90463931Y-67995935D02*
X90571680Y-67995935D01*
X90571680Y-67995935D02*
X90652493Y-68022872D01*
X90652493Y-68022872D02*
X90787180Y-68103685D01*
X90787180Y-68103685D02*
X90867992Y-68184497D01*
X90867992Y-68184497D02*
X90948804Y-68319184D01*
X90948804Y-68319184D02*
X90975741Y-68399996D01*
X90975741Y-68399996D02*
X90975741Y-68507746D01*
X90975741Y-68507746D02*
X90921867Y-68615495D01*
X90921867Y-68615495D02*
X90787180Y-68750182D01*
X88889998Y-79475868D02*
X88809185Y-79502805D01*
X88809185Y-79502805D02*
X88728373Y-79583618D01*
X88728373Y-79583618D02*
X88674498Y-79691367D01*
X88674498Y-79691367D02*
X88674498Y-79799117D01*
X88674498Y-79799117D02*
X88701436Y-79879929D01*
X88701436Y-79879929D02*
X88782248Y-80014616D01*
X88782248Y-80014616D02*
X88863060Y-80095428D01*
X88863060Y-80095428D02*
X88997747Y-80176241D01*
X88997747Y-80176241D02*
X89078560Y-80203178D01*
X89078560Y-80203178D02*
X89186309Y-80203178D01*
X89186309Y-80203178D02*
X89294059Y-80149303D01*
X89294059Y-80149303D02*
X89347934Y-80095428D01*
X89347934Y-80095428D02*
X89401808Y-79987679D01*
X89401808Y-79987679D02*
X89401808Y-79933804D01*
X89401808Y-79933804D02*
X89213247Y-79745242D01*
X89213247Y-79745242D02*
X89105497Y-79852992D01*
X89698120Y-79745242D02*
X89132434Y-79179557D01*
X89132434Y-79179557D02*
X89347934Y-78964057D01*
X89347934Y-78964057D02*
X89428746Y-78937120D01*
X89428746Y-78937120D02*
X89482621Y-78937120D01*
X89482621Y-78937120D02*
X89563433Y-78964057D01*
X89563433Y-78964057D02*
X89644245Y-79044870D01*
X89644245Y-79044870D02*
X89671182Y-79125682D01*
X89671182Y-79125682D02*
X89671182Y-79179557D01*
X89671182Y-79179557D02*
X89644245Y-79260369D01*
X89644245Y-79260369D02*
X89428746Y-79475868D01*
X90560117Y-78883245D02*
X90236868Y-79206494D01*
X90398492Y-79044870D02*
X89832807Y-78479184D01*
X89832807Y-78479184D02*
X89859744Y-78613871D01*
X89859744Y-78613871D02*
X89859744Y-78721621D01*
X89859744Y-78721621D02*
X89832807Y-78802433D01*
X90182993Y-78128998D02*
X90533179Y-77778812D01*
X90533179Y-77778812D02*
X90560117Y-78182873D01*
X90560117Y-78182873D02*
X90640929Y-78102060D01*
X90640929Y-78102060D02*
X90721741Y-78075123D01*
X90721741Y-78075123D02*
X90775616Y-78075123D01*
X90775616Y-78075123D02*
X90856428Y-78102060D01*
X90856428Y-78102060D02*
X90991115Y-78236747D01*
X90991115Y-78236747D02*
X91018053Y-78317560D01*
X91018053Y-78317560D02*
X91018053Y-78371434D01*
X91018053Y-78371434D02*
X90991115Y-78452247D01*
X90991115Y-78452247D02*
X90829491Y-78613871D01*
X90829491Y-78613871D02*
X90748679Y-78640808D01*
X90748679Y-78640808D02*
X90694804Y-78640808D01*
X115055064Y-52109049D02*
X115324438Y-51839675D01*
X115162813Y-52324549D02*
X114785690Y-51570301D01*
X114785690Y-51570301D02*
X115539937Y-51947425D01*
X115728499Y-51758863D02*
X115162813Y-51193178D01*
X115162813Y-51193178D02*
X115297500Y-51058491D01*
X115297500Y-51058491D02*
X115405250Y-51004616D01*
X115405250Y-51004616D02*
X115512999Y-51004616D01*
X115512999Y-51004616D02*
X115593812Y-51031553D01*
X115593812Y-51031553D02*
X115728499Y-51112366D01*
X115728499Y-51112366D02*
X115809311Y-51193178D01*
X115809311Y-51193178D02*
X115890123Y-51327865D01*
X115890123Y-51327865D02*
X115917060Y-51408677D01*
X115917060Y-51408677D02*
X115917060Y-51516427D01*
X115917060Y-51516427D02*
X115863186Y-51624176D01*
X115863186Y-51624176D02*
X115728499Y-51758863D01*
X116563558Y-50816054D02*
X116563558Y-50869929D01*
X116563558Y-50869929D02*
X116509683Y-50977679D01*
X116509683Y-50977679D02*
X116455808Y-51031553D01*
X116455808Y-51031553D02*
X116348059Y-51085428D01*
X116348059Y-51085428D02*
X116240309Y-51085428D01*
X116240309Y-51085428D02*
X116159497Y-51058491D01*
X116159497Y-51058491D02*
X116024810Y-50977679D01*
X116024810Y-50977679D02*
X115943998Y-50896866D01*
X115943998Y-50896866D02*
X115863186Y-50762179D01*
X115863186Y-50762179D02*
X115836248Y-50681367D01*
X115836248Y-50681367D02*
X115836248Y-50573618D01*
X115836248Y-50573618D02*
X115890123Y-50465868D01*
X115890123Y-50465868D02*
X115943998Y-50411993D01*
X115943998Y-50411993D02*
X116051747Y-50358118D01*
X116051747Y-50358118D02*
X116105622Y-50358118D01*
X116779057Y-50816054D02*
X117210056Y-50385056D01*
X116644370Y-49711621D02*
X117398618Y-50088744D01*
X117398618Y-50088744D02*
X117021494Y-49334497D01*
X118098990Y-49388372D02*
X117641054Y-49307560D01*
X117775741Y-49711621D02*
X117210056Y-49145935D01*
X117210056Y-49145935D02*
X117425555Y-48930436D01*
X117425555Y-48930436D02*
X117506367Y-48903499D01*
X117506367Y-48903499D02*
X117560242Y-48903499D01*
X117560242Y-48903499D02*
X117641054Y-48930436D01*
X117641054Y-48930436D02*
X117721866Y-49011248D01*
X117721866Y-49011248D02*
X117748804Y-49092061D01*
X117748804Y-49092061D02*
X117748804Y-49145935D01*
X117748804Y-49145935D02*
X117721866Y-49226748D01*
X117721866Y-49226748D02*
X117506367Y-49442247D01*
X118045115Y-48849624D02*
X118233677Y-48661062D01*
X118610800Y-48876561D02*
X118341426Y-49145935D01*
X118341426Y-49145935D02*
X117775741Y-48580250D01*
X117775741Y-48580250D02*
X118045115Y-48310876D01*
X118745488Y-48149251D02*
X118556926Y-48337813D01*
X118853237Y-48634125D02*
X118287552Y-48068439D01*
X118287552Y-48068439D02*
X118556926Y-47799065D01*
X115051873Y-57316240D02*
X115321247Y-57046866D01*
X115159623Y-57531739D02*
X114782499Y-56777492D01*
X114782499Y-56777492D02*
X115536746Y-57154615D01*
X115482871Y-56130994D02*
X115402059Y-56157932D01*
X115402059Y-56157932D02*
X115321247Y-56238744D01*
X115321247Y-56238744D02*
X115267372Y-56346494D01*
X115267372Y-56346494D02*
X115267372Y-56454243D01*
X115267372Y-56454243D02*
X115294310Y-56535055D01*
X115294310Y-56535055D02*
X115375122Y-56669742D01*
X115375122Y-56669742D02*
X115455934Y-56750555D01*
X115455934Y-56750555D02*
X115590621Y-56831367D01*
X115590621Y-56831367D02*
X115671433Y-56858304D01*
X115671433Y-56858304D02*
X115779183Y-56858304D01*
X115779183Y-56858304D02*
X115886932Y-56804429D01*
X115886932Y-56804429D02*
X115940807Y-56750555D01*
X115940807Y-56750555D02*
X115994682Y-56642805D01*
X115994682Y-56642805D02*
X115994682Y-56588930D01*
X115994682Y-56588930D02*
X115806120Y-56400368D01*
X115806120Y-56400368D02*
X115698371Y-56508118D01*
X116290993Y-56400368D02*
X115725308Y-55834683D01*
X115725308Y-55834683D02*
X116614242Y-56077120D01*
X116614242Y-56077120D02*
X116048557Y-55511434D01*
X116883616Y-55807746D02*
X116317931Y-55242060D01*
X116317931Y-55242060D02*
X116452618Y-55107373D01*
X116452618Y-55107373D02*
X116560367Y-55053498D01*
X116560367Y-55053498D02*
X116668117Y-55053498D01*
X116668117Y-55053498D02*
X116748929Y-55080436D01*
X116748929Y-55080436D02*
X116883616Y-55161248D01*
X116883616Y-55161248D02*
X116964428Y-55242060D01*
X116964428Y-55242060D02*
X117045241Y-55376747D01*
X117045241Y-55376747D02*
X117072178Y-55457560D01*
X117072178Y-55457560D02*
X117072178Y-55565309D01*
X117072178Y-55565309D02*
X117018303Y-55673059D01*
X117018303Y-55673059D02*
X116883616Y-55807746D01*
X89386435Y-81773431D02*
X89305623Y-81800368D01*
X89305623Y-81800368D02*
X89224811Y-81881180D01*
X89224811Y-81881180D02*
X89170936Y-81988930D01*
X89170936Y-81988930D02*
X89170936Y-82096680D01*
X89170936Y-82096680D02*
X89197873Y-82177492D01*
X89197873Y-82177492D02*
X89278685Y-82312179D01*
X89278685Y-82312179D02*
X89359498Y-82392991D01*
X89359498Y-82392991D02*
X89494185Y-82473803D01*
X89494185Y-82473803D02*
X89574997Y-82500741D01*
X89574997Y-82500741D02*
X89682746Y-82500741D01*
X89682746Y-82500741D02*
X89790496Y-82446866D01*
X89790496Y-82446866D02*
X89844371Y-82392991D01*
X89844371Y-82392991D02*
X89898246Y-82285241D01*
X89898246Y-82285241D02*
X89898246Y-82231367D01*
X89898246Y-82231367D02*
X89709684Y-82042805D01*
X89709684Y-82042805D02*
X89601934Y-82150554D01*
X90194557Y-82042805D02*
X89628872Y-81477119D01*
X89628872Y-81477119D02*
X90517806Y-81719556D01*
X90517806Y-81719556D02*
X89952120Y-81153871D01*
X90787180Y-81450182D02*
X90221494Y-80884497D01*
X90221494Y-80884497D02*
X90356181Y-80749810D01*
X90356181Y-80749810D02*
X90463931Y-80695935D01*
X90463931Y-80695935D02*
X90571680Y-80695935D01*
X90571680Y-80695935D02*
X90652493Y-80722872D01*
X90652493Y-80722872D02*
X90787180Y-80803685D01*
X90787180Y-80803685D02*
X90867992Y-80884497D01*
X90867992Y-80884497D02*
X90948804Y-81019184D01*
X90948804Y-81019184D02*
X90975741Y-81099996D01*
X90975741Y-81099996D02*
X90975741Y-81207746D01*
X90975741Y-81207746D02*
X90921867Y-81315495D01*
X90921867Y-81315495D02*
X90787180Y-81450182D01*
X106804761Y-89099200D02*
X106919047Y-89137295D01*
X106919047Y-89137295D02*
X107109523Y-89137295D01*
X107109523Y-89137295D02*
X107185714Y-89099200D01*
X107185714Y-89099200D02*
X107223809Y-89061104D01*
X107223809Y-89061104D02*
X107261904Y-88984914D01*
X107261904Y-88984914D02*
X107261904Y-88908723D01*
X107261904Y-88908723D02*
X107223809Y-88832533D01*
X107223809Y-88832533D02*
X107185714Y-88794438D01*
X107185714Y-88794438D02*
X107109523Y-88756342D01*
X107109523Y-88756342D02*
X106957142Y-88718247D01*
X106957142Y-88718247D02*
X106880952Y-88680152D01*
X106880952Y-88680152D02*
X106842857Y-88642057D01*
X106842857Y-88642057D02*
X106804761Y-88565866D01*
X106804761Y-88565866D02*
X106804761Y-88489676D01*
X106804761Y-88489676D02*
X106842857Y-88413485D01*
X106842857Y-88413485D02*
X106880952Y-88375390D01*
X106880952Y-88375390D02*
X106957142Y-88337295D01*
X106957142Y-88337295D02*
X107147619Y-88337295D01*
X107147619Y-88337295D02*
X107261904Y-88375390D01*
X107528571Y-88337295D02*
X107719047Y-89137295D01*
X107719047Y-89137295D02*
X107871428Y-88565866D01*
X107871428Y-88565866D02*
X108023809Y-89137295D01*
X108023809Y-89137295D02*
X108214286Y-88337295D01*
X108519048Y-89137295D02*
X108519048Y-88337295D01*
X108519048Y-88337295D02*
X108709524Y-88337295D01*
X108709524Y-88337295D02*
X108823810Y-88375390D01*
X108823810Y-88375390D02*
X108900000Y-88451580D01*
X108900000Y-88451580D02*
X108938095Y-88527771D01*
X108938095Y-88527771D02*
X108976191Y-88680152D01*
X108976191Y-88680152D02*
X108976191Y-88794438D01*
X108976191Y-88794438D02*
X108938095Y-88946819D01*
X108938095Y-88946819D02*
X108900000Y-89023009D01*
X108900000Y-89023009D02*
X108823810Y-89099200D01*
X108823810Y-89099200D02*
X108709524Y-89137295D01*
X108709524Y-89137295D02*
X108519048Y-89137295D01*
X109319048Y-89137295D02*
X109319048Y-88337295D01*
X109852381Y-88337295D02*
X110004762Y-88337295D01*
X110004762Y-88337295D02*
X110080952Y-88375390D01*
X110080952Y-88375390D02*
X110157143Y-88451580D01*
X110157143Y-88451580D02*
X110195238Y-88603961D01*
X110195238Y-88603961D02*
X110195238Y-88870628D01*
X110195238Y-88870628D02*
X110157143Y-89023009D01*
X110157143Y-89023009D02*
X110080952Y-89099200D01*
X110080952Y-89099200D02*
X110004762Y-89137295D01*
X110004762Y-89137295D02*
X109852381Y-89137295D01*
X109852381Y-89137295D02*
X109776190Y-89099200D01*
X109776190Y-89099200D02*
X109700000Y-89023009D01*
X109700000Y-89023009D02*
X109661904Y-88870628D01*
X109661904Y-88870628D02*
X109661904Y-88603961D01*
X109661904Y-88603961D02*
X109700000Y-88451580D01*
X109700000Y-88451580D02*
X109776190Y-88375390D01*
X109776190Y-88375390D02*
X109852381Y-88337295D01*
X89413372Y-53806494D02*
X89332560Y-53833431D01*
X89332560Y-53833431D02*
X89251748Y-53914243D01*
X89251748Y-53914243D02*
X89197873Y-54021993D01*
X89197873Y-54021993D02*
X89197873Y-54129742D01*
X89197873Y-54129742D02*
X89224810Y-54210555D01*
X89224810Y-54210555D02*
X89305623Y-54345242D01*
X89305623Y-54345242D02*
X89386435Y-54426054D01*
X89386435Y-54426054D02*
X89521122Y-54506866D01*
X89521122Y-54506866D02*
X89601934Y-54533803D01*
X89601934Y-54533803D02*
X89709684Y-54533803D01*
X89709684Y-54533803D02*
X89817433Y-54479929D01*
X89817433Y-54479929D02*
X89871308Y-54426054D01*
X89871308Y-54426054D02*
X89925183Y-54318304D01*
X89925183Y-54318304D02*
X89925183Y-54264429D01*
X89925183Y-54264429D02*
X89736621Y-54075868D01*
X89736621Y-54075868D02*
X89628871Y-54183617D01*
X90221494Y-54075868D02*
X89655809Y-53510182D01*
X89655809Y-53510182D02*
X89871308Y-53294683D01*
X89871308Y-53294683D02*
X89952120Y-53267746D01*
X89952120Y-53267746D02*
X90005995Y-53267746D01*
X90005995Y-53267746D02*
X90086807Y-53294683D01*
X90086807Y-53294683D02*
X90167619Y-53375495D01*
X90167619Y-53375495D02*
X90194557Y-53456307D01*
X90194557Y-53456307D02*
X90194557Y-53510182D01*
X90194557Y-53510182D02*
X90167619Y-53590994D01*
X90167619Y-53590994D02*
X89952120Y-53806494D01*
X90490868Y-52675123D02*
X90221494Y-52944497D01*
X90221494Y-52944497D02*
X90463931Y-53240808D01*
X90463931Y-53240808D02*
X90463931Y-53186933D01*
X90463931Y-53186933D02*
X90490868Y-53106121D01*
X90490868Y-53106121D02*
X90625555Y-52971434D01*
X90625555Y-52971434D02*
X90706367Y-52944497D01*
X90706367Y-52944497D02*
X90760242Y-52944497D01*
X90760242Y-52944497D02*
X90841054Y-52971434D01*
X90841054Y-52971434D02*
X90975741Y-53106121D01*
X90975741Y-53106121D02*
X91002679Y-53186933D01*
X91002679Y-53186933D02*
X91002679Y-53240808D01*
X91002679Y-53240808D02*
X90975741Y-53321620D01*
X90975741Y-53321620D02*
X90841054Y-53456307D01*
X90841054Y-53456307D02*
X90760242Y-53483245D01*
X90760242Y-53483245D02*
X90706367Y-53483245D01*
X114997998Y-84555868D02*
X114917185Y-84582805D01*
X114917185Y-84582805D02*
X114836373Y-84663618D01*
X114836373Y-84663618D02*
X114782498Y-84771367D01*
X114782498Y-84771367D02*
X114782498Y-84879117D01*
X114782498Y-84879117D02*
X114809436Y-84959929D01*
X114809436Y-84959929D02*
X114890248Y-85094616D01*
X114890248Y-85094616D02*
X114971060Y-85175428D01*
X114971060Y-85175428D02*
X115105747Y-85256241D01*
X115105747Y-85256241D02*
X115186560Y-85283178D01*
X115186560Y-85283178D02*
X115294309Y-85283178D01*
X115294309Y-85283178D02*
X115402059Y-85229303D01*
X115402059Y-85229303D02*
X115455934Y-85175428D01*
X115455934Y-85175428D02*
X115509808Y-85067679D01*
X115509808Y-85067679D02*
X115509808Y-85013804D01*
X115509808Y-85013804D02*
X115321247Y-84825242D01*
X115321247Y-84825242D02*
X115213497Y-84932992D01*
X115806120Y-84825242D02*
X115240434Y-84259557D01*
X115240434Y-84259557D02*
X115455934Y-84044057D01*
X115455934Y-84044057D02*
X115536746Y-84017120D01*
X115536746Y-84017120D02*
X115590621Y-84017120D01*
X115590621Y-84017120D02*
X115671433Y-84044057D01*
X115671433Y-84044057D02*
X115752245Y-84124870D01*
X115752245Y-84124870D02*
X115779182Y-84205682D01*
X115779182Y-84205682D02*
X115779182Y-84259557D01*
X115779182Y-84259557D02*
X115752245Y-84340369D01*
X115752245Y-84340369D02*
X115536746Y-84555868D01*
X116668117Y-83963245D02*
X116344868Y-84286494D01*
X116506492Y-84124870D02*
X115940807Y-83559184D01*
X115940807Y-83559184D02*
X115967744Y-83693871D01*
X115967744Y-83693871D02*
X115967744Y-83801621D01*
X115967744Y-83801621D02*
X115940807Y-83882433D01*
X116290993Y-83208998D02*
X116668117Y-82831874D01*
X116668117Y-82831874D02*
X116991366Y-83639996D01*
X115738651Y-64518710D02*
X115280716Y-64437898D01*
X115415403Y-64841959D02*
X114849717Y-64276274D01*
X114849717Y-64276274D02*
X115065216Y-64060775D01*
X115065216Y-64060775D02*
X115146029Y-64033837D01*
X115146029Y-64033837D02*
X115199903Y-64033837D01*
X115199903Y-64033837D02*
X115280716Y-64060775D01*
X115280716Y-64060775D02*
X115361528Y-64141587D01*
X115361528Y-64141587D02*
X115388465Y-64222399D01*
X115388465Y-64222399D02*
X115388465Y-64276274D01*
X115388465Y-64276274D02*
X115361528Y-64357086D01*
X115361528Y-64357086D02*
X115146029Y-64572585D01*
X115415403Y-63710588D02*
X115873338Y-64168524D01*
X115873338Y-64168524D02*
X115954151Y-64195462D01*
X115954151Y-64195462D02*
X116008025Y-64195462D01*
X116008025Y-64195462D02*
X116088838Y-64168524D01*
X116088838Y-64168524D02*
X116196587Y-64060775D01*
X116196587Y-64060775D02*
X116223525Y-63979962D01*
X116223525Y-63979962D02*
X116223525Y-63926088D01*
X116223525Y-63926088D02*
X116196587Y-63845275D01*
X116196587Y-63845275D02*
X115738651Y-63387340D01*
X116573711Y-63683651D02*
X116008025Y-63117966D01*
X116008025Y-63117966D02*
X116896959Y-63360402D01*
X116896959Y-63360402D02*
X116331274Y-62794717D01*
X114790123Y-49065868D02*
X115140309Y-48715682D01*
X115140309Y-48715682D02*
X115167247Y-49119743D01*
X115167247Y-49119743D02*
X115248059Y-49038931D01*
X115248059Y-49038931D02*
X115328871Y-49011993D01*
X115328871Y-49011993D02*
X115382746Y-49011993D01*
X115382746Y-49011993D02*
X115463558Y-49038931D01*
X115463558Y-49038931D02*
X115598245Y-49173618D01*
X115598245Y-49173618D02*
X115625182Y-49254430D01*
X115625182Y-49254430D02*
X115625182Y-49308305D01*
X115625182Y-49308305D02*
X115598245Y-49389117D01*
X115598245Y-49389117D02*
X115436621Y-49550741D01*
X115436621Y-49550741D02*
X115355808Y-49577679D01*
X115355808Y-49577679D02*
X115301934Y-49577679D01*
X115301934Y-48554057D02*
X116056181Y-48931181D01*
X116056181Y-48931181D02*
X115679057Y-48176934D01*
X115813744Y-48042247D02*
X116163930Y-47692061D01*
X116163930Y-47692061D02*
X116190868Y-48096122D01*
X116190868Y-48096122D02*
X116271680Y-48015309D01*
X116271680Y-48015309D02*
X116352492Y-47988372D01*
X116352492Y-47988372D02*
X116406367Y-47988372D01*
X116406367Y-47988372D02*
X116487179Y-48015309D01*
X116487179Y-48015309D02*
X116621866Y-48149996D01*
X116621866Y-48149996D02*
X116648804Y-48230809D01*
X116648804Y-48230809D02*
X116648804Y-48284683D01*
X116648804Y-48284683D02*
X116621866Y-48365496D01*
X116621866Y-48365496D02*
X116460242Y-48527120D01*
X116460242Y-48527120D02*
X116379430Y-48554057D01*
X116379430Y-48554057D02*
X116325555Y-48554057D01*
X89413372Y-66506494D02*
X89332560Y-66533431D01*
X89332560Y-66533431D02*
X89251748Y-66614243D01*
X89251748Y-66614243D02*
X89197873Y-66721993D01*
X89197873Y-66721993D02*
X89197873Y-66829742D01*
X89197873Y-66829742D02*
X89224810Y-66910555D01*
X89224810Y-66910555D02*
X89305623Y-67045242D01*
X89305623Y-67045242D02*
X89386435Y-67126054D01*
X89386435Y-67126054D02*
X89521122Y-67206866D01*
X89521122Y-67206866D02*
X89601934Y-67233803D01*
X89601934Y-67233803D02*
X89709684Y-67233803D01*
X89709684Y-67233803D02*
X89817433Y-67179929D01*
X89817433Y-67179929D02*
X89871308Y-67126054D01*
X89871308Y-67126054D02*
X89925183Y-67018304D01*
X89925183Y-67018304D02*
X89925183Y-66964429D01*
X89925183Y-66964429D02*
X89736621Y-66775868D01*
X89736621Y-66775868D02*
X89628871Y-66883617D01*
X90221494Y-66775868D02*
X89655809Y-66210182D01*
X89655809Y-66210182D02*
X89871308Y-65994683D01*
X89871308Y-65994683D02*
X89952120Y-65967746D01*
X89952120Y-65967746D02*
X90005995Y-65967746D01*
X90005995Y-65967746D02*
X90086807Y-65994683D01*
X90086807Y-65994683D02*
X90167619Y-66075495D01*
X90167619Y-66075495D02*
X90194557Y-66156307D01*
X90194557Y-66156307D02*
X90194557Y-66210182D01*
X90194557Y-66210182D02*
X90167619Y-66290994D01*
X90167619Y-66290994D02*
X89952120Y-66506494D01*
X90814117Y-66183245D02*
X90921867Y-66075495D01*
X90921867Y-66075495D02*
X90948804Y-65994683D01*
X90948804Y-65994683D02*
X90948804Y-65940808D01*
X90948804Y-65940808D02*
X90921867Y-65806121D01*
X90921867Y-65806121D02*
X90841054Y-65671434D01*
X90841054Y-65671434D02*
X90625555Y-65455935D01*
X90625555Y-65455935D02*
X90544743Y-65428998D01*
X90544743Y-65428998D02*
X90490868Y-65428998D01*
X90490868Y-65428998D02*
X90410056Y-65455935D01*
X90410056Y-65455935D02*
X90302306Y-65563685D01*
X90302306Y-65563685D02*
X90275369Y-65644497D01*
X90275369Y-65644497D02*
X90275369Y-65698372D01*
X90275369Y-65698372D02*
X90302306Y-65779184D01*
X90302306Y-65779184D02*
X90436993Y-65913871D01*
X90436993Y-65913871D02*
X90517806Y-65940808D01*
X90517806Y-65940808D02*
X90571680Y-65940808D01*
X90571680Y-65940808D02*
X90652493Y-65913871D01*
X90652493Y-65913871D02*
X90760242Y-65806121D01*
X90760242Y-65806121D02*
X90787180Y-65725309D01*
X90787180Y-65725309D02*
X90787180Y-65671434D01*
X90787180Y-65671434D02*
X90760242Y-65590622D01*
X89413372Y-58886494D02*
X89332560Y-58913431D01*
X89332560Y-58913431D02*
X89251748Y-58994243D01*
X89251748Y-58994243D02*
X89197873Y-59101993D01*
X89197873Y-59101993D02*
X89197873Y-59209742D01*
X89197873Y-59209742D02*
X89224810Y-59290555D01*
X89224810Y-59290555D02*
X89305623Y-59425242D01*
X89305623Y-59425242D02*
X89386435Y-59506054D01*
X89386435Y-59506054D02*
X89521122Y-59586866D01*
X89521122Y-59586866D02*
X89601934Y-59613803D01*
X89601934Y-59613803D02*
X89709684Y-59613803D01*
X89709684Y-59613803D02*
X89817433Y-59559929D01*
X89817433Y-59559929D02*
X89871308Y-59506054D01*
X89871308Y-59506054D02*
X89925183Y-59398304D01*
X89925183Y-59398304D02*
X89925183Y-59344429D01*
X89925183Y-59344429D02*
X89736621Y-59155868D01*
X89736621Y-59155868D02*
X89628871Y-59263617D01*
X90221494Y-59155868D02*
X89655809Y-58590182D01*
X89655809Y-58590182D02*
X89871308Y-58374683D01*
X89871308Y-58374683D02*
X89952120Y-58347746D01*
X89952120Y-58347746D02*
X90005995Y-58347746D01*
X90005995Y-58347746D02*
X90086807Y-58374683D01*
X90086807Y-58374683D02*
X90167619Y-58455495D01*
X90167619Y-58455495D02*
X90194557Y-58536307D01*
X90194557Y-58536307D02*
X90194557Y-58590182D01*
X90194557Y-58590182D02*
X90167619Y-58670994D01*
X90167619Y-58670994D02*
X89952120Y-58886494D01*
X90463931Y-57782060D02*
X90356181Y-57889810D01*
X90356181Y-57889810D02*
X90329244Y-57970622D01*
X90329244Y-57970622D02*
X90329244Y-58024497D01*
X90329244Y-58024497D02*
X90356181Y-58159184D01*
X90356181Y-58159184D02*
X90436993Y-58293871D01*
X90436993Y-58293871D02*
X90652493Y-58509370D01*
X90652493Y-58509370D02*
X90733305Y-58536307D01*
X90733305Y-58536307D02*
X90787180Y-58536307D01*
X90787180Y-58536307D02*
X90867992Y-58509370D01*
X90867992Y-58509370D02*
X90975741Y-58401620D01*
X90975741Y-58401620D02*
X91002679Y-58320808D01*
X91002679Y-58320808D02*
X91002679Y-58266933D01*
X91002679Y-58266933D02*
X90975741Y-58186121D01*
X90975741Y-58186121D02*
X90841054Y-58051434D01*
X90841054Y-58051434D02*
X90760242Y-58024497D01*
X90760242Y-58024497D02*
X90706367Y-58024497D01*
X90706367Y-58024497D02*
X90625555Y-58051434D01*
X90625555Y-58051434D02*
X90517806Y-58159184D01*
X90517806Y-58159184D02*
X90490868Y-58239996D01*
X90490868Y-58239996D02*
X90490868Y-58293871D01*
X90490868Y-58293871D02*
X90517806Y-58374683D01*
X114997998Y-76935868D02*
X114917185Y-76962805D01*
X114917185Y-76962805D02*
X114836373Y-77043618D01*
X114836373Y-77043618D02*
X114782498Y-77151367D01*
X114782498Y-77151367D02*
X114782498Y-77259117D01*
X114782498Y-77259117D02*
X114809436Y-77339929D01*
X114809436Y-77339929D02*
X114890248Y-77474616D01*
X114890248Y-77474616D02*
X114971060Y-77555428D01*
X114971060Y-77555428D02*
X115105747Y-77636241D01*
X115105747Y-77636241D02*
X115186560Y-77663178D01*
X115186560Y-77663178D02*
X115294309Y-77663178D01*
X115294309Y-77663178D02*
X115402059Y-77609303D01*
X115402059Y-77609303D02*
X115455934Y-77555428D01*
X115455934Y-77555428D02*
X115509808Y-77447679D01*
X115509808Y-77447679D02*
X115509808Y-77393804D01*
X115509808Y-77393804D02*
X115321247Y-77205242D01*
X115321247Y-77205242D02*
X115213497Y-77312992D01*
X115806120Y-77205242D02*
X115240434Y-76639557D01*
X115240434Y-76639557D02*
X115455934Y-76424057D01*
X115455934Y-76424057D02*
X115536746Y-76397120D01*
X115536746Y-76397120D02*
X115590621Y-76397120D01*
X115590621Y-76397120D02*
X115671433Y-76424057D01*
X115671433Y-76424057D02*
X115752245Y-76504870D01*
X115752245Y-76504870D02*
X115779182Y-76585682D01*
X115779182Y-76585682D02*
X115779182Y-76639557D01*
X115779182Y-76639557D02*
X115752245Y-76720369D01*
X115752245Y-76720369D02*
X115536746Y-76935868D01*
X116668117Y-76343245D02*
X116344868Y-76666494D01*
X116506492Y-76504870D02*
X115940807Y-75939184D01*
X115940807Y-75939184D02*
X115967744Y-76073871D01*
X115967744Y-76073871D02*
X115967744Y-76181621D01*
X115967744Y-76181621D02*
X115940807Y-76262433D01*
X116937491Y-76073871D02*
X117045240Y-75966121D01*
X117045240Y-75966121D02*
X117072178Y-75885309D01*
X117072178Y-75885309D02*
X117072178Y-75831434D01*
X117072178Y-75831434D02*
X117045240Y-75696747D01*
X117045240Y-75696747D02*
X116964428Y-75562060D01*
X116964428Y-75562060D02*
X116748929Y-75346561D01*
X116748929Y-75346561D02*
X116668117Y-75319624D01*
X116668117Y-75319624D02*
X116614242Y-75319624D01*
X116614242Y-75319624D02*
X116533430Y-75346561D01*
X116533430Y-75346561D02*
X116425680Y-75454311D01*
X116425680Y-75454311D02*
X116398743Y-75535123D01*
X116398743Y-75535123D02*
X116398743Y-75588998D01*
X116398743Y-75588998D02*
X116425680Y-75669810D01*
X116425680Y-75669810D02*
X116560367Y-75804497D01*
X116560367Y-75804497D02*
X116641179Y-75831434D01*
X116641179Y-75831434D02*
X116695054Y-75831434D01*
X116695054Y-75831434D02*
X116775866Y-75804497D01*
X116775866Y-75804497D02*
X116883616Y-75696747D01*
X116883616Y-75696747D02*
X116910553Y-75615935D01*
X116910553Y-75615935D02*
X116910553Y-75562060D01*
X116910553Y-75562060D02*
X116883616Y-75481248D01*
X114986435Y-43673431D02*
X114905623Y-43700368D01*
X114905623Y-43700368D02*
X114824811Y-43781180D01*
X114824811Y-43781180D02*
X114770936Y-43888930D01*
X114770936Y-43888930D02*
X114770936Y-43996680D01*
X114770936Y-43996680D02*
X114797873Y-44077492D01*
X114797873Y-44077492D02*
X114878685Y-44212179D01*
X114878685Y-44212179D02*
X114959498Y-44292991D01*
X114959498Y-44292991D02*
X115094185Y-44373803D01*
X115094185Y-44373803D02*
X115174997Y-44400741D01*
X115174997Y-44400741D02*
X115282746Y-44400741D01*
X115282746Y-44400741D02*
X115390496Y-44346866D01*
X115390496Y-44346866D02*
X115444371Y-44292991D01*
X115444371Y-44292991D02*
X115498246Y-44185241D01*
X115498246Y-44185241D02*
X115498246Y-44131367D01*
X115498246Y-44131367D02*
X115309684Y-43942805D01*
X115309684Y-43942805D02*
X115201934Y-44050554D01*
X115794557Y-43942805D02*
X115228872Y-43377119D01*
X115228872Y-43377119D02*
X116117806Y-43619556D01*
X116117806Y-43619556D02*
X115552120Y-43053871D01*
X116387180Y-43350182D02*
X115821494Y-42784497D01*
X115821494Y-42784497D02*
X115956181Y-42649810D01*
X115956181Y-42649810D02*
X116063931Y-42595935D01*
X116063931Y-42595935D02*
X116171680Y-42595935D01*
X116171680Y-42595935D02*
X116252493Y-42622872D01*
X116252493Y-42622872D02*
X116387180Y-42703685D01*
X116387180Y-42703685D02*
X116467992Y-42784497D01*
X116467992Y-42784497D02*
X116548804Y-42919184D01*
X116548804Y-42919184D02*
X116575741Y-42999996D01*
X116575741Y-42999996D02*
X116575741Y-43107746D01*
X116575741Y-43107746D02*
X116521867Y-43215495D01*
X116521867Y-43215495D02*
X116387180Y-43350182D01*
X114986435Y-81773431D02*
X114905623Y-81800368D01*
X114905623Y-81800368D02*
X114824811Y-81881180D01*
X114824811Y-81881180D02*
X114770936Y-81988930D01*
X114770936Y-81988930D02*
X114770936Y-82096680D01*
X114770936Y-82096680D02*
X114797873Y-82177492D01*
X114797873Y-82177492D02*
X114878685Y-82312179D01*
X114878685Y-82312179D02*
X114959498Y-82392991D01*
X114959498Y-82392991D02*
X115094185Y-82473803D01*
X115094185Y-82473803D02*
X115174997Y-82500741D01*
X115174997Y-82500741D02*
X115282746Y-82500741D01*
X115282746Y-82500741D02*
X115390496Y-82446866D01*
X115390496Y-82446866D02*
X115444371Y-82392991D01*
X115444371Y-82392991D02*
X115498246Y-82285241D01*
X115498246Y-82285241D02*
X115498246Y-82231367D01*
X115498246Y-82231367D02*
X115309684Y-82042805D01*
X115309684Y-82042805D02*
X115201934Y-82150554D01*
X115794557Y-82042805D02*
X115228872Y-81477119D01*
X115228872Y-81477119D02*
X116117806Y-81719556D01*
X116117806Y-81719556D02*
X115552120Y-81153871D01*
X116387180Y-81450182D02*
X115821494Y-80884497D01*
X115821494Y-80884497D02*
X115956181Y-80749810D01*
X115956181Y-80749810D02*
X116063931Y-80695935D01*
X116063931Y-80695935D02*
X116171680Y-80695935D01*
X116171680Y-80695935D02*
X116252493Y-80722872D01*
X116252493Y-80722872D02*
X116387180Y-80803685D01*
X116387180Y-80803685D02*
X116467992Y-80884497D01*
X116467992Y-80884497D02*
X116548804Y-81019184D01*
X116548804Y-81019184D02*
X116575741Y-81099996D01*
X116575741Y-81099996D02*
X116575741Y-81207746D01*
X116575741Y-81207746D02*
X116521867Y-81315495D01*
X116521867Y-81315495D02*
X116387180Y-81450182D01*
X114820749Y-41645242D02*
X115574996Y-42022366D01*
X115574996Y-42022366D02*
X115197873Y-41268118D01*
X115898245Y-41645242D02*
X116005995Y-41591367D01*
X116005995Y-41591367D02*
X116140682Y-41456680D01*
X116140682Y-41456680D02*
X116167619Y-41375868D01*
X116167619Y-41375868D02*
X116167619Y-41321993D01*
X116167619Y-41321993D02*
X116140682Y-41241181D01*
X116140682Y-41241181D02*
X116086807Y-41187306D01*
X116086807Y-41187306D02*
X116005995Y-41160369D01*
X116005995Y-41160369D02*
X115952120Y-41160369D01*
X115952120Y-41160369D02*
X115871308Y-41187306D01*
X115871308Y-41187306D02*
X115736621Y-41268118D01*
X115736621Y-41268118D02*
X115655808Y-41295056D01*
X115655808Y-41295056D02*
X115601934Y-41295056D01*
X115601934Y-41295056D02*
X115521121Y-41268118D01*
X115521121Y-41268118D02*
X115467247Y-41214244D01*
X115467247Y-41214244D02*
X115440309Y-41133431D01*
X115440309Y-41133431D02*
X115440309Y-41079557D01*
X115440309Y-41079557D02*
X115467247Y-40998744D01*
X115467247Y-40998744D02*
X115601934Y-40864057D01*
X115601934Y-40864057D02*
X115709683Y-40810183D01*
X116329244Y-40729370D02*
X116598618Y-40998744D01*
X115844370Y-40621621D02*
X116329244Y-40729370D01*
X116329244Y-40729370D02*
X116221494Y-40244497D01*
X116921866Y-40621621D02*
X117029616Y-40567746D01*
X117029616Y-40567746D02*
X117164303Y-40433059D01*
X117164303Y-40433059D02*
X117191240Y-40352247D01*
X117191240Y-40352247D02*
X117191240Y-40298372D01*
X117191240Y-40298372D02*
X117164303Y-40217560D01*
X117164303Y-40217560D02*
X117110428Y-40163685D01*
X117110428Y-40163685D02*
X117029616Y-40136748D01*
X117029616Y-40136748D02*
X116975741Y-40136748D01*
X116975741Y-40136748D02*
X116894929Y-40163685D01*
X116894929Y-40163685D02*
X116760242Y-40244497D01*
X116760242Y-40244497D02*
X116679430Y-40271435D01*
X116679430Y-40271435D02*
X116625555Y-40271435D01*
X116625555Y-40271435D02*
X116544743Y-40244497D01*
X116544743Y-40244497D02*
X116490868Y-40190622D01*
X116490868Y-40190622D02*
X116463930Y-40109810D01*
X116463930Y-40109810D02*
X116463930Y-40055935D01*
X116463930Y-40055935D02*
X116490868Y-39975123D01*
X116490868Y-39975123D02*
X116625555Y-39840436D01*
X116625555Y-39840436D02*
X116733304Y-39786561D01*
X88843998Y-84555868D02*
X88763185Y-84582805D01*
X88763185Y-84582805D02*
X88682373Y-84663618D01*
X88682373Y-84663618D02*
X88628498Y-84771367D01*
X88628498Y-84771367D02*
X88628498Y-84879117D01*
X88628498Y-84879117D02*
X88655436Y-84959929D01*
X88655436Y-84959929D02*
X88736248Y-85094616D01*
X88736248Y-85094616D02*
X88817060Y-85175428D01*
X88817060Y-85175428D02*
X88951747Y-85256241D01*
X88951747Y-85256241D02*
X89032560Y-85283178D01*
X89032560Y-85283178D02*
X89140309Y-85283178D01*
X89140309Y-85283178D02*
X89248059Y-85229303D01*
X89248059Y-85229303D02*
X89301934Y-85175428D01*
X89301934Y-85175428D02*
X89355808Y-85067679D01*
X89355808Y-85067679D02*
X89355808Y-85013804D01*
X89355808Y-85013804D02*
X89167247Y-84825242D01*
X89167247Y-84825242D02*
X89059497Y-84932992D01*
X89652120Y-84825242D02*
X89086434Y-84259557D01*
X89086434Y-84259557D02*
X89301934Y-84044057D01*
X89301934Y-84044057D02*
X89382746Y-84017120D01*
X89382746Y-84017120D02*
X89436621Y-84017120D01*
X89436621Y-84017120D02*
X89517433Y-84044057D01*
X89517433Y-84044057D02*
X89598245Y-84124870D01*
X89598245Y-84124870D02*
X89625182Y-84205682D01*
X89625182Y-84205682D02*
X89625182Y-84259557D01*
X89625182Y-84259557D02*
X89598245Y-84340369D01*
X89598245Y-84340369D02*
X89382746Y-84555868D01*
X90514117Y-83963245D02*
X90190868Y-84286494D01*
X90352492Y-84124870D02*
X89786807Y-83559184D01*
X89786807Y-83559184D02*
X89813744Y-83693871D01*
X89813744Y-83693871D02*
X89813744Y-83801621D01*
X89813744Y-83801621D02*
X89786807Y-83882433D01*
X90621866Y-83101248D02*
X90998990Y-83478372D01*
X90271680Y-83020436D02*
X90541054Y-83559184D01*
X90541054Y-83559184D02*
X90891240Y-83208998D01*
X114997998Y-61695868D02*
X114917185Y-61722805D01*
X114917185Y-61722805D02*
X114836373Y-61803618D01*
X114836373Y-61803618D02*
X114782498Y-61911367D01*
X114782498Y-61911367D02*
X114782498Y-62019117D01*
X114782498Y-62019117D02*
X114809436Y-62099929D01*
X114809436Y-62099929D02*
X114890248Y-62234616D01*
X114890248Y-62234616D02*
X114971060Y-62315428D01*
X114971060Y-62315428D02*
X115105747Y-62396241D01*
X115105747Y-62396241D02*
X115186560Y-62423178D01*
X115186560Y-62423178D02*
X115294309Y-62423178D01*
X115294309Y-62423178D02*
X115402059Y-62369303D01*
X115402059Y-62369303D02*
X115455934Y-62315428D01*
X115455934Y-62315428D02*
X115509808Y-62207679D01*
X115509808Y-62207679D02*
X115509808Y-62153804D01*
X115509808Y-62153804D02*
X115321247Y-61965242D01*
X115321247Y-61965242D02*
X115213497Y-62072992D01*
X115806120Y-61965242D02*
X115240434Y-61399557D01*
X115240434Y-61399557D02*
X115455934Y-61184057D01*
X115455934Y-61184057D02*
X115536746Y-61157120D01*
X115536746Y-61157120D02*
X115590621Y-61157120D01*
X115590621Y-61157120D02*
X115671433Y-61184057D01*
X115671433Y-61184057D02*
X115752245Y-61264870D01*
X115752245Y-61264870D02*
X115779182Y-61345682D01*
X115779182Y-61345682D02*
X115779182Y-61399557D01*
X115779182Y-61399557D02*
X115752245Y-61480369D01*
X115752245Y-61480369D02*
X115536746Y-61695868D01*
X115833057Y-60914683D02*
X115833057Y-60860809D01*
X115833057Y-60860809D02*
X115859995Y-60779996D01*
X115859995Y-60779996D02*
X115994682Y-60645309D01*
X115994682Y-60645309D02*
X116075494Y-60618372D01*
X116075494Y-60618372D02*
X116129369Y-60618372D01*
X116129369Y-60618372D02*
X116210181Y-60645309D01*
X116210181Y-60645309D02*
X116264056Y-60699184D01*
X116264056Y-60699184D02*
X116317930Y-60806934D01*
X116317930Y-60806934D02*
X116317930Y-61453431D01*
X116317930Y-61453431D02*
X116668117Y-61103245D01*
X116587305Y-60052686D02*
X116479555Y-60160436D01*
X116479555Y-60160436D02*
X116452618Y-60241248D01*
X116452618Y-60241248D02*
X116452618Y-60295123D01*
X116452618Y-60295123D02*
X116479555Y-60429810D01*
X116479555Y-60429810D02*
X116560367Y-60564497D01*
X116560367Y-60564497D02*
X116775866Y-60779996D01*
X116775866Y-60779996D02*
X116856679Y-60806934D01*
X116856679Y-60806934D02*
X116910553Y-60806934D01*
X116910553Y-60806934D02*
X116991366Y-60779996D01*
X116991366Y-60779996D02*
X117099115Y-60672247D01*
X117099115Y-60672247D02*
X117126053Y-60591434D01*
X117126053Y-60591434D02*
X117126053Y-60537560D01*
X117126053Y-60537560D02*
X117099115Y-60456747D01*
X117099115Y-60456747D02*
X116964428Y-60322060D01*
X116964428Y-60322060D02*
X116883616Y-60295123D01*
X116883616Y-60295123D02*
X116829741Y-60295123D01*
X116829741Y-60295123D02*
X116748929Y-60322060D01*
X116748929Y-60322060D02*
X116641179Y-60429810D01*
X116641179Y-60429810D02*
X116614242Y-60510622D01*
X116614242Y-60510622D02*
X116614242Y-60564497D01*
X116614242Y-60564497D02*
X116641179Y-60645309D01*
X114997998Y-71865868D02*
X114917185Y-71892805D01*
X114917185Y-71892805D02*
X114836373Y-71973618D01*
X114836373Y-71973618D02*
X114782498Y-72081367D01*
X114782498Y-72081367D02*
X114782498Y-72189117D01*
X114782498Y-72189117D02*
X114809436Y-72269929D01*
X114809436Y-72269929D02*
X114890248Y-72404616D01*
X114890248Y-72404616D02*
X114971060Y-72485428D01*
X114971060Y-72485428D02*
X115105747Y-72566241D01*
X115105747Y-72566241D02*
X115186560Y-72593178D01*
X115186560Y-72593178D02*
X115294309Y-72593178D01*
X115294309Y-72593178D02*
X115402059Y-72539303D01*
X115402059Y-72539303D02*
X115455934Y-72485428D01*
X115455934Y-72485428D02*
X115509808Y-72377679D01*
X115509808Y-72377679D02*
X115509808Y-72323804D01*
X115509808Y-72323804D02*
X115321247Y-72135242D01*
X115321247Y-72135242D02*
X115213497Y-72242992D01*
X115806120Y-72135242D02*
X115240434Y-71569557D01*
X115240434Y-71569557D02*
X115455934Y-71354057D01*
X115455934Y-71354057D02*
X115536746Y-71327120D01*
X115536746Y-71327120D02*
X115590621Y-71327120D01*
X115590621Y-71327120D02*
X115671433Y-71354057D01*
X115671433Y-71354057D02*
X115752245Y-71434870D01*
X115752245Y-71434870D02*
X115779182Y-71515682D01*
X115779182Y-71515682D02*
X115779182Y-71569557D01*
X115779182Y-71569557D02*
X115752245Y-71650369D01*
X115752245Y-71650369D02*
X115536746Y-71865868D01*
X115833057Y-71084683D02*
X115833057Y-71030809D01*
X115833057Y-71030809D02*
X115859995Y-70949996D01*
X115859995Y-70949996D02*
X115994682Y-70815309D01*
X115994682Y-70815309D02*
X116075494Y-70788372D01*
X116075494Y-70788372D02*
X116129369Y-70788372D01*
X116129369Y-70788372D02*
X116210181Y-70815309D01*
X116210181Y-70815309D02*
X116264056Y-70869184D01*
X116264056Y-70869184D02*
X116317930Y-70976934D01*
X116317930Y-70976934D02*
X116317930Y-71623431D01*
X116317930Y-71623431D02*
X116668117Y-71273245D01*
X117206865Y-70734497D02*
X116883616Y-71057746D01*
X117045240Y-70896121D02*
X116479555Y-70330436D01*
X116479555Y-70330436D02*
X116506492Y-70465123D01*
X116506492Y-70465123D02*
X116506492Y-70572873D01*
X116506492Y-70572873D02*
X116479555Y-70653685D01*
X114853406Y-39102585D02*
X115607653Y-39479709D01*
X115607653Y-39479709D02*
X115230529Y-38725462D01*
X115877027Y-38617712D02*
X115984776Y-38563838D01*
X115984776Y-38563838D02*
X116038651Y-38563838D01*
X116038651Y-38563838D02*
X116119463Y-38590775D01*
X116119463Y-38590775D02*
X116200276Y-38671587D01*
X116200276Y-38671587D02*
X116227213Y-38752399D01*
X116227213Y-38752399D02*
X116227213Y-38806274D01*
X116227213Y-38806274D02*
X116200276Y-38887086D01*
X116200276Y-38887086D02*
X115984776Y-39102586D01*
X115984776Y-39102586D02*
X115419091Y-38536900D01*
X115419091Y-38536900D02*
X115607653Y-38348338D01*
X115607653Y-38348338D02*
X115688465Y-38321401D01*
X115688465Y-38321401D02*
X115742340Y-38321401D01*
X115742340Y-38321401D02*
X115823152Y-38348338D01*
X115823152Y-38348338D02*
X115877027Y-38402213D01*
X115877027Y-38402213D02*
X115903964Y-38483025D01*
X115903964Y-38483025D02*
X115903964Y-38536900D01*
X115903964Y-38536900D02*
X115877027Y-38617712D01*
X115877027Y-38617712D02*
X115688465Y-38806274D01*
X115984776Y-37971215D02*
X116442712Y-38429151D01*
X116442712Y-38429151D02*
X116523524Y-38456088D01*
X116523524Y-38456088D02*
X116577399Y-38456088D01*
X116577399Y-38456088D02*
X116658211Y-38429151D01*
X116658211Y-38429151D02*
X116765961Y-38321401D01*
X116765961Y-38321401D02*
X116792898Y-38240589D01*
X116792898Y-38240589D02*
X116792898Y-38186714D01*
X116792898Y-38186714D02*
X116765961Y-38105902D01*
X116765961Y-38105902D02*
X116308025Y-37647966D01*
X117089210Y-37944277D02*
X117196959Y-37890403D01*
X117196959Y-37890403D02*
X117331646Y-37755716D01*
X117331646Y-37755716D02*
X117358584Y-37674903D01*
X117358584Y-37674903D02*
X117358584Y-37621029D01*
X117358584Y-37621029D02*
X117331646Y-37540216D01*
X117331646Y-37540216D02*
X117277771Y-37486342D01*
X117277771Y-37486342D02*
X117196959Y-37459404D01*
X117196959Y-37459404D02*
X117143084Y-37459404D01*
X117143084Y-37459404D02*
X117062272Y-37486342D01*
X117062272Y-37486342D02*
X116927585Y-37567154D01*
X116927585Y-37567154D02*
X116846773Y-37594091D01*
X116846773Y-37594091D02*
X116792898Y-37594091D01*
X116792898Y-37594091D02*
X116712086Y-37567154D01*
X116712086Y-37567154D02*
X116658211Y-37513279D01*
X116658211Y-37513279D02*
X116631274Y-37432467D01*
X116631274Y-37432467D02*
X116631274Y-37378592D01*
X116631274Y-37378592D02*
X116658211Y-37297780D01*
X116658211Y-37297780D02*
X116792898Y-37163093D01*
X116792898Y-37163093D02*
X116900648Y-37109218D01*
X89413372Y-63966494D02*
X89332560Y-63993431D01*
X89332560Y-63993431D02*
X89251748Y-64074243D01*
X89251748Y-64074243D02*
X89197873Y-64181993D01*
X89197873Y-64181993D02*
X89197873Y-64289742D01*
X89197873Y-64289742D02*
X89224810Y-64370555D01*
X89224810Y-64370555D02*
X89305623Y-64505242D01*
X89305623Y-64505242D02*
X89386435Y-64586054D01*
X89386435Y-64586054D02*
X89521122Y-64666866D01*
X89521122Y-64666866D02*
X89601934Y-64693803D01*
X89601934Y-64693803D02*
X89709684Y-64693803D01*
X89709684Y-64693803D02*
X89817433Y-64639929D01*
X89817433Y-64639929D02*
X89871308Y-64586054D01*
X89871308Y-64586054D02*
X89925183Y-64478304D01*
X89925183Y-64478304D02*
X89925183Y-64424429D01*
X89925183Y-64424429D02*
X89736621Y-64235868D01*
X89736621Y-64235868D02*
X89628871Y-64343617D01*
X90221494Y-64235868D02*
X89655809Y-63670182D01*
X89655809Y-63670182D02*
X89871308Y-63454683D01*
X89871308Y-63454683D02*
X89952120Y-63427746D01*
X89952120Y-63427746D02*
X90005995Y-63427746D01*
X90005995Y-63427746D02*
X90086807Y-63454683D01*
X90086807Y-63454683D02*
X90167619Y-63535495D01*
X90167619Y-63535495D02*
X90194557Y-63616307D01*
X90194557Y-63616307D02*
X90194557Y-63670182D01*
X90194557Y-63670182D02*
X90167619Y-63750994D01*
X90167619Y-63750994D02*
X89952120Y-63966494D01*
X90544743Y-63266121D02*
X90463931Y-63293059D01*
X90463931Y-63293059D02*
X90410056Y-63293059D01*
X90410056Y-63293059D02*
X90329244Y-63266121D01*
X90329244Y-63266121D02*
X90302306Y-63239184D01*
X90302306Y-63239184D02*
X90275369Y-63158372D01*
X90275369Y-63158372D02*
X90275369Y-63104497D01*
X90275369Y-63104497D02*
X90302306Y-63023685D01*
X90302306Y-63023685D02*
X90410056Y-62915935D01*
X90410056Y-62915935D02*
X90490868Y-62888998D01*
X90490868Y-62888998D02*
X90544743Y-62888998D01*
X90544743Y-62888998D02*
X90625555Y-62915935D01*
X90625555Y-62915935D02*
X90652493Y-62942872D01*
X90652493Y-62942872D02*
X90679430Y-63023685D01*
X90679430Y-63023685D02*
X90679430Y-63077559D01*
X90679430Y-63077559D02*
X90652493Y-63158372D01*
X90652493Y-63158372D02*
X90544743Y-63266121D01*
X90544743Y-63266121D02*
X90517806Y-63346933D01*
X90517806Y-63346933D02*
X90517806Y-63400808D01*
X90517806Y-63400808D02*
X90544743Y-63481620D01*
X90544743Y-63481620D02*
X90652493Y-63589370D01*
X90652493Y-63589370D02*
X90733305Y-63616307D01*
X90733305Y-63616307D02*
X90787180Y-63616307D01*
X90787180Y-63616307D02*
X90867992Y-63589370D01*
X90867992Y-63589370D02*
X90975741Y-63481620D01*
X90975741Y-63481620D02*
X91002679Y-63400808D01*
X91002679Y-63400808D02*
X91002679Y-63346933D01*
X91002679Y-63346933D02*
X90975741Y-63266121D01*
X90975741Y-63266121D02*
X90867992Y-63158372D01*
X90867992Y-63158372D02*
X90787180Y-63131434D01*
X90787180Y-63131434D02*
X90733305Y-63131434D01*
X90733305Y-63131434D02*
X90652493Y-63158372D01*
X114997998Y-66775868D02*
X114917185Y-66802805D01*
X114917185Y-66802805D02*
X114836373Y-66883618D01*
X114836373Y-66883618D02*
X114782498Y-66991367D01*
X114782498Y-66991367D02*
X114782498Y-67099117D01*
X114782498Y-67099117D02*
X114809436Y-67179929D01*
X114809436Y-67179929D02*
X114890248Y-67314616D01*
X114890248Y-67314616D02*
X114971060Y-67395428D01*
X114971060Y-67395428D02*
X115105747Y-67476241D01*
X115105747Y-67476241D02*
X115186560Y-67503178D01*
X115186560Y-67503178D02*
X115294309Y-67503178D01*
X115294309Y-67503178D02*
X115402059Y-67449303D01*
X115402059Y-67449303D02*
X115455934Y-67395428D01*
X115455934Y-67395428D02*
X115509808Y-67287679D01*
X115509808Y-67287679D02*
X115509808Y-67233804D01*
X115509808Y-67233804D02*
X115321247Y-67045242D01*
X115321247Y-67045242D02*
X115213497Y-67152992D01*
X115806120Y-67045242D02*
X115240434Y-66479557D01*
X115240434Y-66479557D02*
X115455934Y-66264057D01*
X115455934Y-66264057D02*
X115536746Y-66237120D01*
X115536746Y-66237120D02*
X115590621Y-66237120D01*
X115590621Y-66237120D02*
X115671433Y-66264057D01*
X115671433Y-66264057D02*
X115752245Y-66344870D01*
X115752245Y-66344870D02*
X115779182Y-66425682D01*
X115779182Y-66425682D02*
X115779182Y-66479557D01*
X115779182Y-66479557D02*
X115752245Y-66560369D01*
X115752245Y-66560369D02*
X115536746Y-66775868D01*
X115833057Y-65994683D02*
X115833057Y-65940809D01*
X115833057Y-65940809D02*
X115859995Y-65859996D01*
X115859995Y-65859996D02*
X115994682Y-65725309D01*
X115994682Y-65725309D02*
X116075494Y-65698372D01*
X116075494Y-65698372D02*
X116129369Y-65698372D01*
X116129369Y-65698372D02*
X116210181Y-65725309D01*
X116210181Y-65725309D02*
X116264056Y-65779184D01*
X116264056Y-65779184D02*
X116317930Y-65886934D01*
X116317930Y-65886934D02*
X116317930Y-66533431D01*
X116317930Y-66533431D02*
X116668117Y-66183245D01*
X116371805Y-65455935D02*
X116371805Y-65402060D01*
X116371805Y-65402060D02*
X116398743Y-65321248D01*
X116398743Y-65321248D02*
X116533430Y-65186561D01*
X116533430Y-65186561D02*
X116614242Y-65159624D01*
X116614242Y-65159624D02*
X116668117Y-65159624D01*
X116668117Y-65159624D02*
X116748929Y-65186561D01*
X116748929Y-65186561D02*
X116802804Y-65240436D01*
X116802804Y-65240436D02*
X116856679Y-65348186D01*
X116856679Y-65348186D02*
X116856679Y-65994683D01*
X116856679Y-65994683D02*
X117206865Y-65644497D01*
X114997998Y-59165868D02*
X114917185Y-59192805D01*
X114917185Y-59192805D02*
X114836373Y-59273618D01*
X114836373Y-59273618D02*
X114782498Y-59381367D01*
X114782498Y-59381367D02*
X114782498Y-59489117D01*
X114782498Y-59489117D02*
X114809436Y-59569929D01*
X114809436Y-59569929D02*
X114890248Y-59704616D01*
X114890248Y-59704616D02*
X114971060Y-59785428D01*
X114971060Y-59785428D02*
X115105747Y-59866241D01*
X115105747Y-59866241D02*
X115186560Y-59893178D01*
X115186560Y-59893178D02*
X115294309Y-59893178D01*
X115294309Y-59893178D02*
X115402059Y-59839303D01*
X115402059Y-59839303D02*
X115455934Y-59785428D01*
X115455934Y-59785428D02*
X115509808Y-59677679D01*
X115509808Y-59677679D02*
X115509808Y-59623804D01*
X115509808Y-59623804D02*
X115321247Y-59435242D01*
X115321247Y-59435242D02*
X115213497Y-59542992D01*
X115806120Y-59435242D02*
X115240434Y-58869557D01*
X115240434Y-58869557D02*
X115455934Y-58654057D01*
X115455934Y-58654057D02*
X115536746Y-58627120D01*
X115536746Y-58627120D02*
X115590621Y-58627120D01*
X115590621Y-58627120D02*
X115671433Y-58654057D01*
X115671433Y-58654057D02*
X115752245Y-58734870D01*
X115752245Y-58734870D02*
X115779182Y-58815682D01*
X115779182Y-58815682D02*
X115779182Y-58869557D01*
X115779182Y-58869557D02*
X115752245Y-58950369D01*
X115752245Y-58950369D02*
X115536746Y-59165868D01*
X115833057Y-58384683D02*
X115833057Y-58330809D01*
X115833057Y-58330809D02*
X115859995Y-58249996D01*
X115859995Y-58249996D02*
X115994682Y-58115309D01*
X115994682Y-58115309D02*
X116075494Y-58088372D01*
X116075494Y-58088372D02*
X116129369Y-58088372D01*
X116129369Y-58088372D02*
X116210181Y-58115309D01*
X116210181Y-58115309D02*
X116264056Y-58169184D01*
X116264056Y-58169184D02*
X116317930Y-58276934D01*
X116317930Y-58276934D02*
X116317930Y-58923431D01*
X116317930Y-58923431D02*
X116668117Y-58573245D01*
X116290993Y-57818998D02*
X116668117Y-57441874D01*
X116668117Y-57441874D02*
X116991366Y-58249996D01*
X114997998Y-87095868D02*
X114917185Y-87122805D01*
X114917185Y-87122805D02*
X114836373Y-87203618D01*
X114836373Y-87203618D02*
X114782498Y-87311367D01*
X114782498Y-87311367D02*
X114782498Y-87419117D01*
X114782498Y-87419117D02*
X114809436Y-87499929D01*
X114809436Y-87499929D02*
X114890248Y-87634616D01*
X114890248Y-87634616D02*
X114971060Y-87715428D01*
X114971060Y-87715428D02*
X115105747Y-87796241D01*
X115105747Y-87796241D02*
X115186560Y-87823178D01*
X115186560Y-87823178D02*
X115294309Y-87823178D01*
X115294309Y-87823178D02*
X115402059Y-87769303D01*
X115402059Y-87769303D02*
X115455934Y-87715428D01*
X115455934Y-87715428D02*
X115509808Y-87607679D01*
X115509808Y-87607679D02*
X115509808Y-87553804D01*
X115509808Y-87553804D02*
X115321247Y-87365242D01*
X115321247Y-87365242D02*
X115213497Y-87472992D01*
X115806120Y-87365242D02*
X115240434Y-86799557D01*
X115240434Y-86799557D02*
X115455934Y-86584057D01*
X115455934Y-86584057D02*
X115536746Y-86557120D01*
X115536746Y-86557120D02*
X115590621Y-86557120D01*
X115590621Y-86557120D02*
X115671433Y-86584057D01*
X115671433Y-86584057D02*
X115752245Y-86664870D01*
X115752245Y-86664870D02*
X115779182Y-86745682D01*
X115779182Y-86745682D02*
X115779182Y-86799557D01*
X115779182Y-86799557D02*
X115752245Y-86880369D01*
X115752245Y-86880369D02*
X115536746Y-87095868D01*
X116668117Y-86503245D02*
X116344868Y-86826494D01*
X116506492Y-86664870D02*
X115940807Y-86099184D01*
X115940807Y-86099184D02*
X115967744Y-86233871D01*
X115967744Y-86233871D02*
X115967744Y-86341621D01*
X115967744Y-86341621D02*
X115940807Y-86422433D01*
X116587305Y-85452686D02*
X116479555Y-85560436D01*
X116479555Y-85560436D02*
X116452618Y-85641248D01*
X116452618Y-85641248D02*
X116452618Y-85695123D01*
X116452618Y-85695123D02*
X116479555Y-85829810D01*
X116479555Y-85829810D02*
X116560367Y-85964497D01*
X116560367Y-85964497D02*
X116775866Y-86179996D01*
X116775866Y-86179996D02*
X116856679Y-86206934D01*
X116856679Y-86206934D02*
X116910553Y-86206934D01*
X116910553Y-86206934D02*
X116991366Y-86179996D01*
X116991366Y-86179996D02*
X117099115Y-86072247D01*
X117099115Y-86072247D02*
X117126053Y-85991434D01*
X117126053Y-85991434D02*
X117126053Y-85937560D01*
X117126053Y-85937560D02*
X117099115Y-85856747D01*
X117099115Y-85856747D02*
X116964428Y-85722060D01*
X116964428Y-85722060D02*
X116883616Y-85695123D01*
X116883616Y-85695123D02*
X116829741Y-85695123D01*
X116829741Y-85695123D02*
X116748929Y-85722060D01*
X116748929Y-85722060D02*
X116641179Y-85829810D01*
X116641179Y-85829810D02*
X116614242Y-85910622D01*
X116614242Y-85910622D02*
X116614242Y-85964497D01*
X116614242Y-85964497D02*
X116641179Y-86045309D01*
X114997998Y-53821868D02*
X114917185Y-53848805D01*
X114917185Y-53848805D02*
X114836373Y-53929618D01*
X114836373Y-53929618D02*
X114782498Y-54037367D01*
X114782498Y-54037367D02*
X114782498Y-54145117D01*
X114782498Y-54145117D02*
X114809436Y-54225929D01*
X114809436Y-54225929D02*
X114890248Y-54360616D01*
X114890248Y-54360616D02*
X114971060Y-54441428D01*
X114971060Y-54441428D02*
X115105747Y-54522241D01*
X115105747Y-54522241D02*
X115186560Y-54549178D01*
X115186560Y-54549178D02*
X115294309Y-54549178D01*
X115294309Y-54549178D02*
X115402059Y-54495303D01*
X115402059Y-54495303D02*
X115455934Y-54441428D01*
X115455934Y-54441428D02*
X115509808Y-54333679D01*
X115509808Y-54333679D02*
X115509808Y-54279804D01*
X115509808Y-54279804D02*
X115321247Y-54091242D01*
X115321247Y-54091242D02*
X115213497Y-54198992D01*
X115806120Y-54091242D02*
X115240434Y-53525557D01*
X115240434Y-53525557D02*
X115455934Y-53310057D01*
X115455934Y-53310057D02*
X115536746Y-53283120D01*
X115536746Y-53283120D02*
X115590621Y-53283120D01*
X115590621Y-53283120D02*
X115671433Y-53310057D01*
X115671433Y-53310057D02*
X115752245Y-53390870D01*
X115752245Y-53390870D02*
X115779182Y-53471682D01*
X115779182Y-53471682D02*
X115779182Y-53525557D01*
X115779182Y-53525557D02*
X115752245Y-53606369D01*
X115752245Y-53606369D02*
X115536746Y-53821868D01*
X115833057Y-53040683D02*
X115833057Y-52986809D01*
X115833057Y-52986809D02*
X115859995Y-52905996D01*
X115859995Y-52905996D02*
X115994682Y-52771309D01*
X115994682Y-52771309D02*
X116075494Y-52744372D01*
X116075494Y-52744372D02*
X116129369Y-52744372D01*
X116129369Y-52744372D02*
X116210181Y-52771309D01*
X116210181Y-52771309D02*
X116264056Y-52825184D01*
X116264056Y-52825184D02*
X116317930Y-52932934D01*
X116317930Y-52932934D02*
X116317930Y-53579431D01*
X116317930Y-53579431D02*
X116668117Y-53229245D01*
X116668117Y-52582747D02*
X116587305Y-52609685D01*
X116587305Y-52609685D02*
X116533430Y-52609685D01*
X116533430Y-52609685D02*
X116452618Y-52582747D01*
X116452618Y-52582747D02*
X116425680Y-52555810D01*
X116425680Y-52555810D02*
X116398743Y-52474998D01*
X116398743Y-52474998D02*
X116398743Y-52421123D01*
X116398743Y-52421123D02*
X116425680Y-52340311D01*
X116425680Y-52340311D02*
X116533430Y-52232561D01*
X116533430Y-52232561D02*
X116614242Y-52205624D01*
X116614242Y-52205624D02*
X116668117Y-52205624D01*
X116668117Y-52205624D02*
X116748929Y-52232561D01*
X116748929Y-52232561D02*
X116775866Y-52259499D01*
X116775866Y-52259499D02*
X116802804Y-52340311D01*
X116802804Y-52340311D02*
X116802804Y-52394186D01*
X116802804Y-52394186D02*
X116775866Y-52474998D01*
X116775866Y-52474998D02*
X116668117Y-52582747D01*
X116668117Y-52582747D02*
X116641179Y-52663560D01*
X116641179Y-52663560D02*
X116641179Y-52717434D01*
X116641179Y-52717434D02*
X116668117Y-52798247D01*
X116668117Y-52798247D02*
X116775866Y-52905996D01*
X116775866Y-52905996D02*
X116856679Y-52932934D01*
X116856679Y-52932934D02*
X116910553Y-52932934D01*
X116910553Y-52932934D02*
X116991366Y-52905996D01*
X116991366Y-52905996D02*
X117099115Y-52798247D01*
X117099115Y-52798247D02*
X117126053Y-52717434D01*
X117126053Y-52717434D02*
X117126053Y-52663560D01*
X117126053Y-52663560D02*
X117099115Y-52582747D01*
X117099115Y-52582747D02*
X116991366Y-52474998D01*
X116991366Y-52474998D02*
X116910553Y-52448060D01*
X116910553Y-52448060D02*
X116856679Y-52448060D01*
X116856679Y-52448060D02*
X116775866Y-52474998D01*
X114997998Y-74395868D02*
X114917185Y-74422805D01*
X114917185Y-74422805D02*
X114836373Y-74503618D01*
X114836373Y-74503618D02*
X114782498Y-74611367D01*
X114782498Y-74611367D02*
X114782498Y-74719117D01*
X114782498Y-74719117D02*
X114809436Y-74799929D01*
X114809436Y-74799929D02*
X114890248Y-74934616D01*
X114890248Y-74934616D02*
X114971060Y-75015428D01*
X114971060Y-75015428D02*
X115105747Y-75096241D01*
X115105747Y-75096241D02*
X115186560Y-75123178D01*
X115186560Y-75123178D02*
X115294309Y-75123178D01*
X115294309Y-75123178D02*
X115402059Y-75069303D01*
X115402059Y-75069303D02*
X115455934Y-75015428D01*
X115455934Y-75015428D02*
X115509808Y-74907679D01*
X115509808Y-74907679D02*
X115509808Y-74853804D01*
X115509808Y-74853804D02*
X115321247Y-74665242D01*
X115321247Y-74665242D02*
X115213497Y-74772992D01*
X115806120Y-74665242D02*
X115240434Y-74099557D01*
X115240434Y-74099557D02*
X115455934Y-73884057D01*
X115455934Y-73884057D02*
X115536746Y-73857120D01*
X115536746Y-73857120D02*
X115590621Y-73857120D01*
X115590621Y-73857120D02*
X115671433Y-73884057D01*
X115671433Y-73884057D02*
X115752245Y-73964870D01*
X115752245Y-73964870D02*
X115779182Y-74045682D01*
X115779182Y-74045682D02*
X115779182Y-74099557D01*
X115779182Y-74099557D02*
X115752245Y-74180369D01*
X115752245Y-74180369D02*
X115536746Y-74395868D01*
X115833057Y-73614683D02*
X115833057Y-73560809D01*
X115833057Y-73560809D02*
X115859995Y-73479996D01*
X115859995Y-73479996D02*
X115994682Y-73345309D01*
X115994682Y-73345309D02*
X116075494Y-73318372D01*
X116075494Y-73318372D02*
X116129369Y-73318372D01*
X116129369Y-73318372D02*
X116210181Y-73345309D01*
X116210181Y-73345309D02*
X116264056Y-73399184D01*
X116264056Y-73399184D02*
X116317930Y-73506934D01*
X116317930Y-73506934D02*
X116317930Y-74153431D01*
X116317930Y-74153431D02*
X116668117Y-73803245D01*
X116452618Y-72887373D02*
X116506492Y-72833499D01*
X116506492Y-72833499D02*
X116587305Y-72806561D01*
X116587305Y-72806561D02*
X116641179Y-72806561D01*
X116641179Y-72806561D02*
X116721992Y-72833499D01*
X116721992Y-72833499D02*
X116856679Y-72914311D01*
X116856679Y-72914311D02*
X116991366Y-73048998D01*
X116991366Y-73048998D02*
X117072178Y-73183685D01*
X117072178Y-73183685D02*
X117099115Y-73264497D01*
X117099115Y-73264497D02*
X117099115Y-73318372D01*
X117099115Y-73318372D02*
X117072178Y-73399184D01*
X117072178Y-73399184D02*
X117018303Y-73453059D01*
X117018303Y-73453059D02*
X116937491Y-73479996D01*
X116937491Y-73479996D02*
X116883616Y-73479996D01*
X116883616Y-73479996D02*
X116802804Y-73453059D01*
X116802804Y-73453059D02*
X116668117Y-73372247D01*
X116668117Y-73372247D02*
X116533430Y-73237560D01*
X116533430Y-73237560D02*
X116452618Y-73102873D01*
X116452618Y-73102873D02*
X116425680Y-73022060D01*
X116425680Y-73022060D02*
X116425680Y-72968186D01*
X116425680Y-72968186D02*
X116452618Y-72887373D01*
X114822407Y-46533584D02*
X115172593Y-46183398D01*
X115172593Y-46183398D02*
X115199531Y-46587459D01*
X115199531Y-46587459D02*
X115280343Y-46506646D01*
X115280343Y-46506646D02*
X115361155Y-46479709D01*
X115361155Y-46479709D02*
X115415030Y-46479709D01*
X115415030Y-46479709D02*
X115495842Y-46506646D01*
X115495842Y-46506646D02*
X115630529Y-46641333D01*
X115630529Y-46641333D02*
X115657467Y-46722146D01*
X115657467Y-46722146D02*
X115657467Y-46776020D01*
X115657467Y-46776020D02*
X115630529Y-46856833D01*
X115630529Y-46856833D02*
X115468905Y-47018457D01*
X115468905Y-47018457D02*
X115388093Y-47045394D01*
X115388093Y-47045394D02*
X115334218Y-47045394D01*
X115334218Y-46021773D02*
X116088465Y-46398897D01*
X116088465Y-46398897D02*
X115711342Y-45644649D01*
X115846028Y-45509963D02*
X116196215Y-45159776D01*
X116196215Y-45159776D02*
X116223152Y-45563837D01*
X116223152Y-45563837D02*
X116303964Y-45483025D01*
X116303964Y-45483025D02*
X116384776Y-45456088D01*
X116384776Y-45456088D02*
X116438651Y-45456088D01*
X116438651Y-45456088D02*
X116519464Y-45483025D01*
X116519464Y-45483025D02*
X116654151Y-45617712D01*
X116654151Y-45617712D02*
X116681088Y-45698524D01*
X116681088Y-45698524D02*
X116681088Y-45752399D01*
X116681088Y-45752399D02*
X116654151Y-45833211D01*
X116654151Y-45833211D02*
X116492526Y-45994836D01*
X116492526Y-45994836D02*
X116411714Y-46021773D01*
X116411714Y-46021773D02*
X116357839Y-46021773D01*
X116923525Y-45671587D02*
X117354523Y-45240588D01*
X117139024Y-44755715D02*
X117327586Y-44567153D01*
X117704709Y-44782652D02*
X117435335Y-45052026D01*
X117435335Y-45052026D02*
X116869650Y-44486341D01*
X116869650Y-44486341D02*
X117139024Y-44216967D01*
X117947146Y-44540215D02*
X117381461Y-43974530D01*
X117381461Y-43974530D02*
X118270395Y-44216967D01*
X118270395Y-44216967D02*
X117704710Y-43651281D01*
X88889998Y-87095868D02*
X88809185Y-87122805D01*
X88809185Y-87122805D02*
X88728373Y-87203618D01*
X88728373Y-87203618D02*
X88674498Y-87311367D01*
X88674498Y-87311367D02*
X88674498Y-87419117D01*
X88674498Y-87419117D02*
X88701436Y-87499929D01*
X88701436Y-87499929D02*
X88782248Y-87634616D01*
X88782248Y-87634616D02*
X88863060Y-87715428D01*
X88863060Y-87715428D02*
X88997747Y-87796241D01*
X88997747Y-87796241D02*
X89078560Y-87823178D01*
X89078560Y-87823178D02*
X89186309Y-87823178D01*
X89186309Y-87823178D02*
X89294059Y-87769303D01*
X89294059Y-87769303D02*
X89347934Y-87715428D01*
X89347934Y-87715428D02*
X89401808Y-87607679D01*
X89401808Y-87607679D02*
X89401808Y-87553804D01*
X89401808Y-87553804D02*
X89213247Y-87365242D01*
X89213247Y-87365242D02*
X89105497Y-87472992D01*
X89698120Y-87365242D02*
X89132434Y-86799557D01*
X89132434Y-86799557D02*
X89347934Y-86584057D01*
X89347934Y-86584057D02*
X89428746Y-86557120D01*
X89428746Y-86557120D02*
X89482621Y-86557120D01*
X89482621Y-86557120D02*
X89563433Y-86584057D01*
X89563433Y-86584057D02*
X89644245Y-86664870D01*
X89644245Y-86664870D02*
X89671182Y-86745682D01*
X89671182Y-86745682D02*
X89671182Y-86799557D01*
X89671182Y-86799557D02*
X89644245Y-86880369D01*
X89644245Y-86880369D02*
X89428746Y-87095868D01*
X90560117Y-86503245D02*
X90236868Y-86826494D01*
X90398492Y-86664870D02*
X89832807Y-86099184D01*
X89832807Y-86099184D02*
X89859744Y-86233871D01*
X89859744Y-86233871D02*
X89859744Y-86341621D01*
X89859744Y-86341621D02*
X89832807Y-86422433D01*
X90506242Y-85425749D02*
X90236868Y-85695123D01*
X90236868Y-85695123D02*
X90479305Y-85991434D01*
X90479305Y-85991434D02*
X90479305Y-85937560D01*
X90479305Y-85937560D02*
X90506242Y-85856747D01*
X90506242Y-85856747D02*
X90640929Y-85722060D01*
X90640929Y-85722060D02*
X90721741Y-85695123D01*
X90721741Y-85695123D02*
X90775616Y-85695123D01*
X90775616Y-85695123D02*
X90856428Y-85722060D01*
X90856428Y-85722060D02*
X90991115Y-85856747D01*
X90991115Y-85856747D02*
X91018053Y-85937560D01*
X91018053Y-85937560D02*
X91018053Y-85991434D01*
X91018053Y-85991434D02*
X90991115Y-86072247D01*
X90991115Y-86072247D02*
X90856428Y-86206934D01*
X90856428Y-86206934D02*
X90775616Y-86233871D01*
X90775616Y-86233871D02*
X90721741Y-86233871D01*
X89413372Y-51266494D02*
X89332560Y-51293431D01*
X89332560Y-51293431D02*
X89251748Y-51374243D01*
X89251748Y-51374243D02*
X89197873Y-51481993D01*
X89197873Y-51481993D02*
X89197873Y-51589742D01*
X89197873Y-51589742D02*
X89224810Y-51670555D01*
X89224810Y-51670555D02*
X89305623Y-51805242D01*
X89305623Y-51805242D02*
X89386435Y-51886054D01*
X89386435Y-51886054D02*
X89521122Y-51966866D01*
X89521122Y-51966866D02*
X89601934Y-51993803D01*
X89601934Y-51993803D02*
X89709684Y-51993803D01*
X89709684Y-51993803D02*
X89817433Y-51939929D01*
X89817433Y-51939929D02*
X89871308Y-51886054D01*
X89871308Y-51886054D02*
X89925183Y-51778304D01*
X89925183Y-51778304D02*
X89925183Y-51724429D01*
X89925183Y-51724429D02*
X89736621Y-51535868D01*
X89736621Y-51535868D02*
X89628871Y-51643617D01*
X90221494Y-51535868D02*
X89655809Y-50970182D01*
X89655809Y-50970182D02*
X89871308Y-50754683D01*
X89871308Y-50754683D02*
X89952120Y-50727746D01*
X89952120Y-50727746D02*
X90005995Y-50727746D01*
X90005995Y-50727746D02*
X90086807Y-50754683D01*
X90086807Y-50754683D02*
X90167619Y-50835495D01*
X90167619Y-50835495D02*
X90194557Y-50916307D01*
X90194557Y-50916307D02*
X90194557Y-50970182D01*
X90194557Y-50970182D02*
X90167619Y-51050994D01*
X90167619Y-51050994D02*
X89952120Y-51266494D01*
X90652493Y-50350622D02*
X91029616Y-50727746D01*
X90302306Y-50269810D02*
X90571680Y-50808558D01*
X90571680Y-50808558D02*
X90921867Y-50458372D01*
X89413372Y-48726494D02*
X89332560Y-48753431D01*
X89332560Y-48753431D02*
X89251748Y-48834243D01*
X89251748Y-48834243D02*
X89197873Y-48941993D01*
X89197873Y-48941993D02*
X89197873Y-49049742D01*
X89197873Y-49049742D02*
X89224810Y-49130555D01*
X89224810Y-49130555D02*
X89305623Y-49265242D01*
X89305623Y-49265242D02*
X89386435Y-49346054D01*
X89386435Y-49346054D02*
X89521122Y-49426866D01*
X89521122Y-49426866D02*
X89601934Y-49453803D01*
X89601934Y-49453803D02*
X89709684Y-49453803D01*
X89709684Y-49453803D02*
X89817433Y-49399929D01*
X89817433Y-49399929D02*
X89871308Y-49346054D01*
X89871308Y-49346054D02*
X89925183Y-49238304D01*
X89925183Y-49238304D02*
X89925183Y-49184429D01*
X89925183Y-49184429D02*
X89736621Y-48995868D01*
X89736621Y-48995868D02*
X89628871Y-49103617D01*
X90221494Y-48995868D02*
X89655809Y-48430182D01*
X89655809Y-48430182D02*
X89871308Y-48214683D01*
X89871308Y-48214683D02*
X89952120Y-48187746D01*
X89952120Y-48187746D02*
X90005995Y-48187746D01*
X90005995Y-48187746D02*
X90086807Y-48214683D01*
X90086807Y-48214683D02*
X90167619Y-48295495D01*
X90167619Y-48295495D02*
X90194557Y-48376307D01*
X90194557Y-48376307D02*
X90194557Y-48430182D01*
X90194557Y-48430182D02*
X90167619Y-48510994D01*
X90167619Y-48510994D02*
X89952120Y-48726494D01*
X90167619Y-47918372D02*
X90517806Y-47568185D01*
X90517806Y-47568185D02*
X90544743Y-47972246D01*
X90544743Y-47972246D02*
X90625555Y-47891434D01*
X90625555Y-47891434D02*
X90706367Y-47864497D01*
X90706367Y-47864497D02*
X90760242Y-47864497D01*
X90760242Y-47864497D02*
X90841054Y-47891434D01*
X90841054Y-47891434D02*
X90975741Y-48026121D01*
X90975741Y-48026121D02*
X91002679Y-48106933D01*
X91002679Y-48106933D02*
X91002679Y-48160808D01*
X91002679Y-48160808D02*
X90975741Y-48241620D01*
X90975741Y-48241620D02*
X90814117Y-48403245D01*
X90814117Y-48403245D02*
X90733305Y-48430182D01*
X90733305Y-48430182D02*
X90679430Y-48430182D01*
X89386435Y-43673431D02*
X89305623Y-43700368D01*
X89305623Y-43700368D02*
X89224811Y-43781180D01*
X89224811Y-43781180D02*
X89170936Y-43888930D01*
X89170936Y-43888930D02*
X89170936Y-43996680D01*
X89170936Y-43996680D02*
X89197873Y-44077492D01*
X89197873Y-44077492D02*
X89278685Y-44212179D01*
X89278685Y-44212179D02*
X89359498Y-44292991D01*
X89359498Y-44292991D02*
X89494185Y-44373803D01*
X89494185Y-44373803D02*
X89574997Y-44400741D01*
X89574997Y-44400741D02*
X89682746Y-44400741D01*
X89682746Y-44400741D02*
X89790496Y-44346866D01*
X89790496Y-44346866D02*
X89844371Y-44292991D01*
X89844371Y-44292991D02*
X89898246Y-44185241D01*
X89898246Y-44185241D02*
X89898246Y-44131367D01*
X89898246Y-44131367D02*
X89709684Y-43942805D01*
X89709684Y-43942805D02*
X89601934Y-44050554D01*
X90194557Y-43942805D02*
X89628872Y-43377119D01*
X89628872Y-43377119D02*
X90517806Y-43619556D01*
X90517806Y-43619556D02*
X89952120Y-43053871D01*
X90787180Y-43350182D02*
X90221494Y-42784497D01*
X90221494Y-42784497D02*
X90356181Y-42649810D01*
X90356181Y-42649810D02*
X90463931Y-42595935D01*
X90463931Y-42595935D02*
X90571680Y-42595935D01*
X90571680Y-42595935D02*
X90652493Y-42622872D01*
X90652493Y-42622872D02*
X90787180Y-42703685D01*
X90787180Y-42703685D02*
X90867992Y-42784497D01*
X90867992Y-42784497D02*
X90948804Y-42919184D01*
X90948804Y-42919184D02*
X90975741Y-42999996D01*
X90975741Y-42999996D02*
X90975741Y-43107746D01*
X90975741Y-43107746D02*
X90921867Y-43215495D01*
X90921867Y-43215495D02*
X90787180Y-43350182D01*
X88743998Y-76935868D02*
X88663185Y-76962805D01*
X88663185Y-76962805D02*
X88582373Y-77043618D01*
X88582373Y-77043618D02*
X88528498Y-77151367D01*
X88528498Y-77151367D02*
X88528498Y-77259117D01*
X88528498Y-77259117D02*
X88555436Y-77339929D01*
X88555436Y-77339929D02*
X88636248Y-77474616D01*
X88636248Y-77474616D02*
X88717060Y-77555428D01*
X88717060Y-77555428D02*
X88851747Y-77636241D01*
X88851747Y-77636241D02*
X88932560Y-77663178D01*
X88932560Y-77663178D02*
X89040309Y-77663178D01*
X89040309Y-77663178D02*
X89148059Y-77609303D01*
X89148059Y-77609303D02*
X89201934Y-77555428D01*
X89201934Y-77555428D02*
X89255808Y-77447679D01*
X89255808Y-77447679D02*
X89255808Y-77393804D01*
X89255808Y-77393804D02*
X89067247Y-77205242D01*
X89067247Y-77205242D02*
X88959497Y-77312992D01*
X89552120Y-77205242D02*
X88986434Y-76639557D01*
X88986434Y-76639557D02*
X89201934Y-76424057D01*
X89201934Y-76424057D02*
X89282746Y-76397120D01*
X89282746Y-76397120D02*
X89336621Y-76397120D01*
X89336621Y-76397120D02*
X89417433Y-76424057D01*
X89417433Y-76424057D02*
X89498245Y-76504870D01*
X89498245Y-76504870D02*
X89525182Y-76585682D01*
X89525182Y-76585682D02*
X89525182Y-76639557D01*
X89525182Y-76639557D02*
X89498245Y-76720369D01*
X89498245Y-76720369D02*
X89282746Y-76935868D01*
X90414117Y-76343245D02*
X90090868Y-76666494D01*
X90252492Y-76504870D02*
X89686807Y-75939184D01*
X89686807Y-75939184D02*
X89713744Y-76073871D01*
X89713744Y-76073871D02*
X89713744Y-76181621D01*
X89713744Y-76181621D02*
X89686807Y-76262433D01*
X90117805Y-75615935D02*
X90117805Y-75562060D01*
X90117805Y-75562060D02*
X90144743Y-75481248D01*
X90144743Y-75481248D02*
X90279430Y-75346561D01*
X90279430Y-75346561D02*
X90360242Y-75319624D01*
X90360242Y-75319624D02*
X90414117Y-75319624D01*
X90414117Y-75319624D02*
X90494929Y-75346561D01*
X90494929Y-75346561D02*
X90548804Y-75400436D01*
X90548804Y-75400436D02*
X90602679Y-75508186D01*
X90602679Y-75508186D02*
X90602679Y-76154683D01*
X90602679Y-76154683D02*
X90952865Y-75804497D01*
X88889998Y-71855868D02*
X88809185Y-71882805D01*
X88809185Y-71882805D02*
X88728373Y-71963618D01*
X88728373Y-71963618D02*
X88674498Y-72071367D01*
X88674498Y-72071367D02*
X88674498Y-72179117D01*
X88674498Y-72179117D02*
X88701436Y-72259929D01*
X88701436Y-72259929D02*
X88782248Y-72394616D01*
X88782248Y-72394616D02*
X88863060Y-72475428D01*
X88863060Y-72475428D02*
X88997747Y-72556241D01*
X88997747Y-72556241D02*
X89078560Y-72583178D01*
X89078560Y-72583178D02*
X89186309Y-72583178D01*
X89186309Y-72583178D02*
X89294059Y-72529303D01*
X89294059Y-72529303D02*
X89347934Y-72475428D01*
X89347934Y-72475428D02*
X89401808Y-72367679D01*
X89401808Y-72367679D02*
X89401808Y-72313804D01*
X89401808Y-72313804D02*
X89213247Y-72125242D01*
X89213247Y-72125242D02*
X89105497Y-72232992D01*
X89698120Y-72125242D02*
X89132434Y-71559557D01*
X89132434Y-71559557D02*
X89347934Y-71344057D01*
X89347934Y-71344057D02*
X89428746Y-71317120D01*
X89428746Y-71317120D02*
X89482621Y-71317120D01*
X89482621Y-71317120D02*
X89563433Y-71344057D01*
X89563433Y-71344057D02*
X89644245Y-71424870D01*
X89644245Y-71424870D02*
X89671182Y-71505682D01*
X89671182Y-71505682D02*
X89671182Y-71559557D01*
X89671182Y-71559557D02*
X89644245Y-71640369D01*
X89644245Y-71640369D02*
X89428746Y-71855868D01*
X90560117Y-71263245D02*
X90236868Y-71586494D01*
X90398492Y-71424870D02*
X89832807Y-70859184D01*
X89832807Y-70859184D02*
X89859744Y-70993871D01*
X89859744Y-70993871D02*
X89859744Y-71101621D01*
X89859744Y-71101621D02*
X89832807Y-71182433D01*
X90344618Y-70347373D02*
X90398492Y-70293499D01*
X90398492Y-70293499D02*
X90479305Y-70266561D01*
X90479305Y-70266561D02*
X90533179Y-70266561D01*
X90533179Y-70266561D02*
X90613992Y-70293499D01*
X90613992Y-70293499D02*
X90748679Y-70374311D01*
X90748679Y-70374311D02*
X90883366Y-70508998D01*
X90883366Y-70508998D02*
X90964178Y-70643685D01*
X90964178Y-70643685D02*
X90991115Y-70724497D01*
X90991115Y-70724497D02*
X90991115Y-70778372D01*
X90991115Y-70778372D02*
X90964178Y-70859184D01*
X90964178Y-70859184D02*
X90910303Y-70913059D01*
X90910303Y-70913059D02*
X90829491Y-70939996D01*
X90829491Y-70939996D02*
X90775616Y-70939996D01*
X90775616Y-70939996D02*
X90694804Y-70913059D01*
X90694804Y-70913059D02*
X90560117Y-70832247D01*
X90560117Y-70832247D02*
X90425430Y-70697560D01*
X90425430Y-70697560D02*
X90344618Y-70562873D01*
X90344618Y-70562873D02*
X90317680Y-70482060D01*
X90317680Y-70482060D02*
X90317680Y-70428186D01*
X90317680Y-70428186D02*
X90344618Y-70347373D01*
X89513372Y-61396494D02*
X89432560Y-61423431D01*
X89432560Y-61423431D02*
X89351748Y-61504243D01*
X89351748Y-61504243D02*
X89297873Y-61611993D01*
X89297873Y-61611993D02*
X89297873Y-61719742D01*
X89297873Y-61719742D02*
X89324810Y-61800555D01*
X89324810Y-61800555D02*
X89405623Y-61935242D01*
X89405623Y-61935242D02*
X89486435Y-62016054D01*
X89486435Y-62016054D02*
X89621122Y-62096866D01*
X89621122Y-62096866D02*
X89701934Y-62123803D01*
X89701934Y-62123803D02*
X89809684Y-62123803D01*
X89809684Y-62123803D02*
X89917433Y-62069929D01*
X89917433Y-62069929D02*
X89971308Y-62016054D01*
X89971308Y-62016054D02*
X90025183Y-61908304D01*
X90025183Y-61908304D02*
X90025183Y-61854429D01*
X90025183Y-61854429D02*
X89836621Y-61665868D01*
X89836621Y-61665868D02*
X89728871Y-61773617D01*
X90321494Y-61665868D02*
X89755809Y-61100182D01*
X89755809Y-61100182D02*
X89971308Y-60884683D01*
X89971308Y-60884683D02*
X90052120Y-60857746D01*
X90052120Y-60857746D02*
X90105995Y-60857746D01*
X90105995Y-60857746D02*
X90186807Y-60884683D01*
X90186807Y-60884683D02*
X90267619Y-60965495D01*
X90267619Y-60965495D02*
X90294557Y-61046307D01*
X90294557Y-61046307D02*
X90294557Y-61100182D01*
X90294557Y-61100182D02*
X90267619Y-61180994D01*
X90267619Y-61180994D02*
X90052120Y-61396494D01*
X90267619Y-60588372D02*
X90644743Y-60211248D01*
X90644743Y-60211248D02*
X90967992Y-61019370D01*
X89413372Y-38566494D02*
X89332560Y-38593431D01*
X89332560Y-38593431D02*
X89251748Y-38674243D01*
X89251748Y-38674243D02*
X89197873Y-38781993D01*
X89197873Y-38781993D02*
X89197873Y-38889742D01*
X89197873Y-38889742D02*
X89224810Y-38970555D01*
X89224810Y-38970555D02*
X89305623Y-39105242D01*
X89305623Y-39105242D02*
X89386435Y-39186054D01*
X89386435Y-39186054D02*
X89521122Y-39266866D01*
X89521122Y-39266866D02*
X89601934Y-39293803D01*
X89601934Y-39293803D02*
X89709684Y-39293803D01*
X89709684Y-39293803D02*
X89817433Y-39239929D01*
X89817433Y-39239929D02*
X89871308Y-39186054D01*
X89871308Y-39186054D02*
X89925183Y-39078304D01*
X89925183Y-39078304D02*
X89925183Y-39024429D01*
X89925183Y-39024429D02*
X89736621Y-38835868D01*
X89736621Y-38835868D02*
X89628871Y-38943617D01*
X90221494Y-38835868D02*
X89655809Y-38270182D01*
X89655809Y-38270182D02*
X89871308Y-38054683D01*
X89871308Y-38054683D02*
X89952120Y-38027746D01*
X89952120Y-38027746D02*
X90005995Y-38027746D01*
X90005995Y-38027746D02*
X90086807Y-38054683D01*
X90086807Y-38054683D02*
X90167619Y-38135495D01*
X90167619Y-38135495D02*
X90194557Y-38216307D01*
X90194557Y-38216307D02*
X90194557Y-38270182D01*
X90194557Y-38270182D02*
X90167619Y-38350994D01*
X90167619Y-38350994D02*
X89952120Y-38566494D01*
X90329244Y-37596747D02*
X90383119Y-37542872D01*
X90383119Y-37542872D02*
X90463931Y-37515935D01*
X90463931Y-37515935D02*
X90517806Y-37515935D01*
X90517806Y-37515935D02*
X90598618Y-37542872D01*
X90598618Y-37542872D02*
X90733305Y-37623685D01*
X90733305Y-37623685D02*
X90867992Y-37758372D01*
X90867992Y-37758372D02*
X90948804Y-37893059D01*
X90948804Y-37893059D02*
X90975741Y-37973871D01*
X90975741Y-37973871D02*
X90975741Y-38027746D01*
X90975741Y-38027746D02*
X90948804Y-38108558D01*
X90948804Y-38108558D02*
X90894929Y-38162433D01*
X90894929Y-38162433D02*
X90814117Y-38189370D01*
X90814117Y-38189370D02*
X90760242Y-38189370D01*
X90760242Y-38189370D02*
X90679430Y-38162433D01*
X90679430Y-38162433D02*
X90544743Y-38081620D01*
X90544743Y-38081620D02*
X90410056Y-37946933D01*
X90410056Y-37946933D02*
X90329244Y-37812246D01*
X90329244Y-37812246D02*
X90302306Y-37731434D01*
X90302306Y-37731434D02*
X90302306Y-37677559D01*
X90302306Y-37677559D02*
X90329244Y-37596747D01*
X89386435Y-56373431D02*
X89305623Y-56400368D01*
X89305623Y-56400368D02*
X89224811Y-56481180D01*
X89224811Y-56481180D02*
X89170936Y-56588930D01*
X89170936Y-56588930D02*
X89170936Y-56696680D01*
X89170936Y-56696680D02*
X89197873Y-56777492D01*
X89197873Y-56777492D02*
X89278685Y-56912179D01*
X89278685Y-56912179D02*
X89359498Y-56992991D01*
X89359498Y-56992991D02*
X89494185Y-57073803D01*
X89494185Y-57073803D02*
X89574997Y-57100741D01*
X89574997Y-57100741D02*
X89682746Y-57100741D01*
X89682746Y-57100741D02*
X89790496Y-57046866D01*
X89790496Y-57046866D02*
X89844371Y-56992991D01*
X89844371Y-56992991D02*
X89898246Y-56885241D01*
X89898246Y-56885241D02*
X89898246Y-56831367D01*
X89898246Y-56831367D02*
X89709684Y-56642805D01*
X89709684Y-56642805D02*
X89601934Y-56750554D01*
X90194557Y-56642805D02*
X89628872Y-56077119D01*
X89628872Y-56077119D02*
X90517806Y-56319556D01*
X90517806Y-56319556D02*
X89952120Y-55753871D01*
X90787180Y-56050182D02*
X90221494Y-55484497D01*
X90221494Y-55484497D02*
X90356181Y-55349810D01*
X90356181Y-55349810D02*
X90463931Y-55295935D01*
X90463931Y-55295935D02*
X90571680Y-55295935D01*
X90571680Y-55295935D02*
X90652493Y-55322872D01*
X90652493Y-55322872D02*
X90787180Y-55403685D01*
X90787180Y-55403685D02*
X90867992Y-55484497D01*
X90867992Y-55484497D02*
X90948804Y-55619184D01*
X90948804Y-55619184D02*
X90975741Y-55699996D01*
X90975741Y-55699996D02*
X90975741Y-55807746D01*
X90975741Y-55807746D02*
X90921867Y-55915495D01*
X90921867Y-55915495D02*
X90787180Y-56050182D01*
X148819048Y-58593866D02*
X149580953Y-58593866D01*
X149200000Y-58974819D02*
X149200000Y-58212914D01*
X155219048Y-58593866D02*
X155980953Y-58593866D01*
X256138095Y-144774819D02*
X256138095Y-143774819D01*
X256138095Y-144251009D02*
X256709523Y-144251009D01*
X256709523Y-144774819D02*
X256709523Y-143774819D01*
X257614285Y-144108152D02*
X257614285Y-144774819D01*
X257376190Y-143727200D02*
X257138095Y-144441485D01*
X257138095Y-144441485D02*
X257757142Y-144441485D01*
X59407200Y-43853332D02*
X59454819Y-43710475D01*
X59454819Y-43710475D02*
X59454819Y-43472380D01*
X59454819Y-43472380D02*
X59407200Y-43377142D01*
X59407200Y-43377142D02*
X59359580Y-43329523D01*
X59359580Y-43329523D02*
X59264342Y-43281904D01*
X59264342Y-43281904D02*
X59169104Y-43281904D01*
X59169104Y-43281904D02*
X59073866Y-43329523D01*
X59073866Y-43329523D02*
X59026247Y-43377142D01*
X59026247Y-43377142D02*
X58978628Y-43472380D01*
X58978628Y-43472380D02*
X58931009Y-43662856D01*
X58931009Y-43662856D02*
X58883390Y-43758094D01*
X58883390Y-43758094D02*
X58835771Y-43805713D01*
X58835771Y-43805713D02*
X58740533Y-43853332D01*
X58740533Y-43853332D02*
X58645295Y-43853332D01*
X58645295Y-43853332D02*
X58550057Y-43805713D01*
X58550057Y-43805713D02*
X58502438Y-43758094D01*
X58502438Y-43758094D02*
X58454819Y-43662856D01*
X58454819Y-43662856D02*
X58454819Y-43424761D01*
X58454819Y-43424761D02*
X58502438Y-43281904D01*
X58454819Y-42948570D02*
X59454819Y-42710475D01*
X59454819Y-42710475D02*
X58740533Y-42519999D01*
X58740533Y-42519999D02*
X59454819Y-42329523D01*
X59454819Y-42329523D02*
X58454819Y-42091428D01*
X58550057Y-41758094D02*
X58502438Y-41710475D01*
X58502438Y-41710475D02*
X58454819Y-41615237D01*
X58454819Y-41615237D02*
X58454819Y-41377142D01*
X58454819Y-41377142D02*
X58502438Y-41281904D01*
X58502438Y-41281904D02*
X58550057Y-41234285D01*
X58550057Y-41234285D02*
X58645295Y-41186666D01*
X58645295Y-41186666D02*
X58740533Y-41186666D01*
X58740533Y-41186666D02*
X58883390Y-41234285D01*
X58883390Y-41234285D02*
X59454819Y-41805713D01*
X59454819Y-41805713D02*
X59454819Y-41186666D01*
X256138095Y-40774819D02*
X256138095Y-39774819D01*
X256138095Y-40251009D02*
X256709523Y-40251009D01*
X256709523Y-40774819D02*
X256709523Y-39774819D01*
X257138095Y-39870057D02*
X257185714Y-39822438D01*
X257185714Y-39822438D02*
X257280952Y-39774819D01*
X257280952Y-39774819D02*
X257519047Y-39774819D01*
X257519047Y-39774819D02*
X257614285Y-39822438D01*
X257614285Y-39822438D02*
X257661904Y-39870057D01*
X257661904Y-39870057D02*
X257709523Y-39965295D01*
X257709523Y-39965295D02*
X257709523Y-40060533D01*
X257709523Y-40060533D02*
X257661904Y-40203390D01*
X257661904Y-40203390D02*
X257090476Y-40774819D01*
X257090476Y-40774819D02*
X257709523Y-40774819D01*
X190253333Y-134404819D02*
X189920000Y-133928628D01*
X189681905Y-134404819D02*
X189681905Y-133404819D01*
X189681905Y-133404819D02*
X190062857Y-133404819D01*
X190062857Y-133404819D02*
X190158095Y-133452438D01*
X190158095Y-133452438D02*
X190205714Y-133500057D01*
X190205714Y-133500057D02*
X190253333Y-133595295D01*
X190253333Y-133595295D02*
X190253333Y-133738152D01*
X190253333Y-133738152D02*
X190205714Y-133833390D01*
X190205714Y-133833390D02*
X190158095Y-133881009D01*
X190158095Y-133881009D02*
X190062857Y-133928628D01*
X190062857Y-133928628D02*
X189681905Y-133928628D01*
X190586667Y-133404819D02*
X191253333Y-133404819D01*
X191253333Y-133404819D02*
X190824762Y-134404819D01*
X65307200Y-43853332D02*
X65354819Y-43710475D01*
X65354819Y-43710475D02*
X65354819Y-43472380D01*
X65354819Y-43472380D02*
X65307200Y-43377142D01*
X65307200Y-43377142D02*
X65259580Y-43329523D01*
X65259580Y-43329523D02*
X65164342Y-43281904D01*
X65164342Y-43281904D02*
X65069104Y-43281904D01*
X65069104Y-43281904D02*
X64973866Y-43329523D01*
X64973866Y-43329523D02*
X64926247Y-43377142D01*
X64926247Y-43377142D02*
X64878628Y-43472380D01*
X64878628Y-43472380D02*
X64831009Y-43662856D01*
X64831009Y-43662856D02*
X64783390Y-43758094D01*
X64783390Y-43758094D02*
X64735771Y-43805713D01*
X64735771Y-43805713D02*
X64640533Y-43853332D01*
X64640533Y-43853332D02*
X64545295Y-43853332D01*
X64545295Y-43853332D02*
X64450057Y-43805713D01*
X64450057Y-43805713D02*
X64402438Y-43758094D01*
X64402438Y-43758094D02*
X64354819Y-43662856D01*
X64354819Y-43662856D02*
X64354819Y-43424761D01*
X64354819Y-43424761D02*
X64402438Y-43281904D01*
X64354819Y-42948570D02*
X65354819Y-42710475D01*
X65354819Y-42710475D02*
X64640533Y-42519999D01*
X64640533Y-42519999D02*
X65354819Y-42329523D01*
X65354819Y-42329523D02*
X64354819Y-42091428D01*
X64354819Y-41805713D02*
X64354819Y-41186666D01*
X64354819Y-41186666D02*
X64735771Y-41519999D01*
X64735771Y-41519999D02*
X64735771Y-41377142D01*
X64735771Y-41377142D02*
X64783390Y-41281904D01*
X64783390Y-41281904D02*
X64831009Y-41234285D01*
X64831009Y-41234285D02*
X64926247Y-41186666D01*
X64926247Y-41186666D02*
X65164342Y-41186666D01*
X65164342Y-41186666D02*
X65259580Y-41234285D01*
X65259580Y-41234285D02*
X65307200Y-41281904D01*
X65307200Y-41281904D02*
X65354819Y-41377142D01*
X65354819Y-41377142D02*
X65354819Y-41662856D01*
X65354819Y-41662856D02*
X65307200Y-41758094D01*
X65307200Y-41758094D02*
X65259580Y-41805713D01*
X209333333Y-116404819D02*
X209000000Y-115928628D01*
X208761905Y-116404819D02*
X208761905Y-115404819D01*
X208761905Y-115404819D02*
X209142857Y-115404819D01*
X209142857Y-115404819D02*
X209238095Y-115452438D01*
X209238095Y-115452438D02*
X209285714Y-115500057D01*
X209285714Y-115500057D02*
X209333333Y-115595295D01*
X209333333Y-115595295D02*
X209333333Y-115738152D01*
X209333333Y-115738152D02*
X209285714Y-115833390D01*
X209285714Y-115833390D02*
X209238095Y-115881009D01*
X209238095Y-115881009D02*
X209142857Y-115928628D01*
X209142857Y-115928628D02*
X208761905Y-115928628D01*
X210238095Y-115404819D02*
X209761905Y-115404819D01*
X209761905Y-115404819D02*
X209714286Y-115881009D01*
X209714286Y-115881009D02*
X209761905Y-115833390D01*
X209761905Y-115833390D02*
X209857143Y-115785771D01*
X209857143Y-115785771D02*
X210095238Y-115785771D01*
X210095238Y-115785771D02*
X210190476Y-115833390D01*
X210190476Y-115833390D02*
X210238095Y-115881009D01*
X210238095Y-115881009D02*
X210285714Y-115976247D01*
X210285714Y-115976247D02*
X210285714Y-116214342D01*
X210285714Y-116214342D02*
X210238095Y-116309580D01*
X210238095Y-116309580D02*
X210190476Y-116357200D01*
X210190476Y-116357200D02*
X210095238Y-116404819D01*
X210095238Y-116404819D02*
X209857143Y-116404819D01*
X209857143Y-116404819D02*
X209761905Y-116357200D01*
X209761905Y-116357200D02*
X209714286Y-116309580D01*
X231433333Y-78409580D02*
X231385714Y-78457200D01*
X231385714Y-78457200D02*
X231242857Y-78504819D01*
X231242857Y-78504819D02*
X231147619Y-78504819D01*
X231147619Y-78504819D02*
X231004762Y-78457200D01*
X231004762Y-78457200D02*
X230909524Y-78361961D01*
X230909524Y-78361961D02*
X230861905Y-78266723D01*
X230861905Y-78266723D02*
X230814286Y-78076247D01*
X230814286Y-78076247D02*
X230814286Y-77933390D01*
X230814286Y-77933390D02*
X230861905Y-77742914D01*
X230861905Y-77742914D02*
X230909524Y-77647676D01*
X230909524Y-77647676D02*
X231004762Y-77552438D01*
X231004762Y-77552438D02*
X231147619Y-77504819D01*
X231147619Y-77504819D02*
X231242857Y-77504819D01*
X231242857Y-77504819D02*
X231385714Y-77552438D01*
X231385714Y-77552438D02*
X231433333Y-77600057D01*
X231766667Y-77504819D02*
X232385714Y-77504819D01*
X232385714Y-77504819D02*
X232052381Y-77885771D01*
X232052381Y-77885771D02*
X232195238Y-77885771D01*
X232195238Y-77885771D02*
X232290476Y-77933390D01*
X232290476Y-77933390D02*
X232338095Y-77981009D01*
X232338095Y-77981009D02*
X232385714Y-78076247D01*
X232385714Y-78076247D02*
X232385714Y-78314342D01*
X232385714Y-78314342D02*
X232338095Y-78409580D01*
X232338095Y-78409580D02*
X232290476Y-78457200D01*
X232290476Y-78457200D02*
X232195238Y-78504819D01*
X232195238Y-78504819D02*
X231909524Y-78504819D01*
X231909524Y-78504819D02*
X231814286Y-78457200D01*
X231814286Y-78457200D02*
X231766667Y-78409580D01*
X136219048Y-106593866D02*
X136980953Y-106593866D01*
X129819048Y-106593866D02*
X130580953Y-106593866D01*
X130200000Y-106974819D02*
X130200000Y-106212914D01*
X75233333Y-66949580D02*
X75185714Y-66997200D01*
X75185714Y-66997200D02*
X75042857Y-67044819D01*
X75042857Y-67044819D02*
X74947619Y-67044819D01*
X74947619Y-67044819D02*
X74804762Y-66997200D01*
X74804762Y-66997200D02*
X74709524Y-66901961D01*
X74709524Y-66901961D02*
X74661905Y-66806723D01*
X74661905Y-66806723D02*
X74614286Y-66616247D01*
X74614286Y-66616247D02*
X74614286Y-66473390D01*
X74614286Y-66473390D02*
X74661905Y-66282914D01*
X74661905Y-66282914D02*
X74709524Y-66187676D01*
X74709524Y-66187676D02*
X74804762Y-66092438D01*
X74804762Y-66092438D02*
X74947619Y-66044819D01*
X74947619Y-66044819D02*
X75042857Y-66044819D01*
X75042857Y-66044819D02*
X75185714Y-66092438D01*
X75185714Y-66092438D02*
X75233333Y-66140057D01*
X75614286Y-66140057D02*
X75661905Y-66092438D01*
X75661905Y-66092438D02*
X75757143Y-66044819D01*
X75757143Y-66044819D02*
X75995238Y-66044819D01*
X75995238Y-66044819D02*
X76090476Y-66092438D01*
X76090476Y-66092438D02*
X76138095Y-66140057D01*
X76138095Y-66140057D02*
X76185714Y-66235295D01*
X76185714Y-66235295D02*
X76185714Y-66330533D01*
X76185714Y-66330533D02*
X76138095Y-66473390D01*
X76138095Y-66473390D02*
X75566667Y-67044819D01*
X75566667Y-67044819D02*
X76185714Y-67044819D01*
X212219048Y-106593866D02*
X212980953Y-106593866D01*
X205819048Y-106593866D02*
X206580953Y-106593866D01*
X206200000Y-106974819D02*
X206200000Y-106212914D01*
X98219048Y-106593866D02*
X98980953Y-106593866D01*
X91819048Y-106593866D02*
X92580953Y-106593866D01*
X92200000Y-106974819D02*
X92200000Y-106212914D01*
D12*
X45150000Y-62070000D02*
X45150000Y-54770000D01*
X50650000Y-62070000D02*
X50650000Y-54770000D01*
X50650000Y-54770000D02*
X49500000Y-54770000D01*
X45150000Y-87470000D02*
X45150000Y-80170000D01*
X50650000Y-87470000D02*
X50650000Y-80170000D01*
X50650000Y-80170000D02*
X49500000Y-80170000D01*
X45150000Y-112870000D02*
X45150000Y-105570000D01*
X50650000Y-112870000D02*
X50650000Y-105570000D01*
X50650000Y-105570000D02*
X49500000Y-105570000D01*
X45150000Y-138270000D02*
X45150000Y-130970000D01*
X50650000Y-138270000D02*
X50650000Y-130970000D01*
X50650000Y-130970000D02*
X49500000Y-130970000D01*
X156050000Y-155270000D02*
X148750000Y-155270000D01*
X156050000Y-149770000D02*
X148750000Y-149770000D01*
X148750000Y-149770000D02*
X148750000Y-150920000D01*
X259650000Y-130970000D02*
X259650000Y-138270000D01*
X254150000Y-130970000D02*
X254150000Y-138270000D01*
X254150000Y-138270000D02*
X255300000Y-138270000D01*
X259650000Y-105570000D02*
X259650000Y-112870000D01*
X254150000Y-105570000D02*
X254150000Y-112870000D01*
X254150000Y-112870000D02*
X255300000Y-112870000D01*
X259650000Y-80170000D02*
X259650000Y-87470000D01*
X254150000Y-80170000D02*
X254150000Y-87470000D01*
X254150000Y-87470000D02*
X255300000Y-87470000D01*
X259650000Y-54770000D02*
X259650000Y-62070000D01*
X254150000Y-54770000D02*
X254150000Y-62070000D01*
X254150000Y-62070000D02*
X255300000Y-62070000D01*
X148750000Y-37770000D02*
X156050000Y-37770000D01*
X148750000Y-43270000D02*
X156050000Y-43270000D01*
X156050000Y-43270000D02*
X156050000Y-42120000D01*
D13*
X53900000Y-50520000D02*
X69900000Y-50520000D01*
X53900000Y-56320000D02*
X53900000Y-50520000D01*
X53900000Y-61320000D02*
X53900000Y-68120000D01*
X53900000Y-68120000D02*
X56100000Y-68120000D01*
X69900000Y-50520000D02*
X69900000Y-56320000D01*
X69900000Y-61320000D02*
X69900000Y-68120000D01*
X69900000Y-68120000D02*
X67700000Y-68120000D01*
D12*
X94962742Y-112497500D02*
X95437258Y-112497500D01*
X94962742Y-113542500D02*
X95437258Y-113542500D01*
X152982258Y-66242500D02*
X152507742Y-66242500D01*
X152982258Y-65197500D02*
X152507742Y-65197500D01*
X171957258Y-114342500D02*
X171482742Y-114342500D01*
X171957258Y-113297500D02*
X171482742Y-113297500D01*
X188000000Y-148120000D02*
X188000000Y-151120000D01*
X188000000Y-151120000D02*
X192800000Y-151120000D01*
X192800000Y-148120000D02*
X188000000Y-148120000D01*
X192800000Y-151120000D02*
X192800000Y-148120000D01*
D13*
X234900000Y-50520000D02*
X250900000Y-50520000D01*
X234900000Y-56320000D02*
X234900000Y-50520000D01*
X234900000Y-61320000D02*
X234900000Y-68120000D01*
X234900000Y-68120000D02*
X237100000Y-68120000D01*
X250900000Y-50520000D02*
X250900000Y-56320000D01*
X250900000Y-61320000D02*
X250900000Y-68120000D01*
X250900000Y-68120000D02*
X248700000Y-68120000D01*
D12*
X53300000Y-46720000D02*
X53300000Y-45720000D01*
X54300000Y-46720000D02*
X53300000Y-46720000D01*
X53650000Y-44770000D02*
X53650000Y-40270000D01*
X58150000Y-44770000D02*
X53650000Y-44770000D01*
X53650000Y-40270000D02*
X58150000Y-40270000D01*
X58150000Y-40270000D02*
X58150000Y-44770000D01*
D14*
X57000000Y-42520000D02*
G75*
G03*
X57000000Y-42520000I-1100000J0D01*
G01*
D12*
X231815580Y-79630000D02*
X231534420Y-79630000D01*
X231815580Y-78610000D02*
X231534420Y-78610000D01*
X169000000Y-105120000D02*
X169000000Y-108120000D01*
X169000000Y-108120000D02*
X173800000Y-108120000D01*
X173800000Y-105120000D02*
X169000000Y-105120000D01*
X173800000Y-108120000D02*
X173800000Y-105120000D01*
X112000000Y-148120000D02*
X112000000Y-151120000D01*
X112000000Y-151120000D02*
X116800000Y-151120000D01*
X116800000Y-148120000D02*
X112000000Y-148120000D01*
X116800000Y-151120000D02*
X116800000Y-148120000D01*
X75540580Y-71330000D02*
X75259420Y-71330000D01*
X75540580Y-70310000D02*
X75259420Y-70310000D01*
X114882258Y-132542500D02*
X114407742Y-132542500D01*
X114882258Y-131497500D02*
X114407742Y-131497500D01*
X133757258Y-114142500D02*
X133282742Y-114142500D01*
X133757258Y-113097500D02*
X133282742Y-113097500D01*
X92400000Y-37075000D02*
X92400000Y-37375000D01*
X92400000Y-37075000D02*
X113400000Y-37075000D01*
X92400000Y-39475000D02*
X92400000Y-39875000D01*
X92400000Y-39742000D02*
X95407000Y-39742000D01*
X92400000Y-42075000D02*
X92400000Y-42475000D01*
X92400000Y-44575000D02*
X92400000Y-44975000D01*
X92400000Y-47175000D02*
X92400000Y-47575000D01*
X92400000Y-49675000D02*
X92400000Y-50075000D01*
X92400000Y-52175000D02*
X92400000Y-52575000D01*
X92400000Y-54775000D02*
X92400000Y-55175000D01*
X92400000Y-57275000D02*
X92400000Y-57675000D01*
X92400000Y-59875000D02*
X92400000Y-60275000D01*
X92400000Y-62375000D02*
X92400000Y-62775000D01*
X92400000Y-64875000D02*
X92400000Y-65275000D01*
X92400000Y-67475000D02*
X92400000Y-67875000D01*
X92400000Y-69975000D02*
X92400000Y-70375000D01*
X92400000Y-72575000D02*
X92400000Y-72975000D01*
X92400000Y-75075000D02*
X92400000Y-75475000D01*
X92400000Y-77675000D02*
X92400000Y-78075000D01*
X92400000Y-80175000D02*
X92400000Y-80575000D01*
X92400000Y-82675000D02*
X92400000Y-83075000D01*
X92400000Y-85275000D02*
X92400000Y-85675000D01*
X95407000Y-39742000D02*
X95407000Y-37075000D01*
X99200000Y-88075000D02*
X92400000Y-88075000D01*
X101400000Y-88075000D02*
X101800000Y-88075000D01*
X104000000Y-88075000D02*
X104400000Y-88075000D01*
X113400000Y-37075000D02*
X113400000Y-37375000D01*
X113400000Y-39475000D02*
X113400000Y-39875000D01*
X113400000Y-42075000D02*
X113400000Y-42475000D01*
X113400000Y-44575000D02*
X113400000Y-44975000D01*
X113400000Y-47175000D02*
X113400000Y-47575000D01*
X113400000Y-49675000D02*
X113400000Y-50075000D01*
X113400000Y-52175000D02*
X113400000Y-52575000D01*
X113400000Y-54775000D02*
X113400000Y-55175000D01*
X113400000Y-57275000D02*
X113400000Y-57675000D01*
X113400000Y-59875000D02*
X113400000Y-60275000D01*
X113400000Y-62375000D02*
X113400000Y-62775000D01*
X113400000Y-64875000D02*
X113400000Y-65275000D01*
X113400000Y-67475000D02*
X113400000Y-67875000D01*
X113400000Y-69975000D02*
X113400000Y-70375000D01*
X113400000Y-72575000D02*
X113400000Y-72975000D01*
X113400000Y-75075000D02*
X113400000Y-75475000D01*
X113400000Y-77675000D02*
X113400000Y-78075000D01*
X113400000Y-80175000D02*
X113400000Y-80575000D01*
X113400000Y-82675000D02*
X113400000Y-83075000D01*
X113400000Y-85275000D02*
X113400000Y-85675000D01*
X113400000Y-88075000D02*
X106600000Y-88075000D01*
X150000000Y-57120000D02*
X150000000Y-60120000D01*
X150000000Y-60120000D02*
X154800000Y-60120000D01*
X154800000Y-57120000D02*
X150000000Y-57120000D01*
X154800000Y-60120000D02*
X154800000Y-57120000D01*
X59270000Y-46720000D02*
X59270000Y-45720000D01*
X60270000Y-46720000D02*
X59270000Y-46720000D01*
X59620000Y-44770000D02*
X59620000Y-40270000D01*
X64120000Y-44770000D02*
X59620000Y-44770000D01*
X59620000Y-40270000D02*
X64120000Y-40270000D01*
X64120000Y-40270000D02*
X64120000Y-44770000D01*
D14*
X62970000Y-42520000D02*
G75*
G03*
X62970000Y-42520000I-1100000J0D01*
G01*
D12*
X190657258Y-133042500D02*
X190182742Y-133042500D01*
X190657258Y-131997500D02*
X190182742Y-131997500D01*
X65240000Y-46720000D02*
X65240000Y-45720000D01*
X66240000Y-46720000D02*
X65240000Y-46720000D01*
X65590000Y-44770000D02*
X65590000Y-40270000D01*
X70090000Y-44770000D02*
X65590000Y-44770000D01*
X65590000Y-40270000D02*
X70090000Y-40270000D01*
X70090000Y-40270000D02*
X70090000Y-44770000D01*
D14*
X68940000Y-42520000D02*
G75*
G03*
X68940000Y-42520000I-1100000J0D01*
G01*
D12*
X209737258Y-115042500D02*
X209262742Y-115042500D01*
X209737258Y-113997500D02*
X209262742Y-113997500D01*
X231740580Y-77130000D02*
X231459420Y-77130000D01*
X231740580Y-76110000D02*
X231459420Y-76110000D01*
X131000000Y-105120000D02*
X131000000Y-108120000D01*
X131000000Y-108120000D02*
X135800000Y-108120000D01*
X135800000Y-105120000D02*
X131000000Y-105120000D01*
X135800000Y-108120000D02*
X135800000Y-105120000D01*
X75259420Y-67510000D02*
X75540580Y-67510000D01*
X75259420Y-68530000D02*
X75540580Y-68530000D01*
X207000000Y-105120000D02*
X207000000Y-108120000D01*
X207000000Y-108120000D02*
X211800000Y-108120000D01*
X211800000Y-105120000D02*
X207000000Y-105120000D01*
X211800000Y-108120000D02*
X211800000Y-105120000D01*
X93000000Y-105120000D02*
X93000000Y-108120000D01*
X93000000Y-108120000D02*
X97800000Y-108120000D01*
X97800000Y-105120000D02*
X93000000Y-105120000D01*
X97800000Y-108120000D02*
X97800000Y-105120000D01*
%LPC*%
D15*
X46250000Y-60870000D03*
X49550000Y-60870000D03*
X49550000Y-55970000D03*
X46250000Y-55970000D03*
X46250000Y-86270000D03*
X49550000Y-86270000D03*
X49550000Y-81370000D03*
X46250000Y-81370000D03*
X46250000Y-111670000D03*
X49550000Y-111670000D03*
X49550000Y-106770000D03*
X46250000Y-106770000D03*
X46250000Y-137070000D03*
X49550000Y-137070000D03*
X49550000Y-132170000D03*
X46250000Y-132170000D03*
D16*
X154850000Y-154170000D03*
X154850000Y-150870000D03*
X149950000Y-150870000D03*
X149950000Y-154170000D03*
D15*
X258550000Y-132170000D03*
X255250000Y-132170000D03*
X255250000Y-137070000D03*
X258550000Y-137070000D03*
X258550000Y-106770000D03*
X255250000Y-106770000D03*
X255250000Y-111670000D03*
X258550000Y-111670000D03*
X258550000Y-81370000D03*
X255250000Y-81370000D03*
X255250000Y-86270000D03*
X258550000Y-86270000D03*
X258550000Y-55970000D03*
X255250000Y-55970000D03*
X255250000Y-60870000D03*
X258550000Y-60870000D03*
D16*
X149950000Y-38870000D03*
X149950000Y-42170000D03*
X154850000Y-42170000D03*
X154850000Y-38870000D03*
D17*
X47900000Y-44520000D03*
D18*
X56900000Y-69320000D03*
X61900000Y-69320000D03*
X66900000Y-69320000D03*
D19*
X54950000Y-58820000D03*
X68850000Y-58820000D03*
D20*
X94375000Y-113020000D03*
X96025000Y-113020000D03*
D21*
X153570000Y-65720000D03*
X151920000Y-65720000D03*
X172545000Y-113820000D03*
X170895000Y-113820000D03*
D22*
X185320000Y-144520000D03*
D23*
X186590000Y-141980000D03*
D24*
X190400000Y-144520000D03*
D23*
X192940000Y-139440000D03*
D22*
X195480000Y-144520000D03*
D25*
X188900000Y-149600000D03*
X191900000Y-149600000D03*
D18*
X237900000Y-69320000D03*
X242900000Y-69320000D03*
X247900000Y-69320000D03*
D19*
X235950000Y-58820000D03*
X249850000Y-58820000D03*
D26*
X54400000Y-45445000D03*
X54400000Y-39595000D03*
X57400000Y-45445000D03*
X57400000Y-39595000D03*
D27*
X232450000Y-79120000D03*
X230900000Y-79120000D03*
D22*
X166320000Y-101520000D03*
D23*
X167590000Y-98980000D03*
D24*
X171400000Y-101520000D03*
D23*
X173940000Y-96440000D03*
D22*
X176480000Y-101520000D03*
D25*
X169900000Y-106600000D03*
X172900000Y-106600000D03*
D22*
X109320000Y-144520000D03*
D23*
X110590000Y-141980000D03*
D24*
X114400000Y-144520000D03*
D23*
X116940000Y-139440000D03*
D22*
X119480000Y-144520000D03*
D25*
X112900000Y-149600000D03*
X115900000Y-149600000D03*
D27*
X76175000Y-70820000D03*
X74625000Y-70820000D03*
D21*
X115470000Y-132020000D03*
X113820000Y-132020000D03*
X134345000Y-113620000D03*
X132695000Y-113620000D03*
D17*
X47900000Y-148520000D03*
D28*
X100175000Y-38575000D03*
D29*
X100475000Y-41605000D03*
X105325000Y-41605000D03*
D28*
X105625000Y-38575000D03*
D30*
X94010000Y-38445000D03*
D31*
X93110000Y-38445000D03*
D30*
X94010000Y-40985000D03*
D31*
X93110000Y-40985000D03*
D32*
X94010000Y-43525000D03*
D31*
X93110000Y-43525000D03*
D30*
X94010000Y-46065000D03*
D31*
X93110000Y-46065000D03*
D30*
X94010000Y-48605000D03*
D31*
X93110000Y-48605000D03*
D30*
X94010000Y-51145000D03*
D31*
X93110000Y-51145000D03*
D30*
X94010000Y-53685000D03*
D31*
X93110000Y-53685000D03*
D32*
X94010000Y-56225000D03*
D31*
X93110000Y-56225000D03*
D30*
X94010000Y-58765000D03*
D31*
X93110000Y-58765000D03*
D30*
X94010000Y-61305000D03*
D31*
X93110000Y-61305000D03*
D30*
X94010000Y-63845000D03*
D31*
X93110000Y-63845000D03*
D30*
X94010000Y-66385000D03*
D31*
X93110000Y-66385000D03*
D32*
X94010000Y-68925000D03*
D31*
X93110000Y-68925000D03*
D30*
X94010000Y-71465000D03*
D31*
X93110000Y-71465000D03*
D30*
X94010000Y-74005000D03*
D31*
X93110000Y-74005000D03*
D30*
X94010000Y-76545000D03*
D31*
X93110000Y-76545000D03*
D30*
X94010000Y-79085000D03*
D31*
X93110000Y-79085000D03*
D32*
X94010000Y-81625000D03*
D31*
X93110000Y-81625000D03*
D30*
X94010000Y-84165000D03*
D31*
X93110000Y-84165000D03*
D30*
X94010000Y-86705000D03*
D31*
X93110000Y-86705000D03*
D30*
X111790000Y-86705000D03*
D31*
X112690000Y-86705000D03*
D30*
X111790000Y-84165000D03*
D31*
X112690000Y-84165000D03*
D32*
X111790000Y-81625000D03*
D31*
X112690000Y-81625000D03*
D30*
X111790000Y-79085000D03*
D31*
X112690000Y-79085000D03*
D30*
X111790000Y-76545000D03*
D31*
X112690000Y-76545000D03*
D30*
X111790000Y-74005000D03*
D31*
X112690000Y-74005000D03*
D30*
X111790000Y-71465000D03*
D31*
X112690000Y-71465000D03*
D32*
X111790000Y-68925000D03*
D31*
X112690000Y-68925000D03*
D30*
X111790000Y-66385000D03*
D31*
X112690000Y-66385000D03*
D30*
X111790000Y-63845000D03*
D31*
X112690000Y-63845000D03*
D30*
X111790000Y-61305000D03*
D31*
X112690000Y-61305000D03*
D30*
X111790000Y-58765000D03*
D31*
X112690000Y-58765000D03*
D32*
X111790000Y-56225000D03*
D31*
X112690000Y-56225000D03*
D30*
X111790000Y-53685000D03*
D31*
X112690000Y-53685000D03*
D30*
X111790000Y-51145000D03*
D31*
X112690000Y-51145000D03*
D30*
X111790000Y-48605000D03*
D31*
X112690000Y-48605000D03*
D30*
X111790000Y-46065000D03*
D31*
X112690000Y-46065000D03*
D32*
X111790000Y-43525000D03*
D31*
X112690000Y-43525000D03*
D30*
X111790000Y-40985000D03*
D31*
X112690000Y-40985000D03*
D30*
X111790000Y-38445000D03*
D31*
X112690000Y-38445000D03*
D30*
X100360000Y-86475000D03*
D33*
X100360000Y-87375000D03*
D32*
X102900000Y-86475000D03*
D33*
X102900000Y-87375000D03*
D30*
X105440000Y-86475000D03*
D33*
X105440000Y-87375000D03*
D22*
X147320000Y-53520000D03*
D23*
X148590000Y-50980000D03*
D24*
X152400000Y-53520000D03*
D23*
X154940000Y-48440000D03*
D22*
X157480000Y-53520000D03*
D25*
X150900000Y-58600000D03*
X153900000Y-58600000D03*
D17*
X256900000Y-148520000D03*
D26*
X60370000Y-45445000D03*
X60370000Y-39595000D03*
X63370000Y-45445000D03*
X63370000Y-39595000D03*
D17*
X256900000Y-44520000D03*
D21*
X191245000Y-132520000D03*
X189595000Y-132520000D03*
D26*
X66340000Y-45445000D03*
X66340000Y-39595000D03*
X69340000Y-45445000D03*
X69340000Y-39595000D03*
D21*
X210325000Y-114520000D03*
X208675000Y-114520000D03*
D27*
X232375000Y-76620000D03*
X230825000Y-76620000D03*
D22*
X128320000Y-101520000D03*
D23*
X129590000Y-98980000D03*
D24*
X133400000Y-101520000D03*
D23*
X135940000Y-96440000D03*
D22*
X138480000Y-101520000D03*
D25*
X131900000Y-106600000D03*
X134900000Y-106600000D03*
D34*
X74625000Y-68020000D03*
X76175000Y-68020000D03*
D22*
X204320000Y-101520000D03*
D23*
X205590000Y-98980000D03*
D24*
X209400000Y-101520000D03*
D23*
X211940000Y-96440000D03*
D22*
X214480000Y-101520000D03*
D25*
X207900000Y-106600000D03*
X210900000Y-106600000D03*
D22*
X90320000Y-101520000D03*
D23*
X91590000Y-98980000D03*
D24*
X95400000Y-101520000D03*
D23*
X97940000Y-96440000D03*
D22*
X100480000Y-101520000D03*
D25*
X93900000Y-106600000D03*
X96900000Y-106600000D03*
%LPD*%
M02*
