M48
; DRILL file {KiCad 7.0.8} date Sat 04 Nov 2023 04:32:07 AM PDT
; FORMAT={-:-/ absolute / metric / decimal}
; #@! TF.CreationDate,2023-11-04T04:32:07-07:00
; #@! TF.GenerationSoftware,Kicad,Pcbnew,7.0.8
; #@! TF.FileFunction,NonPlated,1,2,NPTH
FMAT,2
METRIC
; #@! TA.AperFunction,NonPlated,NPTH,ComponentDrill
T1C1.500
; #@! TA.AperFunction,NonPlated,NPTH,ComponentDrill
T2C1.750
; #@! TA.AperFunction,NonPlated,NPTH,ComponentDrill
T3C1.800
; #@! TA.AperFunction,NonPlated,NPTH,ComponentDrill
T4C3.000
; #@! TA.AperFunction,NonPlated,NPTH,ComponentDrill
T5C3.200
; #@! TA.AperFunction,NonPlated,NPTH,ComponentDrill
T6C3.988
%
G90
G05
T1
X100.475Y-41.605
X105.325Y-41.605
T2
X90.32Y-101.52
X100.48Y-101.52
X109.32Y-144.52
X119.48Y-144.52
X128.32Y-101.52
X138.48Y-101.52
X147.32Y-53.52
X157.48Y-53.52
X166.32Y-101.52
X176.48Y-101.52
X185.32Y-144.52
X195.48Y-144.52
X204.32Y-101.52
X214.48Y-101.52
T3
X100.175Y-38.575
X105.625Y-38.575
T4
X91.59Y-98.98
X97.94Y-96.44
X110.59Y-141.98
X116.94Y-139.44
X129.59Y-98.98
X135.94Y-96.44
X148.59Y-50.98
X154.94Y-48.44
X167.59Y-98.98
X173.94Y-96.44
X186.59Y-141.98
X192.94Y-139.44
X205.59Y-98.98
X211.94Y-96.44
T5
X47.9Y-44.52
X47.9Y-148.52
X256.9Y-44.52
X256.9Y-148.52
T6
X95.4Y-101.52
X114.4Y-144.52
X133.4Y-101.52
X152.4Y-53.52
X171.4Y-101.52
X190.4Y-144.52
X209.4Y-101.52
T0
M30
